<svg viewBox="0 0 25 25" xmlns="http://www.w3.org/2000/svg">
<path d="M5.54053 15.1078L4.67031 18.3564L1.4897 18.4237C0.53916 16.6607 0 14.6435 0 12.5C0 10.4272 0.504102 8.47249 1.39766 6.75134H1.39834L4.22998 7.27048L5.47041 10.0851C5.21079 10.842 5.06929 11.6545 5.06929 12.5C5.06939 13.4176 5.2356 14.2967 5.54053 15.1078Z" fill="#FBBB00"/>
<path d="M24.7817 10.1648C24.9252 10.9209 25.0001 11.7019 25.0001 12.5C25.0001 13.3949 24.906 14.2678 24.7268 15.1099C24.1183 17.9752 22.5283 20.4773 20.3257 22.2479L20.325 22.2472L16.7584 22.0652L16.2536 18.9141C17.7151 18.057 18.8573 16.7156 19.459 15.1099H12.7749V10.1648H19.5565H24.7817Z" fill="#518EF8"/>
<path d="M20.3249 22.2472L20.3256 22.2479C18.1834 23.9697 15.4623 24.9999 12.5001 24.9999C7.73975 24.9999 3.60103 22.3392 1.48975 18.4237L5.54058 15.1078C6.59619 17.9251 9.31392 19.9306 12.5001 19.9306C13.8695 19.9306 15.1525 19.5604 16.2535 18.9141L20.3249 22.2472Z" fill="#28B446"/>
<path d="M20.4785 2.87773L16.4291 6.19297C15.2896 5.48076 13.9428 5.06934 12.4998 5.06934C9.24155 5.06934 6.473 7.16685 5.47026 10.0852L1.39814 6.75137H1.39746C3.47783 2.74038 7.66875 0 12.4998 0C15.5328 0 18.3137 1.08037 20.4785 2.87773Z" fill="#F14336"/>
</svg>
