<svg width="705" height="571" viewBox="0 0 705 571" fill="none" xmlns="http://www.w3.org/2000/svg">
<g filter="url(#filter0_d_56_162)">
<rect x="61.5593" y="152.97" width="550.989" height="323.948" transform="rotate(-5.99277 61.5593 152.97)" fill="url(#paint0_linear_56_162)"/>
</g>
<line x1="477.347" y1="109.656" x2="510.415" y2="431.638" stroke="#06101E" stroke-width="4.61464" stroke-dasharray="3.69 3.69"/>
<path d="M149.55 413.663C151.343 415.164 153.38 415.795 155.661 415.555C157.942 415.316 159.79 414.277 161.206 412.439C162.622 410.601 163.209 408.528 162.966 406.221C162.724 403.914 161.72 402.008 159.953 400.505C158.186 399.001 156.162 398.369 153.882 398.608C151.601 398.848 149.739 399.888 148.297 401.729C146.881 403.567 146.294 405.639 146.537 407.947C146.779 410.254 147.784 412.159 149.55 413.663ZM166.157 416.303C163.62 419.465 160.336 421.258 156.305 421.681C152.273 422.105 148.677 421.048 145.514 418.511C142.376 415.945 140.595 412.646 140.172 408.615C139.748 404.584 140.807 401 143.346 397.865C145.91 394.7 149.207 392.905 153.238 392.482C157.269 392.059 160.854 393.13 163.993 395.696C167.158 398.26 168.951 401.544 169.371 405.549C169.792 409.553 168.72 413.138 166.157 416.303ZM200.758 416.53L195.308 417.103L179.71 401.084L181.544 418.548L175.219 419.213L172.252 390.968L177.702 390.395L193.261 406.418L191.427 388.954L197.792 388.286L200.758 416.53ZM206.725 415.904L203.759 387.659L221.66 385.779L222.295 391.826L210.719 393.042L211.25 398.094L220.439 397.129L221.074 403.176L211.885 404.141L212.415 409.193L223.992 407.977L224.627 414.024L206.725 415.904ZM242.313 412.166L239.982 389.968L232.782 390.725L232.147 384.678L252.992 382.489L253.627 388.536L246.347 389.3L248.678 411.498L242.313 412.166ZM259.831 410.327L256.865 382.082L263.191 381.418L266.157 409.662L259.831 410.327ZM285.166 408.149C281.135 408.572 277.538 407.515 274.376 404.978C271.238 402.412 269.457 399.113 269.033 395.082C268.61 391.051 269.668 387.468 272.208 384.332C274.771 381.167 278.069 379.373 282.1 378.949C284.991 378.646 287.677 379.074 290.158 380.235C292.64 381.395 294.626 383.077 296.118 385.28L290.866 388.888C288.845 385.99 286.138 384.719 282.743 385.076C280.462 385.315 278.601 386.355 277.159 388.196C275.743 390.034 275.156 392.106 275.398 394.414C275.641 396.721 276.645 398.627 278.412 400.13C280.205 401.631 282.242 402.262 284.523 402.022C287.918 401.666 290.302 399.86 291.676 396.606L297.563 399.044C296.562 401.509 294.968 403.567 292.782 405.217C290.596 406.868 288.057 407.845 285.166 408.149ZM319.804 404.029L306.978 392.586L308.307 405.236L302.021 405.896L299.055 377.651L305.341 376.991L306.581 388.806L314.928 375.984L322.685 375.17L312.971 389.905L327.919 403.176L319.804 404.029ZM329.876 402.971L326.91 374.726L344.811 372.846L345.446 378.893L333.87 380.109L334.401 385.161L343.59 384.196L344.225 390.243L335.036 391.208L335.566 396.26L347.143 395.044L347.778 401.091L329.876 402.971ZM357.695 400.049L355.363 377.851L348.163 378.608L347.528 372.561L368.373 370.372L369.008 376.418L361.728 377.183L364.06 399.381L357.695 400.049Z" fill="#FDFDFD"/>
<path d="M133.912 374.798L131.895 355.589L135.331 355.228L136.143 362.953L142.722 362.262L141.911 354.537L145.347 354.176L147.365 373.386L143.928 373.747L143.034 365.229L136.454 365.92L137.349 374.438L133.912 374.798ZM152.853 373.166C151.913 373.264 151.063 373.175 150.301 372.899C149.538 372.603 148.917 372.163 148.44 371.58C147.963 370.997 147.681 370.284 147.592 369.442C147.424 367.836 148.059 366.532 149.498 365.53C150.954 364.506 153.451 363.679 156.988 363.05C156.893 362.526 156.696 362.062 156.396 361.657C156.116 361.251 155.719 360.957 155.205 360.773C154.688 360.57 154.039 360.509 153.255 360.592C152.707 360.649 152.176 360.774 151.661 360.967C151.147 361.159 150.638 361.401 150.134 361.692C149.649 361.98 149.167 362.288 148.687 362.616L147.216 360.483C147.766 360.069 148.378 359.678 149.052 359.311C149.724 358.923 150.443 358.6 151.208 358.342C151.97 358.064 152.763 357.882 153.585 357.795C154.936 357.653 156.088 357.78 157.04 358.175C158.01 358.548 158.779 359.18 159.348 360.071C159.934 360.94 160.297 362.04 160.437 363.371L161.334 371.919L158.573 372.209L158.121 370.445L158.033 370.454C157.331 371.122 156.532 371.72 155.638 372.25C154.761 372.757 153.832 373.063 152.853 373.166ZM153.604 370.414C154.328 370.338 155.007 370.108 155.64 369.725C156.29 369.32 156.921 368.819 157.531 368.22L157.21 365.165C155.499 365.464 154.169 365.801 153.218 366.178C152.266 366.536 151.616 366.941 151.267 367.393C150.919 367.845 150.771 368.326 150.825 368.835C150.87 369.266 151.024 369.606 151.288 369.856C151.552 370.105 151.877 370.279 152.264 370.377C152.667 370.453 153.114 370.466 153.604 370.414ZM170.142 371.35C168.634 371.508 167.243 371.358 165.967 370.898C164.709 370.416 163.668 369.654 162.846 368.612C162.042 367.548 161.556 366.223 161.39 364.637C161.221 363.032 161.45 361.632 162.077 360.437C162.721 359.221 163.639 358.254 164.831 357.535C166.02 356.796 167.34 356.351 168.789 356.199C169.963 356.075 171.022 356.162 171.964 356.459C172.903 356.737 173.698 357.138 174.347 357.664L172.954 359.948C172.339 359.558 171.725 359.276 171.113 359.102C170.52 358.927 169.901 358.873 169.255 358.941C168.295 359.042 167.465 359.337 166.764 359.826C166.081 360.294 165.571 360.912 165.236 361.679C164.901 362.447 164.784 363.311 164.885 364.27C164.986 365.23 165.27 366.051 165.738 366.735C166.225 367.416 166.842 367.915 167.588 368.233C168.353 368.548 169.216 368.656 170.175 368.555C170.998 368.469 171.735 368.233 172.388 367.848C173.04 367.462 173.618 367.025 174.121 366.537L175.759 368.563C175.011 369.354 174.147 369.989 173.168 370.468C172.188 370.947 171.18 371.241 170.142 371.35ZM176.732 370.302L174.554 349.565L177.961 349.207L179.325 362.19L179.442 362.177L185.233 354.828L188.993 354.433L179.744 366.184L180.139 369.944L176.732 370.302ZM187.423 369.179L181.772 362.586L183.517 360.264L191.124 368.79L187.423 369.179ZM213.784 366.767C212.316 366.921 211.124 366.789 210.209 366.37C209.292 365.932 208.599 365.272 208.13 364.391C207.661 363.51 207.363 362.462 207.236 361.248L206.61 355.285L202.762 355.69L202.496 353.164L206.476 352.597L206.441 348.028L209.232 347.735L209.707 352.258L216.286 351.567L216.567 354.24L209.987 354.931L210.61 360.864C210.693 361.647 210.869 362.292 211.14 362.798C211.409 363.284 211.802 363.629 212.318 363.832C212.832 364.016 213.491 364.066 214.293 363.981C214.92 363.915 215.483 363.807 215.982 363.656C216.48 363.504 216.956 363.316 217.407 363.09L218.309 365.46C217.686 365.743 217.01 366.002 216.282 366.237C215.557 366.492 214.724 366.668 213.784 366.767ZM218.758 365.888L216.581 345.151L219.988 344.793L220.549 350.139L220.667 353.245L220.756 353.236C221.312 352.504 221.976 351.85 222.747 351.274C223.538 350.696 224.481 350.35 225.578 350.235C227.242 350.06 228.52 350.441 229.41 351.377C230.3 352.313 230.843 353.711 231.038 355.571L231.976 364.5L228.569 364.858L227.677 356.369C227.556 355.214 227.261 354.384 226.792 353.879C226.323 353.374 225.599 353.172 224.62 353.275C223.915 353.349 223.306 353.582 222.793 353.972C222.28 354.362 221.726 354.935 221.132 355.691L222.166 365.53L218.758 365.888ZM240.167 363.996C238.698 364.15 237.336 363.997 236.08 363.535C234.821 363.053 233.781 362.291 232.959 361.249C232.135 360.187 231.639 358.854 231.47 357.248C231.305 355.681 231.517 354.303 232.105 353.113C232.69 351.903 233.519 350.935 234.591 350.209C235.663 349.482 236.845 349.051 238.138 348.916C239.567 348.766 240.802 348.933 241.843 349.418C242.903 349.9 243.743 350.634 244.361 351.618C244.996 352.581 245.384 353.728 245.524 355.059C245.559 355.392 245.573 355.717 245.567 356.035C245.578 356.331 245.575 356.578 245.556 356.778L234.013 357.991L233.76 355.582L243.129 354.598L242.563 355.43C242.413 354 241.978 352.967 241.258 352.33C240.555 351.671 239.636 351.401 238.5 351.521C237.697 351.605 236.993 351.867 236.385 352.307C235.798 352.745 235.357 353.355 235.063 354.138C234.767 354.902 234.676 355.822 234.789 356.899C234.906 358.015 235.208 358.914 235.696 359.596C236.203 360.275 236.848 360.761 237.631 361.055C238.434 361.347 239.334 361.441 240.333 361.336C241.097 361.256 241.79 361.074 242.414 360.791C243.037 360.507 243.653 360.146 244.26 359.706L245.627 361.7C244.915 362.27 244.097 362.772 243.172 363.205C242.246 363.619 241.244 363.883 240.167 363.996ZM265.426 360.987L257.416 342.407L261.029 342.028L264.746 351.407C265.192 352.449 265.585 353.457 265.925 354.431C266.282 355.384 266.676 356.401 267.107 357.485L267.224 357.472C267.44 356.321 267.614 355.244 267.746 354.24C267.896 353.215 268.061 352.148 268.242 351.04L269.9 341.096L273.395 340.729L269.45 360.565L265.426 360.987ZM279.638 359.851C278.698 359.95 277.847 359.861 277.086 359.584C276.322 359.289 275.702 358.849 275.225 358.265C274.748 357.682 274.465 356.969 274.377 356.127C274.208 354.522 274.843 353.218 276.282 352.215C277.739 351.191 280.235 350.365 283.773 349.736C283.678 349.211 283.481 348.747 283.181 348.343C282.901 347.937 282.503 347.642 281.989 347.458C281.473 347.255 280.823 347.195 280.04 347.277C279.492 347.335 278.96 347.46 278.446 347.652C277.932 347.845 277.423 348.086 276.919 348.377C276.434 348.665 275.952 348.973 275.471 349.301L274 347.169C274.551 346.755 275.163 346.364 275.837 345.996C276.509 345.609 277.227 345.286 277.992 345.027C278.755 344.749 279.547 344.567 280.37 344.481C281.721 344.339 282.873 344.465 283.825 344.86C284.794 345.234 285.564 345.865 286.132 346.756C286.718 347.625 287.081 348.725 287.221 350.057L288.119 358.604L285.358 358.894L284.905 357.13L284.817 357.139C284.115 357.807 283.317 358.405 282.422 358.935C281.545 359.443 280.617 359.748 279.638 359.851ZM280.388 357.1C281.113 357.023 281.792 356.794 282.425 356.411C283.075 356.006 283.705 355.504 284.315 354.905L283.995 351.851C282.284 352.149 280.953 352.487 280.003 352.864C279.051 353.221 278.4 353.626 278.052 354.078C277.703 354.531 277.556 355.011 277.609 355.521C277.655 355.951 277.809 356.291 278.073 356.541C278.337 356.79 278.662 356.964 279.048 357.062C279.452 357.138 279.899 357.151 280.388 357.1ZM298.572 357.863C296.907 358.037 295.583 357.682 294.599 356.795C293.633 355.887 293.057 354.552 292.872 352.789L291.527 339.983L286.827 340.477L286.547 337.804L294.624 336.955L296.268 352.611C296.371 353.59 296.689 354.259 297.221 354.619C297.772 354.957 298.409 355.088 299.133 355.012C299.506 354.973 299.883 354.894 300.267 354.774C300.648 354.635 301.073 354.442 301.542 354.195L302.597 356.608C301.937 356.915 301.311 357.179 300.72 357.399C300.149 357.618 299.433 357.772 298.572 357.863ZM312.659 356.383C310.994 356.558 309.67 356.202 308.686 355.316C307.72 354.407 307.144 353.072 306.959 351.31L305.614 338.504L300.914 338.997L300.634 336.324L308.711 335.476L310.355 351.131C310.458 352.11 310.776 352.78 311.309 353.14C311.859 353.478 312.496 353.609 313.221 353.533C313.593 353.494 313.97 353.414 314.354 353.295C314.735 353.156 315.16 352.963 315.629 352.716L316.685 355.129C316.024 355.436 315.398 355.7 314.808 355.92C314.237 356.138 313.52 356.293 312.659 356.383ZM324.69 355.12C323.221 355.274 321.859 355.12 320.603 354.658C319.345 354.177 318.304 353.415 317.482 352.373C316.658 351.311 316.162 349.977 315.993 348.371C315.828 346.805 316.04 345.427 316.628 344.236C317.213 343.027 318.042 342.059 319.114 341.332C320.186 340.606 321.368 340.175 322.661 340.039C324.09 339.889 325.325 340.056 326.366 340.541C327.426 341.024 328.266 341.757 328.884 342.741C329.519 343.704 329.907 344.851 330.047 346.183C330.082 346.516 330.096 346.841 330.09 347.158C330.101 347.454 330.098 347.702 330.079 347.902L318.536 349.114L318.283 346.706L327.653 345.722L327.087 346.553C326.936 345.124 326.501 344.09 325.781 343.453C325.078 342.795 324.159 342.525 323.023 342.644C322.221 342.729 321.516 342.991 320.908 343.431C320.321 343.868 319.88 344.479 319.586 345.262C319.29 346.026 319.199 346.946 319.312 348.023C319.429 349.139 319.732 350.038 320.219 350.719C320.726 351.398 321.371 351.885 322.154 352.179C322.957 352.471 323.857 352.564 324.856 352.459C325.62 352.379 326.313 352.197 326.937 351.914C327.56 351.631 328.176 351.269 328.783 350.829L330.15 352.824C329.438 353.394 328.62 353.895 327.695 354.329C326.769 354.743 325.767 355.007 324.69 355.12ZM333.694 359.816C333.322 359.855 332.947 359.865 332.569 359.846C332.21 359.824 331.89 359.788 331.607 359.739L331.976 357.027C332.178 357.065 332.379 357.094 332.579 357.112C332.798 357.129 333.006 357.127 333.202 357.106C334.122 357.01 334.832 356.698 335.331 356.17C335.83 355.643 336.189 355.011 336.409 354.275L336.666 353.328L328.708 339.761L332.085 339.406L335.795 346.173C336.118 346.793 336.454 347.45 336.804 348.146C337.155 348.842 337.495 349.538 337.826 350.236L337.943 350.224C338.106 349.514 338.267 348.784 338.426 348.035C338.602 347.264 338.773 346.534 338.938 345.843L340.809 338.49L344.011 338.154L339.572 353.854C339.293 354.972 338.911 355.953 338.425 356.795C337.942 357.658 337.321 358.347 336.564 358.862C335.806 359.377 334.85 359.695 333.694 359.816ZM359.131 351.147L358.924 349.179C360.705 347.289 362.222 345.615 363.475 344.157C364.747 342.697 365.698 341.39 366.329 340.234C366.978 339.058 367.252 337.99 367.151 337.03C367.046 336.031 366.66 335.28 365.994 334.776C365.325 334.252 364.403 334.052 363.228 334.175C362.426 334.26 361.703 334.544 361.061 335.027C360.419 335.51 359.844 336.065 359.335 336.693L357.287 335.007C358.092 333.992 358.967 333.188 359.914 332.593C360.86 331.979 362.018 331.6 363.388 331.456C364.681 331.321 365.821 331.438 366.811 331.81C367.82 332.179 368.634 332.766 369.253 333.572C369.872 334.379 370.242 335.359 370.364 336.515C370.479 337.611 370.254 338.773 369.69 340C369.124 341.208 368.316 342.471 367.267 343.789C366.237 345.104 365.067 346.494 363.755 347.959C364.297 347.842 364.87 347.733 365.473 347.63C366.076 347.527 366.632 347.449 367.141 347.395L372.428 346.84L372.73 349.718L359.131 351.147ZM380.158 349.295C378.748 349.443 377.484 349.189 376.366 348.535C375.248 347.88 374.329 346.858 373.609 345.469C372.889 344.079 372.419 342.337 372.198 340.242C371.867 337.089 372.243 334.634 373.326 332.877C374.408 331.121 376.007 330.131 378.122 329.909C380.256 329.685 382.025 330.321 383.43 331.816C384.854 333.31 385.731 335.633 386.062 338.786C386.282 340.881 386.184 342.683 385.769 344.192C385.373 345.698 384.696 346.888 383.738 347.761C382.78 348.633 381.587 349.145 380.158 349.295ZM379.88 346.651C380.624 346.573 381.265 346.268 381.803 345.737C382.339 345.185 382.719 344.373 382.943 343.301C383.165 342.208 383.186 340.81 383.007 339.107C382.829 337.403 382.519 336.06 382.079 335.076C381.64 334.093 381.102 333.407 380.468 333.018C379.833 332.63 379.143 332.474 378.399 332.553C377.655 332.631 377.013 332.926 376.473 333.438C375.933 333.95 375.55 334.733 375.324 335.786C375.098 336.839 375.074 338.217 375.253 339.921C375.432 341.625 375.744 342.988 376.187 344.01C376.629 345.013 377.17 345.728 377.809 346.156C378.445 346.564 379.136 346.729 379.88 346.651ZM379.337 341.482C378.789 341.539 378.289 341.404 377.839 341.075C377.408 340.744 377.159 340.255 377.091 339.609C377.023 338.963 377.166 338.433 377.518 338.02C377.89 337.605 378.351 337.368 378.899 337.311C379.467 337.251 379.966 337.387 380.397 337.718C380.828 338.049 381.077 338.537 381.145 339.183C381.213 339.83 381.07 340.359 380.718 340.772C380.365 341.186 379.905 341.422 379.337 341.482ZM387.305 348.188L387.099 346.22C388.88 344.33 390.397 342.656 391.649 341.198C392.921 339.738 393.873 338.431 394.504 337.276C395.152 336.099 395.426 335.031 395.325 334.071C395.221 333.073 394.835 332.321 394.168 331.817C393.499 331.293 392.578 331.093 391.403 331.217C390.6 331.301 389.877 331.585 389.235 332.068C388.593 332.551 388.018 333.106 387.51 333.734L385.462 332.048C386.266 331.034 387.142 330.229 388.089 329.634C389.034 329.02 390.192 328.641 391.563 328.498C392.855 328.362 393.996 328.48 394.985 328.851C395.994 329.22 396.808 329.808 397.427 330.614C398.046 331.42 398.417 332.4 398.538 333.556C398.653 334.652 398.429 335.814 397.865 337.041C397.299 338.249 396.491 339.512 395.441 340.83C394.411 342.146 393.241 343.536 391.93 345C392.472 344.883 393.044 344.774 393.647 344.671C394.25 344.568 394.806 344.49 395.315 344.436L400.602 343.881L400.905 346.76L387.305 348.188ZM407.862 346.385C406.785 346.498 405.803 346.483 404.917 346.338C404.05 346.192 403.273 345.956 402.586 345.633C401.897 345.289 401.284 344.918 400.747 344.519L402.075 342.182C402.543 342.489 403.028 342.775 403.531 343.039C404.032 343.283 404.577 343.474 405.165 343.61C405.771 343.724 406.436 343.744 407.161 343.667C407.944 343.585 408.635 343.374 409.232 343.034C409.828 342.675 410.274 342.212 410.571 341.646C410.886 341.059 411.004 340.393 410.926 339.649C410.809 338.533 410.346 337.71 409.538 337.182C408.75 336.651 407.759 336.448 406.564 336.573C405.879 336.645 405.301 336.795 404.83 337.023C404.357 337.231 403.816 337.555 403.209 337.995L401.486 337.136L401.105 327.852L412.119 326.695L412.419 329.544L404.341 330.392L404.405 334.959C404.874 334.712 405.329 334.515 405.769 334.37C406.207 334.205 406.71 334.093 407.277 334.034C408.452 333.91 409.552 334.013 410.576 334.341C411.599 334.649 412.439 335.204 413.097 336.006C413.775 336.806 414.184 337.872 414.324 339.203C414.468 340.574 414.257 341.774 413.692 342.803C413.127 343.833 412.323 344.66 411.28 345.284C410.255 345.887 409.115 346.254 407.862 346.385Z" fill="#FDFDFD"/>
<path d="M124.159 219.132C122.671 219.289 121.318 219.035 120.1 218.371C118.882 217.707 117.872 216.665 117.069 215.244C116.286 213.822 115.782 212.034 115.555 209.88C115.335 207.784 115.462 205.97 115.934 204.435C116.424 202.879 117.197 201.66 118.252 200.777C119.308 199.894 120.579 199.374 122.068 199.218C123.556 199.062 124.908 199.306 126.124 199.95C127.34 200.594 128.339 201.628 129.122 203.05C129.922 204.451 130.433 206.199 130.653 208.294C130.879 210.448 130.747 212.303 130.257 213.859C129.787 215.413 129.025 216.642 127.972 217.544C126.918 218.447 125.647 218.976 124.159 219.132ZM123.847 216.166C124.67 216.079 125.356 215.73 125.905 215.118C126.455 214.506 126.84 213.654 127.062 212.561C127.284 211.469 127.316 210.169 127.157 208.661C127.003 207.193 126.706 205.967 126.266 204.983C125.825 203.981 125.272 203.247 124.61 202.782C123.945 202.297 123.202 202.098 122.379 202.184C121.557 202.271 120.871 202.62 120.321 203.232C119.77 203.825 119.382 204.657 119.158 205.73C118.932 206.783 118.896 208.044 119.051 209.513C119.209 211.02 119.51 212.286 119.954 213.308C120.398 214.33 120.952 215.084 121.617 215.568C122.282 216.053 123.025 216.252 123.847 216.166ZM139.539 217.517C138.031 217.675 136.639 217.525 135.363 217.065C134.105 216.583 133.065 215.821 132.243 214.779C131.438 213.715 130.953 212.39 130.786 210.804C130.617 209.199 130.846 207.799 131.473 206.604C132.118 205.389 133.036 204.421 134.227 203.702C135.417 202.963 136.736 202.518 138.185 202.366C139.36 202.242 140.418 202.329 141.36 202.626C142.3 202.904 143.094 203.305 143.744 203.831L142.35 206.116C141.735 205.725 141.121 205.443 140.509 205.269C139.917 205.094 139.297 205.04 138.651 205.108C137.692 205.209 136.861 205.504 136.161 205.993C135.477 206.461 134.968 207.079 134.633 207.847C134.298 208.614 134.181 209.478 134.281 210.437C134.382 211.397 134.666 212.218 135.134 212.902C135.621 213.583 136.238 214.082 136.984 214.4C137.75 214.716 138.612 214.823 139.572 214.722C140.394 214.636 141.132 214.4 141.784 214.015C142.436 213.629 143.014 213.193 143.517 212.704L145.155 214.73C144.407 215.521 143.543 216.156 142.564 216.635C141.585 217.114 140.576 217.408 139.539 217.517ZM155.006 215.893C153.538 216.047 152.346 215.915 151.431 215.496C150.514 215.058 149.821 214.398 149.352 213.517C148.883 212.636 148.585 211.588 148.458 210.374L147.832 204.411L143.984 204.815L143.719 202.289L147.698 201.723L147.663 197.154L150.454 196.86L150.929 201.384L157.508 200.693L157.789 203.366L151.209 204.057L151.832 209.99C151.915 210.773 152.091 211.418 152.362 211.924C152.631 212.41 153.024 212.755 153.54 212.958C154.054 213.142 154.713 213.192 155.516 213.107C156.142 213.041 156.705 212.933 157.204 212.781C157.703 212.63 158.178 212.442 158.629 212.216L159.531 214.586C158.908 214.869 158.232 215.128 157.505 215.363C156.779 215.618 155.946 215.794 155.006 215.893ZM166.421 214.694C165.148 214.828 163.932 214.658 162.774 214.186C161.614 213.694 160.632 212.926 159.83 211.882C159.025 210.818 158.539 209.493 158.373 207.907C158.204 206.302 158.404 204.905 158.972 203.717C159.538 202.509 160.339 201.554 161.374 200.851C162.406 200.129 163.559 199.701 164.832 199.567C166.105 199.434 167.321 199.613 168.482 200.105C169.64 200.577 170.621 201.345 171.426 202.409C172.229 203.453 172.714 204.778 172.883 206.384C173.049 207.97 172.85 209.366 172.283 210.574C171.715 211.762 170.915 212.717 169.882 213.44C168.847 214.142 167.693 214.56 166.421 214.694ZM166.131 211.933C166.914 211.851 167.569 211.584 168.096 211.133C168.622 210.682 168.995 210.078 169.212 209.323C169.43 208.567 169.488 207.71 169.387 206.751C169.287 205.791 169.051 204.964 168.682 204.271C168.312 203.577 167.822 203.064 167.213 202.732C166.602 202.381 165.905 202.246 165.122 202.328C164.339 202.411 163.685 202.687 163.16 203.158C162.653 203.607 162.281 204.211 162.043 204.968C161.826 205.723 161.767 206.581 161.868 207.54C161.969 208.5 162.204 209.326 162.574 210.02C162.963 210.712 163.453 211.224 164.042 211.558C164.651 211.89 165.347 212.015 166.131 211.933ZM181.36 213.125C180.674 213.197 179.942 213.106 179.163 212.851C178.403 212.594 177.668 212.186 176.956 211.628L176.868 211.637L176.74 213.254L174.068 213.535L171.89 192.798L175.297 192.44L175.858 197.786L175.977 200.327L176.065 200.318C176.61 199.667 177.247 199.135 177.976 198.722C178.722 198.287 179.487 198.028 180.27 197.946C181.524 197.814 182.613 198.007 183.538 198.523C184.483 199.038 185.248 199.819 185.833 200.866C186.416 201.894 186.786 203.152 186.942 204.64C187.115 206.285 186.959 207.726 186.476 208.965C185.99 210.184 185.291 211.158 184.377 211.888C183.482 212.595 182.476 213.008 181.36 213.125ZM180.391 210.406C181.057 210.336 181.644 210.086 182.153 209.656C182.663 209.227 183.036 208.633 183.273 207.876C183.508 207.099 183.568 206.162 183.453 205.066C183.352 204.106 183.148 203.296 182.841 202.635C182.535 201.975 182.118 201.494 181.591 201.193C181.082 200.87 180.426 200.751 179.623 200.835C179.075 200.893 178.531 201.088 177.992 201.422C177.453 201.756 176.922 202.257 176.398 202.926L177.08 209.417C177.658 209.832 178.242 210.117 178.833 210.272C179.421 210.409 179.941 210.453 180.391 210.406ZM195.476 211.643C194.007 211.797 192.645 211.643 191.389 211.181C190.131 210.699 189.091 209.938 188.268 208.896C187.444 207.834 186.948 206.5 186.779 204.894C186.615 203.328 186.826 201.95 187.414 200.759C188 199.55 188.828 198.582 189.9 197.855C190.972 197.129 192.155 196.698 193.447 196.562C194.876 196.412 196.112 196.579 197.152 197.064C198.213 197.547 199.052 198.28 199.67 199.264C200.306 200.227 200.693 201.374 200.833 202.706C200.868 203.039 200.882 203.364 200.876 203.681C200.887 203.977 200.884 204.225 200.865 204.425L189.322 205.637L189.069 203.229L198.439 202.245L197.873 203.076C197.723 201.647 197.287 200.613 196.567 199.976C195.865 199.318 194.945 199.048 193.81 199.167C193.007 199.251 192.302 199.514 191.695 199.954C191.107 200.391 190.666 201.002 190.373 201.785C190.077 202.549 189.985 203.469 190.098 204.546C190.215 205.662 190.518 206.561 191.005 207.242C191.512 207.921 192.157 208.408 192.94 208.702C193.743 208.994 194.644 209.087 195.642 208.982C196.406 208.902 197.099 208.72 197.723 208.437C198.347 208.154 198.962 207.792 199.569 207.352L200.937 209.347C200.224 209.917 199.406 210.418 198.481 210.852C197.555 211.266 196.553 211.53 195.476 211.643ZM203.652 210.428L202.137 196.006L204.928 195.713L205.564 198.942L205.652 198.933C206.253 197.682 207.05 196.698 208.044 195.98C209.055 195.24 210.178 194.805 211.411 194.676C211.999 194.614 212.513 194.61 212.954 194.662C213.395 194.715 213.832 194.818 214.263 194.97L213.858 197.893C213.371 197.786 212.939 197.722 212.561 197.703C212.2 197.662 211.745 197.67 211.197 197.727C210.218 197.83 209.288 198.215 208.408 198.881C207.547 199.546 206.819 200.622 206.223 202.11L207.059 210.07L203.652 210.428ZM236.357 207.349C235.28 207.463 234.299 207.447 233.412 207.302C232.546 207.156 231.759 206.922 231.052 206.6C230.343 206.259 229.738 205.867 229.236 205.425L230.594 203.085C231.28 203.587 232.056 204 232.921 204.325C233.805 204.628 234.755 204.726 235.773 204.619C236.537 204.539 237.211 204.359 237.796 204.08C238.378 203.782 238.814 203.409 239.104 202.963C239.411 202.495 239.534 201.968 239.472 201.38C239.404 200.734 239.15 200.196 238.709 199.768C238.268 199.339 237.584 199.044 236.656 198.884C235.726 198.705 234.488 198.696 232.941 198.859L232.682 196.391C234.033 196.25 235.097 196.009 235.873 195.67C236.647 195.312 237.198 194.898 237.524 194.428C237.849 193.938 237.981 193.4 237.919 192.813C237.837 192.029 237.469 191.454 236.817 191.087C236.182 190.698 235.366 190.557 234.367 190.661C233.564 190.746 232.828 190.991 232.158 191.398C231.486 191.786 230.864 192.276 230.293 192.871L228.312 190.971C229.099 190.175 229.98 189.509 230.953 188.971C231.945 188.431 233.039 188.099 234.233 187.973C235.506 187.839 236.653 187.917 237.673 188.206C238.71 188.473 239.543 188.95 240.169 189.636C240.813 190.301 241.19 191.162 241.301 192.22C241.41 193.258 241.159 194.165 240.548 194.942C239.937 195.719 239.075 196.373 237.963 196.906L237.975 197.023C238.818 197.133 239.594 197.358 240.303 197.7C241.032 198.039 241.625 198.501 242.082 199.087C242.539 199.672 242.811 200.376 242.898 201.199C243.017 202.334 242.787 203.348 242.207 204.241C241.646 205.111 240.849 205.819 239.817 206.363C238.803 206.885 237.65 207.214 236.357 207.349ZM245.913 205.99L244.399 191.568L247.189 191.275L247.825 194.504L247.913 194.495C248.515 193.244 249.312 192.259 250.306 191.541C251.317 190.802 252.439 190.367 253.673 190.238C254.26 190.176 254.775 190.171 255.216 190.224C255.657 190.277 256.093 190.379 256.525 190.532L256.119 193.455C255.633 193.348 255.2 193.284 254.822 193.265C254.462 193.223 254.007 193.231 253.459 193.289C252.48 193.392 251.55 193.777 250.67 194.443C249.809 195.108 249.081 196.184 248.485 197.672L249.321 205.632L245.913 205.99ZM263.944 204.452C262.103 204.646 260.545 204.136 259.27 202.924C257.994 201.712 257.232 199.921 256.983 197.551C256.819 195.985 256.98 194.602 257.468 193.403C257.956 192.203 258.657 191.248 259.573 190.539C260.488 189.829 261.484 189.417 262.561 189.304C263.384 189.218 264.123 189.289 264.781 189.516C265.458 189.742 266.099 190.101 266.705 190.591L266.793 190.582L266.361 188.163L265.812 182.934L269.219 182.577L271.397 203.313L268.607 203.606L268.166 201.96L268.078 201.969C267.588 202.575 266.982 203.124 266.262 203.615C265.539 204.087 264.767 204.366 263.944 204.452ZM264.473 201.576C265.061 201.514 265.614 201.317 266.134 200.986C266.651 200.634 267.124 200.139 267.552 199.5L266.87 193.009C266.31 192.573 265.764 192.284 265.235 192.141C264.705 191.999 264.176 191.956 263.647 192.011C262.981 192.081 262.384 192.332 261.855 192.764C261.346 193.193 260.962 193.778 260.703 194.518C260.444 195.258 260.368 196.137 260.475 197.155C260.638 198.702 261.066 199.855 261.759 200.613C262.472 201.37 263.377 201.691 264.473 201.576ZM285.759 193.253L285.5 190.785L298.541 189.416L298.8 191.883L285.759 193.253ZM320.91 198.47C319.833 198.583 318.851 198.567 317.965 198.423C317.098 198.276 316.321 198.041 315.634 197.717C314.944 197.374 314.331 197.003 313.794 196.604L315.123 194.267C315.591 194.574 316.076 194.86 316.579 195.124C317.08 195.368 317.624 195.558 318.213 195.695C318.819 195.809 319.484 195.828 320.208 195.752C320.992 195.67 321.682 195.459 322.28 195.119C322.876 194.759 323.322 194.297 323.619 193.731C323.934 193.144 324.052 192.478 323.974 191.734C323.856 190.618 323.394 189.795 322.586 189.266C321.798 188.735 320.806 188.533 319.612 188.658C318.927 188.73 318.348 188.88 317.877 189.108C317.404 189.316 316.864 189.64 316.257 190.079L314.534 189.221L314.153 179.937L325.167 178.78L325.466 181.629L317.389 182.477L317.453 187.044C317.922 186.796 318.376 186.6 318.816 186.455C319.254 186.29 319.757 186.178 320.325 186.118C321.5 185.995 322.6 186.097 323.624 186.425C324.646 186.734 325.487 187.289 326.145 188.091C326.823 188.891 327.232 189.956 327.372 191.288C327.516 192.659 327.305 193.859 326.74 194.888C326.175 195.918 325.371 196.744 324.328 197.369C323.302 197.971 322.163 198.338 320.91 198.47ZM338.14 196.661C336.671 196.815 335.479 196.683 334.564 196.264C333.647 195.826 332.954 195.166 332.485 194.285C332.017 193.403 331.719 192.356 331.591 191.142L330.965 185.179L327.117 185.583L326.852 183.057L330.831 182.491L330.797 177.921L333.587 177.628L334.062 182.152L340.641 181.461L340.922 184.134L334.343 184.824L334.966 190.758C335.048 191.541 335.225 192.186 335.496 192.692C335.764 193.178 336.157 193.523 336.673 193.726C337.188 193.91 337.846 193.959 338.649 193.875C339.276 193.809 339.838 193.701 340.337 193.549C340.836 193.398 341.311 193.209 341.763 192.984L342.665 195.354C342.041 195.637 341.366 195.896 340.638 196.131C339.912 196.385 339.08 196.562 338.14 196.661ZM343.114 195.782L340.936 175.045L344.343 174.687L344.905 180.033L345.023 183.139L345.111 183.129C345.668 182.398 346.332 181.744 347.103 181.168C347.893 180.59 348.837 180.244 349.933 180.128C351.598 179.954 352.875 180.334 353.765 181.27C354.655 182.206 355.198 183.604 355.394 185.465L356.331 194.394L352.924 194.752L352.033 186.263C351.911 185.108 351.616 184.277 351.147 183.772C350.679 183.267 349.955 183.066 348.976 183.169C348.271 183.243 347.662 183.475 347.148 183.866C346.635 184.256 346.081 184.829 345.488 185.584L346.521 195.424L343.114 195.782Z" fill="#FDFDFD"/>
<path d="M124.765 249.954C123.972 250.037 123.248 249.995 122.592 249.826C121.95 249.656 121.384 249.359 120.894 248.935C120.419 248.51 120.026 247.95 119.716 247.255C119.418 246.544 119.218 245.696 119.115 244.712L118.18 235.812L120.735 235.544L121.691 244.642C121.773 245.42 121.935 246.049 122.178 246.529C122.435 246.992 122.766 247.321 123.173 247.515C123.579 247.71 124.032 247.782 124.532 247.729C125.06 247.674 125.496 247.509 125.838 247.235C126.196 246.96 126.452 246.57 126.606 246.064C126.774 245.541 126.817 244.891 126.735 244.112L125.78 235.014L128.225 234.757L129.16 243.657C129.263 244.641 129.243 245.512 129.1 246.269C128.955 247.012 128.687 247.642 128.296 248.158C127.92 248.673 127.435 249.08 126.843 249.379C126.251 249.679 125.558 249.871 124.765 249.954ZM130.479 249.087L129.343 238.27L131.435 238.051L131.805 239.66L131.893 239.651C132.352 239.068 132.87 238.561 133.448 238.129C134.041 237.695 134.756 237.435 135.593 237.347C136.842 237.216 137.8 237.501 138.467 238.203C139.135 238.905 139.542 239.954 139.688 241.349L140.392 248.046L137.836 248.314L137.168 241.948C137.077 241.081 136.855 240.459 136.504 240.08C136.152 239.701 135.609 239.55 134.875 239.627C134.346 239.683 133.889 239.857 133.504 240.15C133.12 240.443 132.704 240.872 132.259 241.439L133.034 248.818L130.479 249.087ZM145.78 247.48L144.855 238.668L140.163 239.161L139.952 237.156L147.178 236.397L148.314 247.214L145.78 247.48ZM145.516 234.568C145.002 234.622 144.552 234.513 144.167 234.241C143.797 233.968 143.585 233.575 143.531 233.061C143.477 232.547 143.603 232.118 143.908 231.774C144.227 231.414 144.643 231.207 145.157 231.153C145.686 231.097 146.136 231.214 146.508 231.501C146.878 231.774 147.09 232.168 147.144 232.682C147.198 233.196 147.072 233.625 146.767 233.968C146.461 234.312 146.044 234.512 145.516 234.568ZM155.024 246.509L149.57 236.146L152.126 235.878L154.808 241.276C155.055 241.784 155.295 242.301 155.528 242.826C155.776 243.349 156.01 243.881 156.23 244.422L156.318 244.413C156.436 243.837 156.554 243.267 156.673 242.706C156.793 242.144 156.92 241.588 157.055 241.04L158.558 235.202L160.981 234.948L157.91 246.206L155.024 246.509ZM167.666 245.449C166.564 245.564 165.543 245.449 164.6 245.102C163.657 244.741 162.877 244.17 162.26 243.388C161.642 242.592 161.27 241.592 161.143 240.388C161.02 239.213 161.178 238.179 161.619 237.286C162.058 236.379 162.68 235.653 163.484 235.108C164.288 234.563 165.175 234.24 166.144 234.138C167.216 234.026 168.142 234.151 168.923 234.515C169.718 234.877 170.348 235.427 170.811 236.165C171.288 236.887 171.579 237.747 171.684 238.746C171.71 238.996 171.721 239.24 171.716 239.478C171.724 239.699 171.722 239.885 171.708 240.035L163.05 240.945L162.86 239.138L169.888 238.4L169.463 239.024C169.351 237.952 169.024 237.177 168.484 236.699C167.957 236.205 167.268 236.003 166.416 236.092C165.814 236.155 165.285 236.352 164.83 236.682C164.389 237.01 164.058 237.468 163.838 238.055C163.616 238.628 163.548 239.318 163.632 240.126C163.72 240.963 163.947 241.637 164.312 242.148C164.693 242.658 165.176 243.023 165.764 243.243C166.366 243.462 167.041 243.532 167.79 243.453C168.363 243.393 168.883 243.257 169.351 243.045C169.819 242.832 170.28 242.561 170.735 242.231L171.761 243.727C171.227 244.154 170.613 244.53 169.92 244.856C169.225 245.166 168.474 245.364 167.666 245.449ZM173.798 244.538L172.662 233.721L174.754 233.501L175.232 235.924L175.298 235.917C175.748 234.978 176.346 234.24 177.092 233.701C177.85 233.147 178.692 232.821 179.617 232.724C180.058 232.677 180.443 232.674 180.774 232.713C181.105 232.753 181.432 232.83 181.756 232.944L181.452 235.137C181.087 235.056 180.763 235.009 180.479 234.994C180.209 234.963 179.868 234.969 179.457 235.012C178.722 235.089 178.025 235.378 177.365 235.878C176.719 236.376 176.173 237.183 175.726 238.299L176.353 244.269L173.798 244.538ZM188.202 243.292C187.188 243.399 186.202 243.339 185.243 243.113C184.282 242.872 183.44 242.56 182.717 242.175L183.649 240.452C184.34 240.81 185.073 241.074 185.849 241.245C186.622 241.402 187.45 241.433 188.331 241.341C189.08 241.262 189.618 241.08 189.944 240.793C190.283 240.49 190.434 240.162 190.397 239.81C190.379 239.634 190.318 239.477 190.214 239.339C190.125 239.2 189.972 239.082 189.754 238.986C189.535 238.876 189.22 238.783 188.812 238.707C188.403 238.631 187.876 238.56 187.23 238.494C185.759 238.337 184.657 238.029 183.926 237.572C183.195 237.114 182.787 236.481 182.702 235.674C182.602 234.719 182.931 233.897 183.691 233.209C184.465 232.519 185.608 232.094 187.12 231.936C188.016 231.841 188.869 231.9 189.678 232.112C190.502 232.323 191.205 232.583 191.787 232.893L190.784 234.58C190.233 234.281 189.639 234.076 189.004 233.965C188.367 233.839 187.733 233.809 187.101 233.875C186.617 233.926 186.233 234.018 185.95 234.152C185.682 234.284 185.484 234.453 185.358 234.66C185.244 234.85 185.199 235.055 185.222 235.275C185.262 235.657 185.512 235.92 185.973 236.065C186.433 236.21 187.175 236.34 188.196 236.455C189.383 236.583 190.309 236.775 190.974 237.032C191.638 237.274 192.109 237.588 192.387 237.975C192.679 238.345 192.855 238.824 192.917 239.412C192.982 240.028 192.843 240.615 192.5 241.17C192.171 241.71 191.648 242.173 190.931 242.56C190.213 242.932 189.303 243.176 188.202 243.292ZM198.607 241.932L197.682 233.12L192.99 233.613L192.779 231.609L200.005 230.85L201.141 241.666L198.607 241.932ZM198.343 229.02C197.829 229.074 197.379 228.965 196.994 228.694C196.624 228.421 196.412 228.027 196.358 227.513C196.304 226.999 196.43 226.57 196.735 226.226C197.054 225.866 197.47 225.659 197.984 225.605C198.513 225.55 198.963 225.666 199.335 225.953C199.705 226.226 199.917 226.62 199.971 227.134C200.025 227.648 199.899 228.077 199.594 228.421C199.288 228.765 198.871 228.964 198.343 229.02ZM211.271 240.869C210.17 240.985 209.276 240.886 208.589 240.572C207.902 240.243 207.382 239.748 207.03 239.088C206.679 238.427 206.455 237.641 206.36 236.73L205.89 232.258L203.004 232.561L202.805 230.667L205.79 230.242L205.764 226.815L207.857 226.595L208.213 229.988L213.147 229.469L213.358 231.474L208.423 231.992L208.891 236.442C208.952 237.03 209.085 237.513 209.288 237.893C209.49 238.258 209.784 238.516 210.171 238.669C210.557 238.806 211.051 238.844 211.653 238.78C212.123 238.731 212.545 238.649 212.919 238.536C213.293 238.422 213.65 238.281 213.988 238.112L214.665 239.889C214.197 240.102 213.691 240.296 213.145 240.472C212.601 240.663 211.976 240.795 211.271 240.869ZM216.681 244.533C216.402 244.562 216.12 244.57 215.837 244.555C215.568 244.539 215.327 244.512 215.115 244.475L215.392 242.441C215.543 242.47 215.694 242.491 215.844 242.505C216.009 242.517 216.164 242.516 216.311 242.501C217.002 242.428 217.534 242.194 217.908 241.798C218.282 241.403 218.552 240.929 218.716 240.377L218.909 239.666L212.941 229.491L215.474 229.225L218.256 234.301C218.498 234.765 218.75 235.258 219.013 235.78C219.276 236.302 219.531 236.824 219.779 237.348L219.867 237.339C219.99 236.806 220.11 236.259 220.229 235.697C220.362 235.119 220.49 234.571 220.614 234.053L222.017 228.538L224.418 228.286L221.089 240.061C220.88 240.9 220.593 241.635 220.229 242.267C219.866 242.914 219.401 243.431 218.833 243.817C218.264 244.203 217.547 244.442 216.681 244.533ZM240.963 237.751C240.008 237.852 239.096 237.725 238.228 237.37C237.357 237.001 236.621 236.425 236.019 235.642C235.416 234.844 235.052 233.851 234.927 232.661C234.8 231.457 234.95 230.409 235.376 229.518C235.801 228.612 236.401 227.896 237.177 227.369C237.952 226.827 238.817 226.507 239.771 226.406C240.726 226.306 241.638 226.44 242.508 226.809C243.377 227.163 244.113 227.739 244.717 228.537C245.319 229.32 245.683 230.314 245.809 231.518C245.934 232.708 245.784 233.756 245.36 234.661C244.934 235.552 244.333 236.269 243.559 236.81C242.783 237.337 241.917 237.651 240.963 237.751ZM240.745 235.681C241.333 235.619 241.824 235.419 242.219 235.08C242.614 234.742 242.893 234.289 243.056 233.723C243.22 233.156 243.263 232.513 243.188 231.794C243.112 231.074 242.936 230.454 242.658 229.934C242.381 229.414 242.014 229.029 241.557 228.78C241.099 228.516 240.576 228.415 239.989 228.477C239.401 228.539 238.911 228.746 238.517 229.099C238.137 229.436 237.858 229.889 237.68 230.457C237.517 231.023 237.473 231.666 237.548 232.386C237.624 233.106 237.8 233.725 238.078 234.246C238.37 234.764 238.737 235.149 239.179 235.4C239.636 235.649 240.158 235.742 240.745 235.681ZM249.914 236.544L248.716 225.133C248.626 224.281 248.708 223.508 248.962 222.813C249.214 222.103 249.659 221.53 250.296 221.092C250.931 220.639 251.778 220.357 252.835 220.246C253.423 220.184 253.987 220.184 254.528 220.246C255.082 220.292 255.611 220.378 256.114 220.503L255.782 222.431C255.368 222.311 254.967 222.234 254.577 222.201C254.202 222.166 253.795 222.172 253.354 222.218C252.532 222.304 251.951 222.573 251.612 223.025C251.272 223.461 251.142 224.061 251.222 224.825L252.425 236.28L249.914 236.544ZM245.993 228.047L245.794 226.152L248.844 225.721L255.409 225.031L255.62 227.036L245.993 228.047ZM271.353 234.292L270.065 222.022L265.527 222.499L265.302 220.362L276.934 219.14L277.158 221.277L272.62 221.754L273.909 234.024L271.353 234.292ZM283.224 233.313C282.27 233.413 281.358 233.286 280.489 232.932C279.619 232.563 278.883 231.987 278.281 231.204C277.678 230.406 277.313 229.413 277.188 228.223C277.062 227.019 277.212 225.971 277.638 225.08C278.062 224.174 278.663 223.458 279.439 222.931C280.214 222.389 281.078 222.068 282.033 221.968C282.987 221.868 283.9 222.002 284.77 222.371C285.639 222.725 286.375 223.301 286.978 224.099C287.58 224.882 287.944 225.876 288.071 227.08C288.196 228.27 288.046 229.317 287.621 230.223C287.195 231.114 286.595 231.831 285.82 232.372C285.044 232.899 284.179 233.213 283.224 233.313ZM283.007 231.242C283.594 231.181 284.085 230.981 284.48 230.642C284.875 230.304 285.155 229.851 285.318 229.285C285.481 228.718 285.525 228.075 285.449 227.355C285.374 226.636 285.197 226.016 284.92 225.496C284.643 224.975 284.276 224.591 283.819 224.342C283.361 224.078 282.838 223.977 282.25 224.039C281.663 224.101 281.172 224.308 280.779 224.661C280.398 224.998 280.119 225.45 279.941 226.019C279.778 226.585 279.734 227.228 279.81 227.948C279.885 228.667 280.062 229.287 280.339 229.808C280.631 230.326 280.998 230.711 281.44 230.961C281.897 231.21 282.419 231.304 283.007 231.242ZM290.017 232.332L288.881 221.516L290.974 221.296L291.451 223.718L291.517 223.712C291.968 222.773 292.566 222.035 293.311 221.496C294.069 220.942 294.911 220.616 295.836 220.518C296.277 220.472 296.663 220.469 296.994 220.508C297.324 220.548 297.652 220.625 297.975 220.739L297.671 222.932C297.306 222.851 296.982 222.804 296.698 222.789C296.428 222.758 296.087 222.764 295.676 222.807C294.942 222.884 294.244 223.173 293.584 223.673C292.939 224.171 292.392 224.978 291.945 226.094L292.572 232.064L290.017 232.332ZM304.355 231.094C303.4 231.194 302.489 231.067 301.62 230.713C300.75 230.344 300.014 229.768 299.412 228.985C298.808 228.187 298.444 227.193 298.319 226.004C298.193 224.8 298.343 223.752 298.769 222.861C299.193 221.955 299.794 221.239 300.57 220.712C301.344 220.17 302.209 219.849 303.164 219.749C304.118 219.649 305.031 219.783 305.901 220.152C306.769 220.506 307.506 221.082 308.109 221.88C308.711 222.663 309.075 223.657 309.202 224.861C309.327 226.051 309.177 227.098 308.752 228.004C308.326 228.895 307.726 229.612 306.951 230.153C306.175 230.68 305.31 230.994 304.355 231.094ZM304.137 229.023C304.725 228.962 305.216 228.761 305.611 228.423C306.006 228.085 306.285 227.632 306.449 227.066C306.612 226.499 306.656 225.856 306.58 225.136C306.505 224.417 306.328 223.797 306.051 223.277C305.773 222.756 305.406 222.372 304.95 222.123C304.491 221.859 303.968 221.758 303.381 221.82C302.794 221.881 302.303 222.089 301.91 222.442C301.529 222.779 301.25 223.231 301.072 223.799C300.909 224.366 300.865 225.009 300.941 225.729C301.016 226.448 301.193 227.068 301.47 227.588C301.762 228.107 302.129 228.492 302.571 228.742C303.028 228.991 303.55 229.085 304.137 229.023ZM310.09 230.224L308.954 219.408L311.047 219.188L311.417 220.798L311.505 220.788C311.963 220.206 312.482 219.698 313.06 219.266C313.653 218.833 314.368 218.572 315.205 218.484C316.453 218.353 317.411 218.639 318.079 219.341C318.746 220.043 319.154 221.091 319.3 222.487L320.003 229.183L317.448 229.452L316.779 223.085C316.688 222.219 316.467 221.596 316.115 221.217C315.764 220.839 315.221 220.688 314.487 220.765C313.958 220.82 313.501 220.994 313.116 221.287C312.731 221.58 312.316 222.01 311.871 222.576L312.646 229.956L310.09 230.224ZM327.49 228.664C326.389 228.78 325.495 228.681 324.809 228.367C324.121 228.038 323.601 227.543 323.25 226.882C322.898 226.222 322.675 225.436 322.579 224.525L322.109 220.053L319.224 220.356L319.025 218.462L322.009 218.037L321.983 214.61L324.076 214.39L324.432 217.783L329.367 217.264L329.577 219.269L324.643 219.787L325.11 224.237C325.172 224.825 325.304 225.308 325.507 225.688C325.709 226.053 326.003 226.311 326.391 226.464C326.776 226.601 327.27 226.638 327.872 226.575C328.342 226.526 328.764 226.444 329.138 226.331C329.513 226.217 329.869 226.076 330.208 225.907L330.884 227.684C330.417 227.897 329.91 228.091 329.364 228.267C328.82 228.458 328.195 228.59 327.49 228.664ZM336.051 227.765C335.097 227.866 334.185 227.739 333.316 227.384C332.446 227.015 331.71 226.439 331.108 225.656C330.504 224.859 330.14 223.865 330.015 222.675C329.889 221.471 330.039 220.423 330.465 219.532C330.889 218.626 331.49 217.91 332.266 217.383C333.04 216.842 333.905 216.521 334.86 216.42C335.814 216.32 336.727 216.454 337.597 216.823C338.466 217.178 339.202 217.754 339.805 218.551C340.407 219.334 340.771 220.328 340.898 221.532C341.023 222.722 340.873 223.77 340.448 224.675C340.022 225.567 339.422 226.283 338.647 226.825C337.871 227.351 337.006 227.665 336.051 227.765ZM335.834 225.695C336.421 225.633 336.912 225.433 337.307 225.094C337.702 224.756 337.982 224.303 338.145 223.737C338.308 223.17 338.352 222.527 338.276 221.808C338.201 221.088 338.024 220.468 337.747 219.948C337.47 219.428 337.102 219.043 336.646 218.794C336.187 218.53 335.665 218.429 335.077 218.491C334.49 218.553 333.999 218.76 333.606 219.113C333.225 219.45 332.946 219.903 332.768 220.471C332.605 221.037 332.561 221.68 332.637 222.4C332.712 223.12 332.889 223.74 333.166 224.26C333.458 224.778 333.825 225.163 334.267 225.414C334.724 225.663 335.246 225.756 335.834 225.695ZM127.712 277.799C126.698 277.905 125.71 277.823 124.746 277.553C123.782 277.283 122.905 276.848 122.115 276.248L123.43 274.351C124.024 274.778 124.683 275.11 125.405 275.346C126.126 275.567 126.869 275.638 127.632 275.557C128.469 275.47 129.091 275.241 129.498 274.872C129.903 274.487 130.079 274.046 130.027 273.546C129.982 273.121 129.844 272.794 129.612 272.566C129.379 272.323 129.069 272.133 128.684 271.995C128.313 271.856 127.875 271.716 127.37 271.576L125.319 270.923C124.798 270.77 124.279 270.557 123.76 270.285C123.256 270.011 122.824 269.641 122.463 269.174C122.117 268.705 121.907 268.119 121.833 267.414C121.752 266.65 121.894 265.945 122.256 265.298C122.618 264.636 123.154 264.09 123.866 263.659C124.591 263.211 125.438 262.937 126.408 262.835C127.289 262.743 128.144 262.823 128.972 263.078C129.814 263.316 130.565 263.683 131.226 264.178L130.075 265.947C129.549 265.601 129.003 265.354 128.438 265.205C127.886 265.041 127.243 264.997 126.509 265.074C125.834 265.145 125.298 265.35 124.903 265.688C124.508 266.026 124.339 266.467 124.396 267.011C124.435 267.378 124.584 267.667 124.844 267.877C125.103 268.087 125.426 268.261 125.812 268.399C126.212 268.535 126.633 268.661 127.076 268.778L129.056 269.394C129.698 269.565 130.271 269.794 130.777 270.082C131.282 270.371 131.693 270.751 132.01 271.222C132.325 271.679 132.52 272.26 132.594 272.965C132.676 273.743 132.538 274.478 132.18 275.169C131.822 275.86 131.267 276.445 130.515 276.925C129.762 277.39 128.828 277.681 127.712 277.799ZM139.202 276.592C138.072 276.711 137.028 276.598 136.071 276.253C135.127 275.891 134.347 275.32 133.731 274.538C133.127 273.741 132.763 272.747 132.638 271.557C132.511 270.353 132.683 269.303 133.153 268.407C133.637 267.495 134.325 266.77 135.219 266.231C136.111 265.677 137.1 265.342 138.187 265.228C139.068 265.136 139.862 265.201 140.569 265.424C141.273 265.632 141.869 265.933 142.356 266.327L141.311 268.041C140.85 267.748 140.39 267.536 139.93 267.406C139.486 267.275 139.022 267.234 138.537 267.285C137.817 267.361 137.195 267.582 136.669 267.949C136.156 268.3 135.774 268.763 135.523 269.339C135.272 269.915 135.184 270.562 135.259 271.282C135.335 272.002 135.548 272.618 135.899 273.13C136.264 273.641 136.727 274.016 137.286 274.254C137.861 274.491 138.508 274.571 139.227 274.496C139.844 274.431 140.397 274.254 140.887 273.965C141.376 273.676 141.809 273.349 142.186 272.982L143.415 274.501C142.854 275.095 142.206 275.571 141.472 275.93C140.737 276.29 139.981 276.51 139.202 276.592ZM147.367 275.734C146.662 275.809 146.024 275.742 145.453 275.535C144.88 275.313 144.415 274.983 144.057 274.545C143.699 274.108 143.487 273.573 143.421 272.942C143.294 271.737 143.771 270.759 144.85 270.008C145.942 269.24 147.815 268.62 150.468 268.148C150.397 267.755 150.249 267.406 150.024 267.103C149.814 266.799 149.516 266.578 149.13 266.44C148.743 266.288 148.255 266.242 147.668 266.304C147.257 266.347 146.858 266.441 146.473 266.585C146.087 266.73 145.705 266.911 145.327 267.129C144.964 267.345 144.602 267.576 144.242 267.822L143.138 266.223C143.551 265.912 144.01 265.619 144.516 265.343C145.02 265.053 145.559 264.811 146.132 264.617C146.704 264.408 147.299 264.271 147.916 264.207C148.929 264.1 149.793 264.195 150.507 264.491C151.234 264.771 151.811 265.245 152.237 265.913C152.677 266.565 152.949 267.39 153.054 268.389L153.727 274.799L151.657 275.017L151.317 273.694L151.251 273.701C150.725 274.201 150.126 274.65 149.455 275.047C148.797 275.428 148.101 275.657 147.367 275.734ZM147.929 273.671C148.473 273.614 148.982 273.442 149.456 273.154C149.944 272.851 150.417 272.474 150.875 272.025L150.634 269.734C149.351 269.958 148.353 270.211 147.64 270.494C146.926 270.762 146.438 271.066 146.177 271.405C145.916 271.744 145.805 272.105 145.845 272.487C145.879 272.81 145.995 273.065 146.193 273.252C146.391 273.439 146.634 273.569 146.924 273.643C147.227 273.7 147.562 273.709 147.929 273.671ZM155.591 274.603L154.455 263.787L156.548 263.567L157.025 265.99L157.091 265.983C157.542 265.044 158.14 264.306 158.885 263.767C159.644 263.213 160.486 262.887 161.411 262.789C161.851 262.743 162.237 262.74 162.568 262.779C162.899 262.819 163.226 262.896 163.55 263.01L163.246 265.203C162.881 265.122 162.556 265.075 162.273 265.06C162.002 265.029 161.661 265.035 161.25 265.078C160.516 265.155 159.819 265.444 159.158 265.944C158.513 266.442 157.967 267.249 157.52 268.365L158.147 274.335L155.591 274.603ZM170.568 273.298C170.054 273.352 169.505 273.283 168.921 273.092C168.351 272.9 167.799 272.594 167.265 272.175L167.199 272.182L167.104 273.394L165.099 273.605L163.466 258.052L166.021 257.784L166.442 261.793L166.531 263.699L166.597 263.692C167.006 263.204 167.484 262.805 168.031 262.495C168.59 262.169 169.164 261.975 169.751 261.914C170.691 261.815 171.508 261.959 172.202 262.347C172.911 262.732 173.485 263.318 173.923 264.104C174.361 264.874 174.638 265.818 174.755 266.934C174.885 268.167 174.768 269.249 174.405 270.178C174.041 271.092 173.516 271.823 172.832 272.37C172.16 272.901 171.405 273.21 170.568 273.298ZM169.842 271.258C170.341 271.206 170.782 271.019 171.164 270.696C171.545 270.374 171.825 269.929 172.003 269.361C172.18 268.778 172.225 268.076 172.138 267.253C172.063 266.534 171.91 265.926 171.68 265.431C171.449 264.935 171.137 264.574 170.742 264.349C170.36 264.107 169.868 264.017 169.266 264.08C168.855 264.124 168.447 264.27 168.043 264.521C167.638 264.771 167.24 265.147 166.847 265.648L167.358 270.517C167.792 270.828 168.23 271.042 168.673 271.158C169.114 271.26 169.504 271.294 169.842 271.258ZM180.495 272.255C179.54 272.356 178.628 272.229 177.76 271.875C176.89 271.506 176.153 270.93 175.552 270.146C174.948 269.349 174.584 268.355 174.459 267.165C174.332 265.961 174.482 264.913 174.908 264.022C175.333 263.117 175.933 262.4 176.709 261.873C177.484 261.332 178.349 261.011 179.303 260.91C180.258 260.81 181.17 260.945 182.041 261.313C182.909 261.668 183.645 262.244 184.249 263.041C184.851 263.825 185.215 264.818 185.341 266.023C185.466 267.212 185.316 268.26 184.892 269.166C184.466 270.057 183.865 270.773 183.091 271.315C182.315 271.842 181.449 272.155 180.495 272.255ZM180.277 270.185C180.865 270.123 181.356 269.923 181.751 269.585C182.146 269.246 182.425 268.794 182.588 268.227C182.752 267.661 182.795 267.017 182.72 266.298C182.644 265.578 182.468 264.958 182.19 264.438C181.913 263.918 181.546 263.533 181.089 263.284C180.631 263.02 180.108 262.919 179.521 262.981C178.933 263.043 178.443 263.25 178.049 263.603C177.669 263.94 177.39 264.393 177.212 264.961C177.049 265.527 177.005 266.17 177.08 266.89C177.156 267.61 177.332 268.23 177.61 268.75C177.902 269.269 178.269 269.653 178.711 269.904C179.168 270.153 179.69 270.246 180.277 270.185ZM187.287 271.275L186.151 260.459L188.244 260.239L188.721 262.661L188.787 262.654C189.238 261.716 189.836 260.977 190.582 260.439C191.34 259.884 192.182 259.558 193.107 259.461C193.548 259.415 193.933 259.411 194.264 259.451C194.595 259.49 194.922 259.567 195.246 259.682L194.942 261.874C194.577 261.793 194.253 261.746 193.969 261.731C193.698 261.7 193.358 261.706 192.946 261.749C192.212 261.827 191.515 262.115 190.855 262.615C190.209 263.113 189.663 263.921 189.216 265.037L189.843 271.006L187.287 271.275ZM201.625 270.036C200.671 270.137 199.759 270.01 198.891 269.655C198.02 269.287 197.284 268.71 196.682 267.927C196.079 267.13 195.715 266.136 195.59 264.946C195.463 263.742 195.613 262.694 196.039 261.803C196.464 260.897 197.064 260.181 197.84 259.654C198.615 259.113 199.479 258.792 200.434 258.691C201.389 258.591 202.301 258.725 203.171 259.094C204.04 259.449 204.776 260.025 205.38 260.822C205.981 261.605 206.346 262.599 206.472 263.803C206.597 264.993 206.447 266.041 206.023 266.946C205.597 267.838 204.996 268.554 204.222 269.096C203.445 269.623 202.58 269.936 201.625 270.036ZM201.408 267.966C201.995 267.904 202.487 267.704 202.882 267.365C203.277 267.027 203.556 266.574 203.719 266.008C203.882 265.441 203.926 264.798 203.851 264.079C203.775 263.359 203.599 262.739 203.321 262.219C203.044 261.699 202.677 261.314 202.22 261.065C201.762 260.801 201.239 260.7 200.652 260.762C200.064 260.824 199.574 261.031 199.18 261.384C198.8 261.721 198.521 262.174 198.343 262.742C198.179 263.308 198.136 263.951 198.211 264.671C198.287 265.391 198.463 266.011 198.741 266.531C199.033 267.05 199.4 267.434 199.842 267.685C200.298 267.934 200.821 268.027 201.408 267.966ZM210.737 269.079C209.474 269.212 208.516 268.927 207.863 268.223C207.21 267.52 206.81 266.47 206.664 265.075L205.96 258.378L208.494 258.112L209.162 264.479C209.253 265.345 209.467 265.969 209.804 266.349C210.156 266.728 210.706 266.878 211.455 266.799C211.954 266.747 212.397 266.581 212.784 266.303C213.184 266.009 213.588 265.543 213.996 264.906L213.23 257.615L215.763 257.349L216.899 268.165L214.829 268.383L214.45 266.685L214.362 266.694C213.909 267.336 213.394 267.872 212.816 268.304C212.238 268.736 211.545 268.995 210.737 269.079ZM222.922 272.366C221.923 272.47 221.045 272.451 220.288 272.308C219.532 272.18 218.926 271.924 218.47 271.541C218.014 271.159 217.752 270.644 217.684 269.998C217.64 269.572 217.743 269.145 217.996 268.718C218.248 268.291 218.637 267.901 219.164 267.549L219.155 267.46C218.858 267.314 218.577 267.113 218.312 266.859C218.061 266.588 217.912 266.225 217.864 265.77C217.827 265.417 217.907 265.045 218.103 264.653C218.3 264.261 218.582 263.913 218.951 263.607L218.942 263.518C218.531 263.279 218.161 262.94 217.832 262.499C217.517 262.042 217.326 261.498 217.26 260.866C217.172 260.029 217.304 259.303 217.655 258.687C218.004 258.056 218.501 257.559 219.146 257.194C219.789 256.815 220.507 256.583 221.3 256.5C221.947 256.432 222.521 256.461 223.024 256.586L227.452 256.121L227.656 258.06L225.167 258.321C225.379 258.507 225.568 258.754 225.735 259.063C225.914 259.356 226.022 259.679 226.059 260.032C226.142 260.825 226.015 261.521 225.677 262.121C225.352 262.704 224.881 263.169 224.265 263.516C223.648 263.863 222.928 264.08 222.106 264.166C221.856 264.192 221.582 264.199 221.284 264.186C220.998 264.156 220.711 264.105 220.421 264.031C220.215 264.187 220.061 264.351 219.961 264.525C219.875 264.697 219.843 264.894 219.867 265.114C219.902 265.452 220.098 265.691 220.454 265.832C220.824 265.956 221.346 265.983 222.022 265.912L224.225 265.681C225.634 265.533 226.713 265.627 227.462 265.965C228.223 266.285 228.654 266.923 228.754 267.878C228.828 268.583 228.639 269.256 228.186 269.897C227.749 270.537 227.078 271.075 226.173 271.512C225.284 271.947 224.2 272.231 222.922 272.366ZM221.937 262.558C222.319 262.518 222.655 262.401 222.947 262.207C223.236 261.998 223.453 261.723 223.595 261.382C223.752 261.038 223.806 260.639 223.759 260.184C223.712 259.743 223.578 259.379 223.354 259.091C223.144 258.786 222.876 258.562 222.549 258.418C222.222 258.274 221.867 258.222 221.486 258.262C221.118 258.301 220.79 258.424 220.5 258.633C220.21 258.842 219.987 259.118 219.83 259.461C219.671 259.789 219.615 260.174 219.661 260.614C219.709 261.07 219.845 261.449 220.07 261.752C220.295 262.055 220.571 262.278 220.898 262.422C221.223 262.551 221.57 262.597 221.937 262.558ZM223.055 270.659C223.76 270.585 224.361 270.44 224.858 270.225C225.369 270.008 225.751 269.752 226.002 269.459C226.268 269.163 226.385 268.862 226.353 268.553C226.308 268.127 226.094 267.86 225.712 267.752C225.345 267.657 224.795 267.648 224.061 267.725L222.342 267.905C221.99 267.942 221.68 267.96 221.412 267.958C221.145 267.957 220.899 267.945 220.674 267.925C220.315 268.185 220.067 268.441 219.931 268.693C219.794 268.945 219.738 269.196 219.765 269.445C219.815 269.93 220.127 270.276 220.698 270.483C221.27 270.705 222.056 270.764 223.055 270.659ZM228.492 266.948L226.858 251.395L229.414 251.127L229.835 255.136L229.923 257.465L229.989 257.458C230.407 256.91 230.905 256.419 231.483 255.987C232.076 255.554 232.784 255.294 233.606 255.208C234.854 255.077 235.812 255.362 236.48 256.064C237.148 256.766 237.555 257.815 237.701 259.21L238.405 265.907L235.849 266.175L235.181 259.809C235.09 258.942 234.868 258.319 234.517 257.941C234.165 257.562 233.622 257.411 232.888 257.488C232.359 257.544 231.902 257.718 231.517 258.011C231.132 258.303 230.717 258.733 230.272 259.3L231.047 266.679L228.492 266.948Z" fill="#FDFDFD"/>
<path d="M265.015 241.823C264.212 241.681 263.449 242.22 263.306 243.023L259.595 264.174C259.452 264.977 259.991 265.741 260.794 265.884C261.597 266.026 262.361 265.487 262.503 264.684L266.214 243.533C266.357 242.73 265.818 241.966 265.015 241.823ZM269.288 246.941C268.775 247.574 268.873 248.504 269.506 249.017L274.03 252.685L270.362 257.213C269.849 257.847 269.947 258.777 270.58 259.29C271.213 259.803 272.144 259.705 272.656 259.072L277.251 253.399C277.764 252.766 277.666 251.835 277.033 251.322L271.36 246.728C270.727 246.215 269.796 246.313 269.284 246.946L269.288 246.941ZM255.229 248.417C254.596 247.904 253.665 248.002 253.153 248.635L248.558 254.308C248.045 254.941 248.143 255.872 248.776 256.385L254.449 260.979C255.082 261.492 256.013 261.394 256.526 260.761C257.038 260.128 256.941 259.198 256.307 258.685L251.78 255.022L255.447 250.494C255.96 249.86 255.862 248.93 255.229 248.417Z" fill="#FDFDFD"/>
<g clip-path="url(#clip0_56_162)">
<path d="M418.238 364.286C418.351 365.359 417.806 366.355 416.928 366.873L422.919 371.058L428.215 369.418C427.899 369.051 427.687 368.586 427.633 368.073C427.491 366.713 428.489 365.493 429.861 365.348C431.234 365.204 432.464 366.191 432.607 367.55C432.747 368.885 431.793 370.079 430.462 370.266L425.977 383.722C425.568 384.959 424.461 385.838 423.155 385.975L412.525 387.091C411.22 387.228 409.959 386.593 409.297 385.474L402.115 373.243C400.773 373.337 399.593 372.366 399.453 371.032C399.31 369.672 400.308 368.452 401.68 368.308C403.053 368.164 404.283 369.15 404.426 370.51C404.48 371.028 404.37 371.522 404.137 371.946L409.657 372.451L414.653 367.106C413.691 366.777 412.957 365.92 412.845 364.853C412.691 363.38 413.772 362.058 415.259 361.901C416.745 361.745 418.078 362.814 418.233 364.287L418.238 364.286Z" fill="#FDFDFD"/>
</g>
<path d="M512.798 105.297C514.54 124.844 500.106 142.101 480.56 143.843C461.013 145.585 443.755 131.151 442.013 111.605C477.406 108.451 457.859 110.193 477.406 108.451C496.952 106.709 477.406 108.451 512.798 105.297Z" fill="#06101E"/>
<defs>
<filter id="filter0_d_56_162" x="57.8676" y="95.4448" width="589.182" height="387.086" filterUnits="userSpaceOnUse" color-interpolation-filters="sRGB">
<feFlood flood-opacity="0" result="BackgroundImageFix"/>
<feColorMatrix in="SourceAlpha" type="matrix" values="0 0 0 0 0 0 0 0 0 0 0 0 0 0 0 0 0 0 127 0" result="hardAlpha"/>
<feOffset dy="3.69172"/>
<feGaussianBlur stdDeviation="1.84586"/>
<feComposite in2="hardAlpha" operator="out"/>
<feColorMatrix type="matrix" values="0 0 0 0 0 0 0 0 0 0 0 0 0 0 0 0 0 0 0.25 0"/>
<feBlend mode="normal" in2="BackgroundImageFix" result="effect1_dropShadow_56_162"/>
<feBlend mode="normal" in="SourceGraphic" in2="effect1_dropShadow_56_162" result="shape"/>
</filter>
<linearGradient id="paint0_linear_56_162" x1="71.5432" y1="322.291" x2="614.899" y2="317.656" gradientUnits="userSpaceOnUse">
<stop stop-color="#485B9C"/>
<stop offset="1" stop-color="#81C470"/>
</linearGradient>
<clipPath id="clip0_56_162">
<rect width="33.3364" height="26.4175" fill="white" transform="translate(398.677 363.643) rotate(-5.99508)"/>
</clipPath>
</defs>
</svg>
