<svg width="734" height="609" viewBox="0 0 734 609" fill="none" xmlns="http://www.w3.org/2000/svg">
<g filter="url(#filter0_d_132_851)">
<rect x="116.269" y="105.798" width="550.989" height="323.948" transform="rotate(7.97813 116.269 105.798)" fill="url(#paint0_linear_132_851)"/>
</g>
<line x1="530.214" y1="164.149" x2="484.568" y2="484.59" stroke="#06101E" stroke-width="4.61464" stroke-dasharray="3.69 3.69"/>
<path d="M138.718 380.023C140.096 381.913 141.92 383.017 144.191 383.335C146.463 383.653 148.507 383.091 150.325 381.65C152.142 380.208 153.212 378.338 153.534 376.041C153.856 373.743 153.341 371.651 151.99 369.766C150.638 367.88 148.827 366.778 146.556 366.46C144.285 366.142 142.227 366.701 140.383 368.139C138.565 369.581 137.496 371.451 137.174 373.748C136.852 376.046 137.367 378.138 138.718 380.023ZM154.196 386.595C150.971 389.051 147.351 389.998 143.337 389.435C139.323 388.873 136.087 386.979 133.631 383.754C131.205 380.506 130.273 376.875 130.836 372.86C131.398 368.846 133.29 365.624 136.512 363.194C139.763 360.742 143.396 359.797 147.411 360.359C151.425 360.922 154.645 362.827 157.071 366.075C159.523 369.327 160.47 372.947 159.912 376.934C159.353 380.922 157.448 384.142 154.196 386.595ZM187.719 395.169L182.292 394.409L171.022 375.098L168.586 392.488L162.287 391.606L166.228 363.481L171.655 364.241L182.885 383.546L185.321 366.156L191.66 367.044L187.719 395.169ZM193.661 396.002L197.601 367.876L215.427 370.374L214.583 376.395L203.056 374.78L202.351 379.811L211.502 381.093L210.658 387.114L201.508 385.832L200.803 390.863L212.33 392.478L211.486 398.499L193.661 396.002ZM229.098 400.967L232.195 378.863L225.025 377.858L225.869 371.837L246.626 374.745L245.783 380.766L238.534 379.751L235.437 401.855L229.098 400.967ZM246.542 403.411L250.483 375.286L256.782 376.168L252.841 404.293L246.542 403.411ZM271.654 407.414C267.64 406.851 264.404 404.958 261.948 401.732C259.522 398.484 258.59 394.853 259.153 390.839C259.715 386.825 261.607 383.603 264.829 381.173C268.08 378.721 271.713 377.775 275.728 378.338C278.606 378.741 281.109 379.805 283.237 381.531C285.365 383.256 286.887 385.368 287.802 387.865L281.835 390.099C280.574 386.799 278.253 384.912 274.873 384.438C272.602 384.12 270.544 384.68 268.7 386.118C266.882 387.56 265.813 389.429 265.491 391.727C265.169 394.025 265.684 396.116 267.035 398.002C268.413 399.891 270.237 400.995 272.508 401.313C275.889 401.787 278.639 400.611 280.758 397.784L285.882 401.572C284.315 403.722 282.272 405.334 279.752 406.408C277.232 407.482 274.532 407.817 271.654 407.414ZM306.261 411.778L296.578 397.577L294.813 410.174L288.554 409.297L292.495 381.172L298.753 382.049L297.105 393.814L308.3 383.386L316.025 384.469L303.04 396.423L314.342 412.91L306.261 411.778ZM316.291 413.183L320.231 385.058L338.057 387.556L337.214 393.577L325.686 391.962L324.981 396.993L334.132 398.275L333.288 404.296L324.138 403.014L323.433 408.045L334.96 409.66L334.117 415.681L316.291 413.183ZM343.992 417.065L347.089 394.96L339.919 393.956L340.763 387.935L361.52 390.843L360.676 396.864L353.427 395.848L350.33 417.953L343.992 417.065Z" fill="#FDFDFD"/>
<path d="M132.926 338.533L135.606 319.405L139.028 319.884L137.95 327.576L144.501 328.494L145.579 320.802L149.001 321.282L146.321 340.41L142.899 339.93L144.088 331.448L137.536 330.53L136.348 339.012L132.926 338.533ZM151.701 341.521C150.765 341.39 149.961 341.099 149.288 340.647C148.619 340.175 148.123 339.599 147.801 338.917C147.479 338.236 147.377 337.476 147.494 336.638C147.718 335.039 148.649 333.927 150.288 333.301C151.948 332.659 154.571 332.46 158.155 332.704C158.19 332.172 158.11 331.673 157.917 331.209C157.743 330.747 157.429 330.365 156.974 330.063C156.522 329.741 155.906 329.526 155.126 329.416C154.58 329.34 154.035 329.333 153.489 329.396C152.943 329.458 152.391 329.57 151.832 329.73C151.292 329.893 150.75 330.076 150.204 330.277L149.291 327.853C149.926 327.584 150.614 327.353 151.357 327.159C152.103 326.945 152.878 326.805 153.682 326.739C154.49 326.653 155.303 326.668 156.122 326.782C157.467 326.971 158.554 327.372 159.383 327.985C160.234 328.581 160.827 329.38 161.164 330.382C161.523 331.366 161.61 332.522 161.424 333.848L160.232 342.359L157.482 341.974L157.469 340.153L157.381 340.14C156.539 340.619 155.62 341.007 154.624 341.305C153.65 341.586 152.676 341.658 151.701 341.521ZM153.093 339.032C153.815 339.134 154.529 339.075 155.235 338.855C155.964 338.62 156.697 338.285 157.434 337.851L157.86 334.809C156.128 334.686 154.755 334.693 153.742 334.829C152.731 334.946 152.002 335.182 151.555 335.537C151.108 335.891 150.849 336.322 150.777 336.829C150.717 337.258 150.785 337.626 150.981 337.931C151.177 338.237 151.45 338.484 151.802 338.673C152.175 338.844 152.606 338.964 153.093 339.032ZM168.916 343.933C167.415 343.723 166.101 343.241 164.974 342.486C163.869 341.715 163.044 340.725 162.497 339.515C161.973 338.289 161.822 336.886 162.043 335.306C162.267 333.707 162.828 332.404 163.724 331.396C164.643 330.372 165.768 329.655 167.097 329.245C168.43 328.815 169.818 328.701 171.261 328.903C172.431 329.067 173.437 329.407 174.279 329.923C175.124 330.419 175.798 331.001 176.301 331.667L174.397 333.548C173.895 333.02 173.367 332.598 172.815 332.282C172.283 331.969 171.694 331.768 171.051 331.677C170.096 331.544 169.219 331.629 168.42 331.935C167.644 332.224 167.001 332.7 166.49 333.365C165.98 334.029 165.658 334.838 165.524 335.794C165.39 336.749 165.467 337.615 165.756 338.391C166.065 339.17 166.543 339.803 167.19 340.292C167.857 340.783 168.668 341.095 169.623 341.229C170.442 341.344 171.215 341.293 171.941 341.077C172.667 340.86 173.333 340.576 173.939 340.224L175.04 342.585C174.123 343.172 173.131 343.58 172.065 343.808C170.999 344.036 169.95 344.078 168.916 343.933ZM175.564 344.507L178.457 323.858L181.85 324.333L180.039 337.261L180.156 337.277L187.55 331.544L191.294 332.068L179.481 341.239L178.957 344.982L175.564 344.507ZM186.21 345.999L182.318 338.236L184.572 336.405L189.896 346.515L186.21 345.999ZM212.374 350.022C210.911 349.817 209.787 349.401 209 348.774C208.216 348.128 207.703 347.32 207.461 346.352C207.218 345.383 207.182 344.295 207.352 343.086L208.183 337.148L204.352 336.612L204.704 334.096L208.703 334.507L209.772 330.065L212.551 330.454L211.92 334.958L218.471 335.876L218.098 338.538L211.547 337.62L210.719 343.528C210.61 344.308 210.626 344.976 210.766 345.532C210.91 346.07 211.207 346.499 211.659 346.821C212.114 347.123 212.741 347.33 213.541 347.442C214.165 347.53 214.737 347.56 215.257 347.534C215.778 347.507 216.285 347.439 216.777 347.329L217.081 349.847C216.407 349.971 215.689 350.059 214.926 350.111C214.161 350.183 213.31 350.153 212.374 350.022ZM217.413 350.37L220.306 329.721L223.699 330.197L222.953 335.52L222.318 338.562L222.406 338.575C223.123 337.999 223.925 337.525 224.812 337.152C225.719 336.782 226.718 336.674 227.81 336.827C229.467 337.059 230.615 337.737 231.253 338.86C231.891 339.983 232.08 341.471 231.82 343.323L230.575 352.215L227.182 351.739L228.366 343.287C228.527 342.136 228.441 341.259 228.109 340.656C227.776 340.053 227.122 339.683 226.147 339.546C225.445 339.448 224.798 339.526 224.205 339.781C223.613 340.036 222.937 340.458 222.179 341.048L220.806 350.846L217.413 350.37ZM238.645 353.703C237.183 353.498 235.898 353.02 234.79 352.268C233.685 351.497 232.86 350.507 232.314 349.297C231.77 348.068 231.611 346.654 231.835 345.055C232.053 343.495 232.591 342.208 233.449 341.195C234.309 340.163 235.347 339.424 236.563 338.977C237.779 338.531 239.03 338.399 240.317 338.579C241.74 338.778 242.898 339.239 243.791 339.96C244.704 340.685 245.341 341.599 245.703 342.704C246.088 343.791 246.187 344.998 246.001 346.324C245.955 346.655 245.89 346.974 245.807 347.281C245.747 347.571 245.684 347.81 245.617 348L234.123 346.389L234.459 343.991L243.789 345.298L243.039 345.969C243.238 344.545 243.066 343.437 242.52 342.645C241.998 341.836 241.171 341.353 240.04 341.194C239.24 341.082 238.493 341.166 237.798 341.447C237.122 341.73 236.547 342.216 236.072 342.905C235.601 343.574 235.29 344.445 235.14 345.518C234.984 346.629 235.06 347.574 235.369 348.353C235.696 349.135 236.205 349.763 236.894 350.237C237.603 350.714 238.454 351.022 239.448 351.162C240.209 351.268 240.926 351.259 241.599 351.135C242.273 351.011 242.957 350.808 243.653 350.528L244.498 352.794C243.67 353.175 242.754 353.464 241.752 353.661C240.753 353.839 239.717 353.853 238.645 353.703ZM263.883 356.881L260.597 336.917L264.194 337.421L265.537 347.421C265.718 348.54 265.856 349.613 265.951 350.64C266.067 351.65 266.204 352.733 266.36 353.888L266.477 353.905C266.964 352.84 267.393 351.836 267.764 350.894C268.157 349.935 268.574 348.94 269.017 347.909L273.027 338.659L276.508 339.147L267.89 357.443L263.883 356.881ZM277.949 359.21C277.013 359.079 276.209 358.787 275.537 358.335C274.867 357.864 274.372 357.287 274.05 356.606C273.728 355.925 273.625 355.165 273.743 354.326C273.967 352.727 274.898 351.615 276.536 350.99C278.197 350.348 280.819 350.149 284.404 350.392C284.438 349.86 284.359 349.362 284.166 348.898C283.992 348.436 283.678 348.054 283.223 347.752C282.771 347.43 282.155 347.214 281.375 347.105C280.829 347.029 280.283 347.022 279.738 347.084C279.192 347.147 278.64 347.259 278.081 347.419C277.541 347.582 276.998 347.764 276.453 347.966L275.54 345.542C276.174 345.273 276.863 345.041 277.606 344.847C278.351 344.634 279.127 344.494 279.931 344.428C280.738 344.342 281.551 344.356 282.37 344.471C283.716 344.66 284.803 345.06 285.631 345.674C286.482 346.27 287.076 347.069 287.413 348.07C287.772 349.055 287.859 350.21 287.673 351.536L286.48 360.048L283.731 359.662L283.718 357.841L283.63 357.829C282.788 358.307 281.869 358.696 280.872 358.993C279.899 359.274 278.924 359.347 277.949 359.21ZM279.342 356.721C280.063 356.822 280.777 356.763 281.484 356.544C282.213 356.308 282.946 355.974 283.682 355.54L284.109 352.498C282.376 352.375 281.004 352.381 279.99 352.518C278.98 352.635 278.251 352.87 277.804 353.225C277.356 353.58 277.097 354.011 277.026 354.518C276.966 354.947 277.034 355.314 277.23 355.62C277.425 355.926 277.699 356.173 278.05 356.361C278.424 356.533 278.854 356.653 279.342 356.721ZM296.803 361.852C295.146 361.619 293.946 360.954 293.206 359.857C292.487 358.742 292.251 357.307 292.496 355.552L294.283 342.8L289.603 342.144L289.976 339.483L298.02 340.61L295.835 356.199C295.699 357.174 295.846 357.9 296.276 358.378C296.728 358.839 297.315 359.12 298.036 359.221C298.407 359.273 298.792 359.287 299.193 359.264C299.597 359.221 300.056 359.136 300.571 359.01L301.012 361.606C300.297 361.745 299.626 361.85 299 361.921C298.393 361.995 297.661 361.972 296.803 361.852ZM310.831 363.817C309.173 363.585 307.974 362.92 307.233 361.822C306.515 360.707 306.278 359.273 306.524 357.518L308.311 344.766L303.631 344.11L304.004 341.448L312.047 342.575L309.863 358.164C309.726 359.139 309.873 359.866 310.303 360.344C310.756 360.805 311.343 361.086 312.064 361.187C312.434 361.239 312.82 361.253 313.221 361.229C313.625 361.187 314.084 361.102 314.599 360.975L315.04 363.572C314.325 363.71 313.654 363.815 313.028 363.886C312.421 363.96 311.688 363.937 310.831 363.817ZM322.811 365.496C321.348 365.291 320.063 364.813 318.956 364.061C317.851 363.29 317.026 362.299 316.48 361.09C315.936 359.86 315.776 358.446 316 356.847C316.219 355.287 316.757 354.001 317.615 352.988C318.475 351.955 319.513 351.216 320.729 350.77C321.944 350.324 323.196 350.191 324.483 350.371C325.906 350.571 327.064 351.031 327.957 351.753C328.87 352.477 329.507 353.392 329.869 354.496C330.254 355.584 330.353 356.791 330.167 358.116C330.121 358.448 330.056 358.767 329.973 359.073C329.913 359.363 329.849 359.603 329.783 359.792L318.289 358.182L318.625 355.784L327.955 357.091L327.205 357.761C327.404 356.338 327.231 355.23 326.686 354.438C326.163 353.629 325.337 353.145 324.206 352.987C323.406 352.875 322.659 352.959 321.963 353.239C321.288 353.522 320.712 354.008 320.238 354.697C319.767 355.367 319.456 356.238 319.305 357.31C319.15 358.422 319.226 359.367 319.534 360.146C319.862 360.927 320.371 361.555 321.06 362.03C321.768 362.507 322.62 362.815 323.614 362.954C324.375 363.061 325.092 363.052 325.765 362.927C326.439 362.803 327.123 362.601 327.819 362.32L328.664 364.586C327.835 364.967 326.92 365.256 325.918 365.454C324.919 365.632 323.883 365.646 322.811 365.496ZM330.415 372.227C330.044 372.175 329.678 372.094 329.316 371.984C328.973 371.876 328.671 371.764 328.409 371.648L329.421 369.106C329.608 369.192 329.796 369.268 329.985 369.334C330.194 369.403 330.396 369.451 330.591 369.479C331.508 369.607 332.272 369.475 332.883 369.084C333.495 368.692 333.996 368.166 334.387 367.505L334.865 366.648L330.418 351.561L333.781 352.032L335.748 359.495C335.911 360.174 336.079 360.893 336.251 361.653C336.423 362.413 336.585 363.171 336.737 363.928L336.854 363.944C337.184 363.295 337.516 362.625 337.851 361.937C338.208 361.231 338.55 360.564 338.877 359.933L342.468 353.249L345.656 353.696L337.558 367.86C337.018 368.878 336.41 369.737 335.735 370.438C335.058 371.158 334.289 371.677 333.43 371.994C332.57 372.311 331.565 372.389 330.415 372.227ZM357.192 369.955L357.467 367.995C359.652 366.592 361.528 365.334 363.095 364.221C364.682 363.111 365.921 362.072 366.812 361.104C367.726 360.118 368.249 359.148 368.383 358.192C368.523 357.198 368.33 356.376 367.804 355.726C367.282 355.056 366.436 354.639 365.266 354.475C364.466 354.363 363.697 354.464 362.957 354.778C362.217 355.092 361.525 355.492 360.88 355.978L359.3 353.848C360.325 353.057 361.369 352.488 362.432 352.14C363.497 351.772 364.713 351.684 366.077 351.875C367.364 352.055 368.443 352.445 369.313 353.044C370.203 353.646 370.851 354.413 371.258 355.345C371.664 356.276 371.786 357.317 371.625 358.468C371.472 359.56 370.974 360.633 370.13 361.688C369.289 362.723 368.201 363.754 366.864 364.779C365.547 365.807 364.075 366.874 362.45 367.978C363.004 367.996 363.586 368.028 364.196 368.073C364.806 368.119 365.364 368.177 365.871 368.248L371.136 368.986L370.734 371.852L357.192 369.955ZM378.044 373.234C376.64 373.038 375.475 372.487 374.548 371.581C373.621 370.676 372.976 369.463 372.612 367.94C372.249 366.418 372.214 364.614 372.506 362.528C372.946 359.388 373.903 357.097 375.378 355.653C376.852 354.21 378.643 353.636 380.749 353.931C382.874 354.228 384.437 355.273 385.439 357.063C386.46 358.856 386.751 361.323 386.311 364.462C386.019 366.548 385.489 368.273 384.721 369.637C383.973 371.003 383.029 371.994 381.889 372.61C380.749 373.226 379.467 373.434 378.044 373.234ZM378.413 370.602C379.154 370.706 379.849 370.565 380.5 370.179C381.153 369.773 381.718 369.077 382.194 368.09C382.673 367.084 383.032 365.732 383.269 364.036C383.507 362.339 383.531 360.961 383.342 359.901C383.152 358.84 382.796 358.045 382.274 357.514C381.752 356.984 381.121 356.667 380.38 356.563C379.639 356.459 378.944 356.591 378.297 356.957C377.649 357.324 377.088 357.991 376.615 358.958C376.141 359.926 375.785 361.257 375.548 362.954C375.31 364.65 375.283 366.048 375.467 367.148C375.654 368.227 376.006 369.052 376.522 369.621C377.042 370.171 377.672 370.498 378.413 370.602ZM379.134 365.454C378.588 365.378 378.136 365.126 377.779 364.698C377.441 364.273 377.317 363.739 377.407 363.095C377.497 362.452 377.763 361.972 378.205 361.656C378.666 361.343 379.17 361.225 379.716 361.301C380.281 361.38 380.733 361.633 381.071 362.058C381.409 362.483 381.533 363.017 381.443 363.661C381.353 364.304 381.087 364.784 380.645 365.1C380.203 365.415 379.699 365.534 379.134 365.454ZM385.247 373.886L385.522 371.926C387.707 370.523 389.583 369.264 391.15 368.152C392.737 367.042 393.976 366.003 394.868 365.035C395.781 364.049 396.305 363.079 396.439 362.123C396.578 361.129 396.385 360.307 395.86 359.656C395.337 358.987 394.491 358.57 393.321 358.406C392.522 358.294 391.752 358.395 391.012 358.709C390.272 359.023 389.58 359.423 388.935 359.909L387.355 357.779C388.38 356.988 389.424 356.419 390.487 356.071C391.553 355.703 392.768 355.615 394.133 355.806C395.42 355.986 396.498 356.376 397.369 356.975C398.259 357.577 398.907 358.344 399.313 359.275C399.719 360.207 399.842 361.248 399.68 362.399C399.527 363.491 399.029 364.564 398.186 365.619C397.345 366.654 396.256 367.684 394.919 368.71C393.602 369.738 392.131 370.804 390.505 371.909C391.059 371.927 391.641 371.958 392.251 372.004C392.861 372.05 393.419 372.108 393.926 372.179L399.191 372.917L398.789 375.783L385.247 373.886ZM405.631 377.1C404.559 376.949 403.61 376.697 402.785 376.343C401.979 375.992 401.282 375.576 400.693 375.096C400.107 374.596 399.602 374.088 399.177 373.571L401.03 371.624C401.41 372.035 401.812 372.429 402.237 372.807C402.663 373.165 403.146 373.481 403.684 373.755C404.245 374.013 404.885 374.192 405.607 374.293C406.387 374.402 407.108 374.364 407.77 374.179C408.435 373.974 408.98 373.632 409.405 373.155C409.852 372.661 410.127 372.043 410.231 371.303C410.387 370.191 410.136 369.281 409.48 368.573C408.843 367.867 407.93 367.431 406.741 367.265C406.058 367.169 405.461 367.175 404.949 367.282C404.44 367.37 403.837 367.554 403.142 367.834L401.677 366.585L403.548 357.483L414.517 359.02L414.119 361.857L406.076 360.73L405.035 365.177C405.55 365.05 406.038 364.969 406.501 364.935C406.965 364.881 407.481 364.893 408.046 364.972C409.216 365.136 410.258 365.501 411.173 366.067C412.091 366.613 412.772 367.354 413.217 368.291C413.682 369.231 413.822 370.364 413.636 371.69C413.445 373.055 412.951 374.169 412.154 375.031C411.357 375.894 410.377 376.502 409.214 376.856C408.073 377.193 406.879 377.275 405.631 377.1Z" fill="#FDFDFD"/>
<path d="M161.043 185.117C159.561 184.909 158.309 184.336 157.288 183.398C156.266 182.46 155.537 181.204 155.102 179.632C154.685 178.063 154.627 176.206 154.928 174.061C155.22 171.975 155.781 170.244 156.61 168.869C157.461 167.477 158.505 166.48 159.742 165.878C160.98 165.276 162.34 165.079 163.822 165.287C165.303 165.494 166.557 166.058 167.581 166.977C168.605 167.896 169.326 169.14 169.742 170.709C170.181 172.262 170.254 174.081 169.961 176.167C169.661 178.312 169.085 180.08 168.234 181.472C167.402 182.867 166.366 183.875 165.126 184.496C163.886 185.118 162.525 185.325 161.043 185.117ZM161.457 182.163C162.276 182.278 163.026 182.104 163.707 181.643C164.388 181.182 164.968 180.448 165.447 179.441C165.926 178.435 166.271 177.181 166.481 175.68C166.686 174.217 166.694 172.956 166.504 171.896C166.317 170.816 165.959 169.97 165.428 169.359C164.9 168.728 164.227 168.356 163.408 168.241C162.589 168.126 161.839 168.299 161.158 168.761C160.48 169.202 159.902 169.917 159.426 170.904C158.953 171.871 158.613 173.086 158.408 174.549C158.198 176.05 158.185 177.35 158.369 178.45C158.553 179.549 158.909 180.414 159.437 181.045C159.965 181.675 160.638 182.048 161.457 182.163ZM176.358 187.263C174.856 187.052 173.542 186.57 172.415 185.816C171.31 185.045 170.485 184.054 169.939 182.844C169.415 181.618 169.263 180.215 169.485 178.635C169.709 177.037 170.269 175.733 171.166 174.726C172.085 173.701 173.209 172.984 174.539 172.574C175.871 172.144 177.259 172.031 178.702 172.233C179.872 172.397 180.878 172.736 181.72 173.252C182.565 173.748 183.239 174.33 183.742 174.997L181.839 176.877C181.336 176.349 180.809 175.928 180.257 175.612C179.724 175.298 179.136 175.097 178.492 175.007C177.537 174.873 176.66 174.959 175.862 175.264C175.086 175.553 174.442 176.03 173.932 176.694C173.421 177.358 173.099 178.168 172.965 179.123C172.831 180.079 172.909 180.944 173.198 181.72C173.506 182.499 173.984 183.133 174.631 183.621C175.298 184.112 176.109 184.425 177.065 184.558C177.884 184.673 178.656 184.622 179.382 184.406C180.108 184.19 180.775 183.905 181.381 183.553L182.481 185.914C181.564 186.501 180.572 186.909 179.507 187.137C178.441 187.366 177.391 187.408 176.358 187.263ZM191.76 189.421C190.298 189.216 189.173 188.8 188.386 188.173C187.602 187.526 187.089 186.718 186.847 185.75C186.605 184.782 186.568 183.693 186.738 182.484L187.569 176.547L183.738 176.01L184.09 173.495L188.089 173.906L189.158 169.463L191.937 169.852L191.306 174.357L197.857 175.274L197.485 177.936L190.933 177.018L190.105 182.926C189.996 183.706 190.012 184.374 190.152 184.931C190.296 185.468 190.594 185.897 191.045 186.219C191.5 186.521 192.127 186.729 192.927 186.841C193.551 186.928 194.123 186.958 194.644 186.932C195.164 186.906 195.671 186.837 196.163 186.727L196.467 189.245C195.793 189.369 195.075 189.458 194.312 189.51C193.547 189.582 192.696 189.552 191.76 189.421ZM203.126 191.013C201.859 190.836 200.72 190.378 199.71 189.64C198.703 188.882 197.936 187.9 197.409 186.693C196.885 185.467 196.734 184.064 196.955 182.484C197.179 180.885 197.71 179.578 198.548 178.562C199.389 177.527 200.397 176.793 201.57 176.361C202.747 175.91 203.969 175.773 205.236 175.95C206.504 176.128 207.641 176.596 208.648 177.353C209.658 178.091 210.425 179.073 210.949 180.3C211.476 181.507 211.628 182.91 211.403 184.509C211.182 186.088 210.651 187.395 209.81 188.431C208.972 189.447 207.965 190.18 206.788 190.632C205.614 191.064 204.393 191.191 203.126 191.013ZM203.511 188.264C204.291 188.373 204.991 188.272 205.611 187.962C206.231 187.651 206.738 187.155 207.132 186.475C207.525 185.794 207.789 184.976 207.923 184.021C208.057 183.066 208.028 182.207 207.837 181.444C207.645 180.682 207.294 180.066 206.783 179.597C206.275 179.108 205.631 178.809 204.851 178.7C204.071 178.591 203.37 178.701 202.747 179.031C202.147 179.345 201.64 179.84 201.227 180.518C200.833 181.199 200.569 182.017 200.435 182.972C200.302 183.927 200.33 184.786 200.522 185.549C200.733 186.314 201.084 186.93 201.575 187.396C202.086 187.865 202.731 188.155 203.511 188.264ZM218.002 193.097C217.319 193.002 216.631 192.736 215.936 192.301C215.261 191.869 214.646 191.295 214.09 190.581L214.002 190.569L213.488 192.107L210.827 191.734L213.72 171.085L217.113 171.561L216.367 176.884L215.868 179.379L215.956 179.391C216.642 178.891 217.389 178.528 218.196 178.303C219.025 178.061 219.83 177.995 220.61 178.104C221.857 178.279 222.868 178.729 223.641 179.454C224.434 180.181 224.988 181.124 225.303 182.281C225.621 183.419 225.676 184.729 225.468 186.211C225.239 187.849 224.74 189.21 223.971 190.296C223.206 191.361 222.292 192.138 221.229 192.625C220.189 193.096 219.113 193.253 218.002 193.097ZM217.718 190.225C218.381 190.318 219.012 190.217 219.61 189.923C220.208 189.629 220.713 189.143 221.126 188.465C221.542 187.768 221.826 186.874 221.979 185.782C222.113 184.826 222.111 183.991 221.973 183.276C221.834 182.56 221.546 181.993 221.108 181.574C220.691 181.138 220.084 180.864 219.284 180.752C218.738 180.675 218.163 180.734 217.56 180.928C216.956 181.121 216.319 181.48 215.65 182.002L214.744 188.466C215.205 189.008 215.703 189.425 216.239 189.719C216.777 189.993 217.27 190.162 217.718 190.225ZM232.059 195.067C230.596 194.862 229.311 194.384 228.204 193.632C227.099 192.861 226.274 191.871 225.728 190.661C225.184 189.432 225.024 188.018 225.248 186.419C225.467 184.859 226.005 183.572 226.863 182.559C227.723 181.527 228.761 180.787 229.977 180.341C231.192 179.895 232.444 179.762 233.73 179.943C235.154 180.142 236.312 180.603 237.205 181.324C238.118 182.049 238.755 182.963 239.117 184.067C239.501 185.155 239.601 186.362 239.415 187.688C239.369 188.019 239.304 188.338 239.221 188.645C239.161 188.935 239.097 189.174 239.031 189.364L227.537 187.753L227.873 185.355L237.203 186.662L236.453 187.332C236.652 185.909 236.479 184.801 235.934 184.009C235.411 183.2 234.584 182.717 233.454 182.558C232.654 182.446 231.907 182.53 231.211 182.811C230.535 183.094 229.96 183.58 229.486 184.269C229.014 184.938 228.704 185.809 228.553 186.882C228.398 187.993 228.474 188.938 228.782 189.717C229.11 190.499 229.619 191.127 230.308 191.601C231.016 192.078 231.868 192.386 232.862 192.525C233.623 192.632 234.34 192.623 235.013 192.499C235.687 192.374 236.371 192.172 237.066 191.892L237.912 194.157C237.083 194.538 236.168 194.828 235.166 195.025C234.167 195.203 233.131 195.217 232.059 195.067ZM240.286 195.862L242.298 181.501L245.077 181.89L244.914 185.178L245.002 185.19C245.887 184.121 246.899 183.358 248.036 182.902C249.196 182.428 250.39 182.277 251.619 182.449C252.204 182.531 252.704 182.651 253.119 182.808C253.535 182.966 253.933 183.171 254.315 183.423L253.216 186.162C252.77 185.941 252.366 185.775 252.003 185.664C251.663 185.537 251.22 185.435 250.674 185.359C249.699 185.222 248.704 185.371 247.689 185.805C246.694 186.242 245.727 187.111 244.789 188.411L243.679 196.337L240.286 195.862ZM272.767 200.771C271.695 200.62 270.746 200.368 269.921 200.014C269.115 199.663 268.408 199.245 267.8 198.763C267.194 198.26 266.701 197.734 266.321 197.184L268.204 195.24C268.748 195.893 269.402 196.482 270.163 197.006C270.947 197.514 271.846 197.838 272.86 197.98C273.62 198.087 274.318 198.075 274.952 197.945C275.589 197.796 276.102 197.54 276.491 197.177C276.902 196.797 277.149 196.315 277.231 195.73C277.321 195.086 277.204 194.503 276.879 193.981C276.555 193.458 275.962 193.007 275.101 192.628C274.242 192.229 273.042 191.922 271.502 191.706L271.846 189.25C273.192 189.438 274.282 189.462 275.117 189.32C275.955 189.159 276.589 188.89 277.019 188.513C277.453 188.117 277.71 187.626 277.792 187.041C277.901 186.261 277.684 185.614 277.14 185.1C276.617 184.57 275.859 184.235 274.865 184.096C274.065 183.984 273.291 184.044 272.543 184.277C271.797 184.491 271.076 184.817 270.378 185.256L268.914 182.934C269.87 182.352 270.885 181.918 271.959 181.631C273.053 181.347 274.194 181.288 275.384 181.455C276.651 181.632 277.745 181.984 278.665 182.511C279.608 183.021 280.3 183.684 280.742 184.502C281.207 185.302 281.365 186.229 281.218 187.282C281.073 188.316 280.61 189.135 279.829 189.742C279.049 190.348 278.054 190.775 276.846 191.024L276.83 191.141C277.622 191.45 278.32 191.857 278.926 192.359C279.551 192.864 280.015 193.456 280.317 194.134C280.62 194.813 280.714 195.562 280.599 196.381C280.441 197.512 279.973 198.44 279.195 199.166C278.439 199.875 277.495 200.369 276.363 200.648C275.253 200.91 274.054 200.951 272.767 200.771ZM282.369 201.758L284.381 187.397L287.16 187.787L286.997 191.074L287.085 191.086C287.97 190.018 288.982 189.255 290.119 188.798C291.279 188.324 292.473 188.173 293.702 188.345C294.287 188.427 294.787 188.547 295.202 188.705C295.617 188.862 296.016 189.067 296.398 189.32L295.299 192.058C294.853 191.837 294.449 191.671 294.086 191.56C293.746 191.433 293.303 191.331 292.757 191.255C291.782 191.118 290.787 191.267 289.772 191.702C288.776 192.139 287.81 193.007 286.872 194.307L285.762 202.233L282.369 201.758ZM300.237 204.62C298.404 204.363 297.015 203.492 296.07 202.008C295.125 200.523 294.818 198.602 295.148 196.242C295.367 194.682 295.858 193.379 296.621 192.333C297.384 191.287 298.295 190.53 299.354 190.062C300.414 189.594 301.48 189.435 302.552 189.585C303.371 189.7 304.072 189.948 304.655 190.327C305.258 190.71 305.794 191.213 306.263 191.835L306.351 191.847L306.516 189.395L307.245 184.189L310.638 184.664L307.745 205.314L304.966 204.924L304.937 203.22L304.849 203.208C304.226 203.677 303.506 204.064 302.688 204.367C301.873 204.65 301.056 204.734 300.237 204.62ZM301.446 201.956C302.031 202.038 302.615 201.98 303.199 201.784C303.786 201.568 304.364 201.202 304.934 200.685L305.84 194.221C305.401 193.663 304.942 193.25 304.462 192.984C303.982 192.718 303.479 192.548 302.953 192.475C302.29 192.382 301.65 192.481 301.032 192.772C300.435 193.066 299.921 193.541 299.491 194.196C299.061 194.852 298.775 195.687 298.633 196.701C298.417 198.241 298.554 199.463 299.044 200.367C299.553 201.273 300.354 201.803 301.446 201.956ZM324.111 199.018L324.455 196.561L337.441 198.38L337.097 200.837L324.111 199.018ZM356.962 212.567C355.89 212.417 354.941 212.165 354.116 211.811C353.31 211.459 352.613 211.043 352.024 210.563C351.438 210.064 350.932 209.555 350.508 209.039L352.361 207.091C352.741 207.503 353.143 207.897 353.567 208.274C353.994 208.632 354.477 208.949 355.015 209.223C355.575 209.48 356.216 209.659 356.938 209.761C357.718 209.87 358.439 209.832 359.101 209.646C359.766 209.441 360.311 209.1 360.736 208.623C361.182 208.129 361.458 207.511 361.562 206.77C361.717 205.659 361.467 204.749 360.811 204.041C360.174 203.335 359.261 202.899 358.072 202.732C357.389 202.637 356.792 202.642 356.28 202.75C355.771 202.837 355.168 203.021 354.473 203.302L353.008 202.053L354.879 192.951L365.847 194.487L365.45 197.324L357.407 196.198L356.366 200.644C356.881 200.518 357.369 200.437 357.831 200.402C358.296 200.348 358.811 200.361 359.377 200.44C360.547 200.604 361.589 200.969 362.504 201.534C363.422 202.08 364.103 202.822 364.548 203.759C365.013 204.699 365.153 205.832 364.967 207.158C364.776 208.523 364.281 209.636 363.485 210.499C362.688 211.361 361.708 211.97 360.545 212.324C359.404 212.661 358.21 212.742 356.962 212.567ZM374.119 214.971C372.657 214.766 371.532 214.35 370.745 213.723C369.961 213.076 369.448 212.269 369.206 211.301C368.964 210.332 368.927 209.244 369.097 208.035L369.929 202.097L366.097 201.56L366.45 199.045L370.448 199.456L371.518 195.013L374.296 195.403L373.665 199.907L380.217 200.825L379.844 203.486L373.292 202.569L372.464 208.477C372.355 209.257 372.371 209.925 372.512 210.481C372.655 211.018 372.953 211.448 373.405 211.77C373.859 212.072 374.486 212.279 375.286 212.391C375.91 212.478 376.482 212.509 377.003 212.482C377.523 212.456 378.03 212.388 378.523 212.278L378.826 214.796C378.152 214.92 377.434 215.008 376.671 215.06C375.906 215.132 375.055 215.102 374.119 214.971ZM379.158 215.319L382.052 194.67L385.444 195.146L384.698 200.469L384.063 203.511L384.151 203.523C384.868 202.948 385.67 202.474 386.557 202.101C387.464 201.731 388.463 201.622 389.555 201.775C391.213 202.008 392.36 202.685 392.998 203.809C393.636 204.932 393.825 206.42 393.566 208.272L392.32 217.163L388.927 216.688L390.112 208.235C390.273 207.085 390.187 206.208 389.854 205.605C389.521 205.001 388.867 204.631 387.892 204.495C387.19 204.396 386.543 204.475 385.95 204.73C385.358 204.985 384.683 205.407 383.924 205.997L382.551 215.795L379.158 215.319Z" fill="#FDFDFD"/>
<path d="M154.19 215.174C153.401 215.063 152.708 214.847 152.112 214.524C151.53 214.204 151.053 213.78 150.68 213.25C150.321 212.723 150.075 212.084 149.942 211.335C149.825 210.573 149.835 209.702 149.972 208.722L151.214 199.86L153.758 200.217L152.489 209.276C152.38 210.051 152.386 210.701 152.507 211.225C152.644 211.736 152.886 212.135 153.234 212.423C153.581 212.71 154.003 212.888 154.501 212.958C155.027 213.032 155.49 212.977 155.888 212.794C156.301 212.614 156.644 212.296 156.916 211.843C157.205 211.376 157.404 210.755 157.512 209.98L158.782 200.921L161.217 201.262L159.975 210.124C159.838 211.104 159.608 211.944 159.286 212.644C158.967 213.33 158.555 213.876 158.05 214.283C157.561 214.691 156.992 214.97 156.345 215.118C155.698 215.266 154.98 215.284 154.19 215.174ZM159.944 215.711L161.453 204.941L163.537 205.233L163.507 206.884L163.595 206.896C164.18 206.441 164.806 206.074 165.471 205.794C166.151 205.517 166.908 205.437 167.742 205.553C168.985 205.728 169.845 206.236 170.324 207.078C170.802 207.921 170.944 209.037 170.749 210.426L169.815 217.094L167.271 216.738L168.159 210.398C168.28 209.535 168.215 208.878 167.965 208.425C167.716 207.973 167.225 207.695 166.494 207.593C165.968 207.519 165.482 207.578 165.038 207.769C164.594 207.96 164.087 208.277 163.518 208.719L162.488 216.068L159.944 215.711ZM175.181 217.846L176.41 209.072L171.738 208.417L172.018 206.421L179.213 207.429L177.703 218.2L175.181 217.846ZM178.041 205.252C177.53 205.18 177.12 204.966 176.812 204.61C176.518 204.256 176.408 203.823 176.479 203.311C176.551 202.799 176.777 202.413 177.156 202.153C177.552 201.881 178.006 201.78 178.518 201.852C179.044 201.926 179.453 202.147 179.744 202.516C180.038 202.87 180.149 203.303 180.077 203.815C180.005 204.327 179.78 204.713 179.4 204.973C179.021 205.233 178.568 205.326 178.041 205.252ZM184.385 219.136L181.595 207.763L184.14 208.119L185.44 214.005C185.556 214.558 185.664 215.117 185.764 215.683C185.878 216.251 185.977 216.824 186.06 217.402L186.148 217.414C186.401 216.883 186.653 216.359 186.904 215.843C187.156 215.326 187.413 214.818 187.677 214.318L190.545 209.017L192.958 209.355L187.259 219.538L184.385 219.136ZM196.909 221.159C195.813 221.005 194.849 220.647 194.018 220.083C193.19 219.505 192.571 218.762 192.161 217.854C191.753 216.932 191.633 215.872 191.801 214.673C191.965 213.503 192.369 212.538 193.012 211.778C193.658 211.004 194.436 210.449 195.348 210.115C196.259 209.78 197.198 209.681 198.163 209.816C199.231 209.965 200.099 210.311 200.769 210.852C201.453 211.395 201.931 212.081 202.203 212.909C202.491 213.725 202.566 214.63 202.426 215.625C202.392 215.873 202.343 216.112 202.281 216.342C202.236 216.56 202.188 216.739 202.139 216.881L193.518 215.674L193.77 213.875L200.767 214.855L200.205 215.358C200.354 214.29 200.225 213.46 199.816 212.866C199.424 212.259 198.804 211.896 197.955 211.777C197.356 211.693 196.795 211.756 196.274 211.967C195.767 212.179 195.335 212.543 194.98 213.06C194.626 213.562 194.393 214.216 194.28 215.02C194.163 215.854 194.221 216.562 194.452 217.146C194.698 217.733 195.079 218.204 195.596 218.559C196.127 218.917 196.766 219.148 197.512 219.253C198.082 219.333 198.62 219.326 199.125 219.233C199.63 219.139 200.144 218.988 200.665 218.777L201.299 220.477C200.678 220.762 199.991 220.979 199.24 221.128C198.49 221.261 197.714 221.272 196.909 221.159ZM203.08 221.755L204.589 210.984L206.673 211.276L206.551 213.742L206.617 213.751C207.281 212.95 208.039 212.378 208.893 212.035C209.762 211.68 210.658 211.566 211.579 211.696C212.018 211.757 212.393 211.847 212.705 211.965C213.016 212.083 213.315 212.237 213.602 212.426L212.777 214.48C212.443 214.314 212.14 214.19 211.868 214.107C211.613 214.011 211.281 213.935 210.871 213.878C210.14 213.775 209.394 213.887 208.632 214.213C207.885 214.54 207.16 215.192 206.457 216.167L205.624 222.112L203.08 221.755ZM217.358 224.024C216.349 223.883 215.407 223.587 214.531 223.136C213.656 222.67 212.915 222.164 212.305 221.616L213.627 220.169C214.211 220.683 214.858 221.116 215.569 221.47C216.282 221.808 217.077 222.039 217.955 222.162C218.701 222.266 219.267 222.219 219.652 222.019C220.055 221.807 220.281 221.526 220.33 221.175C220.354 220.999 220.333 220.832 220.266 220.674C220.213 220.517 220.093 220.366 219.904 220.221C219.718 220.06 219.436 219.894 219.057 219.722C218.679 219.549 218.184 219.353 217.574 219.134C216.184 218.626 215.189 218.061 214.59 217.441C213.991 216.82 213.748 216.107 213.861 215.303C213.994 214.353 214.512 213.635 215.415 213.15C216.333 212.667 217.545 212.531 219.051 212.742C219.943 212.867 220.756 213.13 221.49 213.531C222.239 213.935 222.858 214.357 223.348 214.798L221.967 216.193C221.505 215.77 220.978 215.428 220.389 215.166C219.801 214.89 219.193 214.708 218.564 214.62C218.082 214.552 217.687 214.549 217.38 214.611C217.088 214.674 216.855 214.791 216.683 214.96C216.526 215.117 216.433 215.306 216.402 215.525C216.349 215.905 216.528 216.221 216.94 216.473C217.352 216.724 218.04 217.029 219.004 217.388C220.124 217.799 220.977 218.209 221.56 218.619C222.146 219.014 222.527 219.432 222.704 219.875C222.897 220.304 222.953 220.812 222.871 221.397C222.785 222.011 222.509 222.546 222.042 223.003C221.592 223.447 220.973 223.77 220.184 223.973C219.397 224.161 218.455 224.178 217.358 224.024ZM227.784 225.216L229.014 216.442L224.341 215.787L224.621 213.791L231.816 214.799L230.307 225.57L227.784 225.216ZM230.645 212.622C230.133 212.551 229.723 212.337 229.415 211.98C229.122 211.626 229.011 211.193 229.083 210.681C229.155 210.169 229.38 209.783 229.76 209.523C230.156 209.251 230.61 209.15 231.121 209.222C231.648 209.296 232.057 209.517 232.348 209.886C232.641 210.24 232.752 210.673 232.68 211.185C232.609 211.697 232.383 212.083 232.004 212.343C231.624 212.603 231.171 212.696 230.645 212.622ZM240.33 227.243C239.234 227.089 238.39 226.777 237.8 226.307C237.212 225.822 236.827 225.216 236.645 224.49C236.464 223.763 236.436 222.947 236.564 222.04L237.187 217.587L234.314 217.185L234.578 215.298L237.577 215.606L238.379 212.274L240.463 212.566L239.99 215.945L244.903 216.633L244.624 218.629L239.71 217.941L239.089 222.372C239.007 222.957 239.019 223.458 239.125 223.875C239.232 224.278 239.455 224.6 239.794 224.841C240.135 225.068 240.606 225.224 241.205 225.308C241.673 225.373 242.103 225.396 242.493 225.376C242.883 225.356 243.263 225.305 243.633 225.223L243.86 227.111C243.355 227.204 242.817 227.27 242.244 227.31C241.67 227.363 241.032 227.341 240.33 227.243ZM244.695 232.104C244.417 232.065 244.143 232.004 243.871 231.921C243.614 231.841 243.387 231.757 243.191 231.669L243.95 229.763C244.09 229.827 244.231 229.884 244.373 229.934C244.53 229.986 244.681 230.022 244.828 230.042C245.515 230.139 246.088 230.04 246.547 229.746C247.005 229.453 247.381 229.058 247.674 228.562L248.033 227.919L244.697 216.604L247.22 216.958L248.695 222.555C248.817 223.064 248.943 223.603 249.072 224.173C249.201 224.743 249.323 225.312 249.437 225.879L249.525 225.892C249.772 225.404 250.021 224.902 250.272 224.386C250.54 223.857 250.797 223.356 251.042 222.883L253.735 217.87L256.126 218.205L250.053 228.829C249.647 229.592 249.192 230.236 248.686 230.762C248.178 231.302 247.601 231.691 246.957 231.929C246.312 232.166 245.558 232.225 244.695 232.104ZM269.896 231.385C268.946 231.252 268.092 230.909 267.334 230.355C266.579 229.787 266.004 229.05 265.609 228.145C265.216 227.225 265.102 226.173 265.268 224.988C265.436 223.789 265.834 222.809 266.463 222.047C267.094 221.27 267.849 220.72 268.73 220.396C269.612 220.058 270.529 219.955 271.479 220.088C272.43 220.221 273.283 220.572 274.038 221.14C274.796 221.693 275.371 222.43 275.764 223.35C276.159 224.255 276.272 225.308 276.104 226.507C275.938 227.691 275.54 228.672 274.909 229.448C274.281 230.21 273.525 230.76 272.643 231.099C271.762 231.423 270.847 231.518 269.896 231.385ZM270.185 229.323C270.77 229.405 271.295 229.33 271.76 229.097C272.225 228.863 272.605 228.492 272.901 227.981C273.196 227.471 273.394 226.858 273.494 226.141C273.594 225.424 273.573 224.78 273.429 224.208C273.286 223.637 273.022 223.175 272.639 222.823C272.258 222.456 271.775 222.232 271.19 222.15C270.605 222.068 270.079 222.151 269.612 222.399C269.162 222.634 268.782 223.005 268.472 223.514C268.177 224.024 267.979 224.638 267.878 225.354C267.778 226.071 267.8 226.715 267.943 227.287C268.101 227.861 268.365 228.323 268.733 228.672C269.116 229.024 269.6 229.241 270.185 229.323ZM278.875 232.375L280.467 221.012C280.585 220.164 280.852 219.433 281.266 218.82C281.682 218.192 282.252 217.743 282.976 217.472C283.702 217.186 284.591 217.116 285.644 217.264C286.229 217.346 286.776 217.482 287.287 217.673C287.813 217.851 288.306 218.062 288.764 218.305L287.976 220.096C287.604 219.88 287.232 219.708 286.862 219.582C286.507 219.457 286.11 219.365 285.671 219.303C284.852 219.188 284.224 219.309 283.787 219.665C283.351 220.007 283.08 220.558 282.973 221.318L281.375 232.725L278.875 232.375ZM277.121 223.182L277.385 221.296L280.449 221.613L286.986 222.529L286.707 224.525L277.121 223.182ZM300.223 235.366L301.935 223.147L297.416 222.514L297.714 220.387L309.297 222.009L308.998 224.137L304.48 223.504L302.768 235.722L300.223 235.366ZM311.979 237.281C311.029 237.148 310.175 236.805 309.417 236.251C308.662 235.683 308.086 234.947 307.691 234.041C307.298 233.121 307.185 232.069 307.351 230.885C307.519 229.686 307.917 228.705 308.546 227.943C309.177 227.167 309.932 226.616 310.813 226.292C311.695 225.954 312.611 225.851 313.562 225.984C314.513 226.118 315.366 226.468 316.121 227.036C316.879 227.59 317.454 228.326 317.847 229.246C318.242 230.152 318.355 231.204 318.187 232.403C318.021 233.588 317.623 234.568 316.992 235.345C316.364 236.106 315.608 236.657 314.726 236.995C313.845 237.319 312.93 237.415 311.979 237.281ZM312.268 235.219C312.853 235.301 313.378 235.226 313.843 234.993C314.308 234.76 314.688 234.388 314.984 233.878C315.279 233.367 315.477 232.754 315.577 232.037C315.677 231.321 315.656 230.676 315.512 230.105C315.369 229.533 315.105 229.071 314.722 228.719C314.341 228.353 313.858 228.128 313.273 228.046C312.688 227.964 312.162 228.047 311.695 228.295C311.245 228.53 310.864 228.902 310.555 229.41C310.259 229.92 310.062 230.534 309.961 231.25C309.861 231.967 309.882 232.611 310.026 233.183C310.184 233.757 310.448 234.219 310.816 234.569C311.199 234.921 311.683 235.137 312.268 235.219ZM318.808 237.97L320.317 227.199L322.401 227.491L322.279 229.957L322.345 229.966C323.009 229.164 323.767 228.592 324.621 228.25C325.49 227.894 326.386 227.781 327.307 227.91C327.746 227.972 328.121 228.062 328.433 228.18C328.744 228.298 329.043 228.452 329.33 228.641L328.505 230.695C328.171 230.529 327.868 230.404 327.596 230.321C327.341 230.226 327.009 230.15 326.599 230.092C325.868 229.99 325.122 230.102 324.36 230.427C323.613 230.755 322.888 231.407 322.185 232.382L321.352 238.326L318.808 237.97ZM333.021 240.23C332.07 240.096 331.216 239.753 330.459 239.2C329.703 238.631 329.128 237.895 328.733 236.99C328.34 236.07 328.226 235.017 328.392 233.833C328.56 232.634 328.959 231.653 329.587 230.891C330.218 230.115 330.974 229.565 331.854 229.241C332.736 228.902 333.653 228.799 334.604 228.932C335.554 229.066 336.407 229.416 337.162 229.984C337.92 230.538 338.495 231.275 338.888 232.194C339.283 233.1 339.397 234.152 339.229 235.351C339.063 236.536 338.664 237.516 338.034 238.293C337.405 239.055 336.65 239.605 335.767 239.943C334.887 240.267 333.971 240.363 333.021 240.23ZM333.31 238.168C333.895 238.25 334.42 238.174 334.885 237.941C335.35 237.708 335.73 237.336 336.025 236.826C336.32 236.315 336.518 235.702 336.618 234.985C336.719 234.269 336.697 233.625 336.554 233.053C336.41 232.481 336.147 232.019 335.764 231.667C335.383 231.301 334.9 231.076 334.315 230.994C333.73 230.913 333.204 230.995 332.736 231.243C332.286 231.478 331.906 231.85 331.596 232.358C331.301 232.869 331.103 233.482 331.003 234.199C330.902 234.915 330.924 235.559 331.067 236.131C331.226 236.705 331.489 237.167 331.857 237.517C332.241 237.869 332.725 238.086 333.31 238.168ZM338.796 240.77L340.305 230L342.389 230.292L342.359 231.943L342.447 231.955C343.033 231.5 343.658 231.133 344.324 230.854C345.004 230.576 345.76 230.496 346.594 230.612C347.837 230.787 348.698 231.295 349.176 232.137C349.655 232.98 349.796 234.096 349.602 235.485L348.667 242.153L346.123 241.797L347.011 235.457C347.132 234.595 347.068 233.937 346.818 233.484C346.568 233.032 346.078 232.754 345.346 232.652C344.82 232.578 344.335 232.637 343.89 232.828C343.446 233.019 342.939 233.336 342.37 233.778L341.341 241.127L338.796 240.77ZM356.058 243.457C354.961 243.304 354.118 242.992 353.528 242.521C352.94 242.036 352.555 241.431 352.373 240.704C352.192 239.978 352.164 239.162 352.292 238.255L352.915 233.802L350.042 233.399L350.306 231.513L353.305 231.821L354.107 228.489L356.191 228.781L355.718 232.159L360.631 232.848L360.352 234.844L355.438 234.155L354.817 238.586C354.735 239.171 354.747 239.673 354.853 240.09C354.96 240.493 355.183 240.815 355.522 241.056C355.863 241.283 356.334 241.438 356.933 241.522C357.401 241.588 357.831 241.611 358.221 241.591C358.611 241.571 358.991 241.52 359.361 241.437L359.588 243.326C359.083 243.419 358.545 243.485 357.972 243.524C357.398 243.578 356.76 243.556 356.058 243.457ZM364.583 244.652C363.632 244.519 362.778 244.175 362.021 243.622C361.265 243.054 360.69 242.317 360.295 241.412C359.902 240.492 359.789 239.44 359.955 238.255C360.123 237.056 360.521 236.075 361.15 235.313C361.78 234.537 362.536 233.987 363.416 233.663C364.299 233.324 365.215 233.221 366.166 233.355C367.116 233.488 367.969 233.838 368.725 234.407C369.482 234.96 370.057 235.697 370.45 236.617C370.845 237.522 370.959 238.574 370.791 239.773C370.625 240.958 370.227 241.938 369.596 242.715C368.967 243.477 368.212 244.027 367.329 244.366C366.449 244.69 365.533 244.785 364.583 244.652ZM364.872 242.59C365.457 242.672 365.982 242.596 366.447 242.363C366.912 242.13 367.292 241.758 367.587 241.248C367.882 240.738 368.08 240.124 368.181 239.408C368.281 238.691 368.259 238.047 368.116 237.475C367.972 236.903 367.709 236.441 367.326 236.089C366.945 235.723 366.462 235.499 365.877 235.417C365.292 235.335 364.766 235.418 364.299 235.665C363.848 235.9 363.468 236.272 363.158 236.78C362.863 237.291 362.665 237.904 362.565 238.621C362.465 239.337 362.486 239.982 362.63 240.553C362.788 241.127 363.051 241.589 363.42 241.939C363.803 242.291 364.287 242.508 364.872 242.59ZM150.327 242.906C149.318 242.764 148.378 242.446 147.508 241.952C146.638 241.457 145.892 240.823 145.27 240.05L147.004 238.526C147.478 239.084 148.037 239.565 148.681 239.969C149.327 240.358 150.031 240.605 150.791 240.712C151.625 240.829 152.283 240.757 152.767 240.497C153.253 240.222 153.531 239.836 153.6 239.338C153.66 238.914 153.605 238.564 153.435 238.286C153.267 237.994 153.012 237.735 152.671 237.508C152.345 237.284 151.954 237.042 151.498 236.785L149.665 235.656C149.197 235.381 148.744 235.049 148.306 234.66C147.883 234.273 147.553 233.809 147.316 233.269C147.093 232.731 147.031 232.111 147.129 231.409C147.236 230.648 147.543 229.998 148.051 229.458C148.561 228.903 149.214 228.502 150.009 228.256C150.82 227.997 151.709 227.935 152.674 228.07C153.552 228.193 154.362 228.478 155.104 228.925C155.863 229.359 156.504 229.896 157.026 230.536L155.482 231.975C155.055 231.513 154.585 231.141 154.072 230.86C153.577 230.567 152.963 230.37 152.232 230.267C151.559 230.173 150.99 230.242 150.525 230.475C150.06 230.708 149.79 231.095 149.714 231.637C149.663 232.002 149.738 232.318 149.939 232.585C150.14 232.852 150.411 233.099 150.752 233.325C151.108 233.554 151.487 233.779 151.888 233.999L153.661 235.075C154.242 235.395 154.743 235.756 155.164 236.158C155.585 236.56 155.892 237.028 156.086 237.562C156.282 238.081 156.33 238.692 156.232 239.394C156.123 240.169 155.812 240.849 155.298 241.433C154.783 242.017 154.104 242.451 153.259 242.735C152.416 243.005 151.438 243.061 150.327 242.906ZM161.769 244.509C160.643 244.351 159.657 243.989 158.812 243.424C157.984 242.845 157.365 242.102 156.955 241.195C156.562 240.275 156.448 239.223 156.614 238.038C156.782 236.839 157.203 235.862 157.875 235.106C158.564 234.338 159.408 233.8 160.405 233.492C161.404 233.17 162.445 233.085 163.527 233.236C164.405 233.359 165.159 233.614 165.791 234.001C166.425 234.373 166.93 234.809 167.308 235.309L165.88 236.72C165.503 236.324 165.107 236.008 164.693 235.771C164.294 235.536 163.853 235.384 163.37 235.317C162.654 235.216 161.996 235.281 161.397 235.51C160.815 235.727 160.333 236.084 159.95 236.582C159.567 237.08 159.325 237.688 159.225 238.404C159.124 239.121 159.182 239.77 159.399 240.352C159.63 240.936 159.989 241.411 160.474 241.778C160.974 242.146 161.583 242.38 162.299 242.481C162.913 242.567 163.493 242.529 164.038 242.366C164.582 242.204 165.082 241.991 165.536 241.726L166.362 243.497C165.674 243.938 164.93 244.244 164.131 244.415C163.331 244.586 162.544 244.618 161.769 244.509ZM169.899 245.648C169.197 245.55 168.594 245.331 168.09 244.992C167.587 244.638 167.216 244.206 166.974 243.695C166.732 243.184 166.656 242.614 166.744 241.985C166.912 240.786 167.61 239.952 168.839 239.483C170.085 239.001 172.051 238.852 174.74 239.035C174.766 238.636 174.706 238.262 174.561 237.914C174.431 237.567 174.195 237.281 173.854 237.054C173.515 236.813 173.053 236.651 172.468 236.569C172.059 236.512 171.649 236.507 171.24 236.554C170.831 236.601 170.417 236.684 169.997 236.805C169.592 236.927 169.185 237.064 168.777 237.215L168.092 235.397C168.568 235.195 169.084 235.021 169.641 234.876C170.2 234.716 170.782 234.611 171.385 234.561C171.991 234.497 172.6 234.508 173.215 234.594C174.224 234.735 175.039 235.036 175.66 235.496C176.299 235.943 176.744 236.542 176.997 237.293C177.266 238.032 177.331 238.898 177.191 239.893L176.297 246.276L174.235 245.987L174.225 244.621L174.159 244.612C173.528 244.971 172.838 245.262 172.091 245.485C171.361 245.696 170.63 245.75 169.899 245.648ZM170.943 243.781C171.484 243.857 172.02 243.813 172.55 243.649C173.096 243.472 173.646 243.221 174.199 242.895L174.518 240.614C173.219 240.522 172.189 240.526 171.43 240.629C170.672 240.716 170.125 240.893 169.79 241.159C169.454 241.425 169.26 241.749 169.206 242.129C169.161 242.451 169.212 242.726 169.359 242.955C169.506 243.185 169.711 243.37 169.974 243.511C170.255 243.64 170.578 243.73 170.943 243.781ZM178.153 246.536L179.662 235.765L181.746 236.057L181.624 238.523L181.69 238.532C182.354 237.731 183.113 237.159 183.966 236.816C184.836 236.461 185.731 236.347 186.653 236.477C187.092 236.538 187.467 236.628 187.778 236.746C188.09 236.864 188.389 237.018 188.675 237.207L187.851 239.261C187.516 239.095 187.213 238.971 186.941 238.888C186.686 238.792 186.354 238.716 185.944 238.659C185.213 238.556 184.467 238.668 183.706 238.994C182.959 239.321 182.234 239.973 181.531 240.948L180.698 246.893L178.153 246.536ZM193.002 248.885C192.49 248.813 191.974 248.614 191.453 248.288C190.947 247.963 190.485 247.533 190.068 246.998L190.002 246.988L189.617 248.142L187.621 247.863L189.791 232.376L192.335 232.732L191.776 236.725L191.402 238.596L191.468 238.605C191.983 238.23 192.543 237.958 193.148 237.789C193.77 237.608 194.373 237.558 194.958 237.64C195.894 237.771 196.652 238.109 197.232 238.652C197.826 239.198 198.242 239.905 198.478 240.773C198.716 241.626 198.758 242.609 198.602 243.72C198.43 244.948 198.056 245.97 197.479 246.784C196.905 247.583 196.219 248.165 195.423 248.531C194.643 248.884 193.836 249.002 193.002 248.885ZM192.79 246.73C193.287 246.8 193.76 246.725 194.208 246.504C194.657 246.284 195.036 245.919 195.345 245.411C195.657 244.888 195.871 244.217 195.985 243.398C196.086 242.682 196.084 242.055 195.98 241.519C195.876 240.982 195.66 240.557 195.331 240.242C195.019 239.915 194.564 239.71 193.964 239.626C193.555 239.568 193.123 239.612 192.671 239.758C192.218 239.903 191.74 240.172 191.238 240.563L190.559 245.411C190.905 245.818 191.278 246.131 191.68 246.351C192.083 246.557 192.453 246.683 192.79 246.73ZM202.887 250.27C201.936 250.137 201.082 249.793 200.325 249.24C199.569 248.672 198.994 247.935 198.599 247.03C198.206 246.11 198.093 245.058 198.258 243.873C198.427 242.674 198.825 241.694 199.453 240.932C200.084 240.155 200.84 239.605 201.72 239.281C202.603 238.942 203.519 238.84 204.47 238.973C205.42 239.106 206.273 239.457 207.029 240.025C207.786 240.578 208.361 241.315 208.754 242.235C209.149 243.14 209.263 244.192 209.095 245.392C208.929 246.576 208.531 247.557 207.9 248.333C207.271 249.095 206.516 249.645 205.633 249.984C204.753 250.308 203.837 250.403 202.887 250.27ZM203.176 248.208C203.761 248.29 204.286 248.214 204.751 247.981C205.216 247.748 205.596 247.377 205.891 246.866C206.186 246.356 206.384 245.742 206.484 245.026C206.585 244.309 206.563 243.665 206.42 243.093C206.276 242.521 206.013 242.059 205.63 241.708C205.249 241.341 204.766 241.117 204.181 241.035C203.596 240.953 203.07 241.036 202.603 241.283C202.152 241.519 201.772 241.89 201.462 242.399C201.167 242.909 200.969 243.522 200.869 244.239C200.768 244.956 200.79 245.6 200.934 246.172C201.092 246.745 201.355 247.207 201.724 247.557C202.107 247.909 202.591 248.126 203.176 248.208ZM209.715 250.958L211.224 240.188L213.308 240.48L213.186 242.945L213.252 242.955C213.916 242.153 214.675 241.581 215.528 241.238C216.398 240.883 217.294 240.77 218.215 240.899C218.654 240.96 219.029 241.05 219.34 241.168C219.652 241.286 219.951 241.44 220.237 241.629L219.413 243.683C219.078 243.517 218.775 243.393 218.503 243.31C218.248 243.215 217.916 243.138 217.507 243.081C216.775 242.978 216.029 243.09 215.268 243.416C214.521 243.744 213.796 244.395 213.093 245.37L212.26 251.315L209.715 250.958ZM223.928 253.218C222.978 253.085 222.124 252.742 221.366 252.188C220.611 251.62 220.036 250.883 219.64 249.978C219.247 249.058 219.134 248.006 219.3 246.821C219.468 245.622 219.866 244.642 220.495 243.88C221.126 243.103 221.881 242.553 222.762 242.229C223.644 241.891 224.561 241.788 225.511 241.921C226.462 242.054 227.315 242.405 228.07 242.973C228.828 243.526 229.403 244.263 229.796 245.183C230.191 246.088 230.304 247.14 230.136 248.34C229.97 249.524 229.572 250.505 228.941 251.281C228.313 252.043 227.557 252.593 226.675 252.932C225.794 253.256 224.879 253.351 223.928 253.218ZM224.217 251.156C224.802 251.238 225.327 251.162 225.792 250.929C226.257 250.696 226.637 250.325 226.933 249.814C227.228 249.304 227.426 248.69 227.526 247.974C227.626 247.257 227.605 246.613 227.461 246.041C227.318 245.469 227.054 245.008 226.671 244.656C226.29 244.289 225.807 244.065 225.222 243.983C224.637 243.901 224.111 243.984 223.644 244.232C223.194 244.467 222.813 244.838 222.504 245.347C222.209 245.857 222.011 246.471 221.91 247.187C221.81 247.904 221.832 248.548 221.975 249.12C222.133 249.694 222.397 250.155 222.765 250.505C223.148 250.857 223.632 251.074 224.217 251.156ZM233.001 254.489C231.744 254.313 230.883 253.805 230.419 252.964C229.955 252.124 229.821 251.009 230.015 249.62L230.95 242.951L233.472 243.305L232.584 249.644C232.463 250.507 232.52 251.164 232.755 251.614C233.005 252.067 233.503 252.345 234.249 252.45C234.746 252.519 235.216 252.466 235.658 252.289C236.117 252.1 236.621 251.746 237.171 251.226L238.189 243.966L240.711 244.319L239.202 255.09L237.14 254.801L237.182 253.062L237.095 253.05C236.501 253.563 235.871 253.959 235.206 254.239C234.54 254.519 233.806 254.602 233.001 254.489ZM244.033 260.62C243.038 260.481 242.191 260.25 241.49 259.928C240.788 259.621 240.261 259.227 239.911 258.745C239.561 258.264 239.431 257.701 239.521 257.058C239.581 256.634 239.785 256.245 240.132 255.891C240.48 255.537 240.952 255.253 241.549 255.038L241.561 254.951C241.308 254.736 241.084 254.474 240.889 254.163C240.711 253.84 240.653 253.451 240.717 252.998C240.766 252.647 240.933 252.305 241.218 251.972C241.503 251.64 241.862 251.369 242.294 251.161L242.306 251.074C241.965 250.742 241.688 250.323 241.475 249.817C241.28 249.297 241.226 248.723 241.314 248.094C241.431 247.261 241.734 246.587 242.223 246.074C242.715 245.547 243.317 245.184 244.031 244.986C244.747 244.773 245.5 244.722 246.289 244.832C246.933 244.922 247.484 245.089 247.942 245.332L252.351 245.95L252.08 247.88L249.601 247.533C249.763 247.764 249.887 248.05 249.973 248.39C250.077 248.718 250.104 249.057 250.054 249.408C249.944 250.198 249.652 250.843 249.179 251.343C248.723 251.831 248.154 252.169 247.472 252.357C246.789 252.544 246.039 252.581 245.22 252.466C244.971 252.431 244.704 252.371 244.417 252.286C244.148 252.189 243.881 252.07 243.618 251.928C243.38 252.029 243.191 252.152 243.052 252.296C242.927 252.443 242.849 252.626 242.818 252.845C242.771 253.182 242.903 253.461 243.215 253.684C243.544 253.894 244.044 254.046 244.717 254.14L246.91 254.447C248.314 254.644 249.339 254.996 249.983 255.504C250.644 255.999 250.908 256.722 250.775 257.673C250.677 258.375 250.331 258.983 249.737 259.496C249.158 260.011 248.377 260.371 247.394 260.577C246.425 260.784 245.305 260.798 244.033 260.62ZM245.444 250.865C245.824 250.918 246.179 250.886 246.509 250.768C246.841 250.635 247.117 250.421 247.337 250.123C247.572 249.828 247.722 249.454 247.785 249.001C247.847 248.562 247.804 248.176 247.657 247.842C247.527 247.496 247.32 247.213 247.038 246.995C246.755 246.776 246.424 246.64 246.043 246.587C245.678 246.536 245.329 246.577 244.997 246.709C244.666 246.841 244.382 247.055 244.147 247.35C243.914 247.631 243.767 247.99 243.705 248.429C243.642 248.882 243.683 249.283 243.828 249.632C243.973 249.98 244.186 250.263 244.469 250.482C244.753 250.686 245.079 250.813 245.444 250.865ZM244.573 258.996C245.275 259.094 245.893 259.099 246.428 259.01C246.977 258.923 247.409 258.767 247.723 258.543C248.053 258.32 248.239 258.056 248.282 257.749C248.341 257.324 248.199 257.014 247.853 256.816C247.521 256.635 246.989 256.494 246.258 256.391L244.547 256.152C244.196 256.102 243.891 256.045 243.632 255.979C243.372 255.913 243.136 255.842 242.923 255.768C242.512 255.934 242.21 256.122 242.016 256.334C241.823 256.545 241.708 256.775 241.673 257.024C241.606 257.507 241.824 257.917 242.328 258.256C242.831 258.61 243.579 258.857 244.573 258.996ZM250.745 256.707L252.915 241.22L255.46 241.577L254.9 245.569L254.424 247.851L254.49 247.86C255.028 247.428 255.629 247.073 256.294 246.793C256.975 246.516 257.724 246.434 258.543 246.549C259.786 246.723 260.647 247.232 261.125 248.074C261.604 248.916 261.745 250.032 261.551 251.422L260.616 258.09L258.072 257.734L258.96 251.394C259.081 250.531 259.017 249.874 258.767 249.421C258.517 248.969 258.027 248.691 257.295 248.589C256.769 248.515 256.284 248.574 255.839 248.765C255.395 248.956 254.888 249.273 254.319 249.715L253.29 257.064L250.745 256.707Z" fill="#FDFDFD"/>
<path d="M292.254 241.144C291.51 240.811 290.638 241.15 290.306 241.895L281.598 261.525C281.266 262.269 281.605 263.141 282.349 263.473C283.094 263.805 283.965 263.467 284.298 262.722L293.005 243.092C293.338 242.347 292.999 241.476 292.254 241.144ZM295.165 247.141C294.515 247.632 294.385 248.558 294.875 249.209L298.38 253.86L293.727 257.369C293.077 257.86 292.947 258.786 293.438 259.437C293.928 260.087 294.855 260.217 295.505 259.727L301.334 255.331C301.984 254.84 302.114 253.914 301.623 253.263L297.228 247.435C296.737 246.784 295.81 246.654 295.16 247.145L295.165 247.141ZM281.166 245.18C280.675 244.529 279.749 244.399 279.098 244.89L273.27 249.286C272.619 249.776 272.489 250.703 272.98 251.353L277.376 257.182C277.867 257.832 278.793 257.962 279.444 257.472C280.094 256.981 280.224 256.054 279.733 255.404L276.224 250.756L280.876 247.247C281.527 246.757 281.657 245.83 281.166 245.18Z" fill="#FDFDFD"/>
<g clip-path="url(#clip0_132_851)">
<path d="M411.378 396.976C411.229 398.044 410.459 398.879 409.482 399.17L414.286 404.678L419.821 404.364C419.603 403.932 419.51 403.43 419.582 402.919C419.771 401.565 421.034 400.621 422.401 400.813C423.768 401.004 424.723 402.258 424.534 403.613C424.348 404.941 423.134 405.87 421.797 405.73L414.196 417.706C413.5 418.807 412.214 419.392 410.914 419.21L400.329 417.727C399.029 417.545 397.959 416.624 397.586 415.379L393.57 401.775C392.245 401.543 391.334 400.315 391.52 398.987C391.71 397.633 392.973 396.69 394.34 396.881C395.707 397.073 396.662 398.327 396.472 399.681C396.4 400.197 396.173 400.65 395.845 401.005L401.08 402.827L407.219 398.847C406.365 398.295 405.859 397.287 406.008 396.224C406.214 394.757 407.582 393.735 409.063 393.942C410.543 394.15 411.578 395.509 411.373 396.975L411.378 396.976Z" fill="#FDFDFD"/>
</g>
<path d="M565.669 168.478C562.64 187.867 544.467 201.13 525.078 198.101C505.689 195.072 492.426 176.899 495.455 157.51C530.562 162.994 511.173 159.965 530.562 162.994C549.951 166.022 530.562 162.994 565.669 168.478Z" fill="#06101E"/>
<defs>
<filter id="filter0_d_132_851" x="67.6147" y="105.798" width="598.002" height="404.671" filterUnits="userSpaceOnUse" color-interpolation-filters="sRGB">
<feFlood flood-opacity="0" result="BackgroundImageFix"/>
<feColorMatrix in="SourceAlpha" type="matrix" values="0 0 0 0 0 0 0 0 0 0 0 0 0 0 0 0 0 0 127 0" result="hardAlpha"/>
<feOffset dy="3.69172"/>
<feGaussianBlur stdDeviation="1.84586"/>
<feComposite in2="hardAlpha" operator="out"/>
<feColorMatrix type="matrix" values="0 0 0 0 0 0 0 0 0 0 0 0 0 0 0 0 0 0 0.25 0"/>
<feBlend mode="normal" in2="BackgroundImageFix" result="effect1_dropShadow_132_851"/>
<feBlend mode="normal" in="SourceGraphic" in2="effect1_dropShadow_132_851" result="shape"/>
</filter>
<linearGradient id="paint0_linear_132_851" x1="126.253" y1="275.119" x2="669.609" y2="270.484" gradientUnits="userSpaceOnUse">
<stop stop-color="#485B9C"/>
<stop offset="1" stop-color="#81C470"/>
</linearGradient>
<clipPath id="clip0_132_851">
<rect width="33.3364" height="26.4175" fill="white" transform="translate(392.551 391.629) rotate(7.97582)"/>
</clipPath>
</defs>
</svg>
