<svg version="1.1" id="Layer_1" xmlns="http://www.w3.org/2000/svg" xmlns:xlink="http://www.w3.org/1999/xlink" x="0px" y="0px"
	 width="100%" viewBox="0 0 400 400" enable-background="new 0 0 400 400" xml:space="preserve">
<path fill="#010100" opacity="1.000000" stroke="none" 
	d="
M401.000000,330.000000 
	C401.000000,353.660126 401.000000,377.320221 401.000000,400.985260 
	C267.710144,400.990173 134.420303,400.990173 1.065229,400.990173 
	C1.065229,267.747101 1.065229,134.494186 1.065229,1.120626 
	C134.215881,1.120626 267.431915,1.120626 401.000000,1.120626 
	C401.000000,101.354492 401.000000,201.709396 400.731293,302.942627 
	C399.903259,302.537384 399.343933,301.253815 398.817566,299.588806 
	C398.658417,298.478577 398.466309,297.749878 398.368713,296.770447 
	C398.268402,296.049011 398.073578,295.578247 397.879395,294.749512 
	C397.752045,293.932953 397.624054,293.474396 397.573425,292.692200 
	C396.827454,290.816498 396.004120,289.264435 395.085541,287.329041 
	C394.334778,285.821320 393.679260,284.696930 393.005737,283.652832 
	C392.987762,283.733063 392.993774,283.758698 392.893921,283.505096 
	C392.638855,283.157104 392.483643,283.062683 392.378540,282.841034 
	C392.360107,282.494690 392.216156,282.419128 391.880127,282.147156 
	C388.971039,279.244324 386.538879,276.043732 383.324524,274.227783 
	C368.576843,265.896057 352.472137,262.441284 335.363800,261.873535 
	C334.615051,261.036682 333.631714,260.185699 333.784882,259.676697 
	C334.089050,258.665802 335.019440,257.843323 335.806763,256.938538 
	C335.922424,256.934082 335.948792,256.704041 336.252197,256.603577 
	C339.662598,252.614151 342.769623,248.725220 345.929321,244.904938 
	C345.982025,244.973587 345.852753,244.858475 346.070679,244.843597 
	C346.611877,244.701782 346.738068,244.468552 346.997650,243.976135 
	C358.466370,238.367676 363.991608,228.855728 366.845886,217.079239 
	C369.698090,212.610199 372.266571,208.270370 374.888855,203.919464 
	C374.942688,203.908417 374.904877,203.805237 375.204376,203.664795 
	C378.901947,196.318222 382.300049,189.112076 385.779663,181.857635 
	C385.861237,181.809341 385.806671,181.627777 386.017578,181.502625 
	C386.304993,180.908295 386.381500,180.439133 386.673340,179.653748 
	C389.279114,172.613876 392.033691,165.994766 393.998718,159.149002 
	C404.125397,123.870087 400.163208,90.460953 378.500610,60.395763 
	C343.330475,11.583654 273.390472,1.025913 223.815720,36.674721 
	C215.666016,42.535107 208.280869,49.458702 200.363068,56.039970 
	C186.999634,41.223438 170.930115,29.651386 151.681412,22.981798 
	C113.309189,9.685997 77.337967,14.210435 44.543427,38.670128 
	C30.452585,49.179733 19.808754,62.692173 12.723251,79.165527 
	C12.356123,79.834892 12.235013,80.366676 12.016916,80.937218 
	C11.919930,80.975967 11.969067,81.178993 11.706740,81.328751 
	C11.101927,82.613197 10.759440,83.747879 10.265730,85.179413 
	C10.076988,85.695160 10.039471,85.914062 9.707638,86.316910 
	C8.706416,88.957314 7.999509,91.413788 7.206942,94.226379 
	C7.095681,94.825363 7.070080,95.068207 6.888073,95.329590 
	C6.731666,95.348122 6.587792,95.627502 6.587792,95.627502 
	C6.587792,95.627502 6.816665,95.842972 6.613616,96.185532 
	C6.391665,97.056946 6.372765,97.585793 6.152707,98.342896 
	C5.861503,99.360634 5.771455,100.150124 5.497495,101.280350 
	C5.276860,102.132622 5.240138,102.644165 5.059477,103.451340 
	C4.763914,104.804909 4.612288,105.862846 4.363151,107.280655 
	C4.269919,108.133362 4.274200,108.626205 4.036854,109.400085 
	C3.674751,111.433380 3.554276,113.185631 3.363117,115.306717 
	C3.299846,116.174927 3.307259,116.674316 3.193654,117.609856 
	C3.460782,125.664314 3.848929,133.282623 4.200035,141.297821 
	C4.273502,142.480331 4.384009,143.265930 4.423907,144.339371 
	C4.629858,145.362503 4.906417,146.097794 5.140532,147.198914 
	C5.205314,148.038803 5.312541,148.512894 5.383082,149.258240 
	C5.601950,149.987885 5.857502,150.446259 6.106807,151.280685 
	C6.224475,152.140457 6.348389,152.624176 6.400537,153.359039 
	C6.572338,154.048080 6.815905,154.486008 7.060075,155.290009 
	C7.202293,156.119461 7.343908,156.582825 7.433281,157.251724 
	C7.444326,157.771179 7.632118,157.963745 7.966202,158.036102 
	C7.987990,158.037247 7.954515,158.065659 7.915704,158.299377 
	C7.876893,158.533096 8.156399,158.915726 8.172848,159.309799 
	C8.392775,160.180634 8.596252,160.657394 8.771142,161.424896 
	C9.144750,162.793640 9.546946,163.871628 9.939560,164.993774 
	C9.929978,165.037918 10.014380,165.070236 10.002798,165.399368 
	C10.361343,166.724213 10.731470,167.719910 11.162085,169.107758 
	C11.352287,170.009216 11.482002,170.518524 11.507550,171.219421 
	C11.483614,171.742416 11.694107,171.914719 12.050918,172.186676 
	C12.148811,172.597672 12.230652,172.749893 12.297853,173.277405 
	C17.619049,184.730042 22.954882,195.807419 28.321936,207.200897 
	C28.920170,208.380753 29.487185,209.244522 30.050852,210.368286 
	C30.374605,210.973770 30.701702,211.319275 31.019051,211.793152 
	C31.009300,211.921509 31.255793,211.995895 31.292374,212.322083 
	C32.881725,214.744965 34.434494,216.841675 36.071575,219.311890 
	C38.512066,231.292999 45.909622,239.009827 55.724380,245.277084 
	C59.206505,249.466888 62.601692,253.307846 66.113571,257.458801 
	C67.228119,259.519501 68.225967,261.270172 68.749817,262.940613 
	C52.427406,262.898132 37.222187,266.134888 22.805862,272.630585 
	C12.461066,277.291718 5.139318,285.379852 3.790242,296.597534 
	C2.496972,307.351166 3.510955,318.382324 3.510955,329.413086 
	C28.227203,329.413086 52.785820,329.413086 77.699493,329.413086 
	C78.440544,311.346222 75.804970,293.189941 82.964996,276.144684 
	C85.202766,278.083405 87.132149,279.859589 89.069595,281.781219 
	C89.077660,281.926666 89.365234,281.973297 89.415848,282.284607 
	C91.465820,284.502991 93.465195,286.410034 95.501999,288.359314 
	C95.539436,288.401550 95.650429,288.422211 95.823410,288.690918 
	C98.084610,291.056519 100.172829,293.153351 102.219360,295.600677 
	C102.178574,296.652679 102.179466,297.354187 102.013519,298.424347 
	C101.846664,309.035126 101.846664,319.277283 101.846664,329.923035 
	C114.460159,329.923035 126.605286,329.923035 138.906372,330.218689 
	C140.035065,331.356812 141.007797,332.199280 142.131851,333.323059 
	C143.549408,334.725189 144.815628,335.846008 146.173996,337.259338 
	C147.212204,338.286926 148.158279,339.022034 149.118683,339.834595 
	C149.133026,339.912079 149.290588,339.913452 149.323181,340.123230 
	C149.524902,340.613892 149.769653,340.719208 150.267883,340.910583 
	C150.790573,341.410614 151.135422,341.648987 151.471436,342.072266 
	C151.462601,342.257172 151.750259,342.489136 151.750259,342.489136 
	C151.750259,342.489136 152.100067,342.369812 152.179993,342.517609 
	C152.259918,342.665405 152.573151,342.787109 152.609375,343.085022 
	C153.758942,344.256958 154.872269,345.130951 155.991928,346.003113 
	C155.998245,346.001343 155.994980,346.014404 156.078247,346.300659 
	C156.790298,347.032318 157.419052,347.477753 158.031250,347.958008 
	C158.014664,347.992828 158.082748,347.956512 158.132233,348.207458 
	C158.473114,348.598816 158.764526,348.739258 159.047546,348.919434 
	C159.039154,348.959229 159.114441,348.928558 159.179565,349.195099 
	C159.677429,349.781708 160.110168,350.101746 160.631073,350.350586 
	C160.719223,350.279419 160.589706,350.465363 160.688995,350.716156 
	C161.200882,351.277039 161.613510,351.587128 162.024872,351.936584 
	C162.023621,351.975922 162.102310,351.972595 162.188080,352.259338 
	C163.208344,353.293213 164.142822,354.040314 165.347748,355.005005 
	C169.199265,358.460388 172.780319,361.698181 176.485641,365.211487 
	C177.721863,366.361145 178.833801,367.235321 180.037994,368.326782 
	C180.327591,368.809753 180.588333,368.975891 181.027527,369.345764 
	C182.457855,370.708710 183.773148,371.768494 185.094696,372.877228 
	C185.100967,372.926178 185.194748,372.895447 185.310776,373.203918 
	C188.606064,376.352570 191.785324,379.192719 194.981995,382.016418 
	C194.999390,382.000000 194.968002,382.036102 195.043762,382.323303 
	C195.759048,383.049835 196.398590,383.489227 197.025589,383.961365 
	C197.013046,383.994110 197.077438,383.966217 197.138550,384.206604 
	C197.390366,384.758942 197.668503,384.913330 198.024017,384.944916 
	C198.013947,384.979614 198.082932,384.958130 198.211411,385.289551 
	C203.353882,389.328308 204.104004,383.569824 206.768677,381.859924 
	C206.857605,381.855591 206.866577,381.677765 207.163757,381.586487 
	C208.583710,380.303070 209.706482,379.110931 210.879456,377.921295 
	C210.929672,377.923798 210.917770,377.823944 211.239685,377.737946 
	C216.334656,373.078491 221.107727,368.505035 225.916840,363.946350 
	C225.952911,363.961060 225.949951,363.883240 226.201050,363.852356 
	C226.610031,363.540680 226.767914,363.259857 227.162140,362.886597 
	C227.609085,362.541229 227.819672,362.288361 228.284698,361.976746 
	C228.692352,361.621460 228.845581,361.324860 229.007629,361.021667 
	C229.016464,361.015076 229.026672,360.995483 229.339478,360.881470 
	C232.066971,358.493500 234.481659,356.219543 236.932556,353.961853 
	C236.968750,353.978119 236.947403,353.901703 237.254318,353.820831 
	C238.722244,352.526215 239.883255,351.312469 241.359558,349.994476 
	C243.397415,348.234772 245.120010,346.579346 246.889801,344.934784 
	C246.937012,344.945679 246.947769,344.849365 247.194138,344.821991 
	C247.765030,344.614716 247.919464,344.339386 247.939880,343.972107 
	C247.975952,343.975586 247.965836,343.903809 248.206482,343.846741 
	C248.763748,343.594635 248.902100,343.312256 248.905212,342.942444 
	C248.948257,342.942413 248.935959,342.857239 249.171539,342.802643 
	C249.715851,342.558868 249.854385,342.283936 249.873779,341.931946 
	C249.924835,341.940704 249.929626,341.837219 250.180084,341.815796 
	C250.564621,341.509644 250.698669,341.224945 251.058914,340.793518 
	C251.494019,340.358673 251.702911,340.070618 252.193542,339.736023 
	C253.111786,339.009521 253.748322,338.329559 254.461212,337.626709 
	C254.537552,337.603790 254.628479,337.472839 254.880981,337.406372 
	C255.566071,336.842987 255.998642,336.346069 256.731903,335.625793 
	C257.345734,335.018311 257.658844,334.634247 258.100159,334.299072 
	C258.228302,334.347961 258.420258,334.152161 258.420258,334.152161 
	C258.420258,334.152161 258.329987,333.893036 258.483368,333.845581 
	C258.636749,333.798096 258.816925,333.532288 259.117188,333.466736 
	C260.565613,332.202545 261.713745,331.003845 263.337891,329.764587 
	C275.860107,329.724030 287.906372,329.724030 299.852753,329.724030 
	C299.852753,317.513947 299.852753,306.092957 300.018005,294.490173 
	C300.096283,294.032745 300.009277,293.757111 299.780579,293.541260 
	C299.638824,293.601105 299.851501,293.823456 300.183746,293.822876 
	C301.837799,292.470795 303.159607,291.119263 304.778259,289.649017 
	C305.742279,288.739838 306.409485,287.949371 307.402924,287.069092 
	C310.625458,283.820374 313.521790,280.661469 316.433167,277.477112 
	C316.448181,277.451660 316.505035,277.435699 316.784271,277.332581 
	C317.727783,276.834656 318.392090,276.439850 319.103424,276.316772 
	C319.453491,277.021088 319.756531,277.453644 320.085114,278.295776 
	C320.704834,280.227264 321.298981,281.749146 321.780151,283.352783 
	C321.667236,283.434540 321.741516,283.703247 321.741516,283.703247 
	C321.741516,283.703247 322.014709,283.759979 321.991638,284.123413 
	C322.242004,285.656555 322.515442,286.826324 322.659058,288.171783 
	C322.775574,288.857025 323.021912,289.366547 323.213013,290.251526 
	C323.403564,292.102722 323.649292,293.578430 323.769531,295.219421 
	C323.778961,295.884644 323.913879,296.384613 323.991699,297.353760 
	C324.007751,302.241882 324.080933,306.660828 324.045410,311.531830 
	C323.936707,317.742371 323.936707,323.500854 323.936707,329.146912 
	C324.881958,329.496368 325.334290,329.809448 325.787079,329.810089 
	C349.340790,329.842987 372.894501,329.846832 396.448242,329.864594 
	C397.965515,329.865723 399.482758,329.952881 401.000000,330.000000 
z"/>
<path fill="#CEC0AE" opacity="1.000000" stroke="none" 
	d="
M401.000000,329.531342 
	C399.482758,329.952881 397.965515,329.865723 396.448242,329.864594 
	C372.894501,329.846832 349.340790,329.842987 325.787079,329.810089 
	C325.334290,329.809448 324.881958,329.496368 323.936707,329.146912 
	C323.936707,323.500854 323.936707,317.742371 324.289307,311.852966 
	C324.776154,317.149048 324.910431,322.576019 325.349884,328.271667 
	C330.936768,328.394165 336.218140,328.140533 341.500275,328.122101 
	C357.465698,328.066406 373.431396,328.108368 389.397003,328.095306 
	C391.939514,328.093231 394.481934,328.003448 397.120850,327.550964 
	C397.480011,323.021881 397.763641,318.897217 398.000122,314.769836 
	C398.282684,309.837860 398.524902,304.903564 398.784607,299.970276 
	C399.343933,301.253815 399.903259,302.537384 400.731293,303.410461 
	C401.000000,311.687561 401.000000,320.375122 401.000000,329.531342 
z"/>
<path fill="#FE9902" opacity="1.000000" stroke="none" 
	d="
M65.996887,257.148804 
	C62.601692,253.307846 59.206505,249.466888 56.178345,245.255066 
	C67.875999,247.900955 78.760361,247.249725 89.302605,240.916260 
	C91.798553,238.395813 93.948265,235.899948 96.230133,233.248962 
	C96.362289,233.093857 96.718422,232.895691 97.041016,232.750443 
	C103.627625,224.105957 104.358887,214.563187 101.912674,204.769363 
	C101.059608,201.353973 98.529587,198.357422 96.867599,195.157806 
	C96.969765,195.146042 96.773445,195.207550 96.801544,194.876373 
	C96.216530,194.047134 95.603409,193.549088 94.976624,193.042725 
	C94.962967,193.034409 94.950150,193.005112 94.933075,192.661041 
	C92.935905,190.564056 90.955818,188.811172 88.729362,186.922638 
	C88.345093,186.659958 88.207199,186.532928 87.978951,186.108582 
	C83.094009,177.928223 58.003704,178.281219 52.532928,184.373459 
	C52.334030,184.594940 52.322758,184.984909 52.241913,185.183853 
	C52.259773,185.071350 52.256081,185.299622 51.935730,185.241394 
	C51.066299,185.722076 50.517223,186.261002 49.777092,186.997620 
	C49.157337,187.534531 48.728634,187.873703 47.924370,188.156921 
	C40.432663,191.722870 38.094437,198.430206 35.889668,205.439362 
	C35.125031,207.870224 32.844139,209.824127 31.255791,211.995895 
	C31.255793,211.995895 31.009300,211.921509 30.981609,211.552765 
	C30.654011,210.825439 30.354105,210.466858 30.054197,210.108292 
	C29.487185,209.244522 28.920170,208.380753 28.522169,206.941208 
	C28.211180,204.696014 27.955427,202.918289 27.210802,201.376694 
	C24.556740,195.881958 21.736469,190.467529 19.320923,184.955902 
	C20.100872,183.921951 20.539015,182.954788 21.002008,181.758774 
	C21.026859,181.529938 21.054834,181.070450 21.387751,181.005997 
	C22.811453,179.626511 23.902237,178.311493 25.028805,176.779846 
	C25.064589,176.563217 25.104689,176.125946 25.428352,176.052521 
	C26.532288,175.009949 27.312557,174.040802 28.315285,173.050568 
	C28.537743,173.029480 28.979874,172.964294 29.324734,172.931961 
	C33.448444,170.082520 37.369469,167.429764 40.924686,164.354156 
	C42.081333,163.353546 43.094845,161.067581 42.785583,159.678604 
	C41.090889,152.067230 38.964626,144.551956 36.989868,136.590881 
	C36.951710,134.803375 36.910290,133.428680 36.889526,131.761383 
	C36.646187,130.972610 36.382191,130.476410 36.109085,129.523346 
	C36.394585,124.376785 36.689198,119.687080 37.251640,114.704788 
	C39.008701,107.939110 40.497932,101.466042 42.134567,94.689529 
	C42.568398,93.309990 42.854824,92.233879 43.435406,91.057480 
	C44.133923,90.294891 44.538288,89.632591 44.977146,88.659798 
	C45.035175,87.933548 45.058716,87.517784 45.382866,87.017326 
	C46.123478,86.289520 46.563477,85.646416 47.268478,84.781548 
	C50.376938,80.734436 53.220398,76.909088 56.399757,73.020958 
	C59.186520,70.328499 61.637383,67.698830 64.313568,65.051682 
	C64.538879,65.034203 64.987053,64.975624 65.339012,64.939621 
	C69.455818,62.265141 73.220657,59.626663 76.993210,56.993507 
	C77.000916,56.998825 76.988693,56.981689 77.385681,56.992077 
	C82.189056,55.336514 86.595451,53.670559 91.368500,51.995323 
	C93.147308,51.630100 94.559448,51.274162 96.421837,50.948463 
	C102.249710,50.325466 107.627350,49.672234 113.449814,49.024315 
	C120.463493,49.821655 127.142883,50.122730 133.564438,51.568790 
	C138.279022,52.630466 142.754990,54.989384 147.156693,57.139847 
	C152.158218,59.583336 156.958725,62.438335 161.930298,65.442108 
	C163.675583,67.179016 165.337189,68.588272 167.271866,70.163048 
	C168.649307,71.252739 169.753677,72.176918 170.937897,73.431267 
	C172.979294,75.552139 174.940826,77.342834 176.962158,79.469513 
	C183.758606,87.762489 190.500168,95.715332 197.229477,103.678505 
	C199.984879,106.939117 202.576263,106.414597 205.096008,103.397064 
	C207.756287,100.211243 210.198090,96.805733 213.124039,93.885681 
	C223.922745,83.108734 233.828201,71.048340 246.024185,62.149361 
	C265.131622,48.207363 287.414948,46.273979 310.247589,51.660133 
	C325.610199,55.284138 337.860596,64.236206 348.010101,75.822945 
	C352.807281,81.299400 358.099915,86.989128 359.131104,95.226166 
	C359.758423,96.683678 360.384277,97.803963 361.069122,99.294296 
	C361.795135,102.089104 362.462158,104.513863 363.104767,107.273529 
	C363.635651,108.382744 364.190979,109.157043 364.801392,110.323891 
	C364.874634,111.508240 364.892792,112.300041 364.658508,113.405258 
	C364.563599,122.107162 364.721130,130.495636 364.882690,139.247162 
	C364.840607,140.091797 364.794464,140.573364 364.424805,141.148682 
	C362.439178,146.861542 360.777069,152.480667 359.113953,158.428558 
	C359.091064,159.195038 359.069214,159.632797 358.829956,160.233414 
	C359.061249,161.228149 359.509888,162.060013 360.137756,163.179688 
	C362.231262,164.685684 364.145477,165.903870 366.117676,167.438461 
	C369.737366,170.817947 373.299103,173.881042 377.020813,177.233734 
	C377.810059,178.686234 378.439362,179.849152 379.111572,181.381622 
	C381.834351,185.061447 380.999634,188.559509 379.641479,192.042358 
	C378.105927,195.980194 376.487366,199.885681 374.904907,203.805237 
	C374.904877,203.805237 374.942688,203.908417 374.565216,203.974396 
	C372.910217,205.174835 371.632721,206.309296 369.835571,207.905167 
	C368.749146,206.265945 367.898773,204.807190 366.878174,203.479248 
	C364.701508,200.647125 362.436554,197.882874 359.982788,194.869690 
	C359.484863,194.087479 359.211914,193.526398 358.945251,192.602509 
	C356.909271,190.538666 354.867035,188.837631 352.496582,187.039825 
	C350.774445,186.164963 349.380493,185.386871 347.887878,184.297821 
	C340.839478,178.639603 332.852631,179.375244 325.049622,180.677826 
	C321.901947,181.203278 319.063324,183.580353 316.073700,185.061371 
	C316.063324,185.007980 316.099792,185.115997 315.735199,185.088562 
	C314.600098,185.771637 313.829590,186.482132 312.951843,187.277924 
	C312.844574,187.363205 312.574280,187.317856 312.172760,187.263580 
	C310.921051,188.287735 310.070831,189.366165 309.173706,190.608978 
	C309.126831,190.773346 308.878235,191.008026 308.539490,191.049622 
	C307.185791,192.498642 306.170837,193.906052 305.158569,195.491852 
	C305.161194,195.670242 304.999573,195.988373 304.639618,196.041702 
	C303.284210,198.253128 302.288788,200.411224 301.326294,202.818024 
	C301.262238,203.384644 301.165222,203.702545 300.813782,204.189758 
	C300.330750,205.556732 300.102112,206.754410 299.922058,208.404068 
	C299.955414,211.581451 299.940186,214.306854 299.712891,217.213318 
	C299.768829,218.261398 300.036896,219.128403 300.472595,220.347443 
	C300.751038,221.467697 300.861847,222.235931 300.750916,223.243225 
	C301.965607,226.326675 303.402039,229.171051 304.941528,232.181641 
	C305.044586,232.347855 305.118591,232.731918 305.129761,233.079742 
	C305.809540,233.913254 306.478210,234.398941 307.088501,234.931244 
	C307.030151,234.977859 307.119263,234.857956 307.126099,235.185120 
	C307.747742,236.008286 308.362549,236.504272 308.989746,236.996872 
	C309.002106,236.993484 309.000854,237.018890 309.053101,237.334869 
	C309.761688,238.074631 310.417999,238.498398 311.293732,239.010468 
	C311.794403,239.268890 311.993408,239.507584 312.117157,240.179474 
	C315.340149,244.807312 319.677582,246.497665 325.268921,246.111664 
	C326.072662,246.226212 326.523895,246.349106 327.145142,246.797150 
	C331.292084,247.589081 335.269043,248.055847 339.048645,248.499451 
	C337.968597,251.358017 336.958710,254.031036 335.948792,256.704041 
	C335.948792,256.704041 335.922424,256.934082 335.467285,256.954529 
	C332.676636,258.773834 330.341156,260.572662 327.646088,262.462982 
	C326.797638,262.503418 326.308746,262.452362 325.725342,262.350647 
	C325.396820,262.268250 325.211090,262.351227 324.672180,262.666870 
	C323.156921,262.789825 322.043091,262.794800 320.637543,262.574860 
	C318.058319,262.803864 315.374420,262.716217 313.668610,263.964813 
	C312.934723,264.501984 314.164673,267.824066 314.617889,269.855194 
	C315.184723,272.395905 315.870544,274.910065 316.505035,277.435699 
	C316.505035,277.435699 316.448181,277.451660 316.083069,277.378906 
	C312.536377,280.326263 307.540955,281.755585 307.076721,287.158905 
	C306.409485,287.949371 305.742279,288.739838 304.538635,289.519043 
	C302.689240,289.998718 301.376282,290.489655 299.996643,290.679749 
	C299.341553,289.901093 298.753174,289.423248 297.929016,288.717926 
	C297.503510,287.648712 297.313782,286.806976 297.356262,285.712036 
	C295.972656,282.358459 294.356873,279.258118 292.800842,276.149414 
	C292.860626,276.140991 292.777069,276.228119 292.825745,275.881683 
	C291.957245,274.665344 291.040131,273.795471 290.082062,272.943298 
	C290.041138,272.961029 290.074341,272.878235 290.064758,272.521179 
	C287.285095,269.534729 284.515045,266.905334 281.834595,264.138977 
	C281.924225,264.001953 281.726288,264.263550 281.771973,263.896179 
	C280.907990,262.430939 280.210175,260.979553 279.056793,260.288361 
	C262.163177,250.164551 243.416595,245.461044 224.269547,242.261841 
	C219.674728,241.494110 214.772659,242.565399 209.683838,242.844849 
	C208.922943,242.816360 208.490112,242.733917 207.913849,242.312408 
	C204.828522,242.191330 201.886612,242.409332 198.509216,242.715759 
	C195.697479,242.804443 193.321198,242.804672 190.619995,242.562103 
	C186.884766,242.230820 183.452255,241.884354 180.074615,242.175232 
	C178.633026,242.299393 177.306015,243.753983 175.571594,244.708954 
	C174.476715,244.817184 173.737198,244.820480 172.682648,244.595154 
	C166.511078,244.288666 160.572830,243.892090 155.625702,248.703476 
	C154.868362,248.853607 154.423431,248.879562 153.707230,248.666016 
	C148.633911,247.775208 144.684494,249.978867 140.594589,252.019104 
	C134.751556,254.933899 128.675125,257.385040 122.869324,260.367035 
	C121.530045,261.054901 120.883957,263.092377 119.751801,264.698486 
	C119.426178,264.945251 119.267632,265.002380 118.733368,265.037811 
	C117.658592,265.814606 116.959526,266.613098 116.160477,267.590027 
	C115.890533,267.991028 115.676292,268.156006 115.042145,268.250183 
	C114.295547,268.984650 113.924545,269.732391 113.523422,270.503021 
	C113.493294,270.525879 113.452255,270.589447 113.294876,270.495483 
	C113.022552,270.429169 112.907600,270.456848 112.792641,270.484528 
	C112.922234,270.652405 113.051826,270.820282 113.149078,271.260620 
	C113.093750,271.714600 113.070755,271.896057 112.887604,272.176910 
	C112.727448,272.276276 112.675674,272.649689 112.470276,272.734253 
	C112.029541,273.005402 111.767632,273.140533 111.108078,273.211609 
	C109.296989,275.902191 107.856995,278.605316 106.324905,281.342224 
	C106.232811,281.376007 106.428391,281.330658 106.083710,281.350037 
	C105.517014,282.584686 105.294991,283.799927 105.065338,285.368652 
	C104.901306,286.163544 104.744896,286.604889 104.423462,287.212677 
	C104.094612,287.673279 104.073135,287.977570 104.185295,288.491272 
	C104.176582,288.690613 103.908417,288.986115 103.621590,288.976013 
	C102.522362,289.684021 101.709969,290.402130 101.266617,290.794006 
	C99.350250,289.984711 97.500343,289.203461 95.650429,288.422211 
	C95.650429,288.422211 95.539436,288.401550 95.718765,288.074768 
	C96.097000,283.134552 92.071114,283.300568 89.365234,281.973297 
	C89.365234,281.973297 89.077660,281.926666 89.036240,281.425110 
	C85.708191,276.340698 84.624153,271.656464 87.790291,266.437683 
	C88.041924,266.022888 86.154922,263.439880 84.962692,263.165863 
	C78.772461,261.742981 71.656334,263.331879 66.962105,257.266968 
	C66.822517,257.086609 66.326645,257.182007 65.996887,257.148804 
M250.205734,180.502563 
	C250.905792,153.293945 225.923553,130.454926 199.302795,131.525238 
	C167.198792,132.815994 143.999252,164.829056 153.813339,195.596863 
	C161.309723,219.098511 184.330597,233.420334 208.651917,229.713272 
	C232.446121,226.086563 249.843521,205.889236 250.205734,180.502563 
z"/>
<path fill="#FBB54C" opacity="1.000000" stroke="none" 
	d="
M95.971596,50.918228 
	C94.559448,51.274162 93.147308,51.630100 91.128799,51.767178 
	C86.920654,52.381279 83.266411,53.046352 79.747902,54.145844 
	C78.640877,54.491768 77.898155,56.003525 76.988693,56.981689 
	C76.988693,56.981689 77.000916,56.998825 76.614426,57.002544 
	C71.324692,58.031761 67.129158,60.055504 64.987053,64.975624 
	C64.987053,64.975624 64.538879,65.034203 63.961048,65.069290 
	C60.943432,67.764168 58.503643,70.423958 56.063858,73.083740 
	C53.220398,76.909088 50.376938,80.734436 46.949120,84.834854 
	C45.937260,85.773964 45.509754,86.437996 45.082253,87.102028 
	C45.058716,87.517784 45.035175,87.933548 44.663757,88.728973 
	C43.924335,89.791687 43.532795,90.474731 43.141254,91.157776 
	C42.854824,92.233879 42.568398,93.309990 41.779465,94.769119 
	C39.531162,100.196693 37.624889,105.194923 36.146763,110.316719 
	C35.752563,111.682655 36.669064,113.426849 36.983810,114.997383 
	C36.689198,119.687080 36.394585,124.376785 35.886978,129.687592 
	C36.072277,130.890442 36.470577,131.472214 36.868874,132.053970 
	C36.910290,133.428680 36.951710,134.803375 36.736328,136.858429 
	C37.779797,143.906540 39.299000,150.242264 40.238338,156.662811 
	C40.498417,158.440521 39.455517,160.794693 38.278973,162.320251 
	C35.407127,166.043991 32.107365,169.437714 28.979876,172.964294 
	C28.979874,172.964294 28.537743,173.029480 27.963993,173.069122 
	C26.628393,174.114502 25.866543,175.120224 25.104691,176.125946 
	C25.104689,176.125946 25.064589,176.563217 24.687994,176.823547 
	C23.225876,178.412720 22.140354,179.741577 21.054832,181.070450 
	C21.054834,181.070450 21.026859,181.529938 20.623718,181.761169 
	C19.461494,182.015549 18.702412,182.038681 17.700893,181.782852 
	C15.743138,178.636627 14.027816,175.769379 12.312492,172.902130 
	C12.230652,172.749893 12.148811,172.597672 12.051645,172.009415 
	C11.975666,171.328583 11.834130,171.146744 11.611715,171.027847 
	C11.482002,170.518524 11.352287,170.009216 11.187426,168.814377 
	C10.772981,167.109314 10.393682,166.089783 10.014381,165.070236 
	C10.014380,165.070236 9.929978,165.037918 9.977070,164.676529 
	C9.616016,163.254807 9.207871,162.194489 8.799728,161.134155 
	C8.596252,160.657394 8.392775,160.180634 8.289199,159.210602 
	C8.465183,158.362030 8.320321,158.144791 7.954515,158.065659 
	C7.954515,158.065659 7.987990,158.037247 7.976295,157.839676 
	C7.903798,157.363983 7.744104,157.165344 7.485522,157.046173 
	C7.343908,156.582825 7.202293,156.119461 7.215256,155.173141 
	C7.070657,154.162750 6.771481,153.635330 6.472304,153.107910 
	C6.348389,152.624176 6.224475,152.140457 6.286246,151.128906 
	C6.121210,150.063065 5.770488,149.525024 5.419766,148.986984 
	C5.312541,148.512894 5.205314,148.038803 5.324601,147.014084 
	C5.198915,145.659485 4.846716,144.855515 4.494516,144.051544 
	C4.384009,143.265930 4.273502,142.480331 4.431705,140.991180 
	C4.593878,133.647797 4.532351,127.006622 4.335369,120.369476 
	C4.303482,119.295067 3.670048,118.238510 3.314672,117.173706 
	C3.307259,116.674316 3.299846,116.174927 3.548906,115.049057 
	C3.963080,112.654732 4.120781,110.886894 4.278481,109.119049 
	C4.274200,108.626205 4.269919,108.133362 4.642320,107.204086 
	C5.080473,105.563675 5.141944,104.359688 5.203415,103.155708 
	C5.240138,102.644165 5.276860,102.132622 5.678583,101.117508 
	C6.147009,99.780830 6.250436,98.947739 6.353864,98.114639 
	C6.372765,97.585793 6.391665,97.056946 6.695470,96.120338 
	C6.980375,95.712578 7.044480,95.311058 7.044480,95.311058 
	C7.070080,95.068207 7.095681,94.825363 7.537293,94.152756 
	C8.636189,91.192986 9.319071,88.662979 10.001953,86.132973 
	C10.039471,85.914062 10.076988,85.695160 10.573926,85.112663 
	C11.345253,83.559044 11.657160,82.369019 11.969067,81.178993 
	C11.969067,81.178993 11.919930,80.975967 12.232826,80.774040 
	C12.686907,80.057396 12.828089,79.542671 12.969271,79.027954 
	C19.808754,62.692173 30.452585,49.179733 44.543427,38.670128 
	C77.337967,14.210435 113.309189,9.685997 151.681412,22.981798 
	C170.930115,29.651386 186.999634,41.223438 200.363068,56.039970 
	C208.280869,49.458702 215.666016,42.535107 223.815720,36.674721 
	C273.390472,1.025913 343.330475,11.583654 378.500610,60.395763 
	C400.163208,90.460953 404.125397,123.870087 393.998718,159.149002 
	C392.033691,165.994766 389.279114,172.613876 386.486145,179.802780 
	C385.991272,180.721268 385.898987,181.174530 385.806671,181.627777 
	C385.806671,181.627777 385.861237,181.809341 385.484131,182.017487 
	C383.094238,181.821121 381.081451,181.416595 379.068634,181.012070 
	C378.439362,179.849152 377.810059,178.686234 376.998901,176.902313 
	C373.231293,173.228210 369.645508,170.175140 366.059692,167.122070 
	C364.145477,165.903870 362.231262,164.685684 360.139526,162.869019 
	C359.657104,161.537216 359.352234,160.803879 359.047333,160.070541 
	C359.069214,159.632797 359.091064,159.195038 359.446411,158.295502 
	C361.436066,152.240784 363.092224,146.647873 364.748352,141.054947 
	C364.794464,140.573364 364.840607,140.091797 365.171600,138.960022 
	C365.274597,129.903824 365.092773,121.497833 364.910950,113.091835 
	C364.892792,112.300041 364.874634,111.508240 364.852112,110.000557 
	C364.274872,108.502655 363.702026,107.720642 363.129211,106.938622 
	C362.462158,104.513863 361.795135,102.089104 361.292542,99.081490 
	C360.681244,97.295403 359.905457,96.092163 359.129669,94.888931 
	C358.099915,86.989128 352.807281,81.299400 348.010101,75.822945 
	C337.860596,64.236206 325.610199,55.284138 310.247589,51.660133 
	C287.414948,46.273979 265.131622,48.207363 246.024185,62.149361 
	C233.828201,71.048340 223.922745,83.108734 213.124039,93.885681 
	C210.198090,96.805733 207.756287,100.211243 205.096008,103.397064 
	C202.576263,106.414597 199.984879,106.939117 197.229477,103.678505 
	C190.500168,95.715332 183.758606,87.762489 176.986847,79.090012 
	C174.920486,76.616714 172.889267,74.858902 170.858032,73.101089 
	C169.753677,72.176918 168.649307,71.252739 167.284241,69.788528 
	C167.158783,68.011841 167.294037,66.775185 167.475677,65.114449 
	C165.370865,65.114449 163.608734,65.114449 161.846603,65.114449 
	C156.958725,62.438335 152.158218,59.583336 147.156693,57.139847 
	C142.754990,54.989384 138.279022,52.630466 133.564438,51.568790 
	C127.142883,50.122730 120.463493,49.821655 113.150436,48.755569 
	C110.966812,48.327469 109.460052,47.823456 108.100609,48.085030 
	C104.026718,48.868889 100.010391,49.951950 95.971596,50.918228 
z"/>
<path fill="#FFFEFD" opacity="1.000000" stroke="none" 
	d="
M297.124084,285.965271 
	C297.313782,286.806976 297.503510,287.648712 297.865112,289.008942 
	C298.324219,290.026398 298.611450,290.525360 298.921997,291.531708 
	C299.247406,292.633881 299.549469,293.228668 299.851501,293.823456 
	C299.851501,293.823456 299.638824,293.601105 299.502747,293.799866 
	C299.297852,294.239807 299.229004,294.480957 299.079193,295.202515 
	C298.989288,304.788513 298.816956,313.898254 299.048798,322.997711 
	C299.146423,326.830109 298.106873,328.253815 294.060455,328.139923 
	C284.464874,327.869812 274.855896,328.012512 265.253479,328.108002 
	C263.521484,328.125214 261.795166,328.713531 259.695831,329.080902 
	C258.832397,329.080963 258.339325,329.038300 257.549042,328.732941 
	C256.436493,328.346344 255.621262,328.114502 254.805893,328.114014 
	C218.159378,328.091614 181.512848,328.080963 144.866379,328.121490 
	C143.608566,328.122894 142.351349,328.661377 140.747879,328.999512 
	C139.936920,329.039703 139.471924,329.029968 138.691650,328.751160 
	C128.123093,328.346741 117.869362,328.099640 107.616760,328.139954 
	C104.280121,328.153076 102.697197,327.294678 102.976875,323.677551 
	C103.231575,320.383423 103.132027,317.050262 103.007790,313.741089 
	C102.811394,308.509644 102.463905,303.283875 102.180367,298.055725 
	C102.179466,297.354187 102.178574,296.652679 102.452827,295.463989 
	C102.872833,294.650818 103.017685,294.324768 103.329376,293.805634 
	C103.515297,293.283020 103.534378,292.953552 103.570938,292.256378 
	C103.695076,290.921173 103.801743,289.953644 103.908417,288.986115 
	C103.908417,288.986115 104.176582,288.690613 104.376877,288.339417 
	C104.753441,287.676270 104.757217,287.362305 104.588493,287.046265 
	C104.744896,286.604889 104.901306,286.163544 105.315414,285.139893 
	C105.858215,283.481995 106.143303,282.406311 106.428391,281.330658 
	C106.428391,281.330658 106.232811,281.376007 106.595703,281.190216 
	C107.650246,279.957581 108.341904,278.910736 109.233498,277.741333 
	C109.671127,277.362213 109.731712,277.068909 109.738289,276.429138 
	C110.400650,275.154297 110.939903,274.189209 111.479156,273.224152 
	C111.767632,273.140533 112.029541,273.005402 112.626549,272.777802 
	C112.988213,272.736816 113.286057,272.435059 113.286057,272.435059 
	C113.286057,272.435059 113.047768,272.077545 113.047768,272.077545 
	C113.070755,271.896057 113.093750,271.714600 113.278854,271.203094 
	C113.440964,270.873077 113.452255,270.589447 113.452255,270.589447 
	C113.452255,270.589447 113.493294,270.525879 113.803345,270.468628 
	C114.458115,270.252747 114.802841,270.094116 115.461754,269.891113 
	C116.820854,268.589722 117.865768,267.332672 118.987625,265.826965 
	C119.079391,265.405304 119.094238,265.232391 119.109077,265.059479 
	C119.267632,265.002380 119.426178,264.945251 120.065689,264.631897 
	C124.493408,262.020020 128.258057,259.254974 132.427689,257.400482 
	C139.476395,254.265503 146.781311,251.706604 153.978516,248.905518 
	C154.423431,248.879562 154.868362,248.853607 156.014938,248.785446 
	C162.143631,247.436768 167.570648,246.130280 172.997665,244.823792 
	C173.737198,244.820480 174.476715,244.817184 175.999435,244.757904 
	C181.503387,244.069595 186.224167,243.437256 190.944931,242.804916 
	C193.321198,242.804672 195.697479,242.804443 198.948944,242.848679 
	C202.568512,242.812607 205.312897,242.732040 208.057266,242.651474 
	C208.490112,242.733917 208.922943,242.816360 210.076492,242.981415 
	C219.954941,244.356567 229.230835,245.105148 238.244064,247.063004 
	C253.619766,250.402863 268.541260,255.227615 281.726288,264.263550 
	C281.726288,264.263550 281.924225,264.001953 281.976715,264.432678 
	C284.710907,267.535004 287.392639,270.206635 290.074341,272.878235 
	C290.074341,272.878235 290.041138,272.961029 290.170166,273.244019 
	C291.125122,274.427399 291.951111,275.327759 292.777069,276.228119 
	C292.777069,276.228119 292.860626,276.140991 292.822327,276.519806 
	C294.230713,279.920837 295.677399,282.943054 297.124084,285.965271 
z"/>
<path fill="#FADDC8" opacity="1.000000" stroke="none" 
	d="
M82.656601,275.982147 
	C75.804970,293.189941 78.440544,311.346222 77.699493,329.413086 
	C52.785820,329.413086 28.227203,329.413086 3.510955,329.413086 
	C3.510955,318.382324 2.496972,307.351166 3.790242,296.597534 
	C5.139318,285.379852 12.461066,277.291718 22.805862,272.630585 
	C37.222187,266.134888 52.427406,262.898132 69.091438,263.130157 
	C75.230667,263.949005 80.554253,264.498108 86.381607,265.099152 
	C84.959869,269.252930 83.808235,272.617523 82.656601,275.982147 
z"/>
<path fill="#FBE1AC" opacity="1.000000" stroke="none" 
	d="
M320.929260,262.799774 
	C322.043091,262.794800 323.156921,262.789825 324.871948,262.698273 
	C325.473175,262.611725 325.819885,262.401306 325.819885,262.401306 
	C326.308746,262.452362 326.797638,262.503418 328.022003,262.587128 
	C331.052704,262.417847 333.347900,262.215942 335.643097,262.014008 
	C352.472137,262.441284 368.576843,265.896057 383.324524,274.227783 
	C386.538879,276.043732 388.971039,279.244324 391.864319,282.262543 
	C391.965179,282.717896 392.328400,282.968262 392.328400,282.968262 
	C392.483643,283.062683 392.638855,283.157104 392.920441,283.481689 
	C393.046783,283.711884 393.023712,283.572571 393.023712,283.572571 
	C393.679260,284.696930 394.334778,285.821320 395.024292,287.686279 
	C395.870911,289.956512 396.683502,291.486176 397.496063,293.015839 
	C397.624054,293.474396 397.752045,293.932953 397.687256,294.868744 
	C397.754364,295.904358 398.014282,296.462769 398.274200,297.021149 
	C398.466309,297.749878 398.658417,298.478577 398.817566,299.588806 
	C398.524902,304.903564 398.282684,309.837860 398.000122,314.769836 
	C397.763641,318.897217 397.480011,323.021881 396.751556,327.512482 
	C392.748474,326.918121 389.230072,325.223785 385.670319,325.131897 
	C372.734894,324.798035 359.785034,324.936584 346.841949,325.049774 
	C343.892303,325.075562 340.941895,325.669006 338.002777,326.079651 
	C333.678253,326.683807 329.363586,327.358429 325.044708,328.003021 
	C324.910431,322.576019 324.776154,317.149048 324.398010,311.400879 
	C324.080933,306.660828 324.007751,302.241882 324.202209,297.218048 
	C324.278229,296.093475 324.086639,295.573792 323.895050,295.054138 
	C323.649292,293.578430 323.403564,292.102722 323.404816,290.080627 
	C323.364166,289.021484 323.076508,288.508789 322.788849,287.996063 
	C322.515442,286.826324 322.242004,285.656555 322.052490,284.035339 
	C322.136383,283.583893 321.893097,283.271057 321.893097,283.271057 
	C321.298981,281.749146 320.704834,280.227264 320.312378,278.125397 
	C320.121918,276.680237 319.729736,275.815063 319.194427,274.603912 
	C317.675171,271.089996 316.299072,267.922089 314.882782,264.661682 
	C317.335449,263.906433 319.132355,263.353088 320.929260,262.799774 
z"/>
<path fill="#FB9805" opacity="1.000000" stroke="none" 
	d="
M251.911819,339.782532 
	C251.702911,340.070618 251.494019,340.358673 250.845367,340.869385 
	C250.134094,341.268341 249.975433,341.516724 249.929626,341.837219 
	C249.929626,341.837219 249.924835,341.940704 249.656677,342.009888 
	C249.119781,342.269867 248.968918,342.529266 248.935959,342.857239 
	C248.935959,342.857239 248.948257,342.942413 248.685638,343.026306 
	C248.148285,343.304291 247.995895,343.568817 247.965836,343.903809 
	C247.965836,343.903809 247.975952,343.975586 247.718079,344.039642 
	C247.175003,344.273651 247.004196,344.522186 246.947769,344.849365 
	C246.947769,344.849365 246.937012,344.945679 246.540314,344.939941 
	C244.416656,346.276428 242.689667,347.618591 240.603760,348.995941 
	C239.145706,350.654663 238.046555,352.278168 236.947403,353.901703 
	C236.947403,353.901703 236.968750,353.978119 236.639191,353.922241 
	C233.881958,356.242737 231.454315,358.619110 229.026672,360.995483 
	C229.026672,360.995483 229.016464,361.015076 228.776627,361.112061 
	C228.245377,361.409393 228.076523,361.684875 228.030243,362.035461 
	C227.819672,362.288361 227.609085,362.541229 226.940887,362.964111 
	C226.204361,363.311798 226.026596,363.561523 225.949951,363.883240 
	C225.949951,363.883240 225.952911,363.961060 225.573303,363.994781 
	C219.557968,367.719360 214.142975,371.638611 210.917770,377.823944 
	C210.917770,377.823944 210.929672,377.923798 210.531128,377.933472 
	C209.043915,379.187988 207.955246,380.432861 206.866577,381.677765 
	C206.866577,381.677765 206.857605,381.855591 206.415375,381.882141 
	C203.343079,382.925171 200.712997,383.941650 198.082932,384.958130 
	C198.082932,384.958130 198.013947,384.979614 197.937164,384.723785 
	C197.670273,384.190125 197.409302,384.022888 197.077438,383.966217 
	C197.077438,383.966217 197.013046,383.994110 196.967438,383.652802 
	C196.270569,382.886353 195.619293,382.461212 194.968018,382.036072 
	C194.968002,382.036102 194.999390,382.000000 194.971619,381.667542 
	C192.041916,378.120178 190.461090,373.379150 185.194748,372.895447 
	C185.194748,372.895447 185.100967,372.926178 185.077362,372.514252 
	C183.673340,371.082397 182.292908,370.062500 180.912476,369.042603 
	C180.588333,368.975891 180.327591,368.809753 180.052689,367.962677 
	C178.770538,366.566193 177.565948,365.751099 176.361359,364.936005 
	C172.780319,361.698181 169.199265,358.460388 165.342575,354.657959 
	C164.078720,353.386475 163.090515,352.679535 162.102310,351.972595 
	C162.102310,351.972595 162.023621,351.975922 161.990326,351.641296 
	C161.501251,351.026215 161.045471,350.745789 160.589691,350.465363 
	C160.589706,350.465363 160.719223,350.279419 160.631165,350.050842 
	C160.066879,349.524384 159.590652,349.226471 159.114441,348.928589 
	C159.114441,348.928558 159.039154,348.959229 158.963745,348.694672 
	C158.693909,348.146210 158.425385,347.988342 158.082748,347.956512 
	C158.082748,347.956512 158.014664,347.992828 157.977280,347.650452 
	C157.291595,346.876862 156.643295,346.445618 155.994980,346.014404 
	C155.994980,346.014404 155.998245,346.001343 155.971802,345.676208 
	C154.821289,344.496429 153.697220,343.641785 152.573151,342.787109 
	C152.573151,342.787109 152.259918,342.665405 152.127426,342.383423 
	C151.863083,341.934601 151.691528,341.863220 151.480270,341.887329 
	C151.135422,341.648987 150.790573,341.410614 150.203552,340.724579 
	C149.799011,340.042694 149.575424,339.921539 149.290588,339.913452 
	C149.290588,339.913452 149.133026,339.912079 149.067856,339.516174 
	C148.029068,338.402496 147.055466,337.684662 146.081848,336.966858 
	C144.815628,335.846008 143.549408,334.725189 142.143402,332.966125 
	C141.977203,331.376434 141.950806,330.425018 142.350067,329.389099 
	C143.349335,329.348022 143.922943,329.391449 144.634155,329.559753 
	C145.358063,329.611053 145.944412,329.537445 147.020782,329.372498 
	C165.618805,329.250641 183.726883,329.172577 201.834778,329.202789 
	C220.269928,329.233551 238.704895,329.370911 257.402008,329.621887 
	C258.048370,331.032257 258.432648,332.282257 258.816925,333.532288 
	C258.816925,333.532288 258.636749,333.798096 258.384399,333.854919 
	C258.132019,333.911713 257.971985,334.250153 257.971985,334.250153 
	C257.658844,334.634247 257.345734,335.018311 256.436584,335.640564 
	C255.436523,336.410095 255.032501,336.941467 254.628479,337.472839 
	C254.628479,337.472839 254.537552,337.603790 254.139832,337.505341 
	C253.132004,338.198761 252.521912,338.990662 251.911819,339.782532 
z"/>
<path fill="#FEE2A9" opacity="1.000000" stroke="none" 
	d="
M312.574280,187.317856 
	C312.574280,187.317856 312.844574,187.363205 313.285400,187.248840 
	C314.517426,186.461639 315.308624,185.788818 316.099792,185.115997 
	C316.099792,185.115997 316.063324,185.007980 316.452881,185.043457 
	C322.941162,183.752213 329.002594,181.662918 335.151459,181.362442 
	C339.366882,181.156433 343.703888,183.438782 347.986542,184.608780 
	C349.380493,185.386871 350.774445,186.164963 352.625916,187.337006 
	C355.035278,189.475739 356.987122,191.220535 358.938965,192.965332 
	C359.211914,193.526398 359.484863,194.087479 359.999695,195.208008 
	C361.686066,198.891525 363.537994,201.899506 364.469635,205.169662 
	C365.579437,209.065125 365.899750,213.185516 366.562134,217.208450 
	C363.991608,228.855728 358.466370,238.367676 346.784668,243.978149 
	C345.949829,244.287918 345.820374,244.529724 345.852753,244.858475 
	C345.852753,244.858475 345.982025,244.973587 345.500702,244.896759 
	C339.004639,245.370621 332.989899,245.921310 326.975159,246.472000 
	C326.523895,246.349106 326.072662,246.226212 325.040222,245.852707 
	C320.342743,243.672989 316.226471,241.743912 312.110199,239.814835 
	C311.993408,239.507584 311.794403,239.268890 311.222717,238.711243 
	C310.288452,237.888779 309.644653,237.453842 309.000854,237.018890 
	C309.000854,237.018890 309.002106,236.993484 308.926514,236.697876 
	C308.273682,235.887497 307.696472,235.372726 307.119263,234.857956 
	C307.119263,234.857956 307.030151,234.977859 307.035645,234.617218 
	C306.400269,233.748337 305.759430,233.240128 305.118591,232.731918 
	C305.118591,232.731918 305.044586,232.347855 304.960327,231.819641 
	C303.574921,228.528992 302.273834,225.766586 300.972717,223.004166 
	C300.861847,222.235931 300.751038,221.467697 300.619324,220.052094 
	C300.373993,218.613892 300.149475,217.823059 299.924988,217.032242 
	C299.940186,214.306854 299.955414,211.581451 300.170319,208.155640 
	C300.602753,206.310303 300.835480,205.165375 301.068207,204.020447 
	C301.165222,203.702545 301.262238,203.384644 301.617065,202.625839 
	C302.916412,200.119415 303.957977,198.053894 304.999573,195.988373 
	C304.999573,195.988373 305.161194,195.670242 305.461060,195.353210 
	C306.800018,193.693466 307.839111,192.350739 308.878235,191.008026 
	C308.878235,191.008026 309.126831,190.773346 309.487244,190.488708 
	C310.756531,189.241989 311.665405,188.279922 312.574280,187.317856 
z"/>
<path fill="#FEE0C6" opacity="1.000000" stroke="none" 
	d="
M88.956367,240.940842 
	C78.760361,247.249725 67.875999,247.900955 56.091404,244.906219 
	C45.909622,239.009827 38.512066,231.292999 36.180813,218.918121 
	C36.077339,206.491058 39.801960,196.387817 48.299931,188.212891 
	C48.728634,187.873703 49.157337,187.534531 50.079498,187.015594 
	C51.133999,186.323776 51.695042,185.811707 52.256081,185.299622 
	C52.256081,185.299622 52.259773,185.071350 52.617069,185.145325 
	C63.284836,180.639435 73.621010,178.963593 84.082565,184.814743 
	C85.320786,185.507278 86.736092,185.883224 88.069305,186.405914 
	C88.207199,186.532928 88.345093,186.659958 88.791061,187.248840 
	C91.049477,189.475494 92.999809,191.240295 94.950150,193.005112 
	C94.950150,193.005112 94.962967,193.034409 95.009384,193.345184 
	C95.628349,194.173157 96.200897,194.690353 96.773438,195.207550 
	C96.773445,195.207550 96.969765,195.146042 96.896767,195.526306 
	C100.109352,202.165344 102.519043,208.757172 101.247131,215.871613 
	C100.217293,221.632065 98.262787,227.227219 96.718422,232.895691 
	C96.718422,232.895691 96.362289,233.093857 95.913498,233.294159 
	C93.295258,235.976608 91.125816,238.458725 88.956367,240.940842 
z"/>
<path fill="#DEDACA" opacity="1.000000" stroke="none" 
	d="
M260.066223,329.038177 
	C261.795166,328.713531 263.521484,328.125214 265.253479,328.108002 
	C274.855896,328.012512 284.464874,327.869812 294.060455,328.139923 
	C298.106873,328.253815 299.146423,326.830109 299.048798,322.997711 
	C298.816956,313.898254 298.989288,304.788513 299.252380,295.190460 
	C299.506500,294.697998 299.852753,294.671967 299.852753,294.671967 
	C299.852753,306.092957 299.852753,317.513947 299.852753,329.724030 
	C287.906372,329.724030 275.860107,329.724030 263.050354,329.665741 
	C261.546661,329.417694 260.806458,329.227936 260.066223,329.038177 
z"/>
<path fill="#DEDACA" opacity="1.000000" stroke="none" 
	d="
M102.013519,298.424347 
	C102.463905,303.283875 102.811394,308.509644 103.007790,313.741089 
	C103.132027,317.050262 103.231575,320.383423 102.976875,323.677551 
	C102.697197,327.294678 104.280121,328.153076 107.616760,328.139954 
	C117.869362,328.099640 128.123093,328.346741 138.646667,328.982300 
	C138.916931,329.482483 138.750412,329.923035 138.750412,329.923035 
	C126.605286,329.923035 114.460159,329.923035 101.846664,329.923035 
	C101.846664,319.277283 101.846664,309.035126 102.013519,298.424347 
z"/>
<path fill="#DF9114" opacity="1.000000" stroke="none" 
	d="
M366.845886,217.079239 
	C365.899750,213.185516 365.579437,209.065125 364.469635,205.169662 
	C363.537994,201.899506 361.686066,198.891525 360.224701,195.429138 
	C362.436554,197.882874 364.701508,200.647125 366.878174,203.479248 
	C367.898773,204.807190 368.749146,206.265945 369.835571,207.905167 
	C371.632721,206.309296 372.910217,205.174835 374.511414,203.985458 
	C372.266571,208.270370 369.698090,212.610199 366.845886,217.079239 
z"/>
<path fill="#F1A52D" opacity="1.000000" stroke="none" 
	d="
M82.964996,276.144684 
	C83.808235,272.617523 84.959869,269.252930 86.381607,265.099152 
	C80.554253,264.498108 75.230667,263.949005 69.565445,263.210388 
	C68.225967,261.270172 67.228119,259.519501 66.113579,257.458801 
	C66.326645,257.182007 66.822517,257.086609 66.962105,257.266968 
	C71.656334,263.331879 78.772461,261.742981 84.962692,263.165863 
	C86.154922,263.439880 88.041924,266.022888 87.790291,266.437683 
	C84.624153,271.656464 85.708191,276.340698 89.028183,281.279663 
	C87.132149,279.859589 85.202766,278.083405 82.964996,276.144684 
z"/>
<path fill="#E89F2C" opacity="1.000000" stroke="none" 
	d="
M47.924370,188.156921 
	C39.801960,196.387817 36.077339,206.491058 36.096504,218.544586 
	C34.434494,216.841675 32.881725,214.744965 31.292372,212.322083 
	C32.844139,209.824127 35.125031,207.870224 35.889668,205.439362 
	C38.094437,198.430206 40.432663,191.722870 47.924370,188.156921 
z"/>
<path fill="#E89F2C" opacity="1.000000" stroke="none" 
	d="
M12.297853,173.277405 
	C14.027816,175.769379 15.743138,178.636627 17.720446,182.109070 
	C18.314661,183.483734 18.646891,184.253204 18.979118,185.022690 
	C21.736469,190.467529 24.556740,195.881958 27.210802,201.376694 
	C27.955427,202.918289 28.211180,204.696014 28.490950,206.625122 
	C22.954882,195.807419 17.619049,184.730042 12.297853,173.277405 
z"/>
<path fill="#E7991C" opacity="1.000000" stroke="none" 
	d="
M327.145142,246.797150 
	C332.989899,245.921310 339.004639,245.370621 345.447998,244.828094 
	C342.769623,248.725220 339.662598,252.614151 336.252197,256.603577 
	C336.958710,254.031036 337.968597,251.358017 339.048645,248.499451 
	C335.269043,248.055847 331.292084,247.589081 327.145142,246.797150 
z"/>
<path fill="#DF9114" opacity="1.000000" stroke="none" 
	d="
M379.111572,181.381622 
	C381.081451,181.416595 383.094238,181.821121 385.402588,182.065796 
	C382.300049,189.112076 378.901947,196.318222 375.204407,203.664795 
	C376.487366,199.885681 378.105927,195.980194 379.641479,192.042358 
	C380.999634,188.559509 381.834351,185.061447 379.111572,181.381622 
z"/>
<path fill="#E7991C" opacity="1.000000" stroke="none" 
	d="
M320.637543,262.574860 
	C319.132355,263.353088 317.335449,263.906433 314.882782,264.661682 
	C316.299072,267.922089 317.675171,271.089996 319.124817,274.877869 
	C319.151001,275.680206 319.103699,275.862640 319.056366,276.045044 
	C318.392090,276.439850 317.727783,276.834656 316.784271,277.332581 
	C315.870544,274.910065 315.184723,272.395905 314.617889,269.855194 
	C314.164673,267.824066 312.934723,264.501984 313.668610,263.964813 
	C315.374420,262.716217 318.058319,262.803864 320.637543,262.574860 
z"/>
<path fill="#D3810C" opacity="1.000000" stroke="none" 
	d="
M211.239685,377.737946 
	C214.142975,371.638611 219.557968,367.719360 225.537231,363.980042 
	C221.107727,368.505035 216.334656,373.078491 211.239685,377.737946 
z"/>
<path fill="#E89F2C" opacity="1.000000" stroke="none" 
	d="
M3.193654,117.609856 
	C3.670048,118.238510 4.303482,119.295067 4.335369,120.369476 
	C4.532351,127.006622 4.593878,133.647797 4.468746,140.594269 
	C3.848929,133.282623 3.460782,125.664314 3.193654,117.609856 
z"/>
<path fill="#F1A52D" opacity="1.000000" stroke="none" 
	d="
M103.162537,293.998749 
	C103.017685,294.324768 102.872833,294.650818 102.494507,295.113525 
	C100.172829,293.153351 98.084610,291.056519 95.823410,288.690918 
	C97.500343,289.203461 99.350250,289.984711 101.266617,290.794006 
	C101.709969,290.402130 102.522362,289.684021 103.621590,288.976013 
	C103.801743,289.953644 103.695076,290.921173 103.396561,292.446106 
	C103.190651,293.335236 103.176590,293.666992 103.162537,293.998749 
z"/>
<path fill="#E7991C" opacity="1.000000" stroke="none" 
	d="
M307.402924,287.069092 
	C307.540955,281.755585 312.536377,280.326263 316.068054,277.404358 
	C313.521790,280.661469 310.625458,283.820374 307.402924,287.069092 
z"/>
<path fill="#D3810C" opacity="1.000000" stroke="none" 
	d="
M185.310776,373.203918 
	C190.461090,373.379150 192.041916,378.120178 194.954224,381.683990 
	C191.785324,379.192719 188.606064,376.352570 185.310776,373.203918 
z"/>
<path fill="#E7991C" opacity="1.000000" stroke="none" 
	d="
M335.363800,261.873535 
	C333.347900,262.215942 331.052704,262.417847 328.381592,262.495636 
	C330.341156,260.572662 332.676636,258.773834 335.351593,256.958984 
	C335.019440,257.843323 334.089050,258.665802 333.784882,259.676697 
	C333.631714,260.185699 334.615051,261.036682 335.363800,261.873535 
z"/>
<path fill="#D3810C" opacity="1.000000" stroke="none" 
	d="
M229.339478,360.881470 
	C231.454315,358.619110 233.881958,356.242737 236.602997,353.905945 
	C234.481659,356.219543 232.066971,358.493500 229.339478,360.881470 
z"/>
<path fill="#F1A52D" opacity="1.000000" stroke="none" 
	d="
M89.415848,282.284607 
	C92.071114,283.300568 96.097000,283.134552 95.681335,288.032532 
	C93.465195,286.410034 91.465820,284.502991 89.415848,282.284607 
z"/>
<path fill="#D3810C" opacity="1.000000" stroke="none" 
	d="
M198.211411,385.289551 
	C200.712997,383.941650 203.343079,382.925171 206.326447,381.886475 
	C204.104004,383.569824 203.353882,389.328308 198.211411,385.289551 
z"/>
<path fill="#C7760C" opacity="1.000000" stroke="none" 
	d="
M240.962677,348.960754 
	C242.689667,347.618591 244.416656,346.276428 246.493118,344.929077 
	C245.120010,346.579346 243.397415,348.234772 241.339249,349.710022 
	C240.990021,349.340149 240.976364,349.150452 240.962677,348.960754 
z"/>
<path fill="#E7991C" opacity="1.000000" stroke="none" 
	d="
M300.183746,293.822876 
	C299.549469,293.228668 299.247406,292.633881 299.213440,291.527100 
	C299.675415,291.003601 299.869354,290.992126 300.063324,290.980591 
	C301.376282,290.489655 302.689240,289.998718 304.241821,289.637756 
	C303.159607,291.119263 301.837799,292.470795 300.183746,293.822876 
z"/>
<path fill="#C7760C" opacity="1.000000" stroke="none" 
	d="
M259.695831,329.080902 
	C260.806458,329.227936 261.546661,329.417694 262.574402,329.706299 
	C261.713745,331.003845 260.565613,332.202545 259.117188,333.466736 
	C258.432648,332.282257 258.048370,331.032257 257.591278,329.525940 
	C257.518494,329.269623 257.846283,328.995667 257.846283,328.995667 
	C258.339325,329.038300 258.832397,329.080963 259.695831,329.080902 
z"/>
<path fill="#E89F2C" opacity="1.000000" stroke="none" 
	d="
M9.707638,86.316910 
	C9.319071,88.662979 8.636189,91.192986 7.622954,93.796623 
	C7.999509,91.413788 8.706416,88.957314 9.707638,86.316910 
z"/>
<path fill="#D3810C" opacity="1.000000" stroke="none" 
	d="
M240.603775,348.995972 
	C240.976364,349.150452 240.990021,349.340149 241.023956,349.814270 
	C239.883255,351.312469 238.722244,352.526215 237.254318,353.820831 
	C238.046555,352.278168 239.145706,350.654663 240.603775,348.995972 
z"/>
<path fill="#CEC0AE" opacity="1.000000" stroke="none" 
	d="
M397.573425,292.692200 
	C396.683502,291.486176 395.870911,289.956512 395.119568,288.069641 
	C396.004120,289.264435 396.827454,290.816498 397.573425,292.692200 
z"/>
<path fill="#E89F2C" opacity="1.000000" stroke="none" 
	d="
M4.036854,109.400085 
	C4.120781,110.886894 3.963080,112.654732 3.619590,114.680237 
	C3.554276,113.185631 3.674751,111.433380 4.036854,109.400085 
z"/>
<path fill="#D3810C" opacity="1.000000" stroke="none" 
	d="
M181.027512,369.345764 
	C182.292908,370.062500 183.673340,371.082397 185.071106,372.465302 
	C183.773148,371.768494 182.457855,370.708710 181.027512,369.345764 
z"/>
<path fill="#D3810C" opacity="1.000000" stroke="none" 
	d="
M207.163757,381.586487 
	C207.955246,380.432861 209.043915,379.187988 210.480927,377.930969 
	C209.706482,379.110931 208.583710,380.303070 207.163757,381.586487 
z"/>
<path fill="#C7760C" opacity="1.000000" stroke="none" 
	d="
M138.906372,330.218689 
	C138.750412,329.923035 138.916931,329.482483 138.961929,329.251343 
	C139.471924,329.029968 139.936920,329.039703 140.940536,329.153137 
	C141.479156,329.256805 141.924408,329.473572 141.924408,329.473572 
	C141.950806,330.425018 141.977203,331.376434 141.992065,332.684814 
	C141.007797,332.199280 140.035065,331.356812 138.906372,330.218689 
z"/>
<path fill="#D3810C" opacity="1.000000" stroke="none" 
	d="
M176.485626,365.211487 
	C177.565948,365.751099 178.770538,366.566193 179.960419,367.745361 
	C178.833801,367.235321 177.721863,366.361145 176.485626,365.211487 
z"/>
<path fill="#E89F2C" opacity="1.000000" stroke="none" 
	d="
M5.059477,103.451340 
	C5.141944,104.359688 5.080473,105.563675 4.739833,106.844223 
	C4.612288,105.862846 4.763914,104.804909 5.059477,103.451340 
z"/>
<path fill="#C7760C" opacity="1.000000" stroke="none" 
	d="
M152.609375,343.085022 
	C153.697220,343.641785 154.821289,344.496429 155.965485,345.677979 
	C154.872269,345.130951 153.758942,344.256958 152.609375,343.085022 
z"/>
<path fill="#C7760C" opacity="1.000000" stroke="none" 
	d="
M162.188080,352.259338 
	C163.090515,352.679535 164.078720,353.386475 165.072113,354.440399 
	C164.142822,354.040314 163.208344,353.293213 162.188080,352.259338 
z"/>
<path fill="#E89F2C" opacity="1.000000" stroke="none" 
	d="
M11.706740,81.328751 
	C11.657160,82.369019 11.345253,83.559044 10.725150,84.815811 
	C10.759440,83.747879 11.101927,82.613197 11.706740,81.328751 
z"/>
<path fill="#CEC0AE" opacity="1.000000" stroke="none" 
	d="
M319.103424,276.316772 
	C319.103699,275.862640 319.151001,275.680206 319.267944,275.223846 
	C319.729736,275.815063 320.121918,276.680237 320.286804,277.715820 
	C319.756531,277.453644 319.453491,277.021088 319.103424,276.316772 
z"/>
<path fill="#C7760C" opacity="1.000000" stroke="none" 
	d="
M252.193542,339.736023 
	C252.521912,338.990662 253.132004,338.198761 254.063477,337.528259 
	C253.748322,338.329559 253.111786,339.009521 252.193542,339.736023 
z"/>
<path fill="#C7760C" opacity="1.000000" stroke="none" 
	d="
M146.173981,337.259338 
	C147.055466,337.684662 148.029068,338.402496 149.053513,339.438721 
	C148.158279,339.022034 147.212204,338.286926 146.173981,337.259338 
z"/>
<path fill="#E89F2C" opacity="1.000000" stroke="none" 
	d="
M4.423907,144.339371 
	C4.846716,144.855515 5.198915,145.659485 5.367045,146.648285 
	C4.906417,146.097794 4.629858,145.362503 4.423907,144.339371 
z"/>
<path fill="#E89F2C" opacity="1.000000" stroke="none" 
	d="
M8.771139,161.424896 
	C9.207871,162.194489 9.616016,163.254807 9.986652,164.632385 
	C9.546946,163.871628 9.144750,162.793640 8.771139,161.424896 
z"/>
<path fill="#E89F2C" opacity="1.000000" stroke="none" 
	d="
M10.002798,165.399368 
	C10.393682,166.089783 10.772981,167.109314 11.126938,168.422241 
	C10.731470,167.719910 10.361343,166.724213 10.002798,165.399368 
z"/>
<path fill="#CEC0AE" opacity="1.000000" stroke="none" 
	d="
M398.368713,296.770447 
	C398.014282,296.462769 397.754364,295.904358 397.686584,295.226746 
	C398.073578,295.578247 398.268402,296.049011 398.368713,296.770447 
z"/>
<path fill="#CEC0AE" opacity="1.000000" stroke="none" 
	d="
M323.769531,295.219421 
	C324.086639,295.573792 324.278229,296.093475 324.259308,296.748840 
	C323.913879,296.384613 323.778961,295.884644 323.769531,295.219421 
z"/>
<path fill="#E89F2C" opacity="1.000000" stroke="none" 
	d="
M5.383082,149.258240 
	C5.770488,149.525024 6.121210,150.063065 6.292493,150.752869 
	C5.857502,150.446259 5.601950,149.987885 5.383082,149.258240 
z"/>
<path fill="#CEC0AE" opacity="1.000000" stroke="none" 
	d="
M322.659058,288.171783 
	C323.076508,288.508789 323.364166,289.021484 323.460022,289.705139 
	C323.021912,289.366547 322.775574,288.857025 322.659058,288.171783 
z"/>
<path fill="#E89F2C" opacity="1.000000" stroke="none" 
	d="
M6.152707,98.342896 
	C6.250436,98.947739 6.147009,99.780830 5.862495,100.776772 
	C5.771455,100.150124 5.861503,99.360634 6.152707,98.342896 
z"/>
<path fill="#C7760C" opacity="1.000000" stroke="none" 
	d="
M156.078247,346.300659 
	C156.643295,346.445618 157.291595,346.876862 157.993866,347.615631 
	C157.419052,347.477753 156.790298,347.032318 156.078247,346.300659 
z"/>
<path fill="#E89F2C" opacity="1.000000" stroke="none" 
	d="
M6.400538,153.359039 
	C6.771481,153.635330 7.070657,154.162750 7.214652,154.807037 
	C6.815905,154.486008 6.572338,154.048080 6.400538,153.359039 
z"/>
<path fill="#C7760C" opacity="1.000000" stroke="none" 
	d="
M254.880981,337.406372 
	C255.032501,336.941467 255.436523,336.410095 256.135864,335.863953 
	C255.998642,336.346069 255.566071,336.842987 254.880981,337.406372 
z"/>
<path fill="#D3810C" opacity="1.000000" stroke="none" 
	d="
M195.043762,382.323273 
	C195.619293,382.461212 196.270569,382.886353 196.979980,383.620056 
	C196.398590,383.489227 195.759048,383.049835 195.043762,382.323273 
z"/>
<path fill="#E89F2C" opacity="1.000000" stroke="none" 
	d="
M12.723252,79.165527 
	C12.828089,79.542671 12.686907,80.057396 12.329814,80.735291 
	C12.235013,80.366676 12.356123,79.834892 12.723252,79.165527 
z"/>
<path fill="#E89F2C" opacity="1.000000" stroke="none" 
	d="
M30.050852,210.368286 
	C30.354105,210.466858 30.654011,210.825439 30.991360,211.424408 
	C30.701702,211.319275 30.374605,210.973770 30.050852,210.368286 
z"/>
<path fill="#DF9114" opacity="1.000000" stroke="none" 
	d="
M386.017578,181.502625 
	C385.898987,181.174530 385.991272,180.721268 386.270782,180.118988 
	C386.381500,180.439133 386.304993,180.908295 386.017578,181.502625 
z"/>
<path fill="#C7760C" opacity="1.000000" stroke="none" 
	d="
M159.179565,349.195129 
	C159.590652,349.226471 160.066879,349.524384 160.543015,350.122040 
	C160.110168,350.101746 159.677429,349.781708 159.179565,349.195129 
z"/>
<path fill="#C7760C" opacity="1.000000" stroke="none" 
	d="
M160.688980,350.716156 
	C161.045471,350.745789 161.501251,351.026215 161.991577,351.601929 
	C161.613510,351.587128 161.200882,351.277039 160.688980,350.716156 
z"/>
<path fill="#C7760C" opacity="1.000000" stroke="none" 
	d="
M158.132233,348.207458 
	C158.425385,347.988342 158.693909,348.146210 158.972137,348.654907 
	C158.764526,348.739258 158.473114,348.598816 158.132233,348.207458 
z"/>
<path fill="#D3810C" opacity="1.000000" stroke="none" 
	d="
M226.201050,363.852356 
	C226.026596,363.561523 226.204361,363.311798 226.704529,363.056549 
	C226.767914,363.259857 226.610031,363.540680 226.201050,363.852356 
z"/>
<path fill="#D3810C" opacity="1.000000" stroke="none" 
	d="
M228.284698,361.976746 
	C228.076523,361.684875 228.245377,361.409393 228.767792,361.118683 
	C228.845581,361.324860 228.692352,361.621460 228.284698,361.976746 
z"/>
<path fill="#D3810C" opacity="1.000000" stroke="none" 
	d="
M197.138550,384.206604 
	C197.409302,384.022888 197.670273,384.190125 197.947235,384.689087 
	C197.668503,384.913330 197.390366,384.758942 197.138550,384.206604 
z"/>
<path fill="#C7760C" opacity="1.000000" stroke="none" 
	d="
M247.194138,344.821991 
	C247.004196,344.522186 247.175003,344.273651 247.682007,344.036133 
	C247.919464,344.339386 247.765030,344.614716 247.194138,344.821991 
z"/>
<path fill="#C7760C" opacity="1.000000" stroke="none" 
	d="
M248.206482,343.846741 
	C247.995895,343.568817 248.148285,343.304291 248.642609,343.026367 
	C248.902100,343.312256 248.763748,343.594635 248.206482,343.846741 
z"/>
<path fill="#CEC0AE" opacity="1.000000" stroke="none" 
	d="
M321.780151,283.352783 
	C321.893097,283.271057 322.136383,283.583893 322.075562,283.671936 
	C322.014709,283.759979 321.741516,283.703247 321.741516,283.703247 
	C321.741516,283.703247 321.667236,283.434540 321.780151,283.352783 
z"/>
<path fill="#E89F2C" opacity="1.000000" stroke="none" 
	d="
M11.507549,171.219421 
	C11.834130,171.146744 11.975666,171.328583 12.035592,171.750656 
	C11.694107,171.914719 11.483614,171.742416 11.507549,171.219421 
z"/>
<path fill="#E7991C" opacity="1.000000" stroke="none" 
	d="
M346.070679,244.843597 
	C345.820374,244.529724 345.949829,244.287918 346.454163,244.131042 
	C346.738068,244.468552 346.611877,244.701782 346.070679,244.843597 
z"/>
<path fill="#E89F2C" opacity="1.000000" stroke="none" 
	d="
M7.915704,158.299377 
	C8.320321,158.144791 8.465183,158.362030 8.272749,158.816528 
	C8.156399,158.915726 7.876893,158.533096 7.915704,158.299377 
z"/>
<path fill="#E89F2C" opacity="1.000000" stroke="none" 
	d="
M7.433280,157.251724 
	C7.744104,157.165344 7.903798,157.363983 7.954508,157.838531 
	C7.632118,157.963745 7.444326,157.771179 7.433280,157.251724 
z"/>
<path fill="#CEC0AE" opacity="1.000000" stroke="none" 
	d="
M392.378540,282.841034 
	C392.328400,282.968262 391.965179,282.717896 391.980988,282.602539 
	C392.216156,282.419128 392.360107,282.494690 392.378540,282.841034 
z"/>
<path fill="#C7760C" opacity="1.000000" stroke="none" 
	d="
M249.171539,342.802643 
	C248.968918,342.529266 249.119781,342.269867 249.605621,342.001129 
	C249.854385,342.283936 249.715851,342.558868 249.171539,342.802643 
z"/>
<path fill="#CEC0AE" opacity="1.000000" stroke="none" 
	d="
M393.005737,283.652832 
	C393.023712,283.572571 393.046783,283.711884 393.020264,283.735291 
	C392.993774,283.758698 392.987762,283.733063 393.005737,283.652832 
z"/>
<path fill="#E7991C" opacity="1.000000" stroke="none" 
	d="
M300.018005,294.490173 
	C299.852753,294.671967 299.506500,294.697998 299.333313,294.710083 
	C299.229004,294.480957 299.297852,294.239807 299.644501,293.740051 
	C300.009277,293.757111 300.096283,294.032745 300.018005,294.490173 
z"/>
<path fill="#E89F2C" opacity="1.000000" stroke="none" 
	d="
M6.888073,95.329590 
	C7.044480,95.311058 6.980375,95.712578 6.898520,95.777771 
	C6.816665,95.842972 6.587792,95.627502 6.587792,95.627502 
	C6.587792,95.627502 6.731666,95.348122 6.888073,95.329590 
z"/>
<path fill="#C7760C" opacity="1.000000" stroke="none" 
	d="
M258.100159,334.299072 
	C257.971985,334.250153 258.132019,333.911713 258.231018,333.902374 
	C258.329987,333.893036 258.420258,334.152161 258.420258,334.152161 
	C258.420258,334.152161 258.228302,334.347961 258.100159,334.299072 
z"/>
<path fill="#C7760C" opacity="1.000000" stroke="none" 
	d="
M149.323181,340.123230 
	C149.575424,339.921539 149.799011,340.042694 150.025696,340.462921 
	C149.769653,340.719208 149.524902,340.613892 149.323181,340.123230 
z"/>
<path fill="#C7760C" opacity="1.000000" stroke="none" 
	d="
M250.180084,341.815796 
	C249.975433,341.516724 250.134094,341.268341 250.619171,341.016144 
	C250.698669,341.224945 250.564621,341.509644 250.180084,341.815796 
z"/>
<path fill="#C7760C" opacity="1.000000" stroke="none" 
	d="
M151.471436,342.072266 
	C151.691528,341.863220 151.863083,341.934601 152.047501,342.235657 
	C152.100067,342.369812 151.750259,342.489136 151.750259,342.489136 
	C151.750259,342.489136 151.462601,342.257172 151.471436,342.072266 
z"/>
<path fill="#F8E4B7" opacity="1.000000" stroke="none" 
	d="
M325.349884,328.271667 
	C329.363586,327.358429 333.678253,326.683807 338.002777,326.079651 
	C340.941895,325.669006 343.892303,325.075562 346.841949,325.049774 
	C359.785034,324.936584 372.734894,324.798035 385.670319,325.131897 
	C389.230072,325.223785 392.748474,326.918121 396.655121,327.915710 
	C394.481934,328.003448 391.939514,328.093231 389.397003,328.095306 
	C373.431396,328.108368 357.465698,328.066406 341.500275,328.122101 
	C336.218140,328.140533 330.936768,328.394165 325.349884,328.271667 
z"/>
<path fill="#FFFEFB" opacity="1.000000" stroke="none" 
	d="
M250.208771,180.983643 
	C249.843521,205.889236 232.446121,226.086563 208.651917,229.713272 
	C184.330597,233.420334 161.309723,219.098511 153.813339,195.596863 
	C143.999252,164.829056 167.198792,132.815994 199.302795,131.525238 
	C225.923553,130.454926 250.905792,153.293945 250.208771,180.983643 
z"/>
<path fill="#F1A52D" opacity="1.000000" stroke="none" 
	d="
M281.771973,263.896179 
	C268.541260,255.227615 253.619766,250.402863 238.244064,247.063004 
	C229.230835,245.105148 219.954941,244.356567 210.404541,242.927460 
	C214.772659,242.565399 219.674728,241.494110 224.269547,242.261841 
	C243.416595,245.461044 262.163177,250.164551 279.056793,260.288361 
	C280.210175,260.979553 280.907990,262.430939 281.771973,263.896179 
z"/>
<path fill="#FEAE32" opacity="1.000000" stroke="none" 
	d="
M29.324738,172.931961 
	C32.107365,169.437714 35.407127,166.043991 38.278973,162.320251 
	C39.455517,160.794693 40.498417,158.440521 40.238338,156.662811 
	C39.299000,150.242264 37.779797,143.906540 36.733067,137.271225 
	C38.964626,144.551956 41.090889,152.067230 42.785583,159.678604 
	C43.094845,161.067581 42.081333,163.353546 40.924686,164.354156 
	C37.369469,167.429764 33.448444,170.082520 29.324738,172.931961 
z"/>
<path fill="#F1A52D" opacity="1.000000" stroke="none" 
	d="
M153.707230,248.666016 
	C146.781311,251.706604 139.476395,254.265503 132.427689,257.400482 
	C128.258057,259.254974 124.493408,262.020020 120.232765,264.442200 
	C120.883957,263.092377 121.530045,261.054901 122.869324,260.367035 
	C128.675125,257.385040 134.751556,254.933899 140.594589,252.019104 
	C144.684494,249.978867 148.633911,247.775208 153.707230,248.666016 
z"/>
<path fill="#E89F2C" opacity="1.000000" stroke="none" 
	d="
M97.041016,232.750443 
	C98.262787,227.227219 100.217293,221.632065 101.247131,215.871613 
	C102.519043,208.757172 100.109352,202.165344 96.794601,195.538086 
	C98.529587,198.357422 101.059608,201.353973 101.912674,204.769363 
	C104.358887,214.563187 103.627625,224.105957 97.041016,232.750443 
z"/>
<path fill="#E89F2C" opacity="1.000000" stroke="none" 
	d="
M87.978951,186.108582 
	C86.736092,185.883224 85.320786,185.507278 84.082565,184.814743 
	C73.621010,178.963593 63.284836,180.639435 52.599205,185.257843 
	C52.322758,184.984909 52.334030,184.594940 52.532928,184.373459 
	C58.003704,178.281219 83.094009,177.928223 87.978951,186.108582 
z"/>
<path fill="#DF9114" opacity="1.000000" stroke="none" 
	d="
M364.658478,113.405258 
	C365.092773,121.497833 365.274597,129.903824 365.167542,138.596985 
	C364.721130,130.495636 364.563599,122.107162 364.658478,113.405258 
z"/>
<path fill="#E7991C" opacity="1.000000" stroke="none" 
	d="
M347.887878,184.297821 
	C343.703888,183.438782 339.366882,181.156433 335.151459,181.362442 
	C329.002594,181.662918 322.941162,183.752213 316.463257,185.096863 
	C319.063324,183.580353 321.901947,181.203278 325.049622,180.677826 
	C332.852631,179.375244 340.839478,178.639603 347.887878,184.297821 
z"/>
<path fill="#FEAE32" opacity="1.000000" stroke="none" 
	d="
M37.251640,114.704788 
	C36.669064,113.426849 35.752563,111.682655 36.146763,110.316719 
	C37.624889,105.194923 39.531162,100.196693 41.632061,95.072556 
	C40.497932,101.466042 39.008701,107.939110 37.251640,114.704788 
z"/>
<path fill="#F1A52D" opacity="1.000000" stroke="none" 
	d="
M172.682648,244.595169 
	C167.570648,246.130280 162.143631,247.436768 156.327362,248.661270 
	C160.572830,243.892090 166.511078,244.288666 172.682648,244.595169 
z"/>
<path fill="#F1A52D" opacity="1.000000" stroke="none" 
	d="
M190.619995,242.562103 
	C186.224167,243.437256 181.503387,244.069595 176.354782,244.652954 
	C177.306015,243.753983 178.633026,242.299393 180.074615,242.175232 
	C183.452255,241.884354 186.884766,242.230820 190.619995,242.562103 
z"/>
<path fill="#FEAE32" opacity="1.000000" stroke="none" 
	d="
M96.421837,50.948463 
	C100.010391,49.951950 104.026718,48.868889 108.100609,48.085030 
	C109.460052,47.823456 110.966812,48.327469 112.705605,48.750256 
	C107.627350,49.672234 102.249710,50.325466 96.421837,50.948463 
z"/>
<path fill="#DF9114" opacity="1.000000" stroke="none" 
	d="
M364.424805,141.148682 
	C363.092224,146.647873 361.436066,152.240784 359.447449,157.966766 
	C360.777069,152.480667 362.439178,146.861542 364.424805,141.148682 
z"/>
<path fill="#FEAE32" opacity="1.000000" stroke="none" 
	d="
M77.385681,56.992073 
	C77.898155,56.003525 78.640877,54.491768 79.747902,54.145844 
	C83.266411,53.046352 86.920654,52.381279 90.762146,51.776463 
	C86.595451,53.670559 82.189056,55.336514 77.385681,56.992073 
z"/>
<path fill="#DF9114" opacity="1.000000" stroke="none" 
	d="
M366.117676,167.438477 
	C369.645508,170.175140 373.231293,173.228210 376.838959,176.612701 
	C373.299103,173.881042 369.737366,170.817947 366.117676,167.438477 
z"/>
<path fill="#FEAE32" opacity="1.000000" stroke="none" 
	d="
M65.339012,64.939621 
	C67.129158,60.055504 71.324692,58.031761 76.606720,56.997223 
	C73.220657,59.626663 69.455818,62.265141 65.339012,64.939621 
z"/>
<path fill="#E7991C" opacity="1.000000" stroke="none" 
	d="
M312.117157,240.179474 
	C316.226471,241.743912 320.342743,243.672989 324.687744,245.861038 
	C319.677582,246.497665 315.340149,244.807312 312.117157,240.179474 
z"/>
<path fill="#F1A52D" opacity="1.000000" stroke="none" 
	d="
M290.064758,272.521179 
	C287.392639,270.206635 284.710907,267.535004 281.887085,264.569702 
	C284.515045,266.905334 287.285095,269.534729 290.064758,272.521179 
z"/>
<path fill="#FEAE32" opacity="1.000000" stroke="none" 
	d="
M56.399757,73.020958 
	C58.503643,70.423958 60.943432,67.764168 63.735733,65.086777 
	C61.637383,67.698830 59.186520,70.328499 56.399757,73.020958 
z"/>
<path fill="#F1A52D" opacity="1.000000" stroke="none" 
	d="
M297.356262,285.712036 
	C295.677399,282.943054 294.230713,279.920837 292.762573,276.528198 
	C294.356873,279.258118 295.972656,282.358459 297.356262,285.712036 
z"/>
<path fill="#FEB136" opacity="1.000000" stroke="none" 
	d="
M161.930298,65.442108 
	C163.608734,65.114449 165.370865,65.114449 167.475677,65.114449 
	C167.294037,66.775185 167.158783,68.011841 167.011154,69.623016 
	C165.337189,68.588272 163.675583,67.179016 161.930298,65.442108 
z"/>
<path fill="#E89F2C" opacity="1.000000" stroke="none" 
	d="
M89.302605,240.916260 
	C91.125816,238.458725 93.295258,235.976608 95.781342,233.449280 
	C93.948265,235.899948 91.798553,238.395813 89.302605,240.916260 
z"/>
<path fill="#E7991C" opacity="1.000000" stroke="none" 
	d="
M300.750916,223.243225 
	C302.273834,225.766586 303.574921,228.528992 304.857269,231.653412 
	C303.402039,229.171051 301.965607,226.326675 300.750916,223.243225 
z"/>
<path fill="#FEB136" opacity="1.000000" stroke="none" 
	d="
M170.937897,73.431267 
	C172.889267,74.858902 174.920486,76.616714 176.927032,78.754028 
	C174.940826,77.342834 172.979294,75.552139 170.937897,73.431267 
z"/>
<path fill="#F1A52D" opacity="1.000000" stroke="none" 
	d="
M207.913849,242.312408 
	C205.312897,242.732040 202.568512,242.812607 199.384415,242.760239 
	C201.886612,242.409332 204.828522,242.191330 207.913849,242.312408 
z"/>
<path fill="#E89F2C" opacity="1.000000" stroke="none" 
	d="
M94.933075,192.661041 
	C92.999809,191.240295 91.049477,189.475494 89.037430,187.384476 
	C90.955818,188.811172 92.935905,190.564056 94.933075,192.661041 
z"/>
<path fill="#DF9114" opacity="1.000000" stroke="none" 
	d="
M358.945251,192.602509 
	C356.987122,191.220535 355.035278,189.475739 352.954102,187.433777 
	C354.867035,188.837631 356.909271,190.538666 358.945251,192.602509 
z"/>
<path fill="#F1A52D" opacity="1.000000" stroke="none" 
	d="
M109.033569,277.863892 
	C108.341904,278.910736 107.650246,279.957581 106.687790,281.156433 
	C107.856995,278.605316 109.296989,275.902191 111.108078,273.211609 
	C110.939903,274.189209 110.400650,275.154297 109.556969,276.563660 
	C109.041542,277.257935 108.968552,277.543243 109.033569,277.863892 
z"/>
<path fill="#E7991C" opacity="1.000000" stroke="none" 
	d="
M304.639618,196.041702 
	C303.957977,198.053894 302.916412,200.119415 301.584106,202.377136 
	C302.288788,200.411224 303.284210,198.253128 304.639618,196.041702 
z"/>
<path fill="#FEAE32" opacity="1.000000" stroke="none" 
	d="
M21.387749,181.005997 
	C22.140354,179.741577 23.225876,178.412720 24.652210,177.040161 
	C23.902237,178.311493 22.811453,179.626511 21.387749,181.005997 
z"/>
<path fill="#E7991C" opacity="1.000000" stroke="none" 
	d="
M308.539490,191.049622 
	C307.839111,192.350739 306.800018,193.693466 305.458405,195.174805 
	C306.170837,193.906052 307.185791,192.498642 308.539490,191.049622 
z"/>
<path fill="#FEAE32" opacity="1.000000" stroke="none" 
	d="
M19.320925,184.955902 
	C18.646891,184.253204 18.314661,183.483734 17.962879,182.388031 
	C18.702412,182.038681 19.461494,182.015549 20.598869,181.990005 
	C20.539015,182.954788 20.100872,183.921951 19.320925,184.955902 
z"/>
<path fill="#DF9114" opacity="1.000000" stroke="none" 
	d="
M359.131104,95.226158 
	C359.905457,96.092163 360.681244,97.295403 361.233582,98.711441 
	C360.384277,97.803963 359.758423,96.683678 359.131104,95.226158 
z"/>
<path fill="#DEDACA" opacity="1.000000" stroke="none" 
	d="
M118.910690,266.075653 
	C117.865768,267.332672 116.820854,268.589722 115.452484,269.607391 
	C115.225258,268.999847 115.321495,268.631653 115.417740,268.263458 
	C115.676292,268.156006 115.890533,267.991028 116.447220,267.496216 
	C117.526199,266.841156 118.218445,266.458405 118.910690,266.075653 
z"/>
<path fill="#F1A52D" opacity="1.000000" stroke="none" 
	d="
M106.083717,281.350037 
	C106.143303,282.406311 105.858215,283.481995 105.323051,284.786407 
	C105.294991,283.799927 105.517014,282.584686 106.083717,281.350037 
z"/>
<path fill="#E7991C" opacity="1.000000" stroke="none" 
	d="
M312.172760,187.263580 
	C311.665405,188.279922 310.756531,189.241989 309.534119,190.324341 
	C310.070831,189.366165 310.921051,188.287735 312.172760,187.263580 
z"/>
<path fill="#FEAE32" opacity="1.000000" stroke="none" 
	d="
M25.428356,176.052521 
	C25.866543,175.120224 26.628393,174.114502 27.741535,173.090210 
	C27.312557,174.040802 26.532288,175.009949 25.428356,176.052521 
z"/>
<path fill="#DF9114" opacity="1.000000" stroke="none" 
	d="
M363.104736,107.273537 
	C363.702026,107.720642 364.274872,108.502655 364.796997,109.608002 
	C364.190979,109.157043 363.635651,108.382744 363.104736,107.273537 
z"/>
<path fill="#E7991C" opacity="1.000000" stroke="none" 
	d="
M315.735199,185.088562 
	C315.308624,185.788818 314.517426,186.461639 313.392670,187.163559 
	C313.829590,186.482132 314.600098,185.771637 315.735199,185.088562 
z"/>
<path fill="#E7991C" opacity="1.000000" stroke="none" 
	d="
M299.712891,217.213318 
	C300.149475,217.823059 300.373993,218.613892 300.451721,219.700073 
	C300.036896,219.128403 299.768829,218.261398 299.712891,217.213318 
z"/>
<path fill="#F1A52D" opacity="1.000000" stroke="none" 
	d="
M292.825745,275.881683 
	C291.951111,275.327759 291.125122,274.427399 290.211060,273.226318 
	C291.040131,273.795471 291.957245,274.665344 292.825745,275.881683 
z"/>
<path fill="#E7991C" opacity="1.000000" stroke="none" 
	d="
M300.813782,204.189758 
	C300.835480,205.165375 300.602753,206.310303 300.121765,207.703644 
	C300.102112,206.754410 300.330750,205.556732 300.813782,204.189758 
z"/>
<path fill="#DF9114" opacity="1.000000" stroke="none" 
	d="
M358.829956,160.233414 
	C359.352234,160.803879 359.657104,161.537216 359.960266,162.581223 
	C359.509888,162.060013 359.061249,161.228149 358.829956,160.233414 
z"/>
<path fill="#F1A52D" opacity="1.000000" stroke="none" 
	d="
M118.987625,265.826965 
	C118.218445,266.458405 117.526199,266.841156 116.547211,267.317749 
	C116.959526,266.613098 117.658592,265.814606 118.733368,265.037811 
	C119.094238,265.232391 119.079391,265.405304 118.987625,265.826965 
z"/>
<path fill="#E7991C" opacity="1.000000" stroke="none" 
	d="
M307.126099,235.185120 
	C307.696472,235.372726 308.273682,235.887497 308.914124,236.701263 
	C308.362549,236.504272 307.747742,236.008286 307.126099,235.185120 
z"/>
<path fill="#E7991C" opacity="1.000000" stroke="none" 
	d="
M309.053101,237.334885 
	C309.644653,237.453842 310.288452,237.888779 311.003296,238.622940 
	C310.417999,238.498398 309.761688,238.074631 309.053101,237.334885 
z"/>
<path fill="#FEAE32" opacity="1.000000" stroke="none" 
	d="
M36.889526,131.761383 
	C36.470577,131.472214 36.072277,130.890442 35.896088,130.144455 
	C36.382191,130.476410 36.646187,130.972610 36.889526,131.761383 
z"/>
<path fill="#FEAE32" opacity="1.000000" stroke="none" 
	d="
M45.382866,87.017326 
	C45.509754,86.437996 45.937260,85.773964 46.684120,85.056625 
	C46.563477,85.646416 46.123478,86.289520 45.382866,87.017326 
z"/>
<path fill="#FEAE32" opacity="1.000000" stroke="none" 
	d="
M43.435406,91.057480 
	C43.532795,90.474731 43.924335,89.791687 44.629265,89.039467 
	C44.538288,89.632591 44.133923,90.294891 43.435406,91.057480 
z"/>
<path fill="#E7991C" opacity="1.000000" stroke="none" 
	d="
M305.129761,233.079742 
	C305.759430,233.240128 306.400269,233.748337 307.093994,234.570587 
	C306.478210,234.398941 305.809540,233.913254 305.129761,233.079742 
z"/>
<path fill="#F1A52D" opacity="1.000000" stroke="none" 
	d="
M115.042137,268.250183 
	C115.321495,268.631653 115.225258,268.999847 115.138290,269.651764 
	C114.802841,270.094116 114.458115,270.252747 113.833466,270.445770 
	C113.924545,269.732391 114.295547,268.984650 115.042137,268.250183 
z"/>
<path fill="#F1A52D" opacity="1.000000" stroke="none" 
	d="
M299.996643,290.679749 
	C299.869354,290.992126 299.675415,291.003601 299.190094,291.019714 
	C298.611450,290.525360 298.324219,290.026398 298.100891,289.236450 
	C298.753174,289.423248 299.341553,289.901093 299.996643,290.679749 
z"/>
<path fill="#E89F2C" opacity="1.000000" stroke="none" 
	d="
M96.801544,194.876373 
	C96.200897,194.690353 95.628349,194.173157 95.023041,193.353485 
	C95.603409,193.549088 96.216530,194.047134 96.801544,194.876373 
z"/>
<path fill="#E89F2C" opacity="1.000000" stroke="none" 
	d="
M51.935730,185.241394 
	C51.695042,185.811707 51.133999,186.323776 50.270550,186.817871 
	C50.517223,186.261002 51.066299,185.722076 51.935730,185.241394 
z"/>
<path fill="#E7991C" opacity="1.000000" stroke="none" 
	d="
M325.725342,262.350647 
	C325.819885,262.401306 325.473175,262.611725 325.273376,262.580322 
	C325.211090,262.351227 325.396820,262.268250 325.725342,262.350647 
z"/>
<path fill="#F1A52D" opacity="1.000000" stroke="none" 
	d="
M113.294876,270.495483 
	C113.452255,270.589447 113.440964,270.873077 113.311188,270.930603 
	C113.051826,270.820282 112.922234,270.652405 112.792641,270.484528 
	C112.907600,270.456848 113.022552,270.429169 113.294876,270.495483 
z"/>
<path fill="#DEDACA" opacity="1.000000" stroke="none" 
	d="
M112.887604,272.176910 
	C113.047768,272.077545 113.286057,272.435059 113.286057,272.435059 
	C113.286057,272.435059 112.988213,272.736816 112.831940,272.693237 
	C112.675674,272.649689 112.727448,272.276276 112.887604,272.176910 
z"/>
<path fill="#F1A52D" opacity="1.000000" stroke="none" 
	d="
M104.423462,287.212677 
	C104.757217,287.362305 104.753441,287.676270 104.385590,288.140076 
	C104.073135,287.977570 104.094612,287.673279 104.423462,287.212677 
z"/>
<path fill="#DEDACA" opacity="1.000000" stroke="none" 
	d="
M142.350067,329.389099 
	C141.924408,329.473572 141.479156,329.256805 141.286499,329.103149 
	C142.351349,328.661377 143.608566,328.122894 144.866379,328.121490 
	C181.512848,328.080963 218.159378,328.091614 254.805893,328.114014 
	C255.621262,328.114502 256.436493,328.346344 257.549042,328.732971 
	C257.846283,328.995667 257.518494,329.269623 257.329224,329.365601 
	C238.704895,329.370911 220.269928,329.233551 201.834778,329.202789 
	C183.726883,329.172577 165.618805,329.250641 146.775269,329.296478 
	C145.525330,329.352783 145.010941,329.393829 144.496567,329.434845 
	C143.922943,329.391449 143.349335,329.348022 142.350067,329.389099 
z"/>
<path fill="#DEDACA" opacity="1.000000" stroke="none" 
	d="
M109.233505,277.741333 
	C108.968552,277.543243 109.041542,277.257935 109.433861,276.873444 
	C109.731712,277.068909 109.671127,277.362213 109.233505,277.741333 
z"/>
<path fill="#DEDACA" opacity="1.000000" stroke="none" 
	d="
M103.329376,293.805634 
	C103.176590,293.666992 103.190651,293.335236 103.379089,292.813782 
	C103.534378,292.953552 103.515297,293.283020 103.329376,293.805634 
z"/>
<path fill="#C7760C" opacity="1.000000" stroke="none" 
	d="
M144.634155,329.559753 
	C145.010941,329.393829 145.525330,329.352783 146.285217,329.387817 
	C145.944412,329.537445 145.358063,329.611053 144.634155,329.559753 
z"/>
</svg>