<svg width="16" height="16" viewBox="0 0 16 16" fill="none" xmlns="http://www.w3.org/2000/svg">
<path d="M13.3332 11.3334V7.63482C13.3332 7.27859 13.3329 7.10038 13.2896 6.93462C13.2512 6.78772 13.1882 6.64871 13.1029 6.52309C13.0067 6.38134 12.8729 6.26379 12.6048 6.02922L9.40478 3.22922C8.90704 2.79369 8.65817 2.57604 8.37809 2.49321C8.1313 2.42023 7.86824 2.42023 7.62145 2.49321C7.34158 2.57598 7.09307 2.79343 6.59608 3.22829L3.39502 6.02922C3.12693 6.2638 2.9932 6.38134 2.89697 6.52309C2.8117 6.64871 2.7482 6.78772 2.70982 6.93462C2.6665 7.10038 2.6665 7.27859 2.6665 7.63482V11.3334C2.6665 11.9547 2.6665 12.2652 2.768 12.5102C2.90332 12.8369 3.16272 13.0968 3.48942 13.2321C3.73445 13.3336 4.04508 13.3336 4.66633 13.3336C5.28759 13.3336 5.59856 13.3336 5.84359 13.2321C6.17029 13.0968 6.42962 12.837 6.56494 12.5103C6.66644 12.2653 6.6665 11.9546 6.6665 11.3334V10.6667C6.6665 9.93034 7.26346 9.33338 7.99984 9.33338C8.73622 9.33338 9.33317 9.93034 9.33317 10.6667V11.3334C9.33317 11.9546 9.33317 12.2653 9.43466 12.5103C9.56999 12.837 9.82938 13.0968 10.1561 13.2321C10.4011 13.3336 10.7117 13.3336 11.333 13.3336C11.9543 13.3336 12.2652 13.3336 12.5103 13.2321C12.837 13.0968 13.0963 12.8369 13.2316 12.5102C13.3331 12.2652 13.3332 11.9547 13.3332 11.3334Z" stroke="#A6A6A6" stroke-width="1.7" stroke-linecap="round" stroke-linejoin="round"/>
</svg>
