<svg width="16" height="16" viewBox="0 0 16 16" fill="none" xmlns="http://www.w3.org/2000/svg">
<path d="M3.99984 7.33346V4.13346C3.99984 3.38673 3.99984 3.01308 4.14516 2.72786C4.27299 2.47698 4.47682 2.27316 4.7277 2.14532C5.01292 2 5.38656 2 6.1333 2H9.11631C9.19802 2 9.26951 2 9.33317 2.00058M13.3325 6C13.3332 6.06374 13.3332 6.13531 13.3332 6.21712V11.869C13.3332 12.6143 13.3332 12.987 13.188 13.2719C13.0602 13.5228 12.8558 13.727 12.6049 13.8548C12.32 14 11.9472 14 11.2019 14L8.6665 14M13.3325 6C13.3307 5.80967 13.3237 5.68917 13.2961 5.57422C13.2634 5.43817 13.2093 5.30809 13.1362 5.1888C13.0538 5.05424 12.9391 4.93926 12.7085 4.70865L10.6248 2.625C10.3944 2.39454 10.2789 2.27904 10.1444 2.19661C10.0251 2.12351 9.89511 2.0695 9.75907 2.03684C9.64406 2.00923 9.5236 2.00231 9.33317 2.00058M13.3325 6H13.3333M13.3325 6H11.4644C10.7192 6 10.346 6 10.061 5.85482C9.81015 5.72699 9.60633 5.52261 9.4785 5.27173C9.33317 4.98651 9.33317 4.6134 9.33317 3.86667V2.00058M5.99984 9.33333L7.33317 10.6667M2.6665 14V12.3333L7.6665 7.33333L9.33317 9L4.33317 14H2.6665Z" stroke="#A6A6A6" stroke-width="1.7" stroke-linecap="round" stroke-linejoin="round"/>
</svg>
