<svg width="144" height="247" viewBox="0 0 144 247" fill="none" xmlns="http://www.w3.org/2000/svg">
<path d="M6.8516 0H137.032V67.5672L142.905 69.5257C144.109 71.9362 144.001 73.5063 143.995 76.2011C143.995 77.1812 143.995 78.1613 143.994 79.1711C143.989 80.2319 143.984 81.2928 143.979 82.3858C143.977 84.0118 143.977 84.0118 143.975 85.6706C143.969 89.1429 143.957 92.6152 143.945 96.0875C143.94 98.4374 143.935 100.787 143.931 103.137C143.921 108.907 143.904 114.676 143.884 120.446L136.053 123.384L135.074 224.245C123.592 228.84 112.104 233.373 100.532 237.73C98.506 238.496 96.4828 239.27 94.4623 240.052C91.5017 241.195 88.5327 242.314 85.5609 243.428C84.6675 243.779 83.7743 244.129 82.8539 244.491C72.1488 248.435 64.2541 245.289 53.8455 241.512C52.6506 241.085 51.4558 240.659 50.2247 240.22C47.711 239.322 45.1998 238.418 42.6903 237.508C39.4812 236.346 36.2669 235.198 33.0507 234.055C29.9674 232.957 26.8882 231.848 23.8085 230.74C22.6574 230.33 21.5064 229.92 20.3204 229.497C19.2517 229.108 18.183 228.72 17.0819 228.319C16.1434 227.981 15.2049 227.642 14.238 227.294C9.49799 225.22 9.49804 225.22 7.8304 223.266C7.25055 220.072 7.33707 216.91 7.38592 213.673C7.38535 212.689 7.38484 211.705 7.38425 210.691C7.38698 207.432 7.4174 204.174 7.44806 200.915C7.45536 198.658 7.46087 196.401 7.46478 194.144C7.47974 188.199 7.51828 182.254 7.56156 176.309C7.60159 170.244 7.61949 164.179 7.63923 158.114C7.68124 146.211 7.74808 134.308 7.8304 122.404L0 121.425V70.505L5.8728 67.5672L6.8516 0Z" fill="#F4F3F4"/>
<path d="M25.4487 17.6261L40.4978 17.5037C42.0641 17.4859 43.6304 17.4681 45.2441 17.4497C47.0849 17.4424 47.0849 17.4424 48.9629 17.4349C50.2238 17.4246 51.4848 17.4144 52.7839 17.4038C55.7915 17.6261 55.7915 17.6261 57.7491 19.5846C57.9714 22.5037 57.9714 22.5037 57.9403 26.2021C57.9375 26.8514 57.9348 27.5007 57.9319 28.1696C57.921 30.2451 57.8964 32.3202 57.8715 34.3955C57.8617 35.8019 57.8527 37.2083 57.8447 38.6147C57.8231 42.0638 57.7893 45.5127 57.7491 48.9617H49.9187V24.4808H45.0247V48.9617H38.1731V24.4808H32.3003V48.9617H25.4487V17.6261Z" fill="#E73528"/>
<path d="M91.0278 16.647H99.837V29.377H110.604V16.647H119.413V49.941H110.604V37.2109H99.837V49.941H91.0278V16.647Z" fill="#F7BC35"/>
<path d="M54.874 155.439C56.0436 155.435 56.0436 155.435 57.2369 155.431C58.0519 155.438 58.867 155.446 59.7068 155.454C60.5219 155.446 61.337 155.439 62.1767 155.431C62.9565 155.433 63.7362 155.436 64.5396 155.439C65.255 155.441 65.9704 155.443 66.7075 155.445C68.516 155.699 68.516 155.699 70.4736 157.657C70.7269 159.99 70.7269 159.99 70.7336 162.886C70.7374 164.447 70.7374 164.447 70.7412 166.04C70.7337 167.131 70.7261 168.222 70.7183 169.347C70.7259 170.434 70.7334 171.522 70.7412 172.642C70.7387 173.684 70.7362 174.726 70.7336 175.8C70.7314 176.757 70.7292 177.713 70.7269 178.699C70.4736 181.159 70.4736 181.159 68.516 184.096C66.7075 184.461 66.7075 184.461 64.5396 184.452C63.7599 184.452 62.9801 184.451 62.1767 184.45C60.9541 184.427 60.9541 184.427 59.7068 184.403C58.4842 184.407 58.4842 184.407 57.2369 184.412C51.1589 184.358 51.1589 184.358 48.94 182.138C48.6867 179.699 48.6867 179.699 48.68 176.66C48.6775 175.571 48.675 174.482 48.6724 173.359C48.6837 171.646 48.6837 171.646 48.6953 169.898C48.6877 168.755 48.6802 167.613 48.6724 166.436C48.6749 165.346 48.6774 164.257 48.68 163.135C48.6822 162.132 48.6844 161.129 48.6867 160.096C49.1252 155.874 51.076 155.45 54.874 155.439Z" fill="#15314E"/>
<path d="M101.795 154.719H122.35V161.574H108.647V166.47C109.461 166.436 110.275 166.402 111.113 166.367C112.709 166.327 112.709 166.327 114.336 166.286C115.392 166.252 116.448 166.218 117.537 166.183C120.393 166.47 120.393 166.47 122.216 167.583C123.808 170.194 123.718 172.246 123.696 175.283C123.704 176.313 123.711 177.343 123.719 178.404C123.274 181.545 122.854 182.21 120.393 184.096C118.352 184.43 118.352 184.43 116.038 184.383C115.208 184.373 114.379 184.364 113.524 184.354C112.23 184.317 112.23 184.317 110.91 184.28C110.037 184.266 109.163 184.253 108.263 184.239C106.106 184.205 103.951 184.157 101.795 184.096V177.241H117.456V172.345H101.795V154.719Z" fill="#1A3551"/>
<path d="M23.4904 155.698C26.5491 155.642 29.6076 155.607 32.6666 155.576C33.5372 155.56 34.4078 155.543 35.3048 155.526C36.1375 155.52 36.9703 155.514 37.8283 155.507C38.9816 155.492 38.9816 155.492 40.1582 155.476C42.0876 155.698 42.0876 155.698 44.0452 157.657C44.1876 160.193 44.2277 162.594 44.1675 165.124L44.0452 172.345L29.3632 173.325V177.242L44.0452 178.221V184.096H22.5116L22.3281 176.936C22.3013 176.195 22.2746 175.455 22.247 174.693C22.213 171.962 22.2423 169.879 23.6127 167.48C26.2922 166.005 28.4725 166.189 31.5043 166.286C32.5679 166.313 33.6316 166.339 34.7275 166.367C35.9482 166.418 35.9482 166.418 37.1936 166.47V161.574H23.4904V155.698Z" fill="#15314E"/>
<path d="M76.3463 155.698C79.405 155.642 82.4635 155.607 85.5226 155.576C86.3932 155.56 87.2638 155.543 88.1607 155.526C88.9935 155.52 89.8262 155.514 90.6842 155.507C91.8375 155.492 91.8375 155.492 93.0141 155.476C94.9435 155.698 94.9435 155.698 96.9011 157.657C97.0435 160.193 97.0837 162.594 97.0235 165.124L96.9011 172.345L82.2191 173.325V177.242L96.9011 178.221V184.096H75.3675L75.1228 176.936C75.0872 176.195 75.0515 175.455 75.0148 174.693C74.9645 171.66 74.997 169.857 76.9581 167.48C79.9227 166.192 82.1781 166.181 85.4002 166.286C86.9824 166.326 86.9824 166.326 88.5966 166.367C89.3991 166.401 90.2015 166.435 91.0283 166.47L90.0495 162.553L76.3463 161.574V155.698Z" fill="#14304D"/>
<path d="M62.6431 17.6262H71.4523V42.1071H86.1343V48.9618H62.6431V17.6262Z" fill="#2056A0"/>
<path d="M17.6185 91.0688C19.8475 91.2372 19.8475 91.2372 22.4513 91.8033C23.308 91.98 24.1647 92.1567 25.0474 92.3388C27.4064 93.0273 27.4065 93.0273 30.3428 94.9858C30.0665 97.0475 29.7789 99.1077 29.4864 101.167C29.3274 102.315 29.1684 103.462 29.0046 104.644C28.3853 107.716 28.3852 107.716 26.4276 110.654C22.1751 110.058 17.9361 109.418 13.7033 108.695C12.6327 104.749 12.8836 102.141 14.0091 98.2295C14.3971 96.8303 14.3971 96.8303 14.7929 95.4027C15.6609 93.0273 15.6609 93.0273 17.6185 91.0688Z" fill="#193450"/>
<path d="M98.0025 192.848C99.075 192.857 100.147 192.866 101.252 192.875C102.078 192.886 102.903 192.898 103.753 192.909C105.207 195.818 104.899 198.489 104.915 201.723C104.929 202.955 104.943 204.187 104.957 205.456C104.732 208.577 104.732 208.577 102.774 210.536C100.297 210.796 100.297 210.796 97.3908 210.781L94.485 210.796C92.0074 210.536 92.0074 210.536 90.0498 208.577C89.9079 206.05 89.867 203.633 89.9274 201.111C89.9363 200.419 89.9451 199.727 89.9542 199.014C89.9773 197.306 90.0124 195.597 90.0498 193.889C92.7557 192.535 94.989 192.816 98.0025 192.848Z" fill="#1C3753"/>
<path d="M109.32 94.8634C110.779 94.89 110.779 94.89 112.267 94.917C113.011 94.9397 113.754 94.9624 114.519 94.9859C116.726 100.431 117.064 105.834 117.456 111.633H112.562V106.737L107.668 107.716L106.689 112.612L101.795 113.591C101.184 109.387 100.709 105.232 100.572 100.984C100.546 100.259 100.521 99.5346 100.495 98.788C100.601 98.1796 100.707 97.5712 100.816 96.9443C104.165 94.7111 105.399 94.7712 109.32 94.8634Z" fill="#1F3955"/>
<path d="M62.7648 192.848C63.8372 192.857 64.9097 192.866 66.0147 192.875C66.8399 192.886 67.665 192.898 68.5152 192.909C70.0755 196.032 69.5936 199.401 69.5552 202.824C69.5508 203.563 69.5464 204.301 69.5418 205.062C69.5303 206.887 69.5127 208.711 69.494 210.536H65.5788L64.6 205.64H59.706L58.7272 210.536H54.812V193.889C57.5179 192.535 59.7512 192.816 62.7648 192.848Z" fill="#1E3954"/>
<path d="M108.646 192.909H113.54L117.456 200.743L118.434 192.909H123.328V210.536H118.434L113.54 201.723L112.562 210.536H108.646V192.909Z" fill="#213B56"/>
<path d="M37.194 192.909H50.8972V196.826H42.088V199.764H49.9184V203.681H42.088V206.619H50.8972V210.536C48.797 210.562 46.6966 210.581 44.5962 210.597C43.4266 210.608 42.257 210.62 41.0519 210.631C38.1728 210.536 38.1728 210.536 37.194 209.556C37.1223 206.753 37.1036 203.974 37.1329 201.172C37.1373 200.382 37.1417 199.593 37.1462 198.779C37.1578 196.823 37.1754 194.866 37.194 192.909Z" fill="#27405B"/>
<path d="M25.0592 192.718C26.0357 192.741 27.0123 192.764 28.0185 192.787C29.4909 192.814 29.4909 192.814 30.9931 192.841C31.7477 192.863 32.5022 192.886 33.2796 192.91V196.826H24.4704V199.764L28.2632 199.642C30.3967 199.573 30.3967 199.573 32.3008 199.764C34.2584 201.723 34.2584 201.723 34.4495 203.628C34.3858 205.604 34.3221 207.58 34.2584 209.557C31.5524 210.91 29.3192 210.629 26.3056 210.597C25.2331 210.588 24.1607 210.579 23.0557 210.57C21.8179 210.553 21.8179 210.553 20.5552 210.536V206.619H30.3432V203.681H21.534C20.0593 200.73 20.3812 198.116 20.5552 194.868C22.5128 192.91 22.5128 192.91 25.0592 192.718Z" fill="#223C57"/>
<path d="M77.914 192.718C78.8906 192.741 79.8672 192.764 80.8733 192.787C82.3458 192.814 82.3458 192.814 83.848 192.841C84.6025 192.863 85.357 192.886 86.1344 192.91V196.826H77.3252V199.764H85.1556C86.7476 202.95 86.2465 206.024 86.1344 209.557C85.1556 210.536 85.1556 210.536 82.4906 210.631C81.4119 210.62 80.3331 210.609 79.2216 210.597C78.1403 210.588 77.059 210.579 75.9449 210.57C74.6901 210.553 74.6901 210.553 73.41 210.536V206.619H82.2192V203.681L78.9157 203.742C75.3676 203.681 75.3676 203.681 73.41 202.702C73.2188 196.773 73.2188 196.773 73.41 194.868C75.3676 192.91 75.3676 192.91 77.914 192.718Z" fill="#1E3854"/>
<path d="M82.8917 96.8217C84.3509 96.8482 84.3509 96.8482 85.8396 96.8753C86.5827 96.898 87.3259 96.9207 88.0916 96.9441L87.1128 101.84H79.2824V110.653H89.0704V114.57C86.9905 114.597 84.9105 114.616 82.8305 114.632C81.6722 114.643 80.514 114.654 79.3206 114.666C76.346 114.57 76.346 114.57 74.3884 113.591C74.3093 111.183 74.251 108.778 74.2048 106.369C74.1802 105.685 74.1556 105.001 74.1303 104.296C74.1016 102.307 74.1016 102.307 74.3884 98.9026C77.7368 96.6693 78.971 96.7294 82.8917 96.8217Z" fill="#263F5A"/>
<path d="M49.9185 96.9443H63.6217L62.6429 101.841L53.8337 100.861V103.799H60.6853L61.6641 108.695H53.8337L52.8549 113.591H48.9397C48.8371 107.926 48.947 102.533 49.9185 96.9443Z" fill="#29425C"/>
<path d="M34.2578 94.9858L46.9822 95.9651V99.882H38.173V102.82H45.0246V106.737H37.1942L36.2154 111.633H32.3002C32.0847 105.704 32.8186 100.745 34.2578 94.9858Z" fill="#1E3854"/>
<path d="M55.7915 162.553H63.6219V177.242H55.7915V162.553Z" fill="#F7F7F7"/>
<path d="M119.413 93.0271H123.328C124.442 97.2047 125.286 100.435 125.286 104.778L133.116 103.799L134.095 107.716L122.349 110.653C119.973 104.947 119.788 99.1221 119.413 93.0271Z" fill="#1D3853"/>
<path d="M92.0073 96.9443H96.9013L97.8801 113.591H92.9861L92.0073 96.9443Z" fill="#1E3854"/>
<path d="M66.5584 97.9236H70.4736V114.571H65.5796L66.5584 97.9236Z" fill="#193450"/>
<path d="M19.5753 95.9651C21.5399 96.2459 23.4989 96.5709 25.4481 96.9443L24.4693 105.757L17.6177 104.778C18.4741 97.0667 18.4741 97.0667 19.5753 95.9651Z" fill="#E5E7EB"/>
<path d="M93.9652 197.805H100.817V206.618C98.8597 206.66 96.9012 206.658 94.944 206.618C93.9652 205.639 93.9652 205.639 93.8696 203.83C93.9015 201.822 93.9334 199.813 93.9652 197.805Z" fill="#D3D7DC"/>
<path d="M86.1338 51.8994H95.9218V56.7956H86.1338V51.8994Z" fill="#7E7E7F"/>
<path d="M109.625 51.8994H119.413V56.7956H112.561V52.8786H110.604L109.625 56.7956V51.8994Z" fill="#6A6A6B"/>
<path d="M31.3213 51.8994H36.2153V53.8579H38.1729V51.8994H40.1305V56.7956H34.2577V52.8786H32.3001L33.2789 55.8164L31.3213 56.7956V51.8994Z" fill="#5D5D5E"/>
<path d="M58.728 196.826H64.6008L65.5796 201.723H59.7068L58.728 196.826Z" fill="#CACFD5"/>
<path d="M24.4697 51.8994H30.3425V56.7956H24.4697V51.8994Z" fill="#595959"/>
<path d="M53.8335 51.8994H55.7911V55.8164H57.7487V51.8994L61.6639 52.8786V56.7956H53.8335V51.8994Z" fill="#535354"/>
<path d="M105.71 98.9031H111.583V102.82L105.71 103.799V98.9031Z" fill="#E9EBEE"/>
<path d="M101.795 51.8994H108.647V56.7956H101.795V51.8994Z" fill="#5B5B5B"/>
<path d="M62.6431 51.8994H67.5371V56.7956H62.6431V51.8994Z" fill="#5D5D5E"/>
<path d="M46.0034 51.8994L50.8974 52.8786V56.7956H46.0034V51.8994Z" fill="#626263"/>
<path d="M41.1094 51.8994H45.0246V56.7956H41.1094V51.8994Z" fill="#505051"/>
<path d="M92.0073 51.8994H95.9225V56.7956H92.0073V51.8994Z" fill="#484849"/>
<path d="M24.4697 51.8994L27.4061 52.8786V56.7956H24.4697V51.8994Z" fill="#79797A"/>
<path d="M86.1338 51.8994H88.0914V53.8579L90.049 54.8371H88.0914V56.7956H86.1338V51.8994Z" fill="#5D5D5E"/>
<path d="M67.5365 51.8994V56.7956L64.6001 55.8164V52.8786C66.5577 51.8994 66.5577 51.8994 67.5365 51.8994Z" fill="#737374"/>
</svg>
