<svg width="1649" height="6373" viewBox="0 0 1649 6373" fill="none" xmlns="http://www.w3.org/2000/svg">
<path d="M616.5 191C729.5 232.5 474.692 320.569 664.802 319.102C854.911 317.634 798.5 507 908.5 459C1018.5 411 1762.82 428.268 1409 789.5" stroke="#9EB3C4" stroke-dasharray="30 30"/>
<path d="M481.499 1712.5C642.925 1693.1 709.001 1764.5 424.5 1873C140 1981.5 890.499 2111 1080.5 2048.5C1270.5 1986 1472.34 2270.06 1354.5 2382.5" stroke="#9EB3C4" stroke-dasharray="30 30"/>
<path d="M1116.5 2485.5C1150 2512.5 698.5 2464.5 1101.5 2572C1504.5 2679.5 1033.85 2924.38 615.317 2831.62C196.786 2738.86 -72.0057 2718.89 281.817 3080.12" stroke="#9EB3C4" stroke-dasharray="30 30"/>
<path d="M487.5 3234C584.388 3282.14 642.5 3299 322.5 3475C2.49995 3651 1702.04 3447 1435.5 3584.5C1168.96 3722 1510.39 3742.69 1325.89 3880.19" stroke="#9EB3C4" stroke-dasharray="30 30"/>
<path d="M1233 3984.5C813 4128.5 977.414 4306.77 1276.55 4371.47C1575.68 4436.17 1014 4562 529.499 4426.5C44.9993 4291 322.3 4666.72 296 4632.5" stroke="#9EB3C4" stroke-dasharray="30 30"/>
<path d="M553.5 4799C679.69 4873.02 94.1591 5033.22 352.999 5021.5C611.84 5009.78 796.788 5177.34 1035 5023.04C1273.21 4868.75 1994.64 5244.04 1280.5 5493" stroke="#9EB3C4" stroke-dasharray="30 30"/>
<path d="M1112.5 5556C952.5 5662 1471 5530 1264.5 5681.5C1058 5833 789.902 5798.47 541.778 5714.25C293.653 5630.04 -167.994 5874.97 227.5 6167" stroke="#9EB3C4" stroke-dasharray="30 30"/>
<path d="M1112 900.5C1112 900.5 942.5 1039.5 1151 1111.5C1359.5 1183.5 723 1336 572.999 1270.5C422.998 1205 -114.323 1157.77 239.5 1519" stroke="#9EB3C4" stroke-dasharray="30 30"/>
</svg>
