<svg width="679" height="365" viewBox="0 0 679 365" fill="none" xmlns="http://www.w3.org/2000/svg">
<path opacity="0.4" d="M21.5 238V228.5C21.5 205.5 36.3333 183.5 66 162.5C67 161.833 69.8333 159.667 74.5 156C79.5 152.333 82.5 150.167 83.5 149.5C84.8333 148.5 87.3333 146.5 91 143.5C95 140.5 97.5 138.333 98.5 137C99.5 135.333 101.167 133 103.5 130C105.833 127 107.333 124.333 108 122C108.667 119.667 109.333 117 110 114C111 110.667 111.5 107.333 111.5 104C111.5 89.3333 106.667 77.3333 97 68C87.3333 58.6667 75 54 60 54C43.6667 54 30 59.1667 19 69.5C8 79.8333 2.5 93.3333 2.5 110H-52.5C-52.5 79.6666 -41.6667 53.8333 -20 32.5C1.66667 10.8333 28.3333 -3.12328e-05 60 -3.12328e-05C91 -3.12328e-05 116.5 9.99997 136.5 30C156.5 50 166.5 74 166.5 102C166.5 136 150.167 165.5 117.5 190.5C97.8333 205.167 86 215.333 82 221C78.3333 226 76.5 230.833 76.5 235.5V238H21.5ZM48.5 365C36.8333 365 26.6667 360.833 18 352.5C9.66667 343.833 5.5 333.5 5.5 321.5C5.5 309.833 9.66667 299.667 18 291C26.6667 282.333 36.8333 278 48.5 278C60.5 278 70.6667 282.333 79 291C87.6667 299.667 92 309.833 92 321.5C92 333.5 87.6667 343.833 79 352.5C70.6667 360.833 60.5 365 48.5 365ZM277.359 238V228.5C277.359 205.5 292.193 183.5 321.859 162.5C322.859 161.833 325.693 159.667 330.359 156C335.359 152.333 338.359 150.167 339.359 149.5C340.693 148.5 343.193 146.5 346.859 143.5C350.859 140.5 353.359 138.333 354.359 137C355.359 135.333 357.026 133 359.359 130C361.693 127 363.193 124.333 363.859 122C364.526 119.667 365.193 117 365.859 114C366.859 110.667 367.359 107.333 367.359 104C367.359 89.3333 362.526 77.3333 352.859 68C343.193 58.6667 330.859 54 315.859 54C299.526 54 285.859 59.1667 274.859 69.5C263.859 79.8333 258.359 93.3333 258.359 110H203.359C203.359 79.6666 214.193 53.8333 235.859 32.5C257.526 10.8333 284.193 -3.12328e-05 315.859 -3.12328e-05C346.859 -3.12328e-05 372.359 9.99997 392.359 30C412.359 50 422.359 74 422.359 102C422.359 136 406.026 165.5 373.359 190.5C353.693 205.167 341.859 215.333 337.859 221C334.193 226 332.359 230.833 332.359 235.5V238H277.359ZM304.359 365C292.693 365 282.526 360.833 273.859 352.5C265.526 343.833 261.359 333.5 261.359 321.5C261.359 309.833 265.526 299.667 273.859 291C282.526 282.333 292.693 278 304.359 278C316.359 278 326.526 282.333 334.859 291C343.526 299.667 347.859 309.833 347.859 321.5C347.859 333.5 343.526 343.833 334.859 352.5C326.526 360.833 316.359 365 304.359 365ZM533.219 238V228.5C533.219 205.5 548.052 183.5 577.719 162.5C578.719 161.833 581.552 159.667 586.219 156C591.219 152.333 594.219 150.167 595.219 149.5C596.552 148.5 599.052 146.5 602.719 143.5C606.719 140.5 609.219 138.333 610.219 137C611.219 135.333 612.885 133 615.219 130C617.552 127 619.052 124.333 619.719 122C620.385 119.667 621.052 117 621.719 114C622.719 110.667 623.219 107.333 623.219 104C623.219 89.3333 618.385 77.3333 608.719 68C599.052 58.6667 586.719 54 571.719 54C555.385 54 541.719 59.1667 530.719 69.5C519.719 79.8333 514.219 93.3333 514.219 110H459.219C459.219 79.6666 470.052 53.8333 491.719 32.5C513.385 10.8333 540.052 -3.12328e-05 571.719 -3.12328e-05C602.719 -3.12328e-05 628.219 9.99997 648.219 30C668.219 50 678.219 74 678.219 102C678.219 136 661.885 165.5 629.219 190.5C609.552 205.167 597.719 215.333 593.719 221C590.052 226 588.219 230.833 588.219 235.5V238H533.219ZM560.219 365C548.552 365 538.385 360.833 529.719 352.5C521.385 343.833 517.219 333.5 517.219 321.5C517.219 309.833 521.385 299.667 529.719 291C538.385 282.333 548.552 278 560.219 278C572.219 278 582.385 282.333 590.719 291C599.385 299.667 603.719 309.833 603.719 321.5C603.719 333.5 599.385 343.833 590.719 352.5C582.385 360.833 572.219 365 560.219 365Z" fill="#272532"/>
</svg>
