<svg width="20" height="20" viewBox="0 0 20 20" fill="none" xmlns="http://www.w3.org/2000/svg">
<path d="M7.2136 16.0807C7.07456 16.1066 7.01381 16.1718 7.03123 16.2758C7.04856 16.3799 7.12668 16.4147 7.26554 16.3799C7.40459 16.3452 7.46528 16.2844 7.44782 16.1977C7.43058 16.1024 7.35246 16.0632 7.2136 16.0807Z" fill="white"/>
<path d="M6.47139 16.1851C6.33247 16.1851 6.26306 16.2326 6.26306 16.3284C6.26306 16.4413 6.3369 16.4889 6.48439 16.4716C6.62331 16.4716 6.69281 16.4238 6.69281 16.3284C6.69281 16.2156 6.61897 16.1677 6.47139 16.1851Z" fill="white"/>
<path d="M5.45581 16.1451C5.42115 16.2408 5.47761 16.3058 5.62505 16.3407C5.75526 16.3926 5.83776 16.3666 5.87242 16.2625C5.8985 16.167 5.84204 16.0977 5.70318 16.0539C5.57293 16.0193 5.49052 16.0493 5.45581 16.1451Z" fill="white"/>
<path d="M18.8997 1.10016C18.1662 0.366765 17.2831 0 16.2499 0H3.74997C2.71708 0 1.83374 0.366765 1.10016 1.10016C0.366765 1.83369 0 2.71703 0 3.74997V16.2501C0 17.2831 0.366765 18.1663 1.10016 18.8997C1.83369 19.6332 2.71708 20 3.74997 20H6.66663C6.85745 20 7.00079 19.9934 7.09624 19.9807C7.19165 19.9675 7.28706 19.9111 7.3826 19.8111C7.47819 19.7114 7.52581 19.566 7.52581 19.3751C7.52581 19.3492 7.52353 19.0537 7.51924 18.4895C7.51482 17.9251 7.51267 17.4782 7.51267 17.1482L7.21318 17.2004C7.02222 17.235 6.78133 17.2503 6.4905 17.2459C6.19981 17.2416 5.89807 17.2113 5.58563 17.1548C5.27299 17.0983 4.9823 16.9681 4.71318 16.7643C4.44419 16.5602 4.25324 16.2933 4.14036 15.9635L4.01011 15.6639C3.92332 15.4644 3.78669 15.243 3.60002 15.0001C3.41335 14.7569 3.22459 14.592 3.03364 14.5052L2.94247 14.4401C2.88177 14.3967 2.82535 14.3444 2.77323 14.2837C2.72119 14.2228 2.68215 14.162 2.65611 14.1014C2.63007 14.0405 2.65168 13.9906 2.72119 13.9514C2.79069 13.9124 2.91643 13.8931 3.09881 13.8931L3.35913 13.9321C3.5328 13.9667 3.74751 14.0708 4.00373 14.2445C4.25976 14.4181 4.47023 14.6437 4.63519 14.9214C4.83495 15.2774 5.07561 15.5485 5.35787 15.7352C5.6399 15.922 5.92425 16.0153 6.21066 16.0153C6.49707 16.0153 6.74444 15.9936 6.95286 15.9504C7.16105 15.9069 7.35638 15.8416 7.53876 15.7548C7.61688 15.1733 7.82959 14.726 8.1767 14.4136C7.68196 14.3614 7.23712 14.2834 6.84203 14.1791C6.44717 14.0749 6.03913 13.9057 5.61819 13.6713C5.19706 13.4369 4.84772 13.1463 4.56993 12.7988C4.29219 12.4514 4.06425 11.9957 3.88643 11.4316C3.70852 10.8673 3.61954 10.2162 3.61954 9.47838C3.61954 8.42811 3.96254 7.53387 4.64828 6.7961C4.32703 6.0062 4.35736 5.12089 4.73936 4.1399C4.9911 4.06173 5.36444 4.12038 5.85917 4.31571C6.354 4.51118 6.7163 4.67833 6.94643 4.81702C7.17656 4.95575 7.36094 5.07305 7.49986 5.16864C8.30732 4.94294 9.14059 4.83011 9.9999 4.83011C10.8592 4.83011 11.6926 4.94294 12.5001 5.16864L12.9949 4.85615C13.3335 4.64773 13.7328 4.45677 14.1929 4.28324C14.653 4.10966 15.0045 4.06187 15.2476 4.14004C15.6381 5.12103 15.673 6.00633 15.3516 6.79619C16.0373 7.53405 16.3804 8.42825 16.3804 9.47852C16.3804 10.2164 16.2914 10.8697 16.1135 11.4382C15.9357 12.0067 15.7058 12.4626 15.4235 12.8055C15.1415 13.1484 14.7898 13.4368 14.3689 13.6714C13.9479 13.9056 13.5399 14.0751 13.1448 14.1791C12.7498 14.2833 12.305 14.3617 11.8102 14.4138C12.2613 14.8043 12.487 15.4204 12.487 16.2626V19.3746C12.487 19.5223 12.5085 19.6415 12.5519 19.7327C12.5956 19.8238 12.6649 19.8866 12.7604 19.9216C12.8563 19.9562 12.9405 19.9779 13.0145 19.9865C13.0884 19.9952 13.1946 19.9996 13.3335 19.9996H16.2501C17.283 19.9996 18.1664 19.6328 18.8996 18.8993C19.6332 18.1658 19.9999 17.2824 19.9999 16.2495V3.74997C19.9998 2.71703 19.6331 1.83355 18.8997 1.10016Z" fill="white"/>
<path d="M3.95829 14.5573C3.89759 14.6005 3.90625 14.67 3.98437 14.7655C4.0713 14.8523 4.14066 14.8654 4.19279 14.8046C4.25349 14.7613 4.24482 14.6918 4.16656 14.5961C4.07982 14.5181 4.01041 14.505 3.95829 14.5573Z" fill="white"/>
<path d="M3.52877 14.2315C3.50277 14.2928 3.53314 14.3452 3.61993 14.3886C3.68929 14.4324 3.74589 14.4238 3.78917 14.3626C3.81516 14.3014 3.78479 14.249 3.698 14.2052C3.61122 14.1789 3.55481 14.1877 3.52877 14.2315Z" fill="white"/>
<path d="M4.36201 15.0652C4.28379 15.1085 4.28379 15.1868 4.36201 15.2995C4.44013 15.4126 4.51379 15.4428 4.58334 15.3907C4.66151 15.3298 4.66151 15.2473 4.58334 15.1431C4.51397 15.0306 4.44013 15.0042 4.36201 15.0652Z" fill="white"/>
<path d="M4.8179 15.6503C4.73974 15.7199 4.75698 15.8022 4.86998 15.8981C4.97401 16.0021 5.06084 16.0152 5.13029 15.9368C5.19979 15.8675 5.18242 15.785 5.07821 15.6894C4.97419 15.5853 4.88736 15.5722 4.8179 15.6503Z" fill="white"/>
</svg>
