<svg width="1335" height="941" fill="none"
  xmlns="http://www.w3.org/2000/svg">
  <path d="M810.384 309.139L552.725 159.024a12.16 12.16 0 00-12.179 0L155.245 379.905a12.211 12.211 0 00-4.478 16.698 12.183 12.183 0 004.478 4.467l246.354 142.503a39.716 39.716 0 0039.767 0l368.98-213.326a12.211 12.211 0 00.038-21.108z" fill="#007F68"/>
  <path d="M673.109 333.75v6.261l-3.154 3.883" fill="#ADCEE1"/>
  <path d="M547.5 257.502l122.037 75.772a7.608 7.608 0 013.543 6.594 7.612 7.612 0 01-3.809 6.443l-185.212 104.95a16.938 16.938 0 01-16.948-.133l-121.505-71.546c-8.835-7.271-8.17-20.937 0-21.527l184.148-100.877a17.19 17.19 0 0117.746.324z" fill="#88D3D8"/>
  <path d="M547.5 252.287l122.056 75.772a7.608 7.608 0 013.543 6.594 7.63 7.63 0 01-1.059 3.723 7.604 7.604 0 01-2.75 2.72l-185.212 104.95a16.938 16.938 0 01-16.948-.133l-121.505-71.546a9.529 9.529 0 010-16.293L529.83 251.982a17.185 17.185 0 0117.67.305z" fill="#fff"/>
  <path d="M542.503 241.933S491.811 78.037 492.134 78.037c.323 0-1.577-7.29-10.64-3.16L286.972 189.572s-9.5 3.807-7.6 12.619c1.9 8.813 49.628 160.375 49.628 160.375a8.22 8.22 0 009.196 3.179c5.928-1.904 199.823-114.676 199.823-114.676a7.452 7.452 0 004.039-3.683 7.476 7.476 0 00.445-5.453z" fill="#86CD74"/>
  <path d="M488.904 89.951L289.708 206.284l41.306 138.963 201.761-112.887-43.871-142.408z" fill="#172D51"/>
  <path d="M554.967 269.645l44.631 27.846a5.385 5.385 0 012.552 4.683 5.386 5.386 0 01-2.723 4.586L439.2 398.234a15.728 15.728 0 01-15.751 0c-10.298-6.014-28.025-16.844-38.874-23.506a6.557 6.557 0 01-2.307-2.423 6.581 6.581 0 01.076-6.476 6.553 6.553 0 012.364-2.368c32.433-18.958 138.092-80.511 161.272-93.968a8.711 8.711 0 018.987.152zM552.573 345.246l-55.955 31.519a5.592 5.592 0 00-2.806 4.853 5.592 5.592 0 002.806 4.854l32.908 19.3a7.419 7.419 0 007.429 0l57.171-32.719a4.684 4.684 0 001.722-6.412 4.675 4.675 0 00-1.722-1.715l-34.2-19.699a7.415 7.415 0 00-7.353.019z" fill="#86CD74"/>
  <path opacity=".1" d="M554.967 269.645l44.631 27.846a5.385 5.385 0 012.552 4.683 5.386 5.386 0 01-2.723 4.586L439.2 398.234a15.728 15.728 0 01-15.751 0c-10.298-6.014-28.025-16.844-38.874-23.506a6.557 6.557 0 01-2.307-2.423 6.581 6.581 0 01.076-6.476 6.553 6.553 0 012.364-2.368c32.433-18.958 138.092-80.511 161.272-93.968a8.711 8.711 0 018.987.152zM552.573 345.246l-55.955 31.519a5.592 5.592 0 00-2.806 4.853 5.592 5.592 0 002.806 4.854l32.908 19.3a7.419 7.419 0 007.429 0l57.171-32.719a4.684 4.684 0 001.722-6.412 4.675 4.675 0 00-1.722-1.715l-34.2-19.699a7.415 7.415 0 00-7.353.019z" fill="#053855"/>
  <path d="M594.221 351.45a110.123 110.123 0 006.384-34.735c.627-15.094-4.902-38.333-26.961-36.849-30.989 2.094-41.99 35.897-58.596 45.147-16.606 9.25-54.131-6.052-56.601 8.07-2.47 14.123 4.218 30.796 13.965 41.055 23.446 24.744 69.958 22.84 97.584 6.7a56.006 56.006 0 0024.225-29.388z" fill="#FA6D90"/>
  <path d="M484.8 376.746c50.616 6.833 112.1-26.095 114.57-76.362a67.42 67.42 0 011.406 15.817 110.134 110.134 0 01-6.384 34.736 56.013 56.013 0 01-24.244 29.406c-27.36 15.931-73.245 17.968-96.9-6.033a80.168 80.168 0 0011.552 2.436z" fill="#D64770"/>
  <path d="M464.318 265.991a5.09 5.09 0 012.337-4.302 4.076 4.076 0 012.375-3.311c.091-.042.187-.074.285-.096a37.936 37.936 0 01-2.736-6.775 1.805 1.805 0 013.401-.724 44.979 44.979 0 004.066 8.432c.137-.073.284-.124.437-.152 2.071-.286 3.8-.8 4.617 1.618.817 2.417 1.235 4.644 1.9 6.966a1.413 1.413 0 01-.602 1.565 1.411 1.411 0 01-.557.205 1.634 1.634 0 01-2.033 1.028 2.484 2.484 0 01-.456.875l.114.133a1.624 1.624 0 01-.443 2.347 1.612 1.612 0 01-.849.242c1.273.875.513 3.236-1.14 2.646-3.211-1.161-7.733-1.904-10.222-4.473a4.475 4.475 0 01-1.51-3.012 4.474 4.474 0 011.016-3.212z" fill="#FFB5A9"/>
  <path d="M474.027 270.863a1.895 1.895 0 01-.1-1.537 1.902 1.902 0 011.069-1.108l-.304-.495a1.907 1.907 0 011.133-2.768c.37-.106.764-.096 1.128.027a1.904 1.904 0 011.573-.722 1.904 1.904 0 011.505.855 88.092 88.092 0 006.802 10.278 1.998 1.998 0 01.228 2.132l.494.742a1.695 1.695 0 01-.855 2.589 2.124 2.124 0 01-1.235.837c.532 1.276-.741 2.38-1.995 2.341a1.761 1.761 0 01-2.105.653 1.768 1.768 0 01-.65-.443 36.811 36.811 0 01-7.334-10.906 2.022 2.022 0 01.646-2.475z" fill="#FFB5A9"/>
  <path d="M489.189 333.388c-7.828-7.233-16.549-17.625-11.039-25.885 9.12-13.628 33.649 2.265 37.677 3.121 17.689 3.807 54.226 45.68 21.242 44.176a70.542 70.542 0 01-41.078-15.55c-1.805-1.484-4.256-3.502-6.802-5.862z" fill="#3E2928"/>
  <path d="M489.436 333.083a3.081 3.081 0 00-1.387-1.751 30.495 30.495 0 00-10.051-3.54 3.203 3.203 0 00-3.04.876c-1.387-13.114 3.23-21.223 3.23-21.223l12.274 26.647c-.361-.323-.665-.666-1.026-1.009z" fill="#3E2928"/>
  <path d="M483.717 269.893a3.388 3.388 0 001.159-.647L503.42 285.5a44.705 44.705 0 006.802-21.241c.684-12.467 24.548-14.58 24.548-14.58l-10.222 42.407s-6.821 17.13-18.373 18.538c-9.025 1.142-27.683-17.682-35.264-28.417 3.097-5.291 6.764-10.335 12.806-12.314z" fill="#00A99D"/>
  <path d="M545.999 235.347a64.301 64.301 0 0118.601 27.446c6.555 18.158-9.842 47.85-9.842 47.85l-25.536-20.213" fill="#006D62"/>
  <path d="M566.082 334.359a18.278 18.278 0 01-2.565 10.278 19.327 19.327 0 01-10.146 7.994 42.624 42.624 0 01-16.264 2.188c-11.4-.742-21.223-6.033-29.526-13.323 1.577-20.08 7.239-34.089 12.065-40.941l30.894-14.941c-.19 0 6.023 12.448 6.308 13.114a125.552 125.552 0 017.334 23.088 66.861 66.861 0 011.9 12.543z" fill="#3E2928"/>
  <path d="M520.197 265.781l32.68-1.503 8.17 43.244c-9.747 6.737-39.368 4.149-45.201 3.121 1.805-13.076 2.964-31.748 4.351-44.862z" fill="#00A99D"/>
  <path d="M519.874 247.015a32.263 32.263 0 01-5.7-24.477c1.235-8.641 6.004-15.817 15.2-17.378 14.25-2.398 24.605 9.65 24.377 23.126-.114 7.518-.931 12.6 4.598 15.74 5.529 3.141 9.5 11.42 4.256 18.044-5.244 6.624-.532 4.244 2.983 10.145 3.515 5.9 2.603 13.323-4.617 15.988-7.22 2.664-40.755-2.341-43.833-5.482a6.418 6.418 0 01-1.577-4.549 17.626 17.626 0 016.403-10.582 27.129 27.129 0 006.593-8.261c2.679-5.539-5.529-8.26-8.683-12.314z" fill="#F7931E"/>
  <path d="M235.52 413.214l-9.823-4.873 7.22-4.111 2.603 8.984zM286.212 285.538l-11.913-6.014 1.406 8.526 7.41 2.208" fill="#C46200"/>
  <path d="M221.004 402.764l-22.553-75.866a9.153 9.153 0 01.273-5.994 9.128 9.128 0 013.926-4.532l63.403-36.449a9.11 9.11 0 0111.392 2.028 9.139 9.139 0 011.908 3.682l20.121 78.208a9.153 9.153 0 01-.456 5.868 9.125 9.125 0 01-3.933 4.372l-60.971 34.108a9.11 9.11 0 01-11.14-1.904 9.144 9.144 0 01-1.97-3.521z" fill="#C46200"/>
  <path d="M231.606 408.075l-22.553-75.867a9.153 9.153 0 01.273-5.994 9.132 9.132 0 013.926-4.532l63.403-36.448a9.098 9.098 0 018.055-.43 9.11 9.11 0 013.337 2.457 9.143 9.143 0 011.908 3.683l20.121 78.207a9.153 9.153 0 01-.455 5.868 9.123 9.123 0 01-3.934 4.372l-60.971 34.108a9.107 9.107 0 01-11.14-1.904 9.145 9.145 0 01-1.97-3.52z" fill="#F7931E"/>
  <path d="M265.939 334.492l2.261 6.757 14.896.818-10.716 11.706 2.261 6.756 17.613-19.661-1.558-4.701-24.757-1.675zM244.431 343.609l-17.594 19.68 1.558 4.682 24.738 1.694-2.261-6.775-14.877-.819 10.697-11.686-2.261-6.776zM249.865 335.957l-4.56 1.923 22.743 30.815 4.541-1.942-22.724-30.796z" fill="#fff"/>
  <path d="M428.199 149.926v5.12l42.712-24.877v-4.987l-42.712 24.744z" fill="#F7931E"/>
  <path d="M305.25 221.129L424 152.381v5.139l-117.8 68.52c-.323-1.618-.627-3.35-.95-4.911z" fill="#00A99D"/>
  <path d="M308.1 236.166l14.383-8.337v5.444l-13.49 7.86a74.165 74.165 0 01-.893-4.967z" fill="#8CC63F"/>
  <path d="M326.644 225.374v5.443l67.412-39.247v-5.234l-67.412 39.038z" fill="#F7931E"/>
  <path d="M398.312 183.881v5.215l44.099-25.676v-5.082l-44.099 25.543z" fill="#F15A24"/>
  <path d="M446.648 155.883v5.063l24.263-14.123v-4.987l-24.263 14.047z" fill="#8CC63F"/>
  <path d="M310.855 251.031l114.456-66.274v5.139L311.9 255.903c-.342-1.618-.703-3.235-1.045-4.872z" fill="#00A99D"/>
  <path d="M442.24 193.854v5.12l42.712-24.857v-4.987l-42.712 24.724z" fill="#F7931E"/>
  <path d="M319.272 265.077l118.712-68.748v5.139l-117.8 68.52a245.386 245.386 0 00-.912-4.911z" fill="#00A99D"/>
  <path d="M322.046 280.114l14.383-8.337v5.443l-13.49 7.861a562.4 562.4 0 01-.893-4.967z" fill="#8CC63F"/>
  <path d="M340.685 269.322v5.424l67.412-39.247v-5.215l-67.412 39.038z" fill="#F7931E"/>
  <path d="M412.334 227.829v5.196l44.099-25.657v-5.082l-44.099 25.543z" fill="#F15A24"/>
  <path d="M460.689 199.831v5.063l24.263-14.123v-4.987l-24.263 14.047z" fill="#8CC63F"/>
  <path d="M324.896 295.017l114.456-66.274v5.139L325.96 299.889c-.38-1.656-.76-3.274-1.064-4.872z" fill="#00A99D"/>
  <path d="M502.755 161.612l-8.151-4.035 5.985-3.426 2.166 7.461zM544.897 55.482l-9.899-5.006 1.159 7.08 6.175 1.847" fill="#066D0A"/>
  <path d="M490.69 152.933l-18.753-63.077a7.628 7.628 0 01.232-4.985 7.608 7.608 0 013.264-3.77l52.706-30.282a7.592 7.592 0 019.504 1.625 7.62 7.62 0 011.611 3.057l16.72 65.018a7.62 7.62 0 01-3.648 8.527l-50.692 28.36a7.6 7.6 0 01-3.226.932 7.599 7.599 0 01-7.718-5.405z" fill="#066D0A"/>
  <path d="M499.506 157.349l-18.753-63.077a7.628 7.628 0 01.232-4.985 7.608 7.608 0 013.264-3.77l52.706-30.32a7.589 7.589 0 019.504 1.624 7.619 7.619 0 011.611 3.058l16.72 65.018a7.62 7.62 0 01-3.648 8.527l-50.692 28.359a7.591 7.591 0 01-10.944-4.434z" fill="#139E20"/>
  <path d="M528.348 79.845l1.805 5.71 2.147-1.085a2.35 2.35 0 012.128-.133 2.698 2.698 0 011.425 1.903l2.432 7.766a8.503 8.503 0 001.045 2.246c.307.504.722.933 1.216 1.256a5.37 5.37 0 001.14.514c.267.1.552.14.836.114h.323l-.266.285a6.493 6.493 0 00-.532.819c-.25.436-.442.903-.57 1.389a7.848 7.848 0 00-.152 1.904c.02.879.167 1.751.437 2.588l2.451 7.804a3.637 3.637 0 010 2.531 3.344 3.344 0 01-1.596 1.789l-2.166 1.123 1.9 5.71 3.23-1.694a9.298 9.298 0 004.617-4.872 10.51 10.51 0 000-7.043l-2.698-8.165a3.818 3.818 0 010-2.665 3.652 3.652 0 011.786-1.903l-1.653-5.31a2.6 2.6 0 01-2.318.228 2.755 2.755 0 01-1.463-1.903l-2.565-8.184a7.617 7.617 0 00-3.8-5.082 6.638 6.638 0 00-5.947.647l-3.192 1.713zM500 94.634a9.301 9.301 0 00-4.617 4.872 10.43 10.43 0 000 7.024l2.717 8.165a3.82 3.82 0 010 2.665 3.69 3.69 0 01-1.786 1.903l1.653 5.31a2.657 2.657 0 012.299-.247 2.81 2.81 0 011.482 1.903l2.546 8.165a7.614 7.614 0 003.8 5.101 6.633 6.633 0 005.947-.647l3.23-1.694-1.9-5.71-2.147 1.123a2.403 2.403 0 01-2.128.171 2.672 2.672 0 01-1.406-1.789l-2.451-7.803a8.567 8.567 0 00-1.045-2.265 3.802 3.802 0 00-1.216-1.237 8.228 8.228 0 00-1.121-.495 1.676 1.676 0 00-.874-.115h-.285l.266-.266c.192-.263.37-.536.532-.818a5.05 5.05 0 00.57-1.409 7.945 7.945 0 00.152-1.903 9.183 9.183 0 00-.437-2.589l-2.432-7.765a3.818 3.818 0 010-2.57 3.35 3.35 0 011.596-1.903l2.147-1.123-1.805-5.71L500 94.634zM508.949 102.266l10.317 8.032-3.363 15.76 6.289-3.293 2.204-9.802 6.859 5.063 6.27-3.274-10.906-8.299 3.116-15.055-6.517 3.407-1.691 9.003-6.08-4.949-6.498 3.407z" fill="#fff"/>
  <path d="M358.041 510.197L60.782 683.057a18.933 18.933 0 00.282 32.903l363.81 203.634a29.976 29.976 0 0028.823.241l279.571-150.368a22.802 22.802 0 009.062-31.229 22.783 22.783 0 00-8.359-8.509l-375.93-219.532z" fill="#AAACF9"/>
  <path opacity=".32" d="M315.148 775.557c16.643-17.085 34.532-32.904 50.37-50.652L301.5 691.016l-135.816 72.601c25.387 13.307 62.552 41.768 98.832 66.431 16.884-18.17 33.326-36.723 50.632-54.491z" fill="url(#paint0_linear)"/>
  <path opacity=".32" d="M211.894 699.378c27.959-20.683 55.818-41.527 84.983-60.421l-59.938-31.717-126.268 77.947c19.155 10.05 35.516 23.377 62.651 42.552 12.824-9.527 25.668-18.894 38.572-28.361z" fill="url(#paint1_linear)"/>
  <path opacity=".32" d="M370.885 820.923c30.15-16.221 94.832-79.214 124.62-95.797L381.9 665.007l-135.675 72.621c31.497 16.442 81.103 56.34 124.66 83.295z" fill="url(#paint2_linear)"/>
  <path d="M432.029 641.229l-38.19 18.391a8.806 8.806 0 00-3.892 12.145 8.795 8.795 0 003.269 3.372l90.551 52.803a8.805 8.805 0 0011.839-2.834l22.009-34.17" fill="#56403D"/>
  <path d="M623.944 543.281L312.012 363.587a10.055 10.055 0 00-13.911 3.666 10.045 10.045 0 00-1.304 5.118v190.95a7.817 7.817 0 003.919 6.774l332.012 191.653a3.775 3.775 0 005.163-1.385 3.77 3.77 0 00.505-1.891V568.286a28.84 28.84 0 00-14.452-25.005z" fill="#86CD74"/>
  <path d="M317.439 380.491l295.47 170.006a20.714 20.714 0 0110.392 17.949v136.902a7.475 7.475 0 01-7.459 7.482 7.48 7.48 0 01-3.737-.99L310.746 539a7.38 7.38 0 01-3.698-6.392V386.501a6.928 6.928 0 013.462-6.001 6.942 6.942 0 016.929-.009z" fill="#fff"/>
  <path d="M444.91 638.134c1.745-.336 3.157-.617 3.155-.628-.002-.011-1.418.252-3.162.588-1.744.336-3.156.617-3.154.628.002.011 1.417-.253 3.161-.588z" fill="#AB643C"/>
  <path d="M600.869 558.175c1.777 0 3.216-1.565 3.216-3.497s-1.439-3.497-3.216-3.497c-1.776 0-3.216 1.565-3.216 3.497s1.44 3.497 3.216 3.497z" fill="#659FE4"/>
  <path d="M590.618 553.09c1.777 0 3.216-1.566 3.216-3.497 0-1.932-1.439-3.498-3.216-3.498-1.776 0-3.216 1.566-3.216 3.498 0 1.931 1.44 3.497 3.216 3.497z" fill="#C5E9FF"/>
  <path d="M268.838 711.538l-.021 1.91.965 1.206" fill="#ADCEE1"/>
  <path d="M307.349 688.423l-37.426 22.975a2.304 2.304 0 00-1.17 2.01 2.311 2.311 0 001.17 2.01l56.521 32.28a5.188 5.188 0 005.186 0l37.306-21.768c2.713-2.211 2.532-6.392 0-6.573l-56.28-31.014a5.266 5.266 0 00-5.307.08z" fill="#88D3D8"/>
  <path d="M307.349 686.836l-37.426 23.014a2.311 2.311 0 000 4.02l56.581 32.16a5.19 5.19 0 005.186 0l37.246-21.688a2.887 2.887 0 001.056-1.052 2.88 2.88 0 00-1.056-3.933l-56.28-32.602a5.264 5.264 0 00-5.307.081z" fill="#fff"/>
  <path d="M308.877 683.72s15.698-49.969 15.617-49.969c-.08 0 .483-2.231 3.257-.944l59.335 35.255s2.874 1.186 2.311 3.859c-.563 2.674-15.356 48.904-15.356 48.904a2.511 2.511 0 01-2.814.964c-1.809-.562-60.963-35.255-60.963-35.255a2.274 2.274 0 01-1.387-2.814z" fill="#053855"/>
  <path d="M325.459 637.349l60.783 35.758-12.804 42.371-61.566-34.713 13.587-43.416zM305.038 692.122l-13.689 8.442a1.645 1.645 0 00-.806 1.417 1.653 1.653 0 00.806 1.417l48.884 28.14a4.826 4.826 0 004.824 0c3.155-1.829 8.582-5.106 11.919-7.136a2.007 2.007 0 00.709-2.704 2.01 2.01 0 00-.709-.733l-49.185-28.863a2.664 2.664 0 00-2.753.02zM305.681 715.197l17.065 9.688a1.714 1.714 0 01.635 2.348 1.713 1.713 0 01-.635.627l-10.05 5.849a2.277 2.277 0 01-2.272 0l-17.467-10.05a1.432 1.432 0 010-2.493l10.493-6.03a2.272 2.272 0 012.231.061z" fill="#86CD74"/>
  <path opacity=".1" d="M305.038 692.122l-13.689 8.442a1.645 1.645 0 00-.806 1.417 1.653 1.653 0 00.806 1.417l48.884 28.14a4.826 4.826 0 004.824 0c3.155-1.829 8.582-5.106 11.919-7.136a2.007 2.007 0 00.709-2.704 2.01 2.01 0 00-.709-.733l-49.185-28.863a2.664 2.664 0 00-2.753.02zM305.681 715.197l17.065 9.688a1.714 1.714 0 01.635 2.348 1.713 1.713 0 01-.635.627l-10.05 5.849a2.277 2.277 0 01-2.272 0l-17.467-10.05a1.432 1.432 0 010-2.493l10.493-6.03a2.272 2.272 0 012.231.061z" fill="#053855"/>
  <path d="M239.692 683.157a60.473 60.473 0 00-17.607 25.809c-6.191 17.064 9.266 44.983 9.266 44.983l24.12-19.014" fill="#FF8F6F"/>
  <path d="M220.356 776.18a18.22 18.22 0 003.438 10.595 18.219 18.219 0 008.964 6.611 40.209 40.209 0 0015.336 2.01c10.653-.684 19.98-5.669 27.819-12.543-1.488-18.894-6.814-32.16-11.377-38.491l-29.105-14.07c-.14 2.633-15.477 20.401-15.115 42.049l.04 3.839z" fill="#3E2928"/>
  <path d="M264.013 711.86l-30.853-1.507-5.327 37.084c9.186 6.332 33.447 2.512 38.954 1.568-1.628-12.281-1.467-24.884-2.774-37.145z" fill="#FF8F6F"/>
  <path d="M309.54 706.755l-3.095 2.713a79.728 79.728 0 018.04-4.02c1.869-.844 2.894 2.171 1.045 3.015l-.945.442c.992-.375 1.99-.737 2.995-1.085a1.592 1.592 0 012.03.985 1.592 1.592 0 01-.985 2.03 82.78 82.78 0 00-7.698 3.075 56.59 56.59 0 016.894-1.728c2.01-.382 2.191 2.814.201 3.175-2.652.494-5.26 1.2-7.799 2.111a7.599 7.599 0 012.392.402c.925.241 3.297.382 3.719 1.306a1.607 1.607 0 01-.598 2.003 1.617 1.617 0 01-.709.249l-11.959 1.226a14.267 14.267 0 00-3.216 2.512 55.578 55.578 0 00-3.839-4.12 45.791 45.791 0 00-3.759-3.297 93.25 93.25 0 013.618-3.276c.261-.362.905-.181 1.628-.784 4.02-3.457 4.965-3.698 9.347-7.819 3.236-3.216 4.582-.764 2.693.885z" fill="#FFB5A9"/>
  <path d="M254.044 689.871s11.236 3.035 15.799 10.311a128.558 128.558 0 017.517 15.537l20.422-4.763s5.929 6.934 9.929 11.899c0 0-19.939 14.07-30.351 16.381-10.412 2.312-21.467-15.477-21.467-15.477s-2.291 7.357-1.849-.502" fill="#FF8F6F"/>
  <path d="M262.265 713.508a22.772 22.772 0 01-7.116-10.05c-1.346-4.583.342-8.623 2.01-12.904a41.545 41.545 0 002.935-13.266c.141-4.482-.382-8.944-.683-13.407a1.276 1.276 0 010-.583c-1.488-5.045-4.583-9.306-10.653-9.808-15.699-1.327-16.583 16.08-16.462 23.115.12 7.035.864 11.839-4.342 14.813-5.206 2.975-8.965 10.694-4.02 16.965 4.945 6.271.503 4.02-2.794 9.547-3.296 5.528-2.452 12.523 4.342 15.035 6.794 2.513 38.391-2.211 41.305-5.146a6.03 6.03 0 001.488-4.261 16.567 16.567 0 00-6.01-10.05z" fill="#007F68"/>
  <path d="M268.114 753.969c3.799-.824 40.622-3.758 49.205 9.045 8.582 12.804-38.19 31.035-69.225 32.502-31.034 1.467 3.357-37.969 20.02-41.547z" fill="#3E2928"/>
  <path d="M221.462 564.306v63.214l48.963 28.281 39.879-23.718v-58.732" fill="#3ACEB2"/>
  <path d="M270.425 655.801v-62.39l39.879-23.356v62.028l-39.879 23.718z" fill="#4BE2C5"/>
  <path d="M261.782 540.427l-40.32 23.879 48.963 29.105 39.879-23.357-48.522-29.627z" fill="#52EFD1"/>
  <path d="M227.854 574.698v13.085l36.682 20.944v-12.844l-36.682-21.185z" fill="#7374B7"/>
  <path d="M260.833 601.639c.52-.159.735-.96.481-1.787-.254-.828-.881-1.37-1.401-1.21-.52.159-.736.96-.482 1.787.254.828.882 1.37 1.402 1.21z" fill="#F7931E"/>
  <path d="M257.681 599.806c.52-.16.735-.96.481-1.788-.254-.828-.881-1.37-1.401-1.21-.52.16-.736.96-.482 1.788.254.828.882 1.369 1.402 1.21z" fill="#D9E021"/>
  <path d="M253.783 596.848l-22.673-13.025" stroke="#F2F2F2" stroke-width=".25" stroke-miterlimit="10"/>
  <path d="M226.989 593.049v13.085l36.683 20.924v-12.824l-36.683-21.185z" fill="#7374B7"/>
  <path d="M259.963 619.979c.52-.159.736-.96.482-1.787-.254-.828-.881-1.37-1.402-1.21-.52.159-.735.96-.481 1.788.254.827.881 1.369 1.401 1.209z" fill="#F7931E"/>
  <path d="M256.831 618.166c.52-.16.736-.96.482-1.788-.254-.828-.882-1.369-1.402-1.21-.52.16-.735.96-.481 1.788.254.828.881 1.369 1.401 1.21z" fill="#D9E021"/>
  <path d="M252.918 615.199l-22.673-13.025" stroke="#F2F2F2" stroke-width=".25" stroke-miterlimit="10"/>
  <path d="M226.989 611.36v13.085l36.683 20.924v-12.824l-36.683-21.185z" fill="#7374B7"/>
  <path d="M259.949 638.309c.52-.16.735-.96.481-1.788-.254-.828-.881-1.369-1.401-1.21-.52.16-.736.96-.482 1.788.254.828.882 1.369 1.402 1.21z" fill="#F7931E"/>
  <path d="M256.816 636.475c.52-.159.736-.96.482-1.788-.254-.827-.882-1.369-1.402-1.209-.52.159-.735.96-.481 1.787.254.828.881 1.37 1.401 1.21z" fill="#D9E021"/>
  <path d="M252.918 633.51l-22.673-13.025" stroke="#F2F2F2" stroke-width=".25" stroke-miterlimit="10"/>
  <path d="M310.304 591.783l-39.698 23.416-49.144-28.562" stroke="#1B1464" stroke-width=".25" stroke-miterlimit="10"/>
  <path d="M310.304 610.094l-39.698 23.416-49.144-28.542" stroke="#1B1464" stroke-width=".25" stroke-miterlimit="10"/>
  <path d="M672.566 539.724v100.942a11.237 11.237 0 01-17.005 9.648l-95.937-57.225a11.232 11.232 0 01-5.487-9.648v-99.093a11.23 11.23 0 0111.273-11.191c1.971.007 3.907.532 5.611 1.523l95.937 55.396a11.239 11.239 0 015.608 9.648z" fill="#A5DD73"/>
  <path opacity=".32" d="M527.625 864.339c16.542-11.015 33.366-21.628 50.089-32.341l-23.758-17.347-91.998 38.412c11.116 5.829 26.13 16.743 41.929 27.858 7.839-5.628 15.698-11.236 23.738-16.582z" fill="url(#paint3_linear)"/>
  <path d="M586.739 766.994a4.232 4.232 0 00-.744-1.568 9.4 9.4 0 00-2.291-2.01c-11.678-7.899-27.859-10.05-40.2-2.351-2.814 1.769-7.015 5.768-5.347 9.547.965 2.191 3.9 3.478 6.03 4.362a89.564 89.564 0 0021.126 5.507c2.613.443 5.266.885 7.899 1.126a10.918 10.918 0 009.628-4.121c1.769-2.331 4.723-7.055 3.899-10.492z" fill="#754C24"/>
  <path d="M537.816 768.884s10.653 9.648 29.064 8.241c18.412-1.407 19.839-10.05 19.839-10.05s-4.764 61.023-7.276 62.069c-2.513 1.045-11.919 5.587-16.462 5.929-4.543.342-18.894-5.407-19.256-6.995-.362-1.588-5.909-59.194-5.909-59.194z" fill="#FF8F6F"/>
  <path d="M541.172 679.961c-.562-1.145-2.311-.14-1.728 1.005 12.603 25.407 15.055 54.009 17.326 81.787.101 1.267 2.111 1.287 2.01 0-2.291-28.16-4.824-57.064-17.608-82.792z" fill="#007F68"/>
  <path d="M539.564 680.202s3.518 13.186-.12 19.779-6.633 7.899-2.292 16.08c4.342 8.181 15.96 9.286 16.724 15.557.763 6.272-5.548-40.22-14.312-51.416zM579.865 704.001a165.73 165.73 0 00-16.08 64.843c0 1.567 2.392 1.547 2.452 0a162.804 162.804 0 0115.658-63.637c.764-1.387-1.347-2.633-2.03-1.206z" fill="#007F68"/>
  <path d="M581.594 710.433c0-1.327-.302-4.02-.161-6.251l-1.407.884c-4.784 11.638-11.94 38.974-14.07 47.336 2.914-6.271 14.834-7.136 18.331-16.08a16.464 16.464 0 00.201-11.879 43.844 43.844 0 01-2.894-14.01z" fill="#007F68"/>
  <path d="M604.085 528.347l-31.094 22.854 27.878 39.134M631.602 544.849l22.874 44.702-32.18 15.015" stroke="#006837" stroke-width="4" stroke-miterlimit="10"/>
  <path d="M323.61 407.224l181.222 102.973" stroke="#00A99D" stroke-width="4" stroke-miterlimit="10"/>
  <path d="M324.273 434.158l29.326 16.663" stroke="#D4145A" stroke-width="4" stroke-miterlimit="10"/>
  <path d="M362.302 456.449l163.072 89.646" stroke="#29ABE2" stroke-width="4" stroke-miterlimit="10"/>
  <path d="M323.61 458.7l62.632 34.552" stroke="#F7931E" stroke-width="4" stroke-miterlimit="10"/>
  <path d="M396.633 499.805l137.324 73.445" stroke="#00A99D" stroke-width="4" stroke-miterlimit="10"/>
  <path d="M1022.05 280.928l278.16 161.648c2.7 1.57 4.94 3.826 6.48 6.539a17.613 17.613 0 012.32 8.909 17.544 17.544 0 01-2.47 8.868 17.67 17.67 0 01-6.59 6.429L959.45 663.68a28.078 28.078 0 01-26.979.224L670.875 523.349a21.312 21.312 0 01-8.108-7.672 21.288 21.288 0 017.453-29.483l351.83-205.266z" fill="#FFD6A9"/>
  <path d="M1214.25 393.341l34.38 19.956s-1.92 29.141-37.11 24.626l-63.42-34.708" fill="url(#paint4_linear)"/>
  <path d="M1176.04 409.23c-21.12 0-38.24-8.456-38.24-18.888 0-10.431 17.12-18.888 38.24-18.888s38.24 8.457 38.24 18.888c0 10.432-17.12 18.888-38.24 18.888z" fill="#F3A71C"/>
  <path d="M1137.82 340.038v51.355s28.46 26.316 76.46.431v-51.7" fill="#F3A71C"/>
  <path d="M1208.56 358.392s6.33-9.686 12.3-4.102c5.97 5.584.74 24.954-16.77 26.815v7.824s21.99-2.981 24.98-22.714c2.98-19.732-11.2-22.782-18.27-17.354" fill="#F3A71C"/>
  <path d="M992.087 408.385l33.003 15.872c1.24.596 2.3 1.52 3.06 2.671a7.697 7.697 0 011.24 3.864 7.658 7.658 0 01-.93 3.95 7.657 7.657 0 01-2.84 2.906l-78.228 45.582a7.595 7.595 0 01-10.212-2.447l-18.975-29.538" fill="#56403D"/>
  <path d="M1067.07 507.839l129.86-68.313 19.84 12.925-211.76 115.808-29.155-19.043" fill="url(#paint5_linear)"/>
  <path d="M955.138 572.585l30.912 18.301s-20.269 19.405-43.867 29.297l-28.687-18.715" fill="url(#paint6_linear)"/>
  <path d="M958.105 559.47v14.442l-44.609 27.573-53.526-32.675v-12.304" fill="#6DE1FC"/>
  <path d="M958.105 559.47v14.442l-44.609 27.573-53.526-32.675v-12.304" fill="#E54C3C"/>
  <path d="M859.97 556.506l45.453-27.16 52.682 30.124-45.454 27.591-52.681-30.555z" fill="#F5604B"/>
  <path d="M903.112 566.26a22.884 22.884 0 002.984-4.636c.19-1.103-2.501-6.359-3.002-6.204a25.474 25.474 0 00-5.037 3.326" fill="#C67445"/>
  <path d="M902.629 557.643c-.104.414 1.483 8.324.483 8.617a34.349 34.349 0 01-6.365 0 78.407 78.407 0 01-.725-8.617" fill="#56403D"/>
  <path d="M895.125 547.545l7.97 2.223c0 .189 1.311 7.358.31 8.427a39.76 39.76 0 01-3.967 2.481 61.38 61.38 0 01-.432 7.497 3.911 3.911 0 01-1.431 0c-.328-2.602-.777-7.893-.777-7.893s-2.328-.81-2.466-1.534c-.138-.724.793-11.201.793-11.201zM878.893 603.605s3.45-4.395 3.726-5.791c.276-1.396-3.122-7.944-3.761-7.755a31.807 31.807 0 00-6.279 4.153" fill="#C67445"/>
  <path d="M878.289 592.817c-.121.517 1.863 10.34.604 10.788a42.934 42.934 0 01-7.952 0c-.414 0-.898-10.788-.898-10.788" fill="#56403D"/>
  <path d="M868.905 580.305l9.953 2.775c0 .241 1.639 9.185.397 10.512s-5.037 2.861-4.951 3.102a76.533 76.533 0 01-.535 9.341 4.854 4.854 0 01-1.725 0c-.396-3.258-.965-9.858-.965-9.858s-2.916-1.017-3.071-1.913c-.155-.896.897-13.959.897-13.959z" fill="#C67445"/>
  <path d="M812.532 332.007l263.238-151.498a11.868 11.868 0 0111.9.018c1.8 1.049 3.3 2.556 4.34 4.369a11.937 11.937 0 011.56 5.953v157.599a9.96 9.96 0 01-1.3 4.974 9.895 9.895 0 01-3.63 3.643L808.047 518.868a6.37 6.37 0 01-8.707-2.328 6.342 6.342 0 01-.849-3.186V356.272a27.98 27.98 0 013.763-14.014 28.025 28.025 0 0110.278-10.251z" fill="#86CD74"/>
  <path d="M1075.73 192.417L820.433 339.125a17.876 17.876 0 00-6.571 6.551 17.847 17.847 0 00-2.399 8.959v118.151c.001 1.131.3 2.242.866 3.221a6.47 6.47 0 008.811 2.38l260.28-149.24a6.3 6.3 0 002.35-2.327c.56-.968.86-2.068.86-3.188V197.605a5.999 5.999 0 00-.81-2.951 6.033 6.033 0 00-2.16-2.165 6.042 6.042 0 00-2.96-.817 6.042 6.042 0 00-2.97.745z" fill="#fff"/>
  <path d="M1091.26 367.215c-4.69-.775-59.05 33.209-59.05 33.209v13.287l22.29 12.494 60.6-33.209v-15.613l-23.84-10.168z" fill="#6DE1FC"/>
  <path d="M1091.26 367.215c-4.69-.775-59.05 33.209-59.05 33.209v13.287l22.29 12.494 60.6-33.209v-15.613l-23.84-10.168z" fill="#F1A317"/>
  <path d="M1128 400.2l69 39.326c.72.414 1.32 1.01 1.73 1.729a4.681 4.681 0 010 4.728 4.667 4.667 0 01-1.73 1.729l-191.32 109.931a15.294 15.294 0 01-15.266 0l-64.429-37.172a4.928 4.928 0 010-8.617l193.545-111.689a8.663 8.663 0 014.24-1.093c1.48.006 2.94.395 4.23 1.128z" fill="#974C26"/>
  <path d="M1083.81 528.881c.14-.907.51-1.765 1.07-2.497a5.653 5.653 0 012.12-1.708l10.21-5.894 15.78-9.133 18.86-10.909 20.06-11.615 19.4-11.219 16.88-9.754 12.47-7.221 6.55-3.791c0 .137.23.137.36.103a4.71 4.71 0 012.41.009 4.687 4.687 0 013.29 3.277c.21.785.22 1.613.01 2.401a14.81 14.81 0 01-5.64 7.359 226.713 226.713 0 01-23.85 14.958V480.3c5.55-3.033 17.52-9.892 22.56-15.062l-2.4 1.396-6.61 3.86-9.93 5.808-12.4 7.238-14.01 8.169-14.73 8.616-14.6 8.531-13.59 7.927-11.71 6.893-8.97 5.17c-2.74 1.603-5.71 3.775-8.9 4.395-.6.042-1.2-.039-1.77-.238a4.37 4.37 0 01-2.56-2.377 4.366 4.366 0 01-.36-1.745z" fill="#6DE1FC"/>
  <path d="M1083.81 528.881c.14-.907.51-1.765 1.07-2.497a5.653 5.653 0 012.12-1.708l10.21-5.894 15.78-9.133 18.86-10.909 20.06-11.615 19.4-11.219 16.88-9.754 12.47-7.221 6.55-3.791c0 .137.23.137.36.103a4.71 4.71 0 012.41.009 4.687 4.687 0 013.29 3.277c.21.785.22 1.613.01 2.401a14.81 14.81 0 01-5.64 7.359 226.713 226.713 0 01-23.85 14.958V480.3c5.55-3.033 17.52-9.892 22.56-15.062l-2.4 1.396-6.61 3.86-9.93 5.808-12.4 7.238-14.01 8.169-14.73 8.616-14.6 8.531-13.59 7.927-11.71 6.893-8.97 5.17c-2.74 1.603-5.71 3.775-8.9 4.395-.6.042-1.2-.039-1.77-.238a4.37 4.37 0 01-2.56-2.377 4.366 4.366 0 01-.36-1.745z" fill="#999A1C"/>
  <path d="M968.353 415.272c-3.012-.579-4.917-3.837-4.254-7.276.663-3.44 3.643-5.758 6.655-5.179 3.012.58 4.917 3.838 4.254 7.277-.663 3.44-3.643 5.758-6.655 5.178z" fill="#AB643C"/>
  <path d="M968.558 275.672l-74.399 43.083a4.839 4.839 0 00-2.415 4.377l2.57 66.71c.032.834.278 1.645.715 2.356a4.852 4.852 0 006.548 1.66l71.829-41.24a4.844 4.844 0 002.432-4.205v-68.537a4.84 4.84 0 00-2.421-4.208 4.845 4.845 0 00-4.859.004z" fill="#A8A93D"/>
  <path d="M941.907 287.373a1.003 1.003 0 010-.155l.276-2.327c2.881-.138 4.52.552 7.4.569a10.013 10.013 0 012.709 5.325c0 1.431-.173 3.447-1.932 3.24-.276 1.327-1.053 3.068-2.622 2.706l-.207-.087c-.104.879-.38 1.724-1.225 1.982-.845.259-1.38-.206-1.725-.982-.311 1.172-.863 2.964-2.053 2.947-1.622 0-1.725-2.396-1.311-4.774.036-2.827.266-5.648.69-8.444z" fill="#FBB5AD"/>
  <path d="M949.945 290.01c.457 1.287.657 2.651.587 4.015 0 .431-.673.431-.656 0a9.93 9.93 0 00-.569-3.843c-.138-.396.5-.569.638-.172zM947.531 291.319l.276 5.532c0 .431-.639.431-.656 0l-.276-5.532c0-.413.621-.413.656 0zM945.15 290.527v7.324a.327.327 0 01-.56.231.327.327 0 01-.096-.231v-7.324c0-.087.035-.17.096-.232a.331.331 0 01.464 0 .331.331 0 01.096.232z" fill="#56403D"/>
  <path d="M942.218 284.891a13.294 13.294 0 00-3.64 8.272l3.122-1.964.518-6.308zM913.203 300.505s2.311.413 2.363.379c2.001 1.258 7.09 3.86 9.212 4.877 1.259.603 4.381 1.913 3.691 3.809-.362 1.016-1.38 1.189-2.691.896a1.22 1.22 0 01-.552 1.464 2.47 2.47 0 01-2.536-.275 1.39 1.39 0 01-.5.81c-1.087.93-3.157-.104-4.347-.655.021.218.021.437 0 .655 0 .689-.69 1.361-1.328 1.016-3.053-1.619-7.849-7.531-9.246-10.34 2.898-1.102 3.088-1.43 5.934-2.636z" fill="#FBB5AD"/>
  <path d="M915.273 308.828a14.62 14.62 0 002.829 2.965c.311.241-.121.654-.431.43a15.157 15.157 0 01-2.933-3.084c-.207-.311.311-.621.535-.311zM917.084 307.295a133.551 133.551 0 005.382 4.067c.311.224 0 .741-.31.517a104.943 104.943 0 01-5.503-4.119c-.293-.276.138-.707.431-.465zM919.931 306.536a38.238 38.238 0 005.968 3.447c.345.172 0 .689-.31.517a38.248 38.248 0 01-5.969-3.447c-.345-.224 0-.741.311-.517z" fill="#56403D"/>
  <path d="M915.566 300.867s2.915-2.137 7.832 1.137l-4.123 2.568M851.241 414.762a.916.916 0 011.208-.586 10.326 10.326 0 010-1.723c0-.81.155-1.965 1.034-2.31a1.265 1.265 0 011.45.431 9.197 9.197 0 01.431-1.551.928.928 0 01.879-.655c.984 0 1.484.793 1.725 1.724 0-.087.363-.414.449-.466.161-.116.353-.182.552-.189.371-.023.738.087 1.035.31.285.279.457.653.483 1.051a8.317 8.317 0 010 1.982c0 .81-.172 1.603-.224 2.413-.052.81 0 1.137 0 1.723.759-1.465 1.828-3.292 3.07-2.43 1.242.862.155 2.034-.19 2.844a31.86 31.86 0 01-2.518 4.618c.131.723.309 1.437.535 2.137a48.498 48.498 0 00-6.676 3.343 58.633 58.633 0 00-2.467-6.721 7.833 7.833 0 01-.776-5.945z" fill="#FBB5AD"/>
  <path d="M858.141 410.074a143.8 143.8 0 00.362 6.67c0 .189-.293.189-.293 0a143.8 143.8 0 01-.362-6.67c-.017-.206.293-.206.293 0zM855.14 410.643c.195 2.011.436 4.01.724 5.997 0 .19-.259.276-.293 0-.299-2.022-.546-4.05-.742-6.083 0-.104.293-.104.311.086zM852.517 414.365c.15 1.402.368 2.792.656 4.171 0 .189-.259.276-.293 0a43.888 43.888 0 01-.656-4.24c-.017-.12.276-.12.293.069z" fill="#56403D"/>
  <path d="M920.707 414.417c.207-.465.414-.93.603-1.413.109-.249.15-.523.121-.793a17.424 17.424 0 01-.31-2.206 19.54 19.54 0 011.397-6.893 2.358 2.358 0 011.458-1.523 2.363 2.363 0 012.095.248l.639-1.155c1.19-2.102 2.466-5.721 5.175-5.997a1.288 1.288 0 011.242 1.723 141.037 141.037 0 01-1.605 4.033 1.257 1.257 0 01.906-.392 1.252 1.252 0 01.906.392 2.222 2.222 0 01.431 2.499h.328c.289-.148.607-.23.931-.242a1.814 1.814 0 011.328.707 1.91 1.91 0 01.276 1.723h.225a1.728 1.728 0 011.069 1.172c.094.362.094.742 0 1.103.138 1.344-6.9 7.927-6.9 7.927l-4.174 4.567-7.004-3.326c-.103-.241.776-1.964.863-2.154z" fill="#FBB5AD"/>
  <path d="M873.218 477.87c12.437-21.231 24.15-.482 24.15-.482a77.604 77.604 0 0111.126 21.662c2.863 9.754 2.846 41.36 1.432 50.769-5.175 2-16.75 1.396-22.149-.137v-37.914a.47.47 0 00-.458-.376.47.47 0 00-.457.376l-.258 75.293a67.946 67.946 0 01-26.634-4.378s1.552-84.839 13.248-104.813z" fill="#F3A71C"/>
  <path d="M920.621 412.297c3.743.914 6.296 2.878 9.539 4.946-1.19 4.171-14.231 36.742-30.636 43.635l-1.311-23.179s7.262-.689 22.408-25.402zM863.23 422.413a27.272 27.272 0 0012.713 19.767l-2.225 21.283c-9.954-6.393-20.441-30.158-21.977-36.362a16.168 16.168 0 0111.489-4.688z" fill="#F5604B"/>
  <path d="M901.387 462.188l-2.191 19.077s-15.732 5.946-27.376 0v-19.336" fill="#F5604B"/>
  <path d="M864.42 456.708a8.461 8.461 0 011.553-2.947 31.645 31.645 0 013.587-3.55c.317-.252.565-.577.725-.948.535-1.62-1.363-4.102-1.104-6.083.397-2.93 2.26-3.912 4.088-5.843a6.529 6.529 0 001.846-3.653 31.62 31.62 0 002.415-6.618c1.328-3.739 3.45-7.875 7.469-9.237a12.418 12.418 0 016.863-.202 12.393 12.393 0 015.919 3.477c2.76 3.153 2.226 7.444 2.536 11.391a3.861 3.861 0 00-.362 1.137c-.535 3.826 4.502 3.998 4.968 7.031a5.514 5.514 0 01-.086 1.724 13.057 13.057 0 01-2.726 5.928c-3.45 4.653 4.571 7.049 4.537 11.357a8.838 8.838 0 01-4.916 7.376 32.499 32.499 0 01-21.977 2.499c-5.52-1.258-17.232-5.843-15.335-12.839zm30.705-7.1v-.276h-.31l.31.276zM887.776 511.734l17.492-3.895-16.629 12.959-.863-9.064zM929.073 404.594a56.982 56.982 0 003.45-8.393c.138-.448.862-.258.707.19a58.102 58.102 0 01-3.45 8.617c-.276.379-.914 0-.707-.414zM931.816 406.317a33.425 33.425 0 001.828-3.601c.19-.431.828 0 .639.379a33.725 33.725 0 01-1.829 3.602.37.37 0 01-.228.169.37.37 0 01-.41-.549zM934.472 408.23a10.766 10.766 0 001.725-3.274c.138-.448.863-.258.707.19a11.352 11.352 0 01-1.724 3.446c-.38.397-1.001.017-.708-.362zM923.501 406.076a60.878 60.878 0 001.967-4.429c.172-.431.897-.241.707.19a65.83 65.83 0 01-2.036 4.601c-.207.448-.845.069-.638-.362z" fill="#56403D"/>
  <path d="M1087.64 273.121c-.11-.176-.17-.38-.16-.586a7.37 7.37 0 01.59-2.966c.41-.937 1-1.781 1.74-2.48a2.555 2.555 0 013.23-.159c.32.233.57.535.75.883 1.62 3.326-2.08 6.652-5.05 7.049-.83.103-1.16-.586-1.02-1.241a1.214 1.214 0 01-.08-.5z" fill="#FBB5AD"/>
  <path d="M1090.58 330.611l5.97-3.326-4.96 13.58-1.01-10.254z" fill="#382624"/>
  <path d="M1024 462.86l19.66 11.632-14.59 8.462c-4.12-2.395-15.92-9.358-19.72-11.598l14.65-8.496zM1045.54 450.383l19.67 11.633-18.47 10.719c-3.23-1.861-15.15-8.893-19.74-11.598l18.54-10.754zM1123.79 404.99l19.98 11.461-17.77 10.34c-2.81-1.62-14.87-8.738-19.73-11.598l17.52-10.203zM1081.72 429.393l19.66 11.632-14.59 8.462c-3.45-1.999-15.3-8.996-19.73-11.598l14.66-8.496zM1103.26 416.899l19.67 11.632-18.48 10.719c-2.17-1.24-14.54-8.616-19.73-11.598l18.54-10.753zM1006.35 473.2l19.67 11.633-13.96 8.099a8097.391 8097.391 0 01-19.714-11.598l14.004-8.134zM1064.07 439.629l19.67 11.633-15.53 8.961c-3.64-2.102-15.52-9.082-19.73-11.598l15.59-8.996zM989.327 482.989l19.653 11.649-18.48 10.719c-3.864-2.24-15.663-9.202-19.716-11.598l18.543-10.77zM967.782 495.5l19.648 11.632-33.155 19.233-19.958-11.46 33.465-19.405zM1146.3 419.777l19.98 11.46-25.88 14.976c-3.45-1.965-15.25-8.962-19.73-11.598l25.63-14.838zM1096.19 448.918l19.73 11.633-14.59 8.461c-3.9-2.274-15.7-9.22-19.72-11.598l14.58-8.496zM1060.02 469.908l19.68 11.633-18.47 10.719c-3.71-2.154-15.53-9.116-19.74-11.598l18.53-10.754zM1078.53 459.155l19.66 11.632-15.52 8.962c-4.06-2.361-15.86-9.324-19.72-11.598l15.58-8.996zM1038.47 482.403l19.67 11.632-14.66 8.462a9619.96 9619.96 0 01-19.72-11.598l14.71-8.496zM1020.81 492.639l19.66 11.581-13.95 8.1c-4.59-2.671-16.49-9.685-19.72-11.598l14.01-8.083zM1117.65 436.424l19.67 11.633-18.48 10.719c-2.93-1.724-14.94-8.772-19.73-11.598l18.54-10.754zM1003.8 502.497l19.66 11.632-18.49 10.771c-4.27-2.482-16.074-9.461-19.714-11.598l18.544-10.805zM1001.9 526.658l-25.096 14.562-19.976-11.46 25.427-14.735 19.645 11.633zM1016.6 524.659l14.63 8.685-16.96 9.806-14.851-8.513 17.181-9.978zM1010.77 545.184l-14.422 8.341-14.869-8.479 14.679-8.531 14.612 8.669zM1170.95 435.114l15.3 8.496-17.37 10.047-15.02-8.616 17.09-9.927zM1150.61 446.919l14.77 8.755-18.54 10.736-15.01-8.599 18.78-10.892zM1128.57 459.706l14.75 8.738-108.56 62.85-14.88-8.531 108.69-63.057z" fill="#fff"/>
  <path d="M1055.11 277.999c-10.17-.287-18.03-14.017-17.56-30.667.47-16.649 9.1-29.913 19.27-29.626 10.17.288 18.04 14.018 17.56 30.667-.47 16.649-9.09 29.913-19.27 29.626z" fill="#E2E2E2"/>
  <path d="M1041.52 244.393c-1.38-15.266 5.75-28.384 15.93-29.298 10.17-.915 19.54 10.719 20.91 25.985 1.38 15.267-5.76 28.384-15.93 29.299-10.18.915-19.54-10.719-20.91-25.986z" fill="#E35541"/>
  <path d="M1053.01 240.33c-.42-4.425 2.49-8.315 6.49-8.688 4.01-.373 7.59 2.912 8 7.337.41 4.426-2.5 8.316-6.5 8.689-4 .373-7.58-2.912-7.99-7.338zM1076.06 257.318s-4.31-9.53-11.97-8.324c-7.66 1.207-12.52 5.17-15.68 15.941a15.214 15.214 0 0017.15 5.894 18.275 18.275 0 0010.5-13.511z" fill="#fff"/>
  <path d="M1036.21 251.252c.04-.109.09-.213.16-.31a2.287 2.287 0 01-.54-.787 2.299 2.299 0 01-.15-.937c.02-.213.09-.42.2-.607.1-.187.25-.35.42-.478-.16-.182-.26-.41-.29-.652a1.2 1.2 0 01.15-.695c.13-.21.31-.376.53-.475.23-.098.48-.124.71-.074 1.73.327 2.8 2.533 3.69 3.843.68.965 1.3 1.965 1.88 2.964.11-1.447.32-2.912.42-4.274.1-1.361 2.22-1.447 2.22 0-.12 2.182.11 4.369.68 6.48.22.108.41.254.58.431a52.972 52.972 0 0022.77 14.062c.44.146.81.429 1.07.807.25.378.38.83.35 1.286-.02.456-.2.892-.49 1.239-.3.347-.7.587-1.15.684-.03.419-.19.82-.45 1.147-.27.326-.63.564-1.03.679-.07.322-.2.627-.39.894s-.44.491-.72.657l1.47.638c2.38 1 1.33 4.929-1.09 3.929a58.358 58.358 0 01-23.2-17.543c-.71-.672-1.4-1.345-2.09-2.051-1.07-1.086-6.24-6.273-4.97-8.496-.38-.776-1.12-1.362-.74-2.361zM1072.09 227.091c2.43.965 4.32 6.204 4.11 7.307l-1.92-.965-.34-.38a22.695 22.695 0 00-1.85-5.962z" fill="#FBB5AD"/>
  <path d="M1071.77 231.347c.13-.093.27-.162.43-.206l.15-.138c.95-.741 2.42.224 3.28.689 1.1.581 2.14 1.274 3.1 2.068.44.597.75 1.278.92 1.999.36.862.72 1.723 1.14 2.568.84 1.78 1.79 3.507 2.84 5.17a48.576 48.576 0 007.25 8.841c1.27 1.24-.67 3.171-1.95 1.93l-.92-.914c-.19.127-.41.195-.64.195-.23 0-.46-.068-.65-.195a4.99 4.99 0 01-.64-.517l-.29-.241c-.08.211-.21.398-.39.544-.17.147-.37.249-.59.297-.22.048-.45.04-.67-.023a1.414 1.414 0 01-.58-.335l-.93-.983c-.29-.11-.54-.333-.67-.62 0 0-.14 1.878-.17 1.827-1.5-1.586-3.28-5.98-4.78-8.617a.532.532 0 00-.09-.345 8.89 8.89 0 01-1.15-5.17c0-1.236-.11-2.471-.33-3.688l-2.45-1.895c-.59-.448-1.22-1.12-1.1-1.724a1.167 1.167 0 01-.12-.517z" fill="#FBB5AD"/>
  <path d="M1062.64 265.883c8.71 2.551 10.21 1.585 14.33 1.448 4.13-.138 8.51-5.911 8.51-5.911s1.03-12.908 8.74-2.809c5.75 7.548 7.96 29.4 8.63 39.981a21.241 21.241 0 01-10.25 3.653c-2.36.396-4.76.598-7.16.604a10.618 10.618 0 01-4.27-.931l-4.09-18.957a29.349 29.349 0 01-18.46-5.29l4.02-11.788z" fill="#86CD74"/>
  <path d="M1081.42 250.356s-5.6 10.753 0 13.786c5.61 3.034 9.89-1.981 10.35-3.274a8.783 8.783 0 00-.2-4.29 8.943 8.943 0 00-10.15-6.222z" fill="#FBB5AD"/>
  <path d="M1080.94 248.753a11.668 11.668 0 014.67-1.707c1.66-.226 3.35-.091 4.96.397 2.82.516 5.42 1.881 7.45 3.912a4.792 4.792 0 012.41-.81 5.003 5.003 0 012.99.728c.89.551 1.58 1.37 1.98 2.34a4.295 4.295 0 01-1.72 5.049 5.43 5.43 0 01-4.11.379v.259c-.19 2.033 1.73 3.05 2.49 4.773.36.786.47 1.668.29 2.517-.19.844-1.07 1.723-1.05 2.619.15.639.46 1.23.89 1.723.4.586.72 1.217.97 1.879a20.28 20.28 0 01-13.45 1.258 22.63 22.63 0 01-12.58-6.773c.19-.441.48-.835.85-1.155.75-.504 1.55-.926 2.39-1.258 1.19-.689 0-2.774 0-3.894 0-1.93 1.49-2.74 3.09-3.447 1.16-.482 1.21-1.189 1.23-2.361.1-.932-.09-1.873-.56-2.688-.34.05-.7-.023-1-.207a8.273 8.273 0 00-1.91-.845 1.371 1.371 0 01-.77-.692 1.365 1.365 0 01-.06-1.031c0-.195.05-.386.15-.556.09-.169.23-.31.4-.409z" fill="#56403D"/>
  <path d="M1085.19 253.044a21.656 21.656 0 01-5.18-1.844c0-.172-.53-6.893 11.35-4.549 11.89 2.343 6.25 16.526 6.25 16.526" fill="#56403D"/>
  <path d="M972.491 268.261l-83.179 48.908a5.514 5.514 0 00-2.691 4.964l2.88 75.671a5.414 5.414 0 005.451 5.276 5.434 5.434 0 002.674-.726l80.299-46.772a5.512 5.512 0 002.725-4.773v-77.791a5.425 5.425 0 00-2.694-4.749 5.434 5.434 0 00-5.465-.008z" stroke="#56403D" stroke-miterlimit="10" stroke-linecap="round" stroke-dasharray="3.04 5.06"/>
  <path d="M921.207 246.944c3.329-1.534 11.23-6.739 21.2-1.948 9.971 4.791 19.424 13.649 9.125 39.74a14.847 14.847 0 01-10.35.104s2.122-22.835-1.086-25.488l-33.5 18.594a22.392 22.392 0 0011.679 21.611l-9.229 8.461c-7.556-.12-24.15-24.126-18.975-41.187 5.175-17.061 33.43-20.766 33.43-20.766" fill="#6DE1FC"/>
  <path d="M921.207 246.944c3.329-1.534 11.23-6.739 21.2-1.948 9.971 4.791 19.424 13.649 9.125 39.74a14.847 14.847 0 01-10.35.104s2.122-22.835-1.086-25.488l-33.5 18.594a22.392 22.392 0 0011.679 21.611l-9.229 8.461c-7.556-.12-24.15-24.126-18.975-41.187 5.175-17.061 33.43-20.766 33.43-20.766" fill="#BE6B3D"/>
  <path d="M910.529 245.53c2.277 2.517 6.641 1.379 9.522.724 3.45-.792 7.504-2.912 7.193-7.065 0-.621.932-.621.984 0 .327 4.325-3.623 6.893-7.366 7.875-3.329.827-8.366 2.085-11.023-.844-.414-.5.276-1.155.69-.69z" fill="#009245"/>
  <path d="M929.159 236.569s0 21.18-7.78 22.559c-8.625 1.516-13.351-8.186-13.351-8.186s-1.104-18.716 7.4-20.353c8.505-1.637 13.472 3.274 13.731 5.98z" fill="#FBB5AD"/>
  <path d="M922.622 250.89c.199.011.398-.018.586-.086a59.328 59.328 0 00-.793-5.894.55.55 0 01.855-.531.55.55 0 01.231.341c.395 2.086.677 4.192.845 6.308a.582.582 0 01-.31.603 2.782 2.782 0 01-1.501.379c-.724-.086-.638-1.12.087-1.12zM919.033 251.286a3.109 3.109 0 003.968 1.724c.448-.155.638.551.19.706a3.832 3.832 0 01-4.796-1.999c-.207-.482.431-.827.638-.431zM919.999 248.288c.147 0 .287.058.391.161a.554.554 0 010 .78.552.552 0 11-.391-.941zM926.848 246.806a.553.553 0 110 1.105.553.553 0 010-1.105z" fill="#56403D"/>
  <path d="M914.1 248.839s-2.053-8.134-4.33-5.445c-2.277 2.688 3.692 8.53 3.692 8.53" fill="#FBB5AD"/>
  <path d="M911.978 227.952s-7.59.81-9.798 6.894c-2.208 6.083 3.45 18.043 7.539 19.921l-4.934-10.546.242-7.118 6.951-9.151z" fill="#5C2E2E"/>
  <path d="M902.301 237.517c.621-4.222 3.45-6.273 7.09-8.444l.914-.483a6.061 6.061 0 01-1.725-2.137.55.55 0 01.483-.827 3.454 3.454 0 012.501 1.224 8.218 8.218 0 011.725-2.327.57.57 0 01.932.241 3 3 0 01-.138 2.551 16.138 16.138 0 0111.195 1.723 9.275 9.275 0 013.14 2.895 5.538 5.538 0 013.018.535 5.063 5.063 0 012.864 5.411 4.502 4.502 0 01-5.555 2.981 7.033 7.033 0 01-3.208-1.499c.69 1.155 1.035 2.637-1.208 3.154-3.898.896-5.744-1.431-5.985.517-.207 1.585-2.398 2.464-3.968 2.498a29.13 29.13 0 00-.759 1.724 4.694 4.694 0 00-2.432-.138.588.588 0 00-.949.103c-1.345 2.31-1.035 4.826-.517 7.497a21.343 21.343 0 01-5.175-6.463 19.034 19.034 0 01-2.243-10.736zm11.04-11.357l-.155.241a.558.558 0 010 .173c0 .172-.138.362-.207.534.199-.28.323-.606.362-.948z" fill="#5C2E2E"/>
  <path d="M871.372 338.78l-49.491 28.831a3.038 3.038 0 00-1.5 2.62 3.027 3.027 0 001.525 2.634 3.034 3.034 0 003.046-.015l49.473-28.659a3.027 3.027 0 001.518-2.619v-.173a3.03 3.03 0 00-3.05-3.035 3.033 3.033 0 00-1.521.416zM871.372 354.29l-49.491 28.831a3.038 3.038 0 00-1.5 2.62 3.027 3.027 0 001.525 2.634 3.034 3.034 0 003.046-.015l49.473-28.573a3.027 3.027 0 001.518-2.619v-.172a3.029 3.029 0 00-1.487-2.7 3.04 3.04 0 00-3.084-.006zM871.372 369.955l-49.491 28.831a3.038 3.038 0 00-1.5 2.62 3.027 3.027 0 001.525 2.634 3.042 3.042 0 003.046-.015l49.473-28.659a3.027 3.027 0 001.518-2.619v-.172a3.032 3.032 0 00-3.05-3.036 3.033 3.033 0 00-1.521.416z" fill="#FDC49A"/>
  <path d="M871.372 385.534l-49.491 28.831a3.038 3.038 0 00-1.5 2.62 3.027 3.027 0 001.525 2.634 3.034 3.034 0 003.046-.015l49.473-28.641a3.037 3.037 0 001.518-2.62v-.172a3.026 3.026 0 00-3.046-3.053 3.028 3.028 0 00-1.525.416z" fill="#FAEDD4"/>
  <path d="M995.606 284.874v49.908l38.654-22.128v-49.477l-38.654 21.697z" fill="#E35541"/>
  <path d="M1029.8 312.654v12.201l-9.85-8.565 9.85-3.636z" fill="#E35541"/>
  <path d="M1019.01 289.924l8.63 5.307c.27.158.46.416.54.716.08.301.03.62-.13.887l-6.72 9.151c-.88 1.206-2.92 0-2.02-1.172l6.81-9.116.42 1.602-8.63-5.308c-1.28-.775-.1-2.809 1.17-2.016l-.07-.051zM1013.17 294.645l-7.16 10.116-.42-1.602 8.77 4.377c1.34.672.15 2.688-1.18 2.016l-8.76-4.377a1.172 1.172 0 01-.54-.716c-.08-.3-.03-.619.13-.887l7.16-10.116c.86-1.223 2.89 0 2.01 1.172l-.01.017z" fill="#fff"/>
  <path d="M822.037 350.292c-1.534 0-2.778-1.35-2.778-3.016s1.244-3.016 2.778-3.016 2.777 1.35 2.777 3.016-1.243 3.016-2.777 3.016z" fill="#155A93"/>
  <path d="M830.903 345.759c-1.534 0-2.777-1.35-2.777-3.015 0-1.666 1.243-3.016 2.777-3.016s2.777 1.35 2.777 3.016c0 1.665-1.243 3.015-2.777 3.015z" fill="#659FE4"/>
  <path d="M839.77 341.365c-1.534 0-2.778-1.35-2.778-3.016 0-1.665 1.244-3.016 2.778-3.016s2.777 1.351 2.777 3.016c0 1.666-1.243 3.016-2.777 3.016z" fill="#C5E9FF"/>
  <path d="M1115.11 377.383l-60.75 34.415-22.15-11.374M1054.55 412.297v13.908" stroke="#fff" stroke-miterlimit="10"/>
  <path d="M1098.16 400.82a7.407 7.407 0 003.45-1.637c.61-1.139.86-2.437.72-3.723v-3.601a.595.595 0 00.16-.2.713.713 0 00.07-.248c.06-.976.06-1.955 0-2.93l4.93-.483a88.61 88.61 0 012.05 9.393c-.14.965-4.83 7.375-7.23 7.806-2.39.431-9.02-1.723-9.57-2.567 1.8-.535 3.62-1.103 5.42-1.81zM1064.04 383.311c2.8.02 5.6.28 8.36.775 0 0 .95-5.497.81-5.773l7.02.483s.88 10.202.88 11.546c0 2.464-3.07 3.257-3.74 3.154-.48-.165-.95-.361-1.41-.586.25-1.271.38-2.564.39-3.86 0-.586-.15-1.017-.72-1.224a9.313 9.313 0 00-4.02.362c-1.26.241-2.5.534-3.76.758a18.664 18.664 0 01-5.3-3.446c-.44-1.362-1.01-1.689 1.49-2.189z" fill="#FBB5AD"/>
  <path d="M1061.69 383.759l.17-.19c.54-.517 1.95-.465 2.61-.499 2.67.017 5.34.359 7.93 1.016 0 0-6.36-.861-6.6.276-.11.456-.1.93.01 1.385.11.454.32.877.62 1.235 2.66 2.361 6.82-.242 9.41-1.362l4.81-2.068.31 3.912c.17 1.789.17 3.589 0 5.377-.33.551-3.17 2.051-3.78 1.723-.6-.327-2.47-1.43-2.47-1.43l.38-4.722s-3.96 1.723-5.84 1.241c-1.44-.345-9.21-3.688-7.56-5.894zM1104.97 397.597s-2.59 8.066-3.45 8.617c-.86.551-10.87-2.637-9.38-4.532.95-1.207 6.9-1.189 7.47-1.345 0 0-3.16 1.034-3.16 1.534a8.172 8.172 0 004.17 1.965c.21-.379 4.52-7.445 4.52-7.445l4.06-1.43 3.27 7.393-2.82 1.206s-.87 2.258-1.16 2.258a32.459 32.459 0 01-2.6-4.154 10.963 10.963 0 01-.99 2.947c-.39.293-3.69 2.999-5.17.931l2.77-3.119" fill="#56403D"/>
  <path d="M1112.47 402.354l-.51 1.844-3.47 1.62v-3.464l2-.69" fill="#56403D"/>
  <path d="M1084.34 381.57a20.236 20.236 0 01-17.54-4.153c-.11-10.34-1.07-19.766-.76-30.141.5-16.94 2.97-33.57 14.87-46.788l21.66-3.327c8.8 16.717 10.6 93.181 10.6 93.181s-11.04 7.031-19.45 3.585l-3.26-63.764s-5.74 6.79-6.78 10.582c-.75 2.86.8 28.021.66 40.825z" fill="#999A1C"/>
  <path d="M1176.04 359.15c-21.12 0-38.24-8.457-38.24-18.888 0-10.431 17.12-18.888 38.24-18.888s38.24 8.457 38.24 18.888c0 10.431-17.12 18.888-38.24 18.888z" fill="#6DE1FC"/>
  <path d="M1176.04 359.15c-21.12 0-38.24-8.457-38.24-18.888 0-10.431 17.12-18.888 38.24-18.888s38.24 8.457 38.24 18.888c0 10.431-17.12 18.888-38.24 18.888z" fill="#663535"/>
  <path d="M773.047 522.125l30.912 18.285s-9.574 16.785-33.189 26.694l-36.07-19.318" fill="url(#paint7_linear)"/>
  <path d="M747.258 549.233c-15.834 0-28.669-9.035-28.669-20.18s12.835-20.18 28.669-20.18 28.67 9.035 28.67 20.18-12.836 20.18-28.67 20.18z" fill="#86CD74"/>
  <path d="M747.275 525.934c-11.861 0-21.476-3.935-21.476-8.789 0-4.854 9.615-8.789 21.476-8.789 11.861 0 21.476 3.935 21.476 8.789 0 4.854-9.615 8.789-21.476 8.789z" fill="#974C26"/>
  <path d="M748.069 502.497c0-3.964.138-7.928.448-11.874.081-1.023.173-2.045.276-3.068l.225-2.016c.086-.586.31-2.12.31-2.051l.414-2.412a94.554 94.554 0 0115.335-37.466 54.733 54.733 0 014.261 21.938c0 2.172-.173 4.343-.362 6.515v.913c0 .086 0-.138-.087.362a93.408 93.408 0 01-.586 3.188 86.364 86.364 0 01-3.45 11.891 72.304 72.304 0 01-4.64 10.34 140.812 140.812 0 01-6.348 10.943 122.034 122.034 0 01-5.175 7.635c-.38-4.929-.621-9.892-.621-14.838zm11.281-44.549a3.563 3.563 0 01.104-1.533 44.745 44.745 0 00-1.604 1.723c.487-.14.993-.204 1.5-.19z" fill="#999A1C"/>
  <path d="M740.668 505.547a144.855 144.855 0 01-6.054-10.237c-.483-.907-.961-1.821-1.432-2.74l-.897-1.826-.845-1.896c-.322-.747-.639-1.499-.949-2.258a94.515 94.515 0 01-7.366-39.791 54.792 54.792 0 0115.525 16.147c1.156 1.844 2.208 3.74 3.226 5.67l.431.81s0-.103.121.362c.431.999.845 1.999 1.225 2.998a86.509 86.509 0 013.57 11.84 72.172 72.172 0 011.725 11.219c.397 4.205.57 8.427.587 12.632 0 3.291 0 6.307-.207 9.202-3.088-3.912-6.003-7.962-8.66-12.132zm-14.593-43.566a3.574 3.574 0 01-.742-1.344c-.161.77-.299 1.545-.414 2.326a4.922 4.922 0 011.156-.982z" fill="#999A1C"/>
  <path d="M740.824 515.422a170.52 170.52 0 01-6.573-3.568l-1.725-1.016-1.069-.69-1.07-.741-1.242-.913a59.499 59.499 0 01-16.835-19.095 34.53 34.53 0 0113.558 3.74c1.225.62 2.398 1.31 3.571 2.016l.5.293.172.155a54.528 54.528 0 017.401 6.394 45.455 45.455 0 014.554 5.497 84.948 84.948 0 014.398 6.635c1.07 1.724 2.001 3.447 2.864 5.032-2.846-1.154-5.693-2.343-8.504-3.739zm-21.959-18.802a2.252 2.252 0 01-.846-.482c.161.471.334.936.518 1.395.06-.319.171-.628.328-.913zM748.069 502.497c0-3.964.138-7.928.448-11.874.081-1.023.173-2.045.276-3.068l.225-2.016c.086-.586.31-2.12.31-2.051l.414-2.412a94.554 94.554 0 0115.335-37.466 54.733 54.733 0 014.261 21.938c0 2.172-.173 4.343-.362 6.515v.913c0 .086 0-.138-.087.362a93.408 93.408 0 01-.586 3.188 86.364 86.364 0 01-3.45 11.891 72.304 72.304 0 01-4.64 10.34 140.812 140.812 0 01-6.348 10.943 122.034 122.034 0 01-5.175 7.635c-.38-4.929-.621-9.892-.621-14.838zm11.281-44.549a3.563 3.563 0 01.104-1.533 44.745 44.745 0 00-1.604 1.723c.487-.14.993-.204 1.5-.19z" fill="#999A1C"/>
  <path d="M740.668 505.547a144.855 144.855 0 01-6.054-10.237c-.483-.907-.961-1.821-1.432-2.74l-.897-1.826-.845-1.896c-.322-.747-.639-1.499-.949-2.258a94.515 94.515 0 01-7.366-39.791 54.792 54.792 0 0115.525 16.147c1.156 1.844 2.208 3.74 3.226 5.67l.431.81s0-.103.121.362c.431.999.845 1.999 1.225 2.998a86.509 86.509 0 013.57 11.84 72.172 72.172 0 011.725 11.219c.397 4.205.57 8.427.587 12.632 0 3.291 0 6.307-.207 9.202-3.088-3.912-6.003-7.962-8.66-12.132zm-14.593-43.566a3.574 3.574 0 01-.742-1.344c-.161.77-.299 1.545-.414 2.326a4.922 4.922 0 011.156-.982z" fill="#999A1C"/>
  <path d="M740.824 515.422a170.52 170.52 0 01-6.573-3.568l-1.725-1.016-1.069-.69-1.07-.741-1.242-.913a59.499 59.499 0 01-16.835-19.095 34.53 34.53 0 0113.558 3.74c1.225.62 2.398 1.31 3.571 2.016l.5.293.172.155a54.528 54.528 0 017.401 6.394 45.455 45.455 0 014.554 5.497 84.948 84.948 0 014.398 6.635c1.07 1.724 2.001 3.447 2.864 5.032-2.846-1.154-5.693-2.343-8.504-3.739zm-21.959-18.802a2.252 2.252 0 01-.846-.482c.161.471.334.936.518 1.395.06-.319.171-.628.328-.913z" fill="#999A1C"/>
  <defs>
    <linearGradient id="paint0_linear" x1="209.281" y1="801.385" x2="305.399" y2="726.352" gradientUnits="userSpaceOnUse">
      <stop stop-color="#fff" stop-opacity="0"/>
      <stop offset=".98" stop-color="#0800BF"/>
    </linearGradient>
    <linearGradient id="paint1_linear" x1="15608.6" y1="22261" x2="20690.8" y2="14271" gradientUnits="userSpaceOnUse">
      <stop stop-color="#fff" stop-opacity="0"/>
      <stop offset=".98" stop-color="#0800BF"/>
    </linearGradient>
    <linearGradient id="paint2_linear" x1="44064.7" y1="35275.2" x2="46489.4" y2="23643.8" gradientUnits="userSpaceOnUse">
      <stop stop-color="#fff" stop-opacity="0"/>
      <stop offset=".98" stop-color="#0800BF"/>
    </linearGradient>
    <linearGradient id="paint3_linear" x1="29751.7" y1="17747.2" x2="31260.8" y2="15622.2" gradientUnits="userSpaceOnUse">
      <stop stop-color="#fff" stop-opacity="0"/>
      <stop offset=".98" stop-color="#0800BF"/>
    </linearGradient>
    <linearGradient id="paint4_linear" x1="1181.01" y1="386.602" x2="1211.63" y2="424.889" gradientUnits="userSpaceOnUse">
      <stop stop-color="#D4A397"/>
      <stop offset=".99" stop-color="#FFD6A9"/>
    </linearGradient>
    <linearGradient id="paint5_linear" x1="-32446.1" y1="25379" x2="-32000.9" y2="26792.8" gradientUnits="userSpaceOnUse">
      <stop stop-color="#D4A397"/>
      <stop offset=".99" stop-color="#FFD6A9"/>
    </linearGradient>
    <linearGradient id="paint6_linear" x1="-16497.9" y1="11852.9" x2="-15313.2" y2="13322.8" gradientUnits="userSpaceOnUse">
      <stop stop-color="#D4A397"/>
      <stop offset=".99" stop-color="#FFD6A9"/>
    </linearGradient>
    <linearGradient id="paint7_linear" x1="-22601.4" y1="9974.01" x2="-21889.2" y2="11176.7" gradientUnits="userSpaceOnUse">
      <stop stop-color="#D4A397"/>
      <stop offset=".99" stop-color="#FFD6A9"/>
    </linearGradient>
  </defs>
</svg>