<svg width="1517" height="638" fill="none"
  xmlns="http://www.w3.org/2000/svg">
  <rect opacity=".3" x="3" width="58" height="3" rx="1.5" transform="rotate(90 3 0)" fill="#86CD74"/>
  <rect opacity=".3" x="22" width="31" height="3" rx="1.5" transform="rotate(90 22 0)" fill="#86CD74"/>
  <rect opacity=".3" x="78" y="216" width="30" height="3" rx="1.5" fill="#86CD74"/>
  <rect opacity=".3" x="78" y="197" width="16" height="3" rx="1.5" fill="#86CD74"/>
  <rect opacity=".3" width="40" height="3" rx="1.5" transform="matrix(0 1 1 0 743 127)" fill="#86CD74"/>
  <rect opacity=".3" width="21.333" height="3" rx="1.5" transform="matrix(0 1 1 0 724 127)" fill="#86CD74"/>
  <rect opacity=".3" width="21" height="3" rx="1.5" transform="matrix(1 0 0 -1 533 527)" fill="#86CD74"/>
  <rect opacity=".3" width="11.2" height="3" rx="1.5" transform="matrix(1 0 0 -1 533 546)" fill="#86CD74"/>
  <path opacity=".3" d="M42.712 264.2c0-.608.208-1.12.624-1.536.416-.416.952-.624 1.608-.624.656 0 1.192.208 1.608.624.416.416.624.928.624 1.536s-.208 1.12-.624 1.536c-.416.416-.952.624-1.608.624-.656 0-1.192-.208-1.608-.624-.416-.416-.624-.928-.624-1.536zm0 15.591c0-.608.208-1.12.624-1.536.416-.416.952-.624 1.608-.624.656 0 1.192.208 1.608.624.416.416.624.928.624 1.536s-.208 1.12-.624 1.536c-.416.416-.952.624-1.608.624-.656 0-1.192-.208-1.608-.624-.416-.416-.624-.928-.624-1.536zm0 46.771c0-.608.208-1.12.624-1.536.416-.416.952-.624 1.608-.624.656 0 1.192.208 1.608.624.416.416.624.928.624 1.536s-.208 1.12-.624 1.536c-.416.416-.952.624-1.608.624-.656 0-1.192-.208-1.608-.624-.416-.416-.624-.928-.624-1.536zm0 31.182c0-.608.208-1.12.624-1.536.416-.416.952-.624 1.608-.624.656 0 1.192.208 1.608.624.416.416.624.928.624 1.536s-.208 1.12-.624 1.536c-.416.416-.952.624-1.608.624-.656 0-1.192-.208-1.608-.624-.416-.416-.624-.928-.624-1.536zM1416.2 627.288a2.1 2.1 0 01-1.54-.624c-.41-.416-.62-.952-.62-1.608 0-.656.21-1.192.62-1.608a2.1 2.1 0 011.54-.624 2.1 2.1 0 011.54.624c.41.416.62.952.62 1.608 0 .656-.21 1.192-.62 1.608a2.1 2.1 0 01-1.54.624zm15.59 0a2.1 2.1 0 01-1.54-.624c-.41-.416-.62-.952-.62-1.608 0-.656.21-1.192.62-1.608a2.1 2.1 0 011.54-.624 2.1 2.1 0 011.54.624c.41.416.62.952.62 1.608 0 .656-.21 1.192-.62 1.608a2.1 2.1 0 01-1.54.624zm46.77 0c-.61 0-1.12-.208-1.53-.624-.42-.416-.63-.952-.63-1.608 0-.656.21-1.192.63-1.608.41-.416.92-.624 1.53-.624a2.1 2.1 0 011.54.624c.41.416.62.952.62 1.608 0 .656-.21 1.192-.62 1.608a2.1 2.1 0 01-1.54.624zm31.18 0c-.6 0-1.12-.208-1.53-.624-.42-.416-.63-.952-.63-1.608 0-.656.21-1.192.63-1.608.41-.416.93-.624 1.53-.624a2.1 2.1 0 011.54.624c.42.416.62.952.62 1.608 0 .656-.2 1.192-.62 1.608a2.1 2.1 0 01-1.54.624zM747.8 32.288c.608 0 1.12-.208 1.536-.624.416-.416.624-.952.624-1.608 0-.656-.208-1.192-.624-1.608-.416-.416-.928-.624-1.536-.624s-1.12.208-1.536.624c-.416.416-.624.952-.624 1.608 0 .656.208 1.192.624 1.608.416.416.928.624 1.536.624zm-15.591 0c.608 0 1.12-.208 1.536-.624.416-.416.624-.952.624-1.608 0-.656-.208-1.192-.624-1.608-.416-.416-.928-.624-1.536-.624s-1.12.208-1.536.624c-.416.416-.624.952-.624 1.608 0 .656.208 1.192.624 1.608.416.416.928.624 1.536.624zm-46.771 0c.608 0 1.12-.208 1.536-.624.416-.416.624-.952.624-1.608 0-.656-.208-1.192-.624-1.608-.416-.416-.928-.624-1.536-.624s-1.12.208-1.536.624c-.416.416-.624.952-.624 1.608 0 .656.208 1.192.624 1.608.416.416.928.624 1.536.624zm-31.182 0c.608 0 1.12-.208 1.536-.624.416-.416.624-.952.624-1.608 0-.656-.208-1.192-.624-1.608-.416-.416-.928-.624-1.536-.624s-1.12.208-1.536.624c-.416.416-.624.952-.624 1.608 0 .656.208 1.192.624 1.608.416.416.928.624 1.536.624zM596.712 493.372c0 .608.208 1.12.624 1.536.416.416.952.624 1.608.624.656 0 1.192-.208 1.608-.624.416-.416.624-.928.624-1.536s-.208-1.12-.624-1.536c-.416-.416-.952-.624-1.608-.624-.656 0-1.192.208-1.608.624-.416.416-.624.928-.624 1.536zm0-15.591c0 .608.208 1.12.624 1.536.416.416.952.624 1.608.624.656 0 1.192-.208 1.608-.624.416-.416.624-.928.624-1.536s-.208-1.12-.624-1.536c-.416-.416-.952-.624-1.608-.624-.656 0-1.192.208-1.608.624-.416.416-.624.928-.624 1.536zM616.712 477.8c0 .608.208 1.12.624 1.536.416.416.952.624 1.608.624.656 0 1.192-.208 1.608-.624.416-.416.624-.928.624-1.536s-.208-1.12-.624-1.536c-.416-.416-.952-.624-1.608-.624-.656 0-1.192.208-1.608.624-.416.416-.624.928-.624 1.536z" fill="#86CD74"/>
  <rect opacity=".3" width="21" height="3" rx="1.5" transform="matrix(0 -1 -1 0 817.5 420.5)" fill="#86CD74"/>
  <rect opacity=".3" width="11.2" height="3" rx="1.5" transform="matrix(0 -1 -1 0 836.5 420.5)" fill="#86CD74"/>
  <rect opacity=".3" width="61" height="3" rx="1.5" transform="matrix(-1 0 0 1 1308 46)" fill="#86CD74"/>
  <rect opacity=".3" width="32.533" height="3" rx="1.5" transform="matrix(-1 0 0 1 1308 27)" fill="#86CD74"/>
  <path opacity=".3" d="M1449.29 190.469c0 .608-.2 1.12-.6 1.536-.42.416-.96.624-1.63.624-.66 0-1.2-.208-1.61-.624a2.077 2.077 0 01-.63-1.536c0-.608.21-1.12.63-1.536.41-.416.95-.624 1.61-.624.67 0 1.21.208 1.63.624.4.416.6.928.6 1.536zm0-15.59c0 .608-.2 1.12-.6 1.536-.42.416-.96.624-1.63.624-.66 0-1.2-.208-1.61-.624a2.077 2.077 0 01-.63-1.536c0-.608.21-1.12.63-1.536.41-.416.95-.624 1.61-.624.67 0 1.21.208 1.63.624.4.416.6.928.6 1.536zM1429.29 173.52c0 .608-.2 1.12-.6 1.536-.42.416-.96.624-1.63.624-.66 0-1.2-.208-1.61-.624a2.077 2.077 0 01-.63-1.536c0-.608.21-1.12.63-1.536.41-.416.95-.624 1.61-.624.67 0 1.21.208 1.63.624.4.416.6.928.6 1.536z" fill="#86CD74"/>
</svg>