<svg width="740" height="373" viewBox="0 0 740 373" fill="none" xmlns="http://www.w3.org/2000/svg">
<path opacity="0.4" d="M78.5 242H74.5V246H78.5V242ZM123 166.5L120.781 163.172L120.735 163.203L120.689 163.235L123 166.5ZM131.5 160L129.135 156.774L129.081 156.814L129.029 156.855L131.5 160ZM140.5 153.5L142.719 156.828L142.811 156.767L142.9 156.7L140.5 153.5ZM148 147.5L145.6 144.3L145.532 144.351L145.467 144.404L148 147.5ZM155.5 141L158.7 143.4L158.824 143.235L158.93 143.058L155.5 141ZM165 126L168.846 127.099L165 126ZM167 118L163.169 116.851L163.127 116.99L163.095 117.132L167 118ZM154 72L151.222 74.8776L154 72ZM76 73.5L78.7387 76.4154H78.7387L76 73.5ZM59.5 114V118H63.5V114H59.5ZM4.5 114H0.500001V118H4.5V114ZM37 36.5L39.8064 39.3503L39.8175 39.3394L39.8284 39.3284L37 36.5ZM174.5 194.5L176.891 197.707L176.911 197.692L176.931 197.677L174.5 194.5ZM139 225L142.226 227.365L142.247 227.336L142.268 227.307L139 225ZM133.5 242V246H137.5V242H133.5ZM75 356.5L72.1167 359.272L72.171 359.329L72.2276 359.383L75 356.5ZM75 295L72.1716 292.172L72.1439 292.199L72.1167 292.228L75 295ZM136 295L133.117 297.772L133.144 297.801L133.172 297.828L136 295ZM136 356.5L133.172 353.672L136 356.5ZM82.5 242V232.5H74.5V242H82.5ZM82.5 232.5C82.5 211.414 96.0738 190.461 125.311 169.765L120.689 163.235C90.5929 184.539 74.5 207.586 74.5 232.5H82.5ZM125.219 169.828C126.382 169.053 129.367 166.763 133.971 163.145L129.029 156.855C124.299 160.571 121.618 162.614 120.781 163.172L125.219 169.828ZM133.865 163.226C138.904 159.53 141.813 157.432 142.719 156.828L138.281 150.172C137.187 150.901 134.096 153.136 129.135 156.774L133.865 163.226ZM142.9 156.7C144.311 155.642 146.875 153.589 150.533 150.596L145.467 144.404C141.792 147.411 139.355 149.358 138.1 150.3L142.9 156.7ZM150.4 150.7C154.319 147.76 157.3 145.267 158.7 143.4L152.3 138.6C151.7 139.4 149.681 141.24 145.6 144.3L150.4 150.7ZM158.93 143.058C159.802 141.604 161.348 139.424 163.657 136.456L157.343 131.544C154.985 134.576 153.198 137.062 152.07 138.942L158.93 143.058ZM163.657 136.456C166.147 133.255 167.982 130.123 168.846 127.099L161.154 124.901C160.685 126.544 159.52 128.745 157.343 131.544L163.657 136.456ZM168.846 127.099C169.539 124.672 170.225 121.926 170.905 118.868L163.095 117.132C162.442 120.074 161.794 122.661 161.154 124.901L168.846 127.099ZM170.831 119.149C171.938 115.46 172.5 111.739 172.5 108H164.5C164.5 110.927 164.062 113.874 163.169 116.851L170.831 119.149ZM172.5 108C172.5 92.3581 167.301 79.2826 156.778 69.1224L151.222 74.8776C160.032 83.384 164.5 94.3086 164.5 108H172.5ZM156.778 69.1224C146.277 58.9828 132.905 54 117 54V62C131.095 62 142.39 66.3505 151.222 74.8776L156.778 69.1224ZM117 54C99.7405 54 85.0671 59.4943 73.2613 70.5846L78.7387 76.4154C88.9329 66.839 101.593 62 117 62V54ZM73.2613 70.5846C61.3679 81.7572 55.5 96.3568 55.5 114H63.5C63.5 98.3099 68.6321 85.9095 78.7387 76.4154L73.2613 70.5846ZM59.5 110H4.5V118H59.5V110ZM8.5 114C8.5 84.7412 18.9013 59.9338 39.8064 39.3503L34.1936 33.6497C11.7654 55.7328 0.500001 82.5921 0.500001 114H8.5ZM39.8284 39.3284C60.7174 18.4395 86.3545 7.99997 117 7.99997V-3.05176e-05C84.3121 -3.05176e-05 56.616 11.2271 34.1716 33.6716L39.8284 39.3284ZM117 7.99997C147.051 7.99997 171.497 17.6542 190.672 36.8284L196.328 31.1715C175.503 10.3457 148.949 -3.05176e-05 117 -3.05176e-05V7.99997ZM190.672 36.8284C209.93 56.0868 219.5 79.0729 219.5 106H227.5C227.5 76.9271 217.07 51.9131 196.328 31.1715L190.672 36.8284ZM219.5 106C219.5 138.489 203.979 166.903 172.069 191.323L176.931 197.677C210.355 172.097 227.5 141.511 227.5 106H219.5ZM172.109 191.293C162.238 198.655 154.282 204.924 148.268 210.091C142.333 215.19 138.041 219.423 135.732 222.693L142.268 227.307C143.959 224.911 147.583 221.227 153.482 216.159C159.301 211.159 167.095 205.012 176.891 197.707L172.109 191.293ZM135.774 222.635C131.769 228.097 129.5 233.742 129.5 239.5H137.5C137.5 235.925 138.898 231.903 142.226 227.365L135.774 222.635ZM129.5 239.5V242H137.5V239.5H129.5ZM133.5 238H78.5V246H133.5V238ZM105.5 365C94.9016 365 85.7193 361.258 77.7724 353.617L72.2276 359.383C81.6141 368.409 92.765 373 105.5 373V365ZM77.8833 353.728C70.2649 345.804 66.5 336.464 66.5 325.5H58.5C58.5 338.536 63.0684 349.862 72.1167 359.272L77.8833 353.728ZM66.5 325.5C66.5 314.902 70.2421 305.719 77.8833 297.772L72.1167 292.228C63.0912 301.614 58.5 312.765 58.5 325.5H66.5ZM77.8284 297.828C85.7872 289.87 94.9524 286 105.5 286V278C92.7142 278 81.5462 282.797 72.1716 292.172L77.8284 297.828ZM105.5 286C116.41 286 125.536 289.888 133.117 297.772L138.883 292.228C129.798 282.778 118.59 278 105.5 278V286ZM133.172 297.828C141.13 305.787 145 314.952 145 325.5H153C153 312.714 148.203 301.546 138.828 292.172L133.172 297.828ZM145 325.5C145 336.414 141.106 345.737 133.172 353.672L138.828 359.328C148.227 349.93 153 338.586 153 325.5H145ZM133.172 353.672C125.604 361.24 116.461 365 105.5 365V373C118.539 373 129.73 368.427 138.828 359.328L133.172 353.672ZM334.359 242H330.359V246H334.359V242ZM378.859 166.5L376.641 163.172L376.594 163.203L376.548 163.235L378.859 166.5ZM387.359 160L384.994 156.774L384.94 156.814L384.888 156.855L387.359 160ZM396.359 153.5L398.578 156.828L398.671 156.767L398.759 156.7L396.359 153.5ZM403.859 147.5L401.459 144.3L401.392 144.351L401.326 144.404L403.859 147.5ZM411.359 141L414.559 143.4L414.683 143.235L414.789 143.058L411.359 141ZM420.859 126L424.705 127.099L420.859 126ZM422.859 118L419.028 116.851L418.986 116.99L418.955 117.132L422.859 118ZM409.859 72L407.081 74.8776L409.859 72ZM331.859 73.5L334.598 76.4154L331.859 73.5ZM315.359 114V118H319.359V114H315.359ZM260.359 114H256.359V118H260.359V114ZM292.859 36.5L295.666 39.3503L295.677 39.3394L295.688 39.3284L292.859 36.5ZM430.359 194.5L432.751 197.707L432.771 197.692L432.79 197.677L430.359 194.5ZM394.859 225L398.085 227.365L398.106 227.336L398.127 227.307L394.859 225ZM389.359 242V246H393.359V242H389.359ZM330.859 356.5L327.976 359.272L328.03 359.329L328.087 359.383L330.859 356.5ZM330.859 295L328.031 292.172L328.003 292.199L327.976 292.228L330.859 295ZM391.859 295L388.976 297.772L389.003 297.801L389.031 297.828L391.859 295ZM391.859 356.5L389.031 353.672L391.859 356.5ZM338.359 242V232.5H330.359V242H338.359ZM338.359 232.5C338.359 211.414 351.933 190.461 381.17 169.765L376.548 163.235C346.452 184.539 330.359 207.586 330.359 232.5H338.359ZM381.078 169.828C382.241 169.053 385.227 166.763 389.831 163.145L384.888 156.855C380.159 160.571 377.477 162.614 376.641 163.172L381.078 169.828ZM389.725 163.226C394.764 159.53 397.672 157.432 398.578 156.828L394.141 150.172C393.047 150.901 389.955 153.136 384.994 156.774L389.725 163.226ZM398.759 156.7C400.171 155.642 402.734 153.589 406.392 150.596L401.326 144.404C397.652 147.411 395.215 149.358 393.959 150.3L398.759 156.7ZM406.259 150.7C410.179 147.76 413.159 145.267 414.559 143.4L408.159 138.6C407.56 139.4 405.54 141.24 401.459 144.3L406.259 150.7ZM414.789 143.058C415.662 141.604 417.208 139.424 419.517 136.456L413.202 131.544C410.844 134.576 409.057 137.062 407.929 138.942L414.789 143.058ZM419.517 136.456C422.006 133.255 423.841 130.123 424.705 127.099L417.013 124.901C416.544 126.544 415.379 128.745 413.202 131.544L419.517 136.456ZM424.705 127.099C425.399 124.672 426.085 121.926 426.764 118.868L418.955 117.132C418.301 120.074 417.653 122.661 417.013 124.901L424.705 127.099ZM426.691 119.149C427.798 115.46 428.359 111.739 428.359 108H420.359C420.359 110.927 419.921 113.874 419.028 116.851L426.691 119.149ZM428.359 108C428.359 92.3581 423.161 79.2826 412.638 69.1224L407.081 74.8776C415.891 83.384 420.359 94.3086 420.359 108H428.359ZM412.638 69.1224C402.136 58.9828 388.765 54 372.859 54V62C386.954 62 398.249 66.3505 407.081 74.8776L412.638 69.1224ZM372.859 54C355.6 54 340.926 59.4943 329.121 70.5846L334.598 76.4154C344.792 66.839 357.452 62 372.859 62V54ZM329.121 70.5846C317.227 81.7572 311.359 96.3568 311.359 114H319.359C319.359 98.3099 324.491 85.9095 334.598 76.4154L329.121 70.5846ZM315.359 110H260.359V118H315.359V110ZM264.359 114C264.359 84.7412 274.761 59.9338 295.666 39.3503L290.053 33.6497C267.625 55.7328 256.359 82.5921 256.359 114H264.359ZM295.688 39.3284C316.577 18.4395 342.214 7.99997 372.859 7.99997V-3.05176e-05C340.172 -3.05176e-05 312.475 11.2271 290.031 33.6716L295.688 39.3284ZM372.859 7.99997C402.911 7.99997 427.357 17.6542 446.531 36.8284L452.188 31.1715C431.362 10.3457 404.808 -3.05176e-05 372.859 -3.05176e-05V7.99997ZM446.531 36.8284C465.789 56.0868 475.359 79.0729 475.359 106H483.359C483.359 76.9271 472.929 51.9131 452.188 31.1715L446.531 36.8284ZM475.359 106C475.359 138.489 459.838 166.903 427.928 191.323L432.79 197.677C466.214 172.097 483.359 141.511 483.359 106H475.359ZM427.968 191.293C418.098 198.655 410.142 204.924 404.128 210.091C398.193 215.19 393.9 219.423 391.592 222.693L398.127 227.307C399.819 224.911 403.443 221.227 409.341 216.159C415.16 211.159 422.955 205.012 432.751 197.707L427.968 191.293ZM391.634 222.635C387.628 228.097 385.359 233.742 385.359 239.5H393.359C393.359 235.925 394.757 231.903 398.085 227.365L391.634 222.635ZM385.359 239.5V242H393.359V239.5H385.359ZM389.359 238H334.359V246H389.359V238ZM361.359 365C350.761 365 341.579 361.258 333.632 353.617L328.087 359.383C337.473 368.409 348.624 373 361.359 373V365ZM333.743 353.728C326.124 345.804 322.359 336.464 322.359 325.5H314.359C314.359 338.536 318.928 349.862 327.976 359.272L333.743 353.728ZM322.359 325.5C322.359 314.902 326.102 305.719 333.743 297.772L327.976 292.228C318.951 301.614 314.359 312.765 314.359 325.5H322.359ZM333.688 297.828C341.647 289.87 350.812 286 361.359 286V278C348.574 278 337.406 282.797 328.031 292.172L333.688 297.828ZM361.359 286C372.269 286 381.395 289.888 388.976 297.772L394.743 292.228C385.657 282.778 374.45 278 361.359 278V286ZM389.031 297.828C396.99 305.787 400.859 314.952 400.859 325.5H408.859C408.859 312.714 404.062 301.546 394.688 292.172L389.031 297.828ZM400.859 325.5C400.859 336.414 396.965 345.737 389.031 353.672L394.688 359.328C404.087 349.93 408.859 338.586 408.859 325.5H400.859ZM389.031 353.672C381.463 361.24 372.32 365 361.359 365V373C374.399 373 385.589 368.427 394.688 359.328L389.031 353.672ZM590.219 242H586.219V246H590.219V242ZM634.719 166.5L632.5 163.172L632.453 163.203L632.408 163.235L634.719 166.5ZM643.219 160L640.853 156.774L640.8 156.814L640.747 156.855L643.219 160ZM652.219 153.5L654.438 156.828L654.53 156.767L654.619 156.7L652.219 153.5ZM659.719 147.5L657.319 144.3L657.251 144.351L657.186 144.404L659.719 147.5ZM667.219 141L670.419 143.4L670.543 143.235L670.649 143.058L667.219 141ZM676.719 126L680.565 127.099L676.719 126ZM678.719 118L674.887 116.851L674.846 116.99L674.814 117.132L678.719 118ZM665.719 72L662.94 74.8776L665.719 72ZM587.719 73.5L590.457 76.4154L587.719 73.5ZM571.219 114V118H575.219V114H571.219ZM516.219 114H512.219V118H516.219V114ZM548.719 36.5L551.525 39.3503L551.536 39.3394L551.547 39.3284L548.719 36.5ZM686.219 194.5L688.61 197.707L688.63 197.692L688.65 197.677L686.219 194.5ZM650.719 225L653.944 227.365L653.966 227.336L653.987 227.307L650.719 225ZM645.219 242V246H649.219V242H645.219ZM586.719 356.5L583.835 359.272L583.89 359.329L583.946 359.383L586.719 356.5ZM586.719 295L583.89 292.172L583.863 292.199L583.835 292.228L586.719 295ZM647.719 295L644.835 297.772L644.863 297.801L644.89 297.828L647.719 295ZM647.719 356.5L644.89 353.672L647.719 356.5ZM594.219 242V232.5H586.219V242H594.219ZM594.219 232.5C594.219 211.414 607.793 190.461 637.03 169.765L632.408 163.235C602.312 184.539 586.219 207.586 586.219 232.5H594.219ZM636.938 169.828C638.101 169.053 641.086 166.763 645.69 163.145L640.747 156.855C636.018 160.571 633.337 162.614 632.5 163.172L636.938 169.828ZM645.584 163.226C650.623 159.53 653.532 157.432 654.438 156.828L650 150.172C648.906 150.901 645.814 153.136 640.853 156.774L645.584 163.226ZM654.619 156.7C656.03 155.642 658.593 153.589 662.252 150.596L657.186 144.404C653.511 147.411 651.074 149.358 649.819 150.3L654.619 156.7ZM662.119 150.7C666.038 147.76 669.019 145.267 670.419 143.4L664.019 138.6C663.419 139.4 661.399 141.24 657.319 144.3L662.119 150.7ZM670.649 143.058C671.521 141.604 673.067 139.424 675.376 136.456L669.061 131.544C666.704 134.576 664.917 137.062 663.789 138.942L670.649 143.058ZM675.376 136.456C677.866 133.255 679.701 130.123 680.565 127.099L672.873 124.901C672.403 126.544 671.239 128.745 669.061 131.544L675.376 136.456ZM680.565 127.099C681.258 124.672 681.944 121.926 682.623 118.868L674.814 117.132C674.16 120.074 673.513 122.661 672.873 124.901L680.565 127.099ZM682.55 119.149C683.657 115.46 684.219 111.739 684.219 108H676.219C676.219 110.927 675.781 113.874 674.887 116.851L682.55 119.149ZM684.219 108C684.219 92.3581 679.02 79.2826 668.497 69.1224L662.94 74.8776C671.751 83.384 676.219 94.3086 676.219 108H684.219ZM668.497 69.1224C657.995 58.9828 644.624 54 628.719 54V62C642.813 62 654.109 66.3505 662.94 74.8776L668.497 69.1224ZM628.719 54C611.459 54 596.786 59.4943 584.98 70.5846L590.457 76.4154C600.652 66.839 613.312 62 628.719 62V54ZM584.98 70.5846C573.087 81.7572 567.219 96.3568 567.219 114H575.219C575.219 98.3099 580.351 85.9095 590.457 76.4154L584.98 70.5846ZM571.219 110H516.219V118H571.219V110ZM520.219 114C520.219 84.7412 530.62 59.9338 551.525 39.3503L545.912 33.6497C523.484 55.7328 512.219 82.5921 512.219 114H520.219ZM551.547 39.3284C572.436 18.4395 598.073 7.99997 628.719 7.99997V-3.05176e-05C596.031 -3.05176e-05 568.335 11.2271 545.89 33.6716L551.547 39.3284ZM628.719 7.99997C658.77 7.99997 683.216 17.6542 702.39 36.8284L708.047 31.1715C687.221 10.3457 660.668 -3.05176e-05 628.719 -3.05176e-05V7.99997ZM702.39 36.8284C721.649 56.0868 731.219 79.0729 731.219 106H739.219C739.219 76.9271 728.789 51.9131 708.047 31.1715L702.39 36.8284ZM731.219 106C731.219 138.489 715.697 166.903 683.788 191.323L688.65 197.677C722.074 172.097 739.219 141.511 739.219 106H731.219ZM683.827 191.293C673.957 198.655 666.001 204.924 659.987 210.091C654.052 215.19 649.76 219.423 647.451 222.693L653.987 227.307C655.678 224.911 659.302 221.227 665.2 216.159C671.02 211.159 678.814 205.012 688.61 197.707L683.827 191.293ZM647.493 222.635C643.487 228.097 641.219 233.742 641.219 239.5H649.219C649.219 235.925 650.617 231.903 653.944 227.365L647.493 222.635ZM641.219 239.5V242H649.219V239.5H641.219ZM645.219 238H590.219V246H645.219V238ZM617.219 365C606.62 365 597.438 361.258 589.491 353.617L583.946 359.383C593.333 368.409 604.484 373 617.219 373V365ZM589.602 353.728C581.984 345.804 578.219 336.464 578.219 325.5H570.219C570.219 338.536 574.787 349.862 583.835 359.272L589.602 353.728ZM578.219 325.5C578.219 314.902 581.961 305.719 589.602 297.772L583.835 292.228C574.81 301.614 570.219 312.765 570.219 325.5H578.219ZM589.547 297.828C597.506 289.87 606.671 286 617.219 286V278C604.433 278 593.265 282.797 583.89 292.172L589.547 297.828ZM617.219 286C628.128 286 637.255 289.888 644.835 297.772L650.602 292.228C641.516 282.778 630.309 278 617.219 278V286ZM644.89 297.828C652.849 305.787 656.719 314.952 656.719 325.5H664.719C664.719 312.714 659.922 301.546 650.547 292.172L644.89 297.828ZM656.719 325.5C656.719 336.414 652.825 345.737 644.89 353.672L650.547 359.328C659.946 349.93 664.719 338.586 664.719 325.5H656.719ZM644.89 353.672C637.322 361.24 628.18 365 617.219 365V373C630.258 373 641.448 368.427 650.547 359.328L644.89 353.672Z" fill="#272532"/>
</svg>
