<svg width="48" height="54" viewBox="0 0 48 54" fill="none" xmlns="http://www.w3.org/2000/svg">
<path d="M6.85714 3.375C3.075 3.375 0 6.40195 0 10.125V43.875C0 47.598 3.075 50.625 6.85714 50.625H41.1429C44.925 50.625 48 47.598 48 43.875V10.125C48 6.40195 44.925 3.375 41.1429 3.375H6.85714ZM36.1071 22.043L22.3929 35.543C21.3857 36.5344 19.7571 36.5344 18.7607 35.543L11.9036 28.793C10.8964 27.8016 10.8964 26.1984 11.9036 25.2176C12.9107 24.2367 14.5393 24.2262 15.5357 25.2176L20.5714 30.1746L32.4643 18.457C33.4714 17.4656 35.1 17.4656 36.0964 18.457C37.0929 19.4484 37.1036 21.0516 36.0964 22.0324L36.1071 22.043Z" fill="#86CD74"/>
</svg>
