<svg width="48" height="55" viewBox="0 0 48 55" fill="none" xmlns="http://www.w3.org/2000/svg">
<path d="M6.85714 3.4375C3.075 3.4375 0 6.52051 0 10.3125V44.6875C0 48.4795 3.075 51.5625 6.85714 51.5625H41.1429C44.925 51.5625 48 48.4795 48 44.6875V10.3125C48 6.52051 44.925 3.4375 41.1429 3.4375H6.85714ZM15.3214 18.7988C16.3286 17.7891 17.9571 17.7891 18.9536 18.7988L23.9893 23.8477L29.025 18.7988C30.0321 17.7891 31.6607 17.7891 32.6571 18.7988C33.6536 19.8086 33.6643 21.4414 32.6571 22.4404L27.6214 27.4893L32.6571 32.5381C33.6643 33.5479 33.6643 35.1807 32.6571 36.1797C31.65 37.1787 30.0214 37.1895 29.025 36.1797L23.9893 31.1309L18.9536 36.1797C17.9464 37.1895 16.3179 37.1895 15.3214 36.1797C14.325 35.1699 14.3143 33.5371 15.3214 32.5381L20.3571 27.4893L15.3214 22.4404C14.3143 21.4307 14.3143 19.7979 15.3214 18.7988Z" fill="#FF5F57"/>
</svg>
