<svg width="130" height="106" viewBox="0 0 130 106" fill="none" xmlns="http://www.w3.org/2000/svg">
<g clip-path="url(#clip0_821_194)">
<path d="M30.6144 105.813C33.1147 105.813 35.1416 105.054 35.1416 104.117C35.1416 103.179 33.1147 102.42 30.6144 102.42C28.1141 102.42 26.0872 103.179 26.0872 104.117C26.0872 105.054 28.1141 105.813 30.6144 105.813Z" fill="#2F2E41"/>
<path d="M41.4837 105.585C43.984 105.585 46.0109 104.826 46.0109 103.888C46.0109 102.951 43.984 102.192 41.4837 102.192C38.9834 102.192 36.9565 102.951 36.9565 103.888C36.9565 104.826 38.9834 105.585 41.4837 105.585Z" fill="#2F2E41"/>
<path d="M55.9104 77.0814C60.1892 74.6179 63.0301 71.533 62.2558 70.1911C61.4814 68.8492 57.3849 69.7584 53.1061 72.2219C48.8273 74.6854 45.9864 77.7703 46.7608 79.1122C47.5351 80.4541 51.6316 79.5449 55.9104 77.0814Z" fill="#2F2E41"/>
<path d="M51.9004 83.1184C53.4832 73.3776 46.8605 64.1995 37.1085 62.6186C27.3564 61.0377 18.1677 67.6527 16.585 77.3936C15.0023 87.1344 21.6249 96.3125 31.377 97.8934C41.1291 99.4743 50.3177 92.8593 51.9004 83.1184Z" fill="#2F2E41"/>
<path d="M31.5198 94.2762H26.0872V104H31.5198V94.2762Z" fill="#2F2E41"/>
<path d="M42.3891 94.2762H36.9565V104H42.3891V94.2762Z" fill="#2F2E41"/>
<path d="M34.693 81.8389C38.0695 81.8389 40.8067 79.1048 40.8067 75.7322C40.8067 72.3596 38.0695 69.6255 34.693 69.6255C31.3165 69.6255 28.5793 72.3596 28.5793 75.7322C28.5793 79.1048 31.3165 81.8389 34.693 81.8389Z" fill="white"/>
<path d="M34.693 77.7691C35.8193 77.7691 36.7323 76.8571 36.7323 75.7321C36.7323 74.6071 35.8193 73.6952 34.693 73.6952C33.5667 73.6952 32.6537 74.6071 32.6537 75.7321C32.6537 76.8571 33.5667 77.7691 34.693 77.7691Z" fill="#3F3D56"/>
<path d="M16.8875 63.639C15.4422 57.1797 20.0607 50.6499 27.2003 49.0568C34.3399 47.4638 41.2968 51.4132 42.7422 57.8725C44.1875 64.3318 39.4568 66.7173 32.3172 68.3103C25.1776 69.9034 18.3329 70.1025 16.8875 63.639Z" fill="#E6E6E6"/>
<path d="M22.1681 75.7904C22.8326 74.3911 19.754 71.5431 15.292 69.4293C10.8299 67.3156 6.67408 66.7365 6.00963 68.1358C5.34519 69.5352 8.42375 72.3832 12.8858 74.497C17.3479 76.6107 21.5037 77.1898 22.1681 75.7904Z" fill="#2F2E41"/>
<path d="M96.6111 105.813C99.1114 105.813 101.138 105.054 101.138 104.117C101.138 103.179 99.1114 102.42 96.6111 102.42C94.1109 102.42 92.084 103.179 92.084 104.117C92.084 105.054 94.1109 105.813 96.6111 105.813Z" fill="#2F2E41"/>
<path d="M85.7419 105.585C88.2422 105.585 90.269 104.826 90.269 103.888C90.269 102.951 88.2422 102.192 85.7419 102.192C83.2416 102.192 81.2147 102.951 81.2147 103.888C81.2147 104.826 83.2416 105.585 85.7419 105.585Z" fill="#2F2E41"/>
<path d="M80.4643 79.1001C81.2387 77.7582 78.3978 74.6733 74.1189 72.2098C69.8401 69.7463 65.7437 68.837 64.9693 70.1789C64.1949 71.5209 67.0358 74.6058 71.3146 77.0693C75.5935 79.5328 79.6899 80.442 80.4643 79.1001Z" fill="#2F2E41"/>
<path d="M92.9894 98.1219C102.869 98.1219 110.878 90.1222 110.878 80.254C110.878 70.3859 102.869 62.3862 92.9894 62.3862C83.1099 62.3862 75.101 70.3859 75.101 80.254C75.101 90.1222 83.1099 98.1219 92.9894 98.1219Z" fill="#2F2E41"/>
<path d="M101.138 94.2762H95.7057V104H101.138V94.2762Z" fill="#2F2E41"/>
<path d="M90.269 94.2762H84.8364V104H90.269V94.2762Z" fill="#2F2E41"/>
<path d="M88.7987 81.8389C92.1752 81.8389 94.9124 79.1048 94.9124 75.7322C94.9124 72.3596 92.1752 69.6255 88.7987 69.6255C85.4222 69.6255 82.6849 72.3596 82.6849 75.7322C82.6849 79.1048 85.4222 81.8389 88.7987 81.8389Z" fill="white"/>
<path d="M87.3246 76.3339C88.1229 75.5371 88.1274 74.2487 87.3346 73.4562C86.5418 72.6636 85.2519 72.667 84.4536 73.4638C83.6552 74.2605 83.6508 75.5489 84.4436 76.3415C85.2364 77.134 86.5263 77.1306 87.3246 76.3339Z" fill="#3F3D56"/>
<path d="M94.9124 68.3102C87.7728 66.7172 83.0421 64.3359 84.4875 57.8725C85.9329 51.409 92.8897 47.4637 100.029 49.0567C107.169 50.6498 111.788 57.1796 110.342 63.639C108.897 70.0983 102.052 69.9033 94.9124 68.3102Z" fill="#21B359"/>
<path d="M111.691 93.8751C113.19 93.4775 113.377 89.2902 112.109 84.5225C110.842 79.7549 108.599 76.2122 107.1 76.6098C105.602 77.0074 105.414 81.1946 106.682 85.9623C107.95 90.73 110.193 94.2727 111.691 93.8751Z" fill="#2F2E41"/>
<path d="M65.8182 50.6332H64.2316C61.2703 50.6291 58.8696 48.2312 58.8655 45.2733V43.9416C58.8655 40.6435 59.4927 37.8806 60.7262 35.7316C62.2214 33.23 63.9658 30.8902 65.9345 28.7413C67.2428 27.4303 68.4265 26.0032 69.4773 24.4765C70.2291 23.2901 70.6195 21.9127 70.5946 20.5105C70.5946 17.2 68.4348 15.5903 63.9949 15.5903C61.5319 15.6194 59.0815 15.9844 56.7182 16.6814C53.4661 17.6107 50.077 15.7272 49.1466 12.4789C48.9888 11.9313 48.9099 11.3671 48.9099 10.7987V8.10215C48.8974 5.72917 50.2888 3.57607 52.4527 2.60115C56.6268 0.821419 61.1291 -0.0622251 65.6645 0.00415196C70.416 0.00415196 74.7105 0.800676 78.4195 2.37298C82.1367 3.94944 85.0732 6.17307 87.1457 8.9775C89.2141 11.7653 90.3147 15.1506 90.2773 18.6188C90.2773 22.3442 89.2598 25.5884 87.2495 28.2642C85.2642 30.911 82.415 33.8067 78.785 36.8766C76.8744 38.4655 75.0594 40.1706 73.3607 41.9835C72.2601 43.1658 71.4834 44.6095 71.1054 46.1777C70.6693 48.7539 68.4348 50.6374 65.8182 50.6332Z" fill="#21B359"/>
<path d="M64.9377 75.8441H64.73C59.2351 75.84 54.7869 71.3885 54.791 65.9C54.7952 60.4197 59.2434 55.9766 64.73 55.9725H64.9377C70.4326 55.9683 74.8891 60.4114 74.8933 65.9C74.8974 71.3885 70.4492 75.84 64.9543 75.8441C64.946 75.8441 64.9419 75.8441 64.9377 75.8441Z" fill="#21B359"/>
<path d="M129.585 106H0.415335C0.186901 106 0 105.813 0 105.585C0 105.357 0.186901 105.17 0.415335 105.17H129.585C129.813 105.17 130 105.357 130 105.585C130 105.813 129.813 106 129.585 106Z" fill="#CCCCCC"/>
</g>
<defs>
<clipPath id="clip0_821_194">
<rect width="130" height="106" fill="white"/>
</clipPath>
</defs>
</svg>
