<svg width="48" height="55" viewBox="0 0 48 55" fill="none" xmlns="http://www.w3.org/2000/svg">
<path d="M6.85714 3.4375C3.075 3.4375 0 6.52051 0 10.3125V44.6875C0 48.4795 3.075 51.5625 6.85714 51.5625H41.1429C44.925 51.5625 48 48.4795 48 44.6875V10.3125C48 6.52051 44.925 3.4375 41.1429 3.4375H6.85714ZM23.9786 10.0654C25.4036 10.0654 26.55 11.2148 26.55 12.6436C26.55 15.791 30.3429 17.3594 32.5607 15.1357C33.5679 14.126 35.1964 14.126 36.1929 15.1357C37.1893 16.1455 37.2 17.7783 36.1929 18.7773C33.975 21.001 35.55 24.8037 38.6786 24.8037C40.1036 24.8037 41.25 25.9531 41.25 27.3818C41.25 28.8105 40.1036 29.96 38.6786 29.96C35.5393 29.96 33.975 33.7627 36.1929 35.9863C37.2 36.9961 37.2 38.6289 36.1929 39.6279C35.1857 40.627 33.5571 40.6377 32.5607 39.6279C30.3429 37.4043 26.55 38.9834 26.55 42.1201C26.55 43.5488 25.4036 44.6982 23.9786 44.6982C22.5536 44.6982 21.4071 43.5488 21.4071 42.1201C21.4071 38.9727 17.6143 37.4043 15.3964 39.6279C14.3893 40.6377 12.7607 40.6377 11.7643 39.6279C10.7679 38.6182 10.7571 36.9854 11.7643 35.9863C13.9821 33.7627 12.4071 29.96 9.27857 29.96C7.85357 29.96 6.70714 28.8105 6.70714 27.3818C6.70714 25.9531 7.85357 24.8037 9.27857 24.8037C12.4179 24.8037 13.9821 21.001 11.7643 18.7773C10.7571 17.7676 10.7571 16.1348 11.7643 15.1357C12.7714 14.1367 14.4 14.126 15.3964 15.1357C17.6143 17.3594 21.4071 15.7803 21.4071 12.6436C21.4071 11.2148 22.5536 10.0654 23.9786 10.0654ZM20.5714 27.5C21.4807 27.5 22.3528 27.1378 22.9958 26.4932C23.6388 25.8485 24 24.9742 24 24.0625C24 23.1508 23.6388 22.2765 22.9958 21.6318C22.3528 20.9872 21.4807 20.625 20.5714 20.625C19.6621 20.625 18.79 20.9872 18.1471 21.6318C17.5041 22.2765 17.1429 23.1508 17.1429 24.0625C17.1429 24.9742 17.5041 25.8485 18.1471 26.4932C18.79 27.1378 19.6621 27.5 20.5714 27.5ZM30 30.9375C30 30.2537 29.7291 29.598 29.2468 29.1145C28.7646 28.631 28.1106 28.3594 27.4286 28.3594C26.7466 28.3594 26.0925 28.631 25.6103 29.1145C25.1281 29.598 24.8571 30.2537 24.8571 30.9375C24.8571 31.6213 25.1281 32.277 25.6103 32.7605C26.0925 33.244 26.7466 33.5156 27.4286 33.5156C28.1106 33.5156 28.7646 33.244 29.2468 32.7605C29.7291 32.277 30 31.6213 30 30.9375Z" fill="#d6843c"/>
</svg>
