<svg width="142" height="149" viewBox="0 0 142 149" fill="none" xmlns="http://www.w3.org/2000/svg">
<ellipse cx="32.4899" cy="33.056" rx="28.6409" ry="28.6409" fill="#4CAF50"/>
<path d="M45.2035 58.6496C41.3801 60.4928 37.1974 61.4438 32.9632 61.4326C17.2112 61.4326 4.39514 48.4484 4.39514 32.4898C4.39514 25.6438 6.71794 19.1784 10.9878 13.9932V19.1316H15.3829V5.77345H2.1976V10.2262H8.44302C2.99456 16.3259 -0.0154919 24.2633 5.99637e-05 32.4898C5.99637e-05 50.9041 14.7873 65.8853 32.9632 65.8853C37.8513 65.8979 42.6799 64.7993 47.0934 62.6705L45.2035 58.6496Z" fill="#81C784"/>
<path d="M20.0027 7.22217C23.8261 5.38247 28.0089 4.43327 32.243 4.44445C47.995 4.44445 60.8111 17.4042 60.8111 33.3327C60.8111 40.1659 58.4883 46.6191 54.2185 51.7945V46.6657H49.8234V59.9988H63.0086V55.5544H56.7632C62.2117 49.4662 65.2217 41.5438 65.2062 33.3327C65.2062 14.9531 50.4189 0.000110626 32.243 0.000110626C27.3549 -0.0124435 22.5263 1.08409 18.1128 3.20893L20.0027 7.22217Z" fill="#81C784"/>
<path d="M42.8042 19.1317C36.2856 19.1317 30.9407 24.2001 30.4724 30.6011C28.2045 28.5319 25.2457 27.3843 22.1757 27.3831H13.9243V35.6345C13.9243 42.4604 19.4775 48.0116 26.3014 48.0116H30.4271V56.263H34.5528V39.7602H38.6785C45.5024 39.7602 51.0556 34.209 51.0556 27.3831V19.1317H42.8042ZM26.3014 43.8859C21.7507 43.8859 18.05 40.1851 18.05 35.6345V31.5088H22.1757C26.7263 31.5088 30.4271 35.2095 30.4271 39.7602V40.969L25.6969 36.2389L22.7801 39.1558L27.5102 43.8859H26.3014ZM46.9299 27.3831C46.9299 31.9337 43.2291 35.6345 38.6785 35.6345H37.4696L42.1998 30.9043L39.2829 27.9875L34.5528 32.7176V31.5088C34.5528 26.9581 38.2535 23.2574 42.8042 23.2574H46.9299V27.3831Z" fill="white"/>
<path d="M137.523 9.78125V29.6689C137.523 37.9282 135.016 45.4409 130 52.207C124.985 58.9732 118.623 63.3063 110.916 65.2061C103.211 63.3042 96.85 58.9703 91.8324 52.2041C86.8147 45.4379 84.3067 37.9262 84.3089 29.6689V9.78125L110.916 0L137.523 9.78125Z" fill="#5C6BC0"/>
<path d="M133.776 12.3403V29.811C133.776 37.0668 131.616 43.6668 127.297 49.6108C122.978 55.5549 117.5 59.3619 110.862 61.0307C104.227 59.36 98.7489 55.5519 94.4279 49.6079C90.107 43.6639 87.9474 37.0648 87.9493 29.811V12.3403L110.862 3.74753L133.776 12.3403Z" fill="#3F51B5"/>
<path d="M100.432 48.3024C99.4726 48.3024 98.6516 47.9611 97.969 47.2785C97.2864 46.5959 96.9445 45.7743 96.9433 44.8137V27.3701C96.9433 26.4107 97.2852 25.5896 97.969 24.907C98.6528 24.2244 99.4738 23.8825 100.432 23.8813H102.176V20.3926C102.176 17.9796 103.027 15.923 104.728 14.2228C106.43 12.5226 108.486 11.6719 110.898 11.6708C113.31 11.6696 115.367 12.5203 117.07 14.2228C118.772 15.9253 119.622 17.9819 119.62 20.3926V23.8813H121.364C122.324 23.8813 123.145 24.2232 123.829 24.907C124.513 25.5908 124.854 26.4118 124.853 27.3701V44.8137C124.853 45.7731 124.512 46.5947 123.829 47.2785C123.147 47.9623 122.325 48.3036 121.364 48.3024H100.432ZM110.898 39.5806C111.858 39.5806 112.679 39.2393 113.363 38.5567C114.047 37.874 114.388 37.0524 114.387 36.0919C114.386 35.1313 114.044 34.3103 113.363 33.6288C112.682 32.9474 111.86 32.6055 110.898 32.6032C109.937 32.6008 109.115 32.9427 108.435 33.6288C107.755 34.315 107.413 35.136 107.41 36.0919C107.406 37.0478 107.748 37.8694 108.435 38.5567C109.122 39.244 109.943 39.5853 110.898 39.5806ZM105.665 23.8813H116.131V20.3926C116.131 18.939 115.623 17.7034 114.605 16.6858C113.587 15.6683 112.352 15.1595 110.898 15.1595C109.445 15.1595 108.209 15.6683 107.191 16.6858C106.174 17.7034 105.665 18.939 105.665 20.3926V23.8813Z" fill="white"/>
<path d="M33.6504 141.201L29.4244 137.283C14.415 123.425 4.5058 114.255 4.5058 103.067C4.5058 93.8968 11.5588 86.7449 20.5353 86.7449C25.6065 86.7449 30.4736 89.1486 33.6504 92.9175C36.8271 89.1486 41.6943 86.7449 46.7654 86.7449C55.742 86.7449 62.795 93.8968 62.795 103.067C62.795 114.255 52.8858 123.425 37.8763 137.283L33.6504 141.201Z" fill="#FF9800"/>
<path d="M13.9749 120.198C16.6983 120.198 18.906 117.99 18.906 115.267C18.906 112.543 16.6983 110.336 13.9749 110.336C11.2515 110.336 9.04373 112.543 9.04373 115.267C9.04373 117.99 11.2515 120.198 13.9749 120.198Z" fill="#FFE1CB"/>
<path d="M7.12061 124.094C6.22737 124.476 5.46602 125.111 4.93123 125.922C4.39643 126.733 4.11176 127.684 4.11261 128.655V132.526H15.2077V128.556C15.2077 126.51 15.7748 124.587 16.761 122.91C15.8488 122.762 14.9365 122.664 13.9749 122.664C11.534 122.664 9.21635 123.181 7.12061 124.094Z" fill="#FFE1CB"/>
<path d="M53.4241 120.198C56.1475 120.198 58.3553 117.99 58.3553 115.267C58.3553 112.543 56.1475 110.336 53.4241 110.336C50.7007 110.336 48.493 112.543 48.493 115.267C48.493 117.99 50.7007 120.198 53.4241 120.198Z" fill="#FFE3AC"/>
<path d="M60.2784 124.094C58.1165 123.15 55.783 122.663 53.4241 122.664C52.4626 122.664 51.5503 122.762 50.638 122.91C51.6243 124.587 52.1913 126.51 52.1913 128.556V132.526H63.2864V128.655C63.2864 126.658 62.103 124.883 60.2784 124.094ZM44.1536 121.801C41.2689 120.519 37.7184 119.582 33.6995 119.582C29.6806 119.582 26.1302 120.543 23.2455 121.801C21.9463 122.386 20.8448 123.336 20.0746 124.535C19.3043 125.734 18.8985 127.131 18.9061 128.556V132.526H48.493V128.556C48.493 125.647 46.8164 122.984 44.1536 121.801ZM26.3028 110.336C26.3028 114.429 29.6067 117.732 33.6995 117.732C37.7924 117.732 41.0963 114.429 41.0963 110.336C41.0963 106.243 37.7924 102.939 33.6995 102.939C29.6067 102.939 26.3028 106.243 26.3028 110.336Z" fill="white"/>
<path d="M10.2272 107.525C9.46291 105.651 9.04376 103.827 9.04376 101.953C9.04376 95.5916 14.0242 90.6111 20.3854 90.6111C26.9932 90.6111 29.8039 94.9012 33.6995 99.4625C37.5705 94.9505 40.3566 90.6111 47.0136 90.6111C53.3748 90.6111 58.3553 95.5916 58.3553 101.953C58.3553 103.827 57.9361 105.651 57.1718 107.525C58.7744 108.289 60.0812 109.547 60.9441 111.075C62.4235 108.117 63.2864 105.109 63.2864 101.953C63.2864 92.8301 56.1363 85.6799 47.0136 85.6799C41.8606 85.6799 36.9294 88.0716 33.6995 91.8685C30.4696 88.0716 25.5385 85.6799 20.3854 85.6799C11.2628 85.6799 4.11261 92.8301 4.11261 101.953C4.11261 105.109 4.97556 108.117 6.47956 111.075C7.34251 109.547 8.64927 108.289 10.2272 107.525Z" fill="#FFB74D"/>
<path d="M60.2468 123.954C61.14 124.336 61.9013 124.972 62.4361 125.783C62.9709 126.594 63.2556 127.544 63.2548 128.516V132.387H52.1597V128.417C52.1597 126.371 51.5926 124.448 50.6064 122.771C51.5186 122.623 52.4309 122.524 53.3925 122.524C55.8334 122.524 58.151 123.042 60.2468 123.954Z" fill="#FFE3AC"/>
<g clip-path="url(#clip0_821_68)">
<path d="M142 118.278C142 117.052 141.912 115.865 141.777 114.712C140.006 99.4456 127.057 87.6019 111.32 87.598H108.914C92.6726 87.6 79.5128 100.76 79.5109 117.001C79.5109 118.525 79.811 120.034 80.3943 121.442C80.9775 122.85 81.8323 124.13 82.91 125.207C85.0864 127.384 88.0383 128.607 91.1163 128.607H93.5397C94.1964 131.385 95.7714 133.86 98.0097 135.632C100.248 137.404 103.019 138.369 105.873 138.37H119.746L125.831 144.455C126.036 144.66 126.297 144.799 126.581 144.856C126.864 144.912 127.159 144.883 127.426 144.772C127.694 144.661 127.922 144.474 128.083 144.233C128.244 143.993 128.33 143.71 128.33 143.42V138.208C131.332 137.835 134.16 136.596 136.471 134.644C138.781 132.691 140.474 130.109 141.344 127.212C141.623 126.279 141.783 125.295 141.885 124.293L141.891 124.277C141.945 124.098 142 123.92 142 123.725C142 123.605 141.992 123.486 141.984 123.369L141.971 123.145C141.971 123.082 141.979 123.022 141.984 122.963C141.992 122.891 142 122.82 142 122.748V118.278Z" fill="#F48FB1"/>
<path d="M119.553 99.9079C119.372 100.089 119.156 100.233 118.919 100.332C118.683 100.43 118.429 100.48 118.172 100.48C117.916 100.48 117.662 100.43 117.425 100.332C117.188 100.233 116.973 100.089 116.791 99.9079C116.256 99.3708 115.62 98.945 114.919 98.6551C114.218 98.3652 113.467 98.2169 112.708 98.2188C111.107 98.2188 109.676 98.8612 108.625 99.9079C108.444 100.089 108.228 100.233 107.992 100.331C107.755 100.429 107.501 100.48 107.244 100.48C106.726 100.48 106.23 100.274 105.864 99.9079C105.682 99.7266 105.539 99.5114 105.44 99.2745C105.342 99.0376 105.292 98.7837 105.292 98.5273C105.292 98.0095 105.498 97.5129 105.864 97.1467C106.762 96.2472 107.829 95.5339 109.004 95.0477C110.178 94.5614 111.437 94.3118 112.708 94.3132C113.979 94.3118 115.238 94.5614 116.413 95.0477C117.587 95.5339 118.654 96.2472 119.553 97.1467C119.919 97.5129 120.124 98.0095 120.124 98.5273C120.124 99.0451 119.919 99.5417 119.553 99.9079ZM96.8789 98.043C95.1544 99.0516 93.5944 100.318 92.2528 101.798L92.2508 101.8C90.9058 103.287 89.7973 104.972 88.9643 106.795C88.1097 108.667 87.5593 110.663 87.3337 112.708C87.3055 112.963 87.3278 113.221 87.3993 113.468C87.4708 113.714 87.5901 113.944 87.7504 114.144C87.9107 114.344 88.1088 114.511 88.3335 114.634C88.5582 114.758 88.8051 114.836 89.06 114.864C89.3149 114.893 89.5729 114.87 89.8192 114.799C90.0655 114.727 90.2953 114.608 90.4955 114.448C90.6956 114.287 90.8623 114.089 90.9859 113.865C91.1095 113.64 91.1877 113.393 91.2159 113.138C91.3967 111.505 91.8364 109.911 92.5184 108.416C93.857 105.486 96.0681 103.041 98.8493 101.415C99.0707 101.286 99.2645 101.114 99.4196 100.91C99.5747 100.706 99.688 100.473 99.7531 100.225C99.8182 99.9769 99.8338 99.7185 99.799 99.4644C99.7642 99.2103 99.6797 98.9655 99.5504 98.7441C99.421 98.5226 99.2493 98.3288 99.045 98.1738C98.8407 98.0187 98.6079 97.9054 98.3598 97.8403C97.8589 97.7088 97.3262 97.7817 96.8789 98.043ZM126.378 119.854C126.378 119.336 126.583 118.839 126.95 118.473C127.316 118.107 127.813 117.901 128.331 117.901C128.848 117.901 129.345 118.107 129.711 118.473C130.078 118.839 130.283 119.336 130.283 119.854C130.281 121.615 129.597 123.308 128.374 124.577C127.152 125.846 125.486 126.593 123.726 126.661C124.161 127.557 124.425 128.553 124.425 129.618C124.425 130.136 124.219 130.632 123.853 130.998C123.487 131.365 122.99 131.57 122.472 131.57C121.954 131.57 121.458 131.365 121.091 130.998C120.725 130.632 120.519 130.136 120.519 129.618C120.518 128.841 120.209 128.097 119.66 127.548C119.111 126.998 118.367 126.689 117.59 126.688H105.518C105 126.688 104.503 126.483 104.137 126.116C103.771 125.75 103.565 125.254 103.565 124.736C103.565 124.218 103.771 123.721 104.137 123.355C104.503 122.989 105 122.783 105.518 122.783H109.779C110.555 122.781 111.3 122.472 111.849 121.923C112.398 121.374 112.707 120.63 112.708 119.854C112.708 119.336 112.914 118.839 113.28 118.473C113.646 118.107 114.143 117.901 114.661 117.901C115.179 117.901 115.676 118.107 116.042 118.473C116.408 118.839 116.614 119.336 116.614 119.854C116.614 120.906 116.356 121.892 115.93 122.783H123.449C124.225 122.781 124.969 122.472 125.518 121.923C126.067 121.374 126.376 120.63 126.378 119.854Z" fill="white"/>
</g>
<path d="M111.32 91.5352C124.384 91.5314 135.233 100.909 137.587 113.287C135.435 111.185 132.686 109.799 129.717 109.317C130.699 107.517 131.259 105.449 131.259 103.252C131.259 102.734 131.053 102.237 130.687 101.871C130.321 101.505 129.825 101.299 129.307 101.299C128.79 101.299 128.293 101.505 127.926 101.871C127.56 102.237 127.354 102.734 127.354 103.252C127.356 104.406 127.13 105.55 126.688 106.616C126.246 107.683 125.598 108.651 124.78 109.466C123.965 110.283 122.997 110.931 121.93 111.373C120.864 111.815 119.72 112.041 118.566 112.039C118.048 112.039 117.551 112.245 117.185 112.611C116.819 112.978 116.614 113.474 116.614 113.992C116.614 114.51 116.819 115.007 117.185 115.373C117.551 115.739 118.048 115.945 118.566 115.945C121.585 115.947 124.506 114.867 126.798 112.902L126.829 112.912C126.998 112.973 127.175 113.008 127.354 113.016C130.326 113.016 133 114.215 134.949 116.162C136.82 118.034 137.93 120.533 138.065 123.176C138.037 124.176 137.882 125.168 137.602 126.129C136.881 128.546 135.4 130.666 133.378 132.174C131.355 133.681 128.9 134.495 126.378 134.496H105.874C103.682 134.496 101.57 133.677 99.9519 132.199C99.3806 131.678 98.8866 131.086 98.4763 130.444C97.7773 129.299 97.3421 127.999 97.2185 126.641L97.1364 126.603C97.1333 126.572 97.1295 126.541 97.1267 126.51L97.115 126.385C97.1802 123.849 98.2353 121.438 100.054 119.67C101.874 117.901 104.313 116.915 106.85 116.922C107.368 116.922 107.864 116.716 108.23 116.35C108.596 115.983 108.802 115.487 108.802 114.969C108.802 114.451 108.596 113.954 108.23 113.588C107.864 113.222 107.368 113.016 106.85 113.016C104.557 113.013 102.299 113.59 100.289 114.693C99.9041 113.831 99.3667 113.045 98.7028 112.373C98.3367 112.007 97.8397 111.802 97.322 111.802C96.8042 111.802 96.3072 112.007 95.9411 112.373C95.575 112.739 95.3699 113.236 95.3698 113.754C95.3698 114.272 95.5751 114.769 95.9411 115.135C96.4956 115.691 96.8727 116.404 97.0153 117.202C95.0289 119.264 93.7421 121.898 93.3366 124.732H91.1159C90.1044 124.734 89.1023 124.535 88.1677 124.148C87.2331 123.761 86.384 123.194 85.6696 122.478C84.9537 121.763 84.3865 120.914 83.9997 119.979C83.9613 119.887 83.925 119.793 83.8903 119.699C83.5965 118.869 83.4464 117.993 83.448 117.109C83.448 110.022 86.3116 103.623 90.948 98.9766C92.5623 97.3554 94.3833 95.9619 96.3601 94.8311C97.2605 94.3214 98.1932 93.8663 99.153 93.4687C102.247 92.1872 105.565 91.5301 108.914 91.5352H111.32ZM128.331 117.897C127.813 117.897 127.316 118.104 126.95 118.47C126.584 118.836 126.378 119.333 126.378 119.851C126.376 120.627 126.067 121.371 125.518 121.92C124.969 122.469 124.225 122.778 123.449 122.779H115.93C116.356 121.889 116.614 120.903 116.614 119.851C116.614 119.333 116.408 118.836 116.042 118.47C115.675 118.104 115.179 117.897 114.661 117.897C114.143 117.897 113.646 118.104 113.28 118.47C112.914 118.836 112.708 119.333 112.708 119.851C112.706 120.627 112.397 121.371 111.848 121.92C111.299 122.469 110.555 122.778 109.779 122.779H105.518C105 122.779 104.504 122.985 104.137 123.352C103.771 123.718 103.565 124.215 103.565 124.732C103.565 125.25 103.771 125.747 104.137 126.113C104.504 126.479 105 126.686 105.518 126.686H117.591C118.367 126.687 119.111 126.995 119.66 127.544C120.209 128.093 120.518 128.838 120.519 129.614C120.519 130.132 120.725 130.629 121.092 130.995C121.458 131.361 121.954 131.567 122.472 131.567C122.99 131.567 123.487 131.361 123.853 130.995C124.219 130.629 124.425 130.132 124.425 129.614C124.424 128.55 124.161 127.554 123.725 126.658C125.486 126.59 127.151 125.842 128.374 124.573C129.596 123.304 130.28 121.612 130.283 119.851C130.283 119.333 130.078 118.836 129.712 118.47C129.345 118.104 128.849 117.898 128.331 117.897ZM98.3601 97.8369C97.8591 97.7054 97.3258 97.7788 96.8786 98.04C95.1542 99.0485 93.5941 100.315 92.2527 101.795L92.2507 101.797C90.9057 103.284 89.7976 104.968 88.9646 106.792C88.11 108.664 87.5593 110.66 87.3337 112.705C87.3055 112.96 87.3276 113.219 87.3991 113.465C87.4706 113.711 87.5905 113.941 87.7507 114.141C87.911 114.341 88.1091 114.507 88.3337 114.631C88.5584 114.754 88.8054 114.833 89.0603 114.861C89.315 114.889 89.5729 114.867 89.8191 114.796C90.0654 114.724 90.2956 114.605 90.4958 114.444C90.6959 114.284 90.8625 114.086 90.9861 113.861C91.1096 113.637 91.1873 113.39 91.2155 113.135C91.3964 111.502 91.8363 109.908 92.5183 108.413C93.8569 105.483 96.0682 103.038 98.8493 101.412C99.0707 101.283 99.2646 101.111 99.4196 100.907C99.5747 100.703 99.6876 100.47 99.7527 100.222C99.8177 99.9736 99.8333 99.715 99.7985 99.4609C99.7638 99.2071 99.6797 98.9625 99.5505 98.7412C99.4211 98.5198 99.2489 98.326 99.0446 98.1709C98.8404 98.0159 98.608 97.902 98.3601 97.8369ZM112.708 94.3096C111.437 94.3083 110.178 94.5587 109.004 95.0449C107.829 95.5311 106.762 96.2441 105.864 97.1436C105.498 97.5097 105.292 98.0066 105.292 98.5244C105.292 98.7807 105.342 99.0347 105.44 99.2715C105.538 99.5083 105.683 99.723 105.864 99.9043C106.23 100.27 106.726 100.476 107.244 100.477C107.5 100.477 107.755 100.426 107.992 100.328C108.229 100.23 108.444 100.086 108.625 99.9043C109.675 98.8578 111.107 98.2159 112.708 98.2158C113.466 98.2139 114.218 98.3624 114.919 98.6523C115.619 98.9422 116.256 99.3672 116.792 99.9043C116.973 100.086 117.188 100.23 117.425 100.328C117.661 100.426 117.915 100.477 118.172 100.478C118.428 100.478 118.683 100.426 118.92 100.328C119.156 100.23 119.371 100.086 119.552 99.9043C119.918 99.5382 120.125 99.0421 120.125 98.5244C120.125 98.0066 119.919 97.5098 119.552 97.1436C118.654 96.2441 117.587 95.5311 116.413 95.0449C115.238 94.5587 113.979 94.3082 112.708 94.3096Z" fill="#E91E63"/>
<defs>
<clipPath id="clip0_821_68">
<rect width="62.4891" height="62.4891" fill="white" transform="translate(79.5109 85.6799)"/>
</clipPath>
</defs>
</svg>
