<svg width="48" height="49" viewBox="0 0 48 49" fill="none" xmlns="http://www.w3.org/2000/svg">
  <path d="M6.85714 0.4375C3.075 0.4375 0 3.52051 0 7.3125V41.6875C0 45.4795 3.075 48.5625 6.85714 48.5625H41.1429C44.925 48.5625 48 45.4795 48 41.6875V7.3125C48 3.52051 44.925 0.4375 41.1429 0.4375H6.85714ZM16.2857 21.9219H31.7143C33.1393 21.9219 34.2857 23.0713 34.2857 24.5C34.2857 25.9287 33.1393 27.0781 31.7143 27.0781H16.2857C14.8607 27.0781 13.7143 25.9287 13.7143 24.5C13.7143 23.0713 14.8607 21.9219 16.2857 21.9219Z" fill="#CA8A04"/>
</svg>
