<svg version="1.1" id="Layer_1" xmlns="http://www.w3.org/2000/svg" xmlns:xlink="http://www.w3.org/1999/xlink" x="0px" y="0px" viewBox="0 0 1015 130.1" style="enable-background:new 0 0 1015 130.1;" xml:space="preserve">
 <style type="text/css">
  .st0{fill:#0076CE;}
 </style>
 <g>
  <path class="st0" d="M1015,83.9c0-12.2-6.8-17.7-20.4-20.4c-13.6-2.7-21.7-4.1-21.7-13.6c0-6.8,5.4-10.9,15-10.9
		c12.2,0,16.3,5.4,16.3,12.2l1.4,1.4h5.4l1.4-1.4c0-13.6-10.9-19-24.5-19c-15,0-23.1,8.1-23.1,17.7c0,10.9,8.2,16.3,21.7,19
		c13.6,2.7,20.4,4.1,20.4,14.9c0,6.8-4.1,12.2-17.7,12.2c-12.2,0-17.7-6.8-17.7-14.9l-1.4-1.4h-5.4l-1.4,1.4
		c0,12.2,9.5,21.7,25.8,21.7C1006.8,102.9,1015,94.8,1015,83.9 M956.6,70.3l1.3-1.4v-4.1c0-19-10.9-32.6-29.9-32.6
		s-29.9,13.6-29.9,32.6v2.7c0,19,9.5,35.3,31.2,35.3c19,0,25.8-12.2,27.2-20.4l-1.4-1.4h-5.4l-1.4,1.4c-2.7,8.2-8.2,13.6-19,13.6
		c-17.7,0-23.1-16.3-23.1-24.4l1.4-1.4H956.6z M948.4,63.5h-40.8l-1.4-1.4c0-9.5,5.4-23.1,21.7-23.1c16.3,0,21.7,13.6,21.7,23.1
		L948.4,63.5z M888.7,100.2V35l-1.4-1.4h-5.4l-1.4,1.4v65.2l1.4,1.4h5.4L888.7,100.2z M888.7,21.4v-8.1l-1.4-1.4h-5.4l-1.4,1.4v8.1
		l1.4,1.4h5.4L888.7,21.4z M837,96.1c-13.6,0-21.7-9.5-21.7-28.5s8.2-28.5,21.7-28.5c13.6,0,21.7,9.5,21.7,28.5
		C858.8,86.6,850.6,96.1,837,96.1 M858.8,92c0,17.7-4.1,31.2-20.4,31.2c-12.2,0-16.3-5.4-17.7-12.2l-1.4-1.4h-5.4l-1.4,1.4
		c1.4,10.9,9.5,19,25.8,19c17.7,0,28.5-10.9,28.5-38V35l-1.4-1.4h-4.1l-1.4,1.4l-1.4,8.2h-1.4c-2.7-5.4-9.5-10.9-21.7-10.9
		c-19,0-28.5,15-28.5,35.3c0,20.4,9.5,35.3,28.5,35.3c12.2,0,19-5.4,21.7-10.9H858.8z M770.5,39.1c13.6,0,23.1,10.9,23.1,28.5
		s-9.5,28.5-23.1,28.5c-13.6,0-23.1-10.9-23.1-28.5C747.4,49.9,756.9,39.1,770.5,39.1 M770.5,102.9c17.7,0,31.2-12.2,31.2-35.3
		s-13.6-35.3-31.2-35.3c-17.7,0-31.2,12.2-31.2,35.3C739.2,90.7,752.8,102.9,770.5,102.9 M729.7,100.2V7.8l-1.4-1.4h-5.4l-1.4,1.4
		v92.4l1.4,1.4h5.4L729.7,100.2z M680.8,39.1c13.6,0,23.1,10.9,23.1,28.5s-9.5,28.5-23.1,28.5c-13.6,0-23.1-10.9-23.1-28.5
		S667.2,39.1,680.8,39.1 M680.8,102.9c17.7,0,31.2-12.2,31.2-35.3s-13.6-35.3-31.2-35.3s-31.2,12.2-31.2,35.3
		C649.5,90.7,663.1,102.9,680.8,102.9 M641.4,100.2V59.4c0-17.7-9.5-27.2-24.5-27.2c-9.5,0-17.7,4.1-21.7,10.9h-1.4l-1.3-8.2
		l-1.4-1.4h-4.1l-1.4,1.4v65.2l1.4,1.4h5.4l1.3-1.4V63.5c0-15,6.8-24.5,21.7-24.5c10.9,0,17.7,6.8,17.7,20.4v40.8l1.4,1.4h5.4
		L641.4,100.2z M572.1,100.2V59.4c0-17.7-9.5-27.2-24.5-27.2c-9.5,0-17.7,4.1-21.7,10.9h-1.4V7.8l-1.4-1.4h-5.4l-1.4,1.4v92.4
		l1.4,1.4h5.4l1.4-1.4V63.5c0-15,6.8-24.5,21.7-24.5c10.9,0,17.7,6.8,17.7,20.4v40.8l1.4,1.4h5.4L572.1,100.2z M455.3,67.6
		c0-19,9.5-28.5,23.1-28.5s19,8.2,20.4,16.3l1.4,1.4h5.4l1.4-1.4c-1.4-13.6-12.2-23.1-28.5-23.1c-17.7,0-31.2,10.9-31.2,35.3
		c0,24.5,13.6,35.3,31.2,35.3c16.3,0,27.2-9.5,28.5-23.1l-1.4-1.4h-5.4l-1.4,1.4c-1.4,8.2-6.8,16.3-20.4,16.3
		C464.8,96.1,455.3,86.6,455.3,67.6 M440.3,70.3l1.4-1.4v-4.1c0-19-10.9-32.6-29.9-32.6c-19,0-29.9,13.6-29.9,32.6v2.7
		c0,19,9.5,35.3,31.2,35.3c19,0,25.8-12.2,27.2-20.4l-1.4-1.4h-5.4l-1.4,1.4c-2.7,8.2-8.1,13.6-19,13.6c-17.7,0-23.1-16.3-23.1-24.4
		l1.4-1.4H440.3z M432.2,63.5h-40.8l-1.4-1.4c0-9.5,5.4-23.1,21.7-23.1c16.3,0,21.7,13.6,21.7,23.1L432.2,63.5z M395.6,11.9V7.8
		l-1.4-1.4h-70.6l-1.4,1.4v4.1l1.4,1.4h29.9l1.4,1.4v85.6l1.4,1.4h5.4l1.4-1.4V14.6l1.4-1.4h29.9L395.6,11.9z">
  </path>
  <path class="st0" d="M322.2,82.7v18.9h-61.4V6.4h21.6v76.2C282.5,82.6,322.2,82.6,322.2,82.7z M38.5,101.6
		c22.1,0,40.7-15.1,46-35.6l53.8,42l53.8-42v35.6h61.3V82.7h-39.8V6.4h-21.6V42l-51.6,40.3l-11.5-9L153.7,54l26.9-21l-15.3-12
		l-51.6,40.3l-11.5-9L153.7,12L138.4,0L84.6,42c-5.3-20.5-23.9-35.6-46-35.6H0v95.1C0,101.5,38.5,101.5,38.5,101.6z M21.6,82.7V25.4
		h17c14.3,0,25.9,12.8,25.9,28.6s-11.6,28.7-26,28.7H21.6z">
  </path>
 </g>
</svg>