<?xml version="1.0" encoding="UTF-8"?>
<svg version="1.1" xmlns="http://www.w3.org/2000/svg" width="288" height="288">
<path d="M0 0 C95.04 0 190.08 0 288 0 C288 95.04 288 190.08 288 288 C192.96 288 97.92 288 0 288 C0 192.96 0 97.92 0 0 Z " fill="#7AC142" transform="translate(0,0)"/>
<path d="M0 0 C1.6640625 1.3671875 1.6640625 1.3671875 3.9140625 3.5546875 C2.47152593 6.92060616 0.58141523 9.06515829 -2.0859375 11.5546875 C-4.21155095 10.51376924 -6.29078763 9.43793354 -8.34765625 8.265625 C-14.99299986 4.60587055 -20.03117934 3.1272641 -27.4375 5.21875 C-33.87156931 7.69339204 -37.63383435 11.61109894 -41.22265625 17.3828125 C-43.33253399 22.69092121 -42.90305889 29.52595612 -41.43359375 34.97265625 C-38.7150513 41.00478692 -34.12237471 45.1024784 -28.2109375 47.9296875 C-19.59264798 49.6533454 -13.48829817 48.48528088 -6.0859375 43.5546875 C-2.05882708 40.04507959 -0.81431927 36.73983281 0.9140625 31.5546875 C-7.0059375 31.5546875 -14.9259375 31.5546875 -23.0859375 31.5546875 C-23.0859375 28.2546875 -23.0859375 24.9546875 -23.0859375 21.5546875 C-11.5359375 21.5546875 0.0140625 21.5546875 11.9140625 21.5546875 C11.9140625 34.84893163 11.20178686 40.67076908 2.63671875 49.8359375 C-4.11457516 56.57192235 -11.40147351 59.47033824 -20.8359375 59.8046875 C-29.81510938 59.67166273 -37.22461511 56.27891691 -44.0859375 50.5546875 C-51.53649005 42.71456358 -53.66480297 34.66653411 -53.64404297 24.05932617 C-53.29697724 14.99694427 -49.84786787 7.77189105 -43.2109375 1.5546875 C-30.16216808 -8.67474933 -13.87381211 -9.61294097 0 0 Z " fill="#FCFDFA" transform="translate(164.0859375,117.4453125)"/>
<path d="M0 0 C0 16.17 0 32.34 0 49 C-16.17 49 -32.34 49 -49 49 C-45.51759574 44.93719503 -42.22535884 41.10004822 -38.47924805 37.34985352 C-37.64205734 36.50951065 -36.80486664 35.66916779 -35.94230652 34.80335999 C-35.05771255 33.92079025 -34.17311859 33.03822052 -33.26171875 32.12890625 C-32.34034622 31.206577 -31.41897369 30.28424774 -30.46968079 29.33396912 C-28.53405783 27.39688239 -26.5966639 25.46158992 -24.65795898 23.52758789 C-22.16836848 21.04374205 -19.68335917 18.55536843 -17.19961834 16.06567478 C-14.82690356 13.6884958 -12.45040651 11.31511377 -10.07421875 8.94140625 C-9.17950363 8.0446669 -8.28478851 7.14792755 -7.36296082 6.22401428 C-6.54153091 5.40573654 -5.72010101 4.5874588 -4.8737793 3.74438477 C-4.14797165 3.01937271 -3.422164 2.29436066 -2.67436218 1.54737854 C-1 0 -1 0 0 0 Z " fill="#000000" transform="translate(288,239)"/>
<path d="M0 0 C11.55 0 23.1 0 35 0 C35 3.3 35 6.6 35 10 C26.75 10 18.5 10 10 10 C10 15.94 10 21.88 10 28 C17.59 28 25.18 28 33 28 C33 31.3 33 34.6 33 38 C25.41 38 17.82 38 10 38 C10 47.24 10 56.48 10 66 C6.7 66 3.4 66 0 66 C0 44.22 0 22.44 0 0 Z " fill="#FEFEFE" transform="translate(72,111)"/>
<path d="M0 0 C11.55 0 23.1 0 35 0 C35 3.3 35 6.6 35 10 C26.75 10 18.5 10 10 10 C10 15.94 10 21.88 10 28 C17.26 28 24.52 28 32 28 C32 31.3 32 34.6 32 38 C24.74 38 17.48 38 10 38 C10 47.24 10 56.48 10 66 C6.7 66 3.4 66 0 66 C0 44.22 0 22.44 0 0 Z " fill="#FDFEFD" transform="translate(181,111)"/>
</svg>
