<svg fill="none" height="34" width="120" xmlns="http://www.w3.org/2000/svg"><path d="M5.14436 7.82178H0.265625V26.2204H5.14436V7.82178Z" fill="black"></path><path d="M2.70451 0C1.21173 0 0 1.21173 0 2.70451C0 4.1973 1.21173 5.40903 2.70451 5.40903C4.1973 5.40903 5.40903 4.1973 5.40903 2.70451C5.40903 1.21173 4.19995 0 2.70451 0Z" fill="black"></path><path d="M43.7547 21.2175H39.3135C36.9272 21.2175 34.9942 19.2845 34.9942 16.8982C34.9942 14.5119 36.9272 12.5789 39.3135 12.5789H43.6593C44.2983 10.7229 45.3483 9.06041 46.7032 7.7002H39.3718C34.2916 7.7002 30.1738 11.818 30.1738 16.8982C30.1738 21.9784 34.2916 26.0962 39.3718 26.0962H46.9869C45.5631 24.7519 44.4468 23.0894 43.7547 21.2175Z" fill="black"></path><path d="M55.8033 7.44531C50.5904 7.44531 46.3613 11.6718 46.3613 16.8846C46.3613 22.0974 50.5878 26.3265 55.8033 26.3265C61.0187 26.3265 65.2426 22.1001 65.2426 16.8846C65.2426 11.6691 61.0161 7.44531 55.8033 7.44531Z" fill="black"></path><path d="M118.756 7.82178H113.877V26.2204H118.756V7.82178Z" fill="black"></path><path d="M116.318 5.40903C117.811 5.40903 119.022 4.19818 119.022 2.70451C119.022 1.21085 117.811 0 116.318 0C114.824 0 113.613 1.21085 113.613 2.70451C113.613 4.19818 114.824 5.40903 116.318 5.40903Z" fill="black"></path><path d="M25.1841 9.46023C23.9166 8.11858 22.278 7.44775 20.2682 7.44775C17.6989 7.44775 15.8005 8.48979 14.4986 10.5712C14.4986 10.5712 14.4986 10.5686 14.4959 10.5659C13.9232 9.70947 13.4539 8.78941 13.1065 7.82161H9.61719V26.2176H14.4959V15.4155C14.4959 14.0579 14.9758 12.9363 15.8111 12.2098C16.466 11.6424 17.3383 11.3163 18.3697 11.3163C20.6421 11.3163 22.2064 12.9178 22.2064 15.4128V26.215H27.0481V14.7075C27.0481 12.5837 26.4143 10.8337 25.1867 9.45493L25.1841 9.46023Z" fill="black"></path><path d="M107.659 9.46023C106.391 8.11858 104.753 7.44775 102.743 7.44775C100.174 7.44775 98.2751 8.48979 96.9732 10.5712C96.9732 10.5712 96.9732 10.5686 96.9705 10.5659C96.3978 9.70947 95.9285 8.78941 95.5812 7.82161H92.0918V26.2176H96.9705V15.4155C96.9705 14.0579 97.4504 12.9363 98.2857 12.2098C98.9406 11.6424 99.8129 11.3163 100.844 11.3163C103.117 11.3163 104.681 12.9178 104.681 15.4128V26.215H109.523V14.7075C109.523 12.5837 108.889 10.8337 107.661 9.45493L107.659 9.46023Z" fill="black"></path><path d="M84.2542 7.82215V7.81685C84.2542 7.81685 84.2515 7.8195 84.2515 7.82215C83.9015 8.79259 83.4296 9.71796 82.8542 10.577C80.2319 7.16193 76.374 7.44829 76.374 7.44829C73.9531 7.44829 71.9407 8.30472 70.3763 9.98046C68.7748 11.6933 67.9926 13.8543 67.9926 16.4607C67.9926 16.466 67.7778 20.0959 70.3763 22.9409C71.9407 24.6538 73.9531 25.5102 76.374 25.5102C76.5436 25.5102 80.2955 25.7913 82.8542 22.3815V25.2875C82.8542 28.0821 80.8046 30.1291 77.9754 30.1291C75.7774 30.1291 73.8789 28.8988 73.3937 27.1488H68.849C69.1831 29.1242 70.2649 30.7628 72.0149 32.0647C73.7649 33.3692 75.8145 34.0003 78.1611 34.0003C80.9557 34.0003 83.2254 33.1438 85.0523 31.4681C86.8394 29.7552 87.7329 27.5943 87.7329 24.9879V7.82215H84.2542ZM78.2141 21.6205C74.9501 21.944 72.227 19.2209 72.5505 15.9569C72.7891 13.5414 74.7433 11.5873 77.1614 11.3486C80.4254 11.0251 83.1485 13.7456 82.825 17.0122C82.5864 19.4277 80.6322 21.3818 78.2167 21.6205H78.2141Z" fill="black"></path></svg>