<svg width="500" height="150" xmlns="http://www.w3.org/2000/svg">
 <g>
  <title>Layer 1</title>
  <g id="svg_1">
   <g id="svg_2" fill-rule="nonzero" transform="matrix(3.17579, 0, 0, 3.18066, 68.0001, 152.093)">
    <path id="svg_3" d="m41.73759,-18.36642l-6.243,-9.366l0,9.365l-2.775,0l0,-13.579l3.208,0l5.897,8.862l0,-8.862l2.775,0l0,13.58l-2.862,0zm4.515,-4.614c0,-2.757 2.272,-4.856 5.081,-4.856c2.792,0 5.03,2.047 5.03,4.804c0,2.792 -2.272,4.873 -5.064,4.873c-2.81,0 -5.047,-2.029 -5.047,-4.82l0,-0.001zm2.775,-0.034c0,1.404 1.023,2.375 2.289,2.375s2.272,-0.97 2.272,-2.375c0,-1.388 -1.023,-2.36 -2.29,-2.36c-1.265,0 -2.271,0.972 -2.271,2.36zm13.969,-4.614l0,2.654c-0.364,-0.07 -0.746,-0.07 -0.867,-0.07c-1.301,0 -2.203,0.902 -2.203,2.62l0,4.057l-2.653,0l0,-9.26l2.567,0l0,1.352l0.034,0c0.503,-1.058 1.44,-1.457 2.394,-1.457c0.208,0 0.537,0.052 0.728,0.104zm7.814,9.261l0,-1.179l-0.034,0c-0.868,1.266 -2.255,1.353 -2.88,1.353c-2.688,0 -4.405,-2.324 -4.405,-4.821c0,-2.342 1.787,-4.787 4.44,-4.787c0.538,0 1.821,0.104 2.775,1.231l0.035,0l0,-5.914l2.688,0l0,14.118l-2.62,0l0.001,-0.001zm0,-4.647c0,-1.388 -1.023,-2.342 -2.29,-2.342c-1.265,0 -2.288,0.954 -2.288,2.342c0,1.404 1.023,2.375 2.289,2.375s2.29,-0.97 2.29,-2.375l-0.001,0zm48.544,-3.165c0.02,0.001 0.04,0.001 0.06,0.001c0.996,0 1.815,-0.819 1.815,-1.815s-0.819,-1.815 -1.815,-1.815c-0.02,0 -0.04,0 -0.06,0.001c-0.995,0 -1.807,0.813 -1.807,1.814c0,1.002 0.812,1.814 1.807,1.814zm0,-3.29c0.812,0 1.455,0.664 1.455,1.476s-0.643,1.469 -1.455,1.469c-0.806,0 -1.442,-0.657 -1.442,-1.469s0.636,-1.475 1.442,-1.475l0,-0.001zm-0.278,1.767l0.305,0l0.379,0.745l0.467,0l-0.434,-0.84c0.225,-0.101 0.367,-0.329 0.359,-0.575c0,-0.332 -0.203,-0.663 -0.724,-0.663l-0.771,0l0,2.078l0.419,0l0,-0.745zm0.65,-0.663c0,0.122 -0.075,0.277 -0.332,0.277l-0.318,0l0,-0.555l0.318,0c0.278,0 0.332,0.156 0.332,0.278zm-33.207,0.347c0,-3.03 -2.246,-4.582 -5.112,-4.582l-5.313,0l0,14.294l2.958,0l0,-5.038l2.245,0c2.994,0 5.222,-1.515 5.222,-4.674zm-2.977,0.073c0,1.333 -1.204,1.844 -2.373,1.844l-2.117,0l0,-3.705l2.099,0c1.223,0 2.391,0.474 2.391,1.861zm7.248,9.822c1.059,0 2.172,-0.365 2.903,-1.406l0.036,0.018l0,1.205l2.629,0l0,-6.042c0,-2.63 -1.771,-3.925 -4.199,-3.925c-2.044,0 -4.053,0.986 -4.381,3.067l2.501,0.566c0.219,-0.822 0.876,-1.333 1.752,-1.333c1.023,0 1.534,0.584 1.534,1.205c0,0.401 -0.237,0.675 -0.767,0.675l-0.949,0c-1.899,0 -4.29,0.657 -4.29,2.994l0,0.073c0,1.808 1.533,2.903 3.231,2.903zm0.821,-2.081c-0.602,0 -1.186,-0.292 -1.186,-0.986c0,-0.767 0.84,-1.114 1.424,-1.114l1.698,0l0,0.22c0,0.985 -0.676,1.88 -1.936,1.88zm10.771,2.117c2.666,0 3.962,-1.57 3.962,-3.23c0,-2.171 -1.655,-2.858 -3.464,-3.1l-0.551,-0.067c-0.788,-0.113 -1.152,-0.302 -1.152,-0.814c0,-0.438 0.42,-0.803 1.114,-0.803c0.821,0 1.278,0.493 1.424,1.15l2.464,-0.62c-0.2,-1.096 -1.314,-2.72 -3.851,-2.72c-2.063,0 -3.852,1.35 -3.852,3.121c0,2.062 1.463,2.74 3.157,3.029l0.366,0.056c1.022,0.146 1.552,0.329 1.552,0.95c0,0.365 -0.329,0.84 -1.169,0.84c-0.949,0 -1.497,-0.621 -1.624,-1.333l-2.483,0.657c0.164,1.04 1.241,2.884 4.107,2.884zm9.548,0c-2.866,0 -3.943,-1.843 -4.108,-2.884l2.483,-0.657c0.128,0.712 0.676,1.332 1.625,1.332c0.84,0 1.168,-0.474 1.168,-0.84c0,-0.581 -0.465,-0.778 -1.366,-0.92l-0.552,-0.085c-1.694,-0.289 -3.157,-0.967 -3.157,-3.029c0,-1.77 1.789,-3.121 3.852,-3.121c2.538,0 3.651,1.624 3.852,2.72l-2.464,0.62c-0.146,-0.657 -0.603,-1.15 -1.424,-1.15c-0.694,0 -1.114,0.365 -1.114,0.803c0,0.512 0.363,0.701 1.151,0.814l0.364,0.044c1.881,0.22 3.651,0.877 3.651,3.122c0,1.661 -1.296,3.231 -3.961,3.231z" fill="#151922"/>
    <path id="svg_4" d="m-12.28041,-22.44342c-0.006,3.759 1.18,7.425 3.387,10.467l8.541,-13.899l3.079,5.272l-0.846,-3.922l3.633,-6.147l5.873,10.07l-0.838,-3.884l0.826,-1.396l8.546,13.906c2.207,-3.042 3.393,-6.708 3.387,-10.466c0,-9.847 -7.967,-17.83 -17.794,-17.83c-9.827,-0.001 -17.794,7.982 -17.794,17.829z" fill="#43a5a1"/>
   </g>
  </g>
 </g>

</svg>