<svg width="900" height="200" xmlns="http://www.w3.org/2000/svg">
 <g>
  <title>Layer 1</title>
  <g>

   <path fill="#ff5d01" stroke-width="0px" fill-rule="evenodd" d="m40.25496,171.76002c-11.79,-16.27 -18.13,-35.98 -18.13,-56.06c0,-52.76 42.6,-95.46 95.11,-95.46s95.11,42.71 95.11,95.46c0,20.09 -6.34,39.79 -18.13,56.06l-45.65,-74.49l-4.44,7.5l4.44,20.85l-31.32,-53.89l-19.4,32.92l4.56,20.97l-16.48,-28.22l-45.65,74.36l-0.02,0z" class="cls-2"/>
   <path stroke-width="0px" fill-rule="evenodd" fill="#151823" d="m474.37496,130.43002l0.19,0l0,6.38l14.14,0l0,-76.4l-14.51,0l0,32l-0.19,0c-5.15,-6.1 -12.08,-6.66 -14.98,-6.66c-14.33,0 -23.97,13.24 -23.97,25.91c0,13.52 9.27,26.09 23.78,26.09c3.37,0 10.86,-0.47 15.55,-7.32l-0.01,0zm-24.54,-18.78c0,-7.51 5.53,-12.67 12.36,-12.67s12.36,5.07 12.36,12.67s-5.53,12.86 -12.36,12.86s-12.36,-5.35 -12.36,-12.86zm-167.89,25.15l0,-50.68l0,0s33.71,50.69 33.71,50.69l15.45,0l0,-73.49l-14.98,0l0,47.96l-31.84,-47.96l-17.32,0l0,73.49l14.98,0l0,-0.01zm110.77,-25.25c0,-14.92 -12.08,-26 -27.15,-26l0,0c-15.17,0 -27.44,11.17 -27.44,26.28s12.18,26.09 27.25,26.09s27.34,-11.45 27.34,-26.37zm-14.98,0.11c0,7.6 -5.43,12.86 -12.27,12.86s-12.36,-5.35 -12.36,-12.86s5.43,-12.76 12.27,-12.76s12.36,5.16 12.36,12.76zm53.94,-10.61c-1.96,-0.38 -4.03,-0.38 -4.69,-0.38c-7.02,0 -11.89,4.88 -11.89,14.17l0,21.96l-14.33,0l0,-50.12l13.86,0l0,7.32l0.19,0c2.71,-5.73 7.77,-7.88 12.92,-7.88c1.12,0 2.9,0.28 3.94,0.57l0,14.36zm98.13,9.85l-11.52,0l0,25.91l-15.17,0l0,-73.49l27.25,0c14.7,0 26.22,7.98 26.22,23.56s-11.43,24.03 -26.78,24.03l0,-0.01zm-0.75,-33.22l-10.77,0l0,19.05l10.86,0c5.99,0 12.18,-2.63 12.18,-9.48s-5.99,-9.57 -12.27,-9.57l0,0zm58.05,22.99c0.66,0 2.72,0 4.69,0.38l0,-14.36c-1.04,-0.29 -2.81,-0.57 -3.94,-0.57c-5.15,0 -10.2,2.15 -12.92,7.88l-0.19,0l0,-7.32l-13.86,0l0,50.12l14.33,0l0,-21.96c0,-9.29 4.87,-14.17 11.89,-14.17zm33.15,-15.11c15.08,0 27.15,11.07 27.15,26s-12.27,26.37 -27.34,26.37s-27.25,-10.98 -27.25,-26.09s12.27,-26.28 27.44,-26.28l0,0zm-0.09,38.95c6.83,0 12.27,-5.25 12.27,-12.86s-5.53,-12.76 -12.36,-12.76s-12.27,5.25 -12.27,12.76s5.53,12.86 12.36,12.86zm59.64,0.28c-4.86,0 -7.02,-2.53 -7.02,-6.39l0,0l0,-19.06l12.36,0l0,-12.67l-12.36,0l0,-15.68l-14.42,0l0,15.68l-9.93,0l0,12.67l9.74,0l0,19.81c0,8.17 2.63,18.3 18.07,18.3c1.69,0 5.33,-0.09 8.71,-1.12l0,-11.92c-0.47,0.05 -0.87,0.09 -1.22,0.13c-1.59,0.18 -2.16,0.24 -3.93,0.24l0,0.01zm24.82,-9.01c0.94,6.29 6.28,9.86 12.37,9.86c4.21,0 8.9,-2.53 10.58,-6.66l11.98,4.13c-3.27,9.67 -12.54,14.83 -22.38,14.83c-15.17,0 -27.44,-10.7 -27.44,-26.28c0,-14.45 12.08,-26.18 26.5,-26.18s24.91,10.23 24.91,25.06l0,0c0,1.78 0,3.56 -0.19,5.25l-36.34,0l0.01,-0.01zm21.92,-9.67c-0.28,-3.66 -3.37,-8.73 -10.68,-8.73c-6.56,0 -10.3,5.44 -10.87,8.73l21.54,0l0.01,0zm45.97,-20.55c-15.36,0 -27.25,11.45 -27.25,26.28l0,0c0,14.93 11.15,26.1 26.88,26.1c10.77,0 21.81,-5.73 25,-17.27l-13.3,-4.04c-1.4,3.84 -5.15,7.79 -11.52,7.79c-7.21,0 -12.07,-5.35 -12.07,-12.76c0,-7.97 5.71,-12.67 11.98,-12.67s10.11,3.94 11.23,7.7l13.3,-4.04c-2.53,-11.45 -13.86,-17.08 -24.25,-17.08l0,-0.01zm53.38,32.85c0,3.85 2.15,6.39 7.02,6.39c1.77,0 2.34,-0.06 3.93,-0.24l0,0c0.35,-0.04 0.74,-0.08 1.21,-0.13l0,11.92c-3.37,1.03 -7.02,1.12 -8.7,1.12c-15.45,0 -18.08,-10.14 -18.08,-18.3l0,-19.81l-9.74,0l0,-12.67l9.93,0l0,-15.68l14.42,0l0,15.68l12.37,0l0,12.67l-12.37,0l0,19.06l0,0l0.01,-0.01zm23.91,-52.75c-1.52,1.52 -2.41,3.69 -2.41,5.85l-0.02,0c0,1.02 0.13,2.16 0.64,3.18c0.39,1.02 1.02,1.9 1.78,2.67c0.77,0.77 1.65,1.4 2.67,1.78c1.02,0.38 2.03,0.64 3.17,0.64s2.15,-0.26 3.17,-0.64c1.01,-0.39 1.9,-1.02 2.66,-1.78c0.77,-0.77 1.4,-1.65 1.78,-2.67c0.38,-1.02 0.63,-2.03 0.63,-3.18c0,-2.16 -0.88,-4.32 -2.4,-5.85c-1.51,-1.52 -3.68,-2.41 -5.83,-2.41s-4.32,0.89 -5.84,2.41zm-0.37,8.39c-0.38,-0.76 -0.5,-1.65 -0.5,-2.54s0.13,-1.78 0.5,-2.8c0.25,-0.77 0.76,-1.52 1.4,-2.16c0.63,-0.64 1.39,-1.15 2.15,-1.52c0.76,-0.38 1.65,-0.51 2.53,-0.51c1.78,0 3.42,0.76 4.69,2.03c1.14,1.28 1.9,3.05 1.9,4.83c0,1.91 -0.63,3.56 -1.9,4.83c-1.14,1.27 -2.91,2.03 -4.69,2.03c-0.88,0 -1.77,-0.13 -2.53,-0.51c-0.77,-0.38 -1.53,-0.89 -2.15,-1.52c-0.63,-0.64 -1.02,-1.4 -1.4,-2.16zm3.04,2.16l1.77,0l0,-3.43l1.4,0l1.77,3.43l2.16,0l-1.9,-3.82c0.63,-0.13 1.01,-0.51 1.39,-1.02c0.38,-0.51 0.51,-1.02 0.51,-1.65c0,-1.9 -1.65,-2.92 -3.42,-2.92l-3.68,0l0,9.41zm1.9,-7.63l1.65,0c0.76,0 1.52,0.26 1.52,1.15s-0.76,1.15 -1.52,1.15l-1.65,0l0,-2.29l0,-0.01z" class="cls-1"/>
  </g>
 </g>

</svg>