<svg xmlns="http://www.w3.org/2000/svg" width="142" height="32" viewBox="0 0 142 32" fill="none">
<path fill-rule="evenodd" clip-rule="evenodd" d="M139.996 13C138.889 13 138 12.1055 138 11C138 9.90182 138.889 9 139.996 9C141.104 9 142 9.90182 142 11C142 12.1055 141.104 13 139.996 13ZM139.996 9.36364C139.1 9.36364 138.379 10.0909 138.379 11C138.379 11.9091 139.1 12.6364 139.996 12.6364C140.885 12.6364 141.621 11.9091 141.621 11C141.621 10.0909 140.885 9.36364 139.996 9.36364ZM139.698 11.32V12.1418H139.224V9.85818H140.128C140.572 9.85818 140.944 10.0909 140.944 10.5782C140.944 10.92 140.761 11.1309 140.506 11.2327L140.98 12.1418H140.463L140.047 11.32H139.698ZM140.463 10.5927C140.463 10.3673 140.273 10.3091 140.091 10.3091H139.698V10.8764H140.098C140.273 10.8764 140.463 10.8036 140.463 10.5927Z" fill="black"/>
<path fill-rule="evenodd" clip-rule="evenodd" d="M59.1798 24L52.3398 13.74V24H49.2998V9.123H52.8148L59.2748 18.832V9.123H62.3148V24H59.1798ZM64.1258 18.946C64.1258 15.925 66.6148 13.626 69.6928 13.626C72.7518 13.626 75.2028 15.868 75.2028 18.889C75.2028 21.948 72.7138 24.228 69.6548 24.228C66.5768 24.228 64.1258 22.005 64.1258 18.946ZM67.1658 18.908C67.1658 20.447 68.2868 21.511 69.6738 21.511C71.0608 21.511 72.1628 20.447 72.1628 18.908C72.1628 17.388 71.0418 16.324 69.6548 16.324C68.2678 16.324 67.1658 17.388 67.1658 18.908ZM82.4698 13.854V16.761C82.0708 16.685 81.6528 16.685 81.5198 16.685C80.0948 16.685 79.1068 17.673 79.1068 19.554V24H76.1998V13.854H79.0118V15.336H79.0498C79.6008 14.177 80.6268 13.74 81.6718 13.74C81.8998 13.74 82.2608 13.797 82.4698 13.854ZM91.0308 24V22.708H90.9928C90.0428 24.095 88.5228 24.19 87.8388 24.19C84.8938 24.19 83.0128 21.644 83.0128 18.908C83.0128 16.343 84.9698 13.664 87.8768 13.664C88.4658 13.664 89.8718 13.778 90.9168 15.013H90.9548V8.534H93.8998V24H91.0308ZM91.0308 18.908C91.0308 17.388 89.9098 16.343 88.5228 16.343C87.1358 16.343 86.0148 17.388 86.0148 18.908C86.0148 20.447 87.1358 21.511 88.5228 21.511C89.9098 21.511 91.0308 20.447 91.0308 18.908ZM100.199 24L94.8218 9.123H98.1468L102.004 20.428L105.88 9.123H109.148L103.752 24H100.199ZM121.261 13.892C121.261 17.179 118.943 18.756 115.827 18.756H113.49V24H110.412V9.123H115.941C118.924 9.123 121.261 10.738 121.261 13.892ZM118.164 13.968C118.164 12.524 116.948 12.03 115.675 12.03H113.49V15.887H115.694C116.91 15.887 118.164 15.355 118.164 13.968ZM132.69 24L125.85 13.74V24H122.81V9.123H126.325L132.785 18.832V9.123H135.825V24H132.69Z" fill="black"/>
<path fill-rule="evenodd" clip-rule="evenodd" d="M3.80704 32C1.32417 28.5536 -0.00806312 24.4116 3.67167e-05 20.164C3.67167e-05 9.028 8.95404 0 20 0C31.046 0 40 9.028 40 20.164C40.0083 24.4117 38.6761 28.5537 36.193 32L26.587 16.273L25.66 17.853L26.6 22.243L20 10.858L15.917 17.809L16.867 22.245L13.407 16.283L3.80704 32Z" fill="#3E5FFF"/>
</svg>