<svg xmlns="http://www.w3.org/2000/svg" width="100" height="43" fill="none"><path fill="#000" d="M1.733 38.73a8.395 8.395 0 0 1 3.508.874l4.01 1.993a10.577 10.577 0 0 0 9.42-.007l3.957-1.973a8.402 8.402 0 0 1 7.488-.003l2.502 1.245a13.96 13.96 0 0 0 12.38.023l2.632-1.296a8.402 8.402 0 0 1 7.454.016l2.498 1.244A13.96 13.96 0 0 0 70 40.858l2.537-1.258a8.391 8.391 0 0 1 3.034-.844l2.566-5.375a13.958 13.958 0 0 0-8.067 1.325l-2.537 1.258a8.402 8.402 0 0 1-7.473-.007l-2.499-1.244a13.961 13.961 0 0 0-12.385-.027l-2.632 1.297a8.402 8.402 0 0 1-7.451-.015l-2.503-1.245a13.96 13.96 0 0 0-12.439.006l-3.958 1.973a5.019 5.019 0 0 1-4.47.003l-4.009-1.992a13.95 13.95 0 0 0-6.521-1.454l.541 5.471ZM79.427 41.801v-.27c1.088-1.851 4.124-8.527 5.252-11.304l.272-.655-6.727-14.23c-1.44-3.085-1.984-4.203-2.878-5.168v-.23h10.227v.23c-.272.155-.466.695-.466 1.157 0 .887.427 1.813.583 2.276l3.616 8.83h.156l2.994-7.828c.428-1.118.778-2.43.778-3.316 0-.617-.311-1.003-.467-1.118v-.232H100v.232c-.739 1.118-2.1 4.28-3.189 6.864L86.581 41.8h-7.154ZM65.33 28.503v-.232c.74-1.273.973-2.082.973-3.78V7.13c0-1.34-.342-2.606-.856-3.235V3.66c2.033-.146 7.157-2.252 8.663-3.63l.305.148c-.36 1.09-.646 4.504-.646 6.386V24.03c0 1.504.311 2.931.972 4.28v.194h-9.41ZM53.838 28.492v-.231c.739-1.273.972-2.082.972-3.78v-8.638c0-1.31-.272-2.78-.856-3.512v-.232c1.89-.125 6.88-1.977 8.128-3.12l.194.116v14.924c0 1.504.311 2.93.972 4.28v.193h-9.41ZM62.276 6.02C61.075 7.09 56.654 9 54.578 9.25V3.23C56.435 2.773 60.953.881 62.276 0v6.02ZM28.77 23.325c0-3.548 2.878-4.55 7-5.09 3.072-.425 7.7-.887 7.7-2.43 0-1.35-1.906-1.928-4.511-1.928-3.306 0-6.105.925-7.816 1.774v-5.13c2.722-.848 5.521-1.272 9.527-1.272 4.977 0 10.266 1.08 10.266 7.443v6.864c0 1.62.117 3.162.933 4.743v.193h-8.4v-3.355c-1.088 1.774-3.421 3.857-7.349 3.857-4.277 0-7.35-2.237-7.35-5.67Zm7.545-.81c0 1.735 1.127 2.352 2.721 2.352 1.634 0 3.461-.617 4.434-1.504v-4.396c-.934.81-3.111 1.234-4.783 1.466-1.634.27-2.372.925-2.372 2.082ZM12.91 28.955c-5.6 0-9.04-.966-12.346-2.085L0 20.934l.194-.078C3.344 22.707 8.4 23.71 12.25 23.71c4.161 0 5.833-1.003 5.833-2.507 0-1.35-1.905-1.696-3.383-1.928l-6.027-1.002C4.51 17.579 0 16.036 0 10.83c0-6.209 6.533-8.947 13.727-8.947 4.394 0 8.788.656 11.51 2.006L23.1 9.056c-2.956-1.465-6.65-2.16-9.566-2.16-3.695 0-5.134.965-5.134 2.199 0 1.426 1.712 1.735 3.15 1.966l5.483.926c5.639.887 9.644 2.738 9.644 7.52 0 6.748-6.766 9.448-13.766 9.448Z"/></svg>