<svg version="1.1" id="Layer_1" xmlns="http://www.w3.org/2000/svg" xmlns:xlink="http://www.w3.org/1999/xlink" x="0px" y="0px" viewBox="-407.4 110.6 656.5 118.9" style="enable-background:new -407.4 110.6 656.5 118.9;" xml:space="preserve">
 <style type="text/css">
  .st0{fill:#ED1C24;}
 </style>
 <g>
  <g>
   <path class="st0" d="M-149.5,155.2c-14.2,0-25.9,11.7-25.9,25.9s11.7,25.9,25.9,25.9s25.9-11.7,25.9-25.9
			C-123.6,166.9-135.3,155.2-149.5,155.2z M-149.5,192.5c-6.4,0-11.5-5.1-11.5-11.5c0-6.4,5.1-11.5,11.5-11.5s11.5,5.1,11.5,11.5
			C-138.2,187.4-143.1,192.5-149.5,192.5z">
   </path>
   <polygon class="st0" points="-90.8,156.4 -97.7,156.4 -97.7,141.2 -113.1,141.2 -113.1,156.4 -120.3,156.4 -120.3,170.4 
			-113.1,170.4 -113.1,205.7 -97.7,205.7 -97.7,170.4 -90.8,170.4 		">
   </polygon>
   <rect x="-83.6" y="156.4" class="st0" width="15.4" height="49.3">
   </rect>
   <path class="st0" d="M-75.8,132.6c-4.7,0-8.6,3.9-8.6,8.6s3.9,8.6,8.6,8.6c4.7,0,8.6-3.9,8.6-8.6S-71,132.6-75.8,132.6z">
   </path>
   <path class="st0" d="M146,169.7c5.1,0,9.2,4.1,9.2,9.2v26.7h15.4v-29c0-13.1-7.6-21.6-19.5-21.6c-4.9,0-10.1,2.1-14.4,9v-7.8
			h-15.4v49.3h15.4V179C136.8,173.8,140.9,169.7,146,169.7z">
   </path>
   <polygon class="st0" points="226.9,205.7 208,181 225.7,156.4 207.6,156.4 193.5,176.3 193.5,133.8 177.9,133.8 177.9,205.7 
			193.5,205.7 193.5,185.3 209.1,205.7 		">
   </polygon>
   <path class="st0" d="M-228.5,192.5c1-2.7,1.6-5.3,1.6-9c0-4.9-1.6-9.4-4.3-12.5c-3.3-3.7-9-6.6-16.8-8.8c-1.6-0.4-3.1-1-4.3-1.6
			c-1.4-0.6-2.5-1.4-3.3-2.5c-1-1-1.4-2.5-1.4-3.9c0-2.3,1.2-3.9,3.3-5.1c2.5-1.6,7.4-1.6,12.3,0c1.6,0.6,3.3,1.4,4.9,2.3l6.6-13.1
			c-2.5-1.4-6-3.3-9.4-4.3c-3.5-0.8-7-1.2-10.5-1.2c-3.7,0-7,0.6-9.9,1.6c-2.7,1-5.3,2.7-7.6,4.9c-2.1,2.1-3.9,4.9-4.9,7.4
			c-1,2.7-1.6,5.7-1.6,9c0,3.5,1.6,9.2,5.7,13.1c4.5,4.3,9.7,5.7,11.7,6.6c2.1,0.8,4.3,1.4,5.7,2.1c1.4,0.6,3.3,1.4,4.3,2.1
			c1,0.8,1.8,1.4,2.3,2.5c0.4,1,0.6,1.8,0.4,3.1c-0.2,1.6-0.8,3.1-2.3,4.3c-1.2,1.2-3.7,2.1-7.2,2.1c-2.9,0-5.7-0.8-8.6-2.1
			c-2.5-1-4.3-2.1-7-3.7l-7.8,13.6c5.3,4.7,14.2,8,22,8c3.9,0,8.2-0.6,11.7-1.8c3.3-1.2,6.6-2.9,8.8-4.9
			C-231.8,198.1-229.8,195.2-228.5,192.5z">
   </path>
   <path class="st0" d="M-186.2,188.2c-2.1,2.7-5.3,4.3-8.8,4.3c-6.4,0-11.5-5.1-11.5-11.5c0-6.4,5.1-11.5,11.5-11.5
			c3.5,0,6.8,1.6,8.8,4.3l10.3-10.3c-4.7-5.1-11.5-8.4-19.1-8.4c-14.2,0-26.7,10.1-26.7,25.9s12.3,25.9,26.7,25.9
			c7.6,0,14.4-3.3,19.1-8.4L-186.2,188.2z">
   </path>
   <path class="st0" d="M-7.6,205.7v-49.3h-15v5.1l-1.4-1.2c-3.7-3.3-8-5.1-12.9-5.1c-13.3,0-24.6,11.9-24.6,25.9
			c0,14,11.3,25.9,24.6,25.9c4.9,0,9.2-1.8,12.9-5.1l1.4-1.2v5.1C-22.6,205.7-7.6,205.7-7.6,205.7z M-34.7,192.7
			c-6.4,0-11.7-5.1-11.7-11.7c0-6.6,5.1-11.7,11.7-11.7S-23,174.5-23,181C-23,187.6-28.3,192.7-34.7,192.7z">
   </path>
   <path class="st0" d="M113.8,205.7v-49.3h-15v5.1l-1.4-1.2c-3.7-3.3-8-5.1-12.9-5.1c-13.3,0-24.6,11.9-24.6,25.9
			c0,14,11.3,25.9,24.6,25.9c4.9,0,9.2-1.8,12.9-5.1l1.4-1.2v5.1C98.8,205.7,113.8,205.7,113.8,205.7z M86.9,192.7
			c-6.4,0-11.7-5.1-11.7-11.7c0-6.6,5.1-11.7,11.7-11.7s11.7,5.1,11.7,11.7C98.6,187.6,93.2,192.7,86.9,192.7z">
   </path>
   <path class="st0" d="M15.4,205.7v-5.1l1.4,1.2c3.7,3.3,8,5.1,12.9,5.1c13.3,0,24.6-11.9,24.6-25.9s-11.3-25.9-24.6-25.9
			c-4.9,0-9.2,1.8-12.9,5.1l-1.4,1.2v-27.7h-15v71.9H15.4z M15.8,181c0-6.4,5.1-11.7,11.7-11.7s11.7,5.1,11.7,11.7
			c0,6.6-5.1,11.7-11.7,11.7S15.8,187.6,15.8,181z">
   </path>
   <g>
    <path class="st0" d="M233.1,205.7v-7.8h-2.9V196h7.6v1.8h-2.9v7.8h-1H233.1z">
    </path>
    <path class="st0" d="M239.5,205.7V196h1.6l3.3,5.5l3.1-5.5h1.6v9.7h-1.8v-5.5l-2.1,3.7h-1.6l-2.3-3.9v5.5h-1.8V205.7z">
    </path>
   </g>
  </g>
  <g>
   <g>
    <path class="st0" d="M-319.9,132.8h-33.7c-19.3,0-35.1,14.6-37.2,33.3l0,0c-2.9-5.3-4.7-11.5-4.7-18.1
				c0-20.7,16.8-37.4,37.4-37.4h58.1L-319.9,132.8z">
    </path>
    <path class="st0" d="M-387.3,207.3h33.7c19.3,0,35.1-14.6,37.2-33.3l0,0c2.9,5.3,4.7,11.5,4.7,18.1c0,20.5-16.6,37.4-37.4,37.4
				h-58.3L-387.3,207.3z">
    </path>
    <circle class="st0" cx="-353.6" cy="170.2" r="30">
    </circle>
   </g>
  </g>
 </g>
</svg>