<svg width="192" height="33" viewBox="0 0 192 33" fill="none" xmlns="http://www.w3.org/2000/svg">
<path d="M-1.28221e-06 16.6668C-1.66847e-06 21.085 3.58172 24.6668 8 24.6668C12.4183 24.6668 16 21.085 16 16.6668C16 12.2485 12.4183 8.66676 8 8.66676C3.58172 8.66676 -8.95951e-07 12.2485 -1.28221e-06 16.6668ZM176 16.6668C176 21.0851 179.582 24.6668 184 24.6668C188.418 24.6668 192 21.0851 192 16.6668C192 12.2485 188.418 8.66677 184 8.66677C179.582 8.66677 176 12.2485 176 16.6668ZM8 16.6668C6.90672 17.6938 6.90689 17.6939 6.90706 17.6941C6.90713 17.6942 6.90731 17.6944 6.90745 17.6945C6.90772 17.6948 6.90803 17.6952 6.90836 17.6955C6.90902 17.6962 6.90981 17.697 6.91071 17.698C6.91251 17.6999 6.91479 17.7023 6.91754 17.7052C6.92304 17.711 6.93042 17.7188 6.93969 17.7284C6.95822 17.7478 6.98429 17.7747 7.01783 17.809C7.08492 17.8775 7.18196 17.9752 7.30855 18.099C7.5617 18.3466 7.93323 18.6988 8.42003 19.1315C9.39337 19.9967 10.8292 21.1854 12.7029 22.5038L13.566 21.277L14.4292 20.0503C12.6591 18.8047 11.3119 17.6882 10.4132 16.8893C9.96394 16.49 9.62717 16.1704 9.40603 15.9541C9.29547 15.846 9.21386 15.7638 9.16159 15.7104C9.13546 15.6837 9.11667 15.6642 9.10526 15.6523C9.09956 15.6464 9.09571 15.6423 9.09371 15.6402C9.09271 15.6391 9.09217 15.6386 9.0921 15.6385C9.09207 15.6385 9.09215 15.6385 9.09234 15.6388C9.09244 15.6389 9.09257 15.639 9.09272 15.6392C9.0928 15.6392 9.09294 15.6394 9.09298 15.6394C9.09313 15.6396 9.09328 15.6398 8 16.6668ZM26.3548 27.9577L25.8386 29.366C30.0334 30.9035 34.8763 32.1185 40.3125 32.6043L40.446 31.1103L40.5795 29.6162C35.4298 29.156 30.8439 28.0054 26.8709 26.5493L26.3548 27.9577ZM54.8884 30.5795L55.1238 32.0609C59.6116 31.3478 64.36 30.1081 69.3495 28.2055L68.8151 26.8039L68.2806 25.4024C63.4791 27.2333 58.9309 28.4184 54.653 29.0981L54.8884 30.5795ZM81.8413 20.5302L82.5948 21.8272C84.644 20.6368 86.7254 19.334 88.8379 17.9112L88 16.6671L87.1621 15.4229C85.103 16.8097 83.0779 18.0771 81.0879 19.2332L81.8413 20.5302ZM88 16.6671L88.8379 17.9112C91.2275 16.3019 93.6107 14.853 95.982 13.5524L95.2607 12.2373L94.5394 10.9221C92.0873 12.2669 89.6264 13.7633 87.1621 15.4229L88 16.6671ZM110.824 5.60039L111.269 7.03296C116.86 5.29728 122.321 4.28101 127.576 3.81353L127.443 2.31943L127.31 0.825332C121.855 1.31068 116.184 2.366 110.38 4.16782L110.824 5.60039ZM144.383 2.56284L144.212 4.053C150.164 4.73825 155.651 6.00042 160.517 7.49616L160.958 6.06237L161.399 4.62858C156.382 3.08644 150.713 1.78171 144.555 1.07268L144.383 2.56284ZM176.687 12.4281L176.005 13.7641C178.305 14.9383 180.1 15.9788 181.314 16.722C181.921 17.0936 182.383 17.3908 182.69 17.593C182.844 17.6941 182.959 17.7715 183.034 17.8226C183.071 17.8482 183.099 17.8671 183.116 17.8792C183.125 17.8852 183.131 17.8895 183.135 17.8921C183.137 17.8934 183.138 17.8942 183.138 17.8946C183.139 17.8948 183.139 17.8949 183.139 17.8948C183.139 17.8948 183.139 17.8948 183.138 17.8947C183.138 17.8947 183.138 17.8946 183.138 17.8946C183.138 17.8945 183.138 17.8944 184 16.6668C184.862 15.4392 184.862 15.4391 184.862 15.4389C184.862 15.4389 184.861 15.4388 184.861 15.4387C184.861 15.4385 184.861 15.4383 184.86 15.438C184.86 15.4376 184.859 15.437 184.858 15.4363C184.856 15.4349 184.853 15.433 184.85 15.4307C184.843 15.4261 184.834 15.4197 184.822 15.4116C184.799 15.3954 184.765 15.3723 184.722 15.3425C184.634 15.283 184.506 15.1971 184.34 15.0874C184.006 14.8679 183.517 14.553 182.88 14.1633C181.607 13.3841 179.745 12.3052 177.37 11.0922L176.687 12.4281Z" fill="#9EB3C4"/>
</svg>
